/* XPM */
static char *result[] = {
/* columns rows colors chars-per-pixel */
"64 64 130 2 ",
"   c #010101",
".  c #0C0103",
"X  c #030906",
"o  c #0A0907",
"O  c #030C09",
"+  c #0B0B0A",
"@  c #130305",
"#  c #180407",
"$  c #1D050A",
"%  c #1E0F0E",
"&  c #06140B",
"*  c #1C100F",
"=  c #081714",
"-  c #071810",
";  c #0C1D13",
":  c #131313",
">  c #151B1A",
",  c #181A1A",
"<  c #25060B",
"1  c #2B070D",
"2  c #2E080E",
"3  c #34090F",
"4  c #2D0D11",
"5  c #390710",
"6  c #350A11",
"7  c #3B0911",
"8  c #2D1214",
"9  c #201C17",
"0  c #231718",
"q  c #2B1C19",
"w  c #331215",
"e  c #3A1217",
"r  c #361719",
"t  c #3C1519",
"y  c #321C1B",
"u  c #391B1A",
"i  c #0B2215",
"p  c #0B2618",
"a  c #0E2E1E",
"s  c #152317",
"d  c #142419",
"f  c #112E1F",
"g  c #0F341F",
"h  c #10341F",
"j  c #103A1E",
"k  c #26251D",
"l  c #2A231D",
"z  c #232A1E",
"x  c #292C1E",
"c  c #32201D",
"v  c #24321F",
"b  c #0F2D23",
"n  c #1E2322",
"m  c #1D2F22",
"M  c #0F3220",
"N  c #103724",
"B  c #1C3626",
"V  c #113A25",
"C  c #1D3B26",
"Z  c #143E2B",
"A  c #1A3D29",
"S  c #143D34",
"D  c gray14",
"F  c #232C21",
"G  c #2B2C2C",
"H  c #203525",
"J  c #2D3231",
"K  c #430B14",
"L  c #4B0C16",
"P  c #4D0D18",
"I  c #580513",
"U  c #510D17",
"Y  c #530D18",
"T  c #5B0E1B",
"R  c #441319",
"E  c #4D131B",
"W  c #54131B",
"Q  c #5B121E",
"!  c #59191D",
"~  c #620F1D",
"^  c #680F1F",
"/  c #7E0515",
"(  c #7F0919",
")  c #63101D",
"_  c #6A111F",
"`  c #671421",
"'  c #6D1121",
"]  c #731222",
"[  c #7C1324",
"{  c #7F1728",
"}  c #15472E",
"|  c #18422B",
" . c #164B2D",
".. c #194D29",
"X. c #17522B",
"o. c #18572B",
"O. c #175A2A",
"+. c #185B2A",
"@. c #154331",
"#. c #164830",
"$. c #50504F",
"%. c #555354",
"&. c gray40",
"*. c #7B6D70",
"=. c #800514",
"-. c #831426",
";. c #891527",
":. c #861528",
">. c #8B1629",
",. c #811829",
"<. c #8C182B",
"1. c #921022",
"2. c #91172B",
"3. c #94182D",
"4. c #9A192E",
"5. c #9E1A30",
"6. c #A11B2F",
"7. c #A21B32",
"8. c #AA1C34",
"9. c #B21E36",
"0. c #8B8B8B",
"q. c #8A908F",
"w. c #929292",
"e. c #A7999C",
"r. c #AA9B9E",
"t. c #B5B8B8",
"y. c #B9B9B9",
"u. c #F7F7F7",
"i. c #F7FAF9",
"p. c #FEFEFE",
/* pixels */
"} }  .O.X.} @.} } @.@.@. .X.} } }  .X.X. . .} @.} @.} } } } } } } } } } } } } } } } }  .} } O.X.} @.} } #.@.@.X. .} } }  .X.X. .",
" . . ...X.#.S } } } } S  . .} } }  .X. .} } } } } } } } } } } } } } } } } } } } }  . . . . . .X.#.S } } } #.S  .} } } }  .X.X.} ",
"+.O.X.} X.#.@.} } } } } } } } } } } } } } } } } } } } } } } } } } } } } } } } } #. .O.O.O. .} X.#.@.} } } } } } } } } } } } } } ",
"#. .X.X.} } #.X.X.X.X.} } } } } } } } } } } } } } } } } } } } } } } } } } } #. .#.#.@.#.X.X.X. .#.}  .X.X. .} } } } } } } } } } ",
" . . .o.} } } X.X. .#.} } } } } } } } }  . .} } } } } }  .X. .} } } X. . .} } } X.X. . . . .X.} } } X.X. .#.#.} } } } }  .} }  .",
"o.X.} X.} } } X.X.#.@.} #.} } } } } } } X. .} } } } } } } X.X. .}  .X.#.} } } } X.O.+.O.X.} X.} } } X.X.#.@.} #.} } } }  .}  . .",
"o.X. .} } } } } }  .X.X.@.S } } } } } } } } } } } } } } @.@.X.X. . .X.@.@.} } } }  .+.X.X.X.} } } } } } } X.X.S S  .}  .} } } } ",
"o.X.X.} } } } }  .o. .@.@.#.} } } } } } } } } } } } } } @.@.@.X.X.X.} }  .X.X. .S #.O.X.X. .} } } } }  .X. .@.#.} } } } } } } } ",
"#.}  .X.X.} @.}  . . .@.#.} } } } } } } } } } } } } } } } } @.}  .} } X.X.X.#.} @.@.@.#.}  .X.X.} @.}  . .} @.} } } } } } } } } ",
"S #.} X.X.#.S } } } } } } } } } } } } } } } l 5 7 7 7 7 7 7 7 7 w A @.X.X.#.S @.} } S S #. .X.X.@.@.} } } } } } } } } } } } } } ",
"} } } X.} } } } } } } } } } } } } } } } } } y K K K K L L K L K K B } } } } } } } } } } }  .X.} } } } } } } } } } } } } } } } } ",
"} } } } } } } } } } } } } } } } } } } } } F R ^ [ [ [ [ [ -.-.-.] c B } } } } } } } } } } } } } } } } } } } } } } } } } } } } } ",
"} } } } } } } } } } } } } } } } } } } A F K ] 4.8.9.9.4.3.3.4.4.<.) y C } #.} } } } } } } } } } } } } } } } } } } } } } } } } } ",
"} } } } } } } } } } } } } } } } } } | z K ] 3.7.7.8.3.E 7 7 K 7 W 5.' y B } } } } } } } } } } } } } } } } } } } } } } } } } }  .",
"} } } } } } } } } } } } } } } } } | l R ] 2.6.8.9.2.Y $ . @ @ . $ ~ <.] y B } #.} } } } } } } } } } } }  . .} } } }  .} } } } } ",
"} } } } } } #.S  .o.X.} } } } X.} C 8 Q 2.7.8.6.<.Y @             . I ;.` y C | } } } } } } } } } @.@. .X. .} } }  . . .} } } } ",
"} } } } } } } @.} X.o. .} } }  .#.B 6 Q 2.6.9.3.U @   + X         O % ) 2.] q A } } } } } } } } } } @.} X.X. .} }  . .} } } } X.",
"} } } } } } } } }  . .X. .} } } D y Q [ ;.6.9.2.5   > w.$.+     > q.%.W 1.,.4 C } } } } } } } } } } } } } X.X.} } } } } } } } X.",
"} } } } } } } } } } } } } } } } 7 L [ >.>.3.8.3.7   J p.w.:     J p.r.) / { 8 A } }  .} } } } } } } } } } } } } } } } } } } } } ",
"} } } } } } } } } } } } } } } } 7 L [ >.-.-.7.3.K   J u.0.:     G i.w.! ( { 8 A } } } } } } } } } } } } } } } } } } } } } } } } ",
"} } } } } } } } } } } } }  .X.#.7 U ] ' Q ] 6.3.K   J u.0.:     G p.e.! =.-.8 A } } } } #.#.} } } } } } } } } }  .X.} } } } } } ",
"} } } } } } } } } }  . .} X.O.@.7 Y [ T 7 ] 8.4.7   n y.&.+     D t.*.W ( [ 8 A } #.} } #.} } } } } } }  . .} } X.O.@.} } } } } ",
"} } } } } } } } } X.O.X.}  .X.@.7 U ( Q 7 ] 7.3.L . X D ,       + D 0 L [ ' 8 Z } } } } } } } } } } } } X.O.o.#.X. .S @.#.#.} } ",
"} } } } } } } } } @.@.X.X.X.} } F c Y K L [ 3.3.[ K .                 L -.` 4 V } } } } } } } } } } } } @.#.X.X. .} @.} } #.#. .",
"} } } } } } } X.X.X.#. .X. .} } } A q q t ` [ 3.7.-.7 @             1 T ] W l A } } } } } } } } @. .X.X. .#. .X. .} } } #.} } } ",
"} } } } } } } O.+.O.X.} X. .} } } } | A B r Q -.>.;.] 7 @       . < ) ' E k | } } }  .} } } } } } X.O.O.O.X.} X. .} } } } } } } ",
" .} } } } } #.#.O.O.O.X.} } } } } } } } #.B u P Y ' >.] 5 # @ # < T ^ E z | @.} }  .X.} } } } } } } } O.O.O.X.} } } } } } } } } ",
" .} } } } X.O.X. .X.O.X.X. .} }  .o.o.} #.| l 7 K ~ >.2.] Y L Y T <.' t B } } } } }  .} } } } } X.O.X. .X.O.X.X. .} } X.X.O.} } ",
"} } } } @.#. .o.X. . .X.X.X.} } X.X.X.} A q Y [ ] [ ;.5.5.4.3.3.4.7.3.` e m } } } } } } } } @.@.}  .X.X. .X.X.X. .} @.X.X.X.} } ",
"} } } } @.S S  .X. .} X.X. .} }  . .| H l T -.5.4.3.3.5.7.8.8.8.8.7.7.2._ R F A } } } } } } } @.S @. . . .} X.X. .} } X. .} } } ",
"} } } } } @.S S @.} } } X.X.} } } } } k K [ 4.7.7.7.7.7.7.7.7.7.7.7.8.7.;.T w C } } } } } } } } @.S @.@.} } } X. .} } } } } } } ",
"} } } } } @.} X.X. .} } } } } } } } | l K [ 4.7.8.7.7.7.7.7.5.7.7.7.7.7.<.T 8 A } } } } } } } } @.#.o.X. .} }  .} } } } } } } } ",
"} } } } } }  .X.X. .} } } } } } } } | k L :.5.7.7.5.5.7.7.7.6.7.7.5.7.7.3.) 8 | } } } } } } } } } ..X.X. .} } } } } } } } } } } ",
"} }  .} } } } } } } } } } } } } } #.| k E 5.8.7.7.7.7.7.6.7.7.7.7.7.7.8.8.[ 6 B | } } } } } } } } } } } } } } } } } } } } } } } ",
"} } } } } } } } } } } } }  .o.} } } | k L 3.8.7.7.5.7.5.7.7.6.7.5.7.7.7.7.2.' t z } } } } } } } } } } } } } } } X.X.} } } } } } ",
" .} } } } } } } } } } } } }  .} } } | D L ,.5.7.7.7.7.7.7.4.<.3.7.7.7.7.7.3.] 7 z .... .} } } } } } } } } } } } } } } } } } } } ",
"X.} } } } } } } } } } } } } } } } } } k K ] 3.7.7.7.7.5.7.4.<.3.7.7.7.7.7.4.-.U l | X.X. .} } } } } } } } } } } } } } } } } } } ",
"X. .} } } } } } } } } } } } } } } } | k K [ 5.7.7.7.7.7.7.7.4.2.>.5.7.7.7.7.4.[ W q H X. .} } } } } } } } } } } } } } } } } #. .",
" .X.} } } } } } } } } } } } } } } } | k L ] 4.7.7.7.7.7.7.7.4.' T -.5.8.7.4.3.2.[ T y x  .} } } } } } } } } } } } } } } } }  .X.",
"}  .} } } } } } } } } } } } } } } } | k K ] 3.5.7.5.4.5.7.4.-.U 5 ] 2.7.7.2.[ [ <.[ L 7 } } } } } } } } } } } } } } } } } } } X.",
"} } } } } } } } } }  . .} } } } } } S k K [ -.;.4.3.;.7.3.<.-.T K [ -.2.5.3.[ -.;.[ L 7 } } } } } } } }  . . .} } } } } } @.}  .",
"} } }  .} } } } } } X.o. .} } } } @.Z q L -.;.-.<.3.3.2.<.>.^ 3 # P ' :.2.2.;.;.<.[ L 7 } } } } } } } }  .X.X. .} } } } @.S } } ",
"} }  .+. .} }  .} @.@.X.o. .} } } } } v u ` [ -.;.2.3.:.-.^ 6 . . 2 ^ ;.;.] ] -.;.' e r } X.+.} } } } } @.@.X.X. .} } }  . .X.X.",
"} } } X.o.} @.} } @.@.@. .X.} } } } X...H e ^ -.:.:.;.:.^ 5 .     < ) ;.;.T L [ ' e F C } } O.X.} S } } } @.@.X. . .} }  .X.X. .",
"X.X. . .X.#.S } } } } @. . .} } } }  ...| 8 ) [ ` ' :.>.~ <       @ 5 _ -.[ T T t m X.X. . .X.X.@.S } } } } S  . .} } }  . . . .",
"O.O.X. . .#.@.} } } } } } } } } } } } } B w ~ ` e L -.[ T 2 o O X   @ K ] -.] t F } o.+.O.X.} X.@.@.} }  .} } } } } } }  .} } } ",
"#. .X.X.} } } X.o.X.X.} } } } } } } } } C w 7 y m k 6 3 3 % i a p   # 3 K L t H } @.S #. .X.X.} }  .X.X.X.X.} } } } } } } } } } ",
"X. . .X.} } } X.o.#.@.} } } } } } } } } } F 9 d h f ; @ % s g g f i + @ # * f | X.O.X. . . .X.} }  .X.X.} @.} } } } } } } }  . .",
"X.X. . .} } }  .X.} #.} #.@.} } } } } } V M g b g a i O ; N j h g g ; X   - a N X.O.O.X.X.} X.} } } X. .#.@. .@.} } } } } } }  .",
"X.X.X.} } } } } }  .X.X.@.@.} } } } } V M M M M a - X i b b h j g g g =   & M a N X.O.X.X.X.} } } } } } X.X.X.S @.} } } } } } } ",
"X.X.X.} } } } } X.X.X.S #.} } } } } } M M M M M a &   p M b b N j g g i O & j g b @.X.X.X. .@.} } } } X.X.X.S @.} } } } } } } } ",
"@.#. .X.X.#.@.} }  .} #.#.} } } } } } M M M M M M M M M g M b M g g g j j g b b N @.@.@.}  .X.X.@.@.}  . .} @.#.} } } } } } } } ",
"S @. .X.X.} @.} } } } } } } } } } } } } M a M M M M M M M M M M M M M g j M b N @.@.@.@.@. .X.X.} @.} } } } } } #.#.} } } } } } ",
"} } } X.} } } } } } } } } } } } } } } }  .} N M M M M M M M M M M g M M a N } } } } } @.} X.X.} } } } } } } } } #.}  .} } } } } ",
"} } } } } } } } } } } } } } } } }  .} } } } } } Z N N M j j M M M N N Z } } } } } } } } } } } } } } } } } } } } #.} } } } } } } ",
"} } } } } } } } } } } } } } } } } } } } } } } O.O.X. .} o.O. .#.#.} } } } } } } } } } } } } } } } } } } } } } } } } } } } } } } ",
"} } } } } } } } } } } } } } } } } } } } } } } #.+.+.X. . .X.X.S @.} } } } } } } } } } } } } } } } } } } } } } } } } } } } } } } ",
"} } } } } } } } }  . .} } } } } }  .} } } } @.S X.+.X.X. .}  .@.#.} } } } } } } } } } } } } } } } } @.} } } } } } } } } } } } } ",
"} } } } } } } S  .X.X.} } } } X. . .} }  .@.S S #.} X.X. .} } X.X.X.X.} } } } } } } } } } } } } } @.S X.X.X.} } }  .X.} } } } } ",
"} } } } } } } @.}  .X.X. .}  . .} } } } X.X.X. .} } } o. .} X.X.X. .@.S #.} } } } } } } } } } } } } @.} X.X.X.} } }  .} } } } O.",
"} } } } } } } } }  . . .} } } } } } } } X.O.+.X.X.} } X.}  .X.X.#.@.S S #.} } } } } } } }  .} } } } } }  .X. .} } } } } } } } X.",
"} } } } } } } } }  . .} } } } } } } } } } X.+.X.X. .} } } } X.X.#.S S #.} } } } } } } } } } } } } } } } } } } } } } } } } } } } ",
"} } } } } } } } } } } } }  .} } } } } } } }  .X.X.X.} } } } } #. .X. .@.S S } } } } } } } } } } } } } } } } } } } } } } } } } } ",
"} } } } } } } } } } } } }  .X.} } } } } } } }  .}  .}  .X. .} X.X. .@.S S #.} } } } } } } } } } } } } } } } } } X.X.} } } } } } "
};
