/* XPM */
static char *xpm_[] = {
/* columns rows colors chars-per-pixel */
"32 32 66 1 ",
"  c #6AA241",
". c #89AF32",
"X c #AC9888",
"o c #A8C029",
"O c #528D52",
"+ c #A1786C",
"@ c #AC8E74",
"# c #3F824F",
"$ c #8F8D6F",
"% c #4A3C21",
"& c #3A0911",
"* c #6F7827",
"= c #5A6F31",
"- c #510D18",
"; c #420A13",
": c #781324",
"> c #9A192F",
", c #A11B31",
"< c #731323",
"1 c #871629",
"2 c #65101E",
"3 c #5C0F1C",
"4 c #778A2B",
"5 c #881628",
"6 c #8C162A",
"7 c #6E2225",
"8 c #666523",
"9 c #811426",
"0 c #130306",
"q c #7F1526",
"w c #54401C",
"e c #520D18",
"r c #96192D",
"t c black",
"y c #574E28",
"u c #6C1120",
"i c #8F172B",
"p c #701222",
"a c #69101F",
"s c #8E172B",
"d c #610F1D",
"f c #711221",
"g c #1A0408",
"h c #4F2924",
"j c #9D1A30",
"k c #5A0E1A",
"l c #530D18",
"z c #27060B",
"x c #5F8036",
"c c #5B301D",
"v c #5F4619",
"b c #233616",
"n c #28060C",
"m c #62341B",
"M c #9CAC26",
"N c #476C2B",
"B c #627623",
"V c #838321",
"C c #70792A",
"Z c #798B2E",
"A c #6BA242",
"S c #6CA344",
"D c #5E955E",
"F c #76A950",
"G c #AF9B8C",
"H c #6BA342",
/* pixels */
"  ..X.oo.. ..o.   ..X.oo.. ..o. ",
"o. . ..  .o. .  o. . ..  .o. .  ",
" .. O +@. . . .. .. O +@. . . ..",
".  .. .  #  X O .  .. .  #  X O ",
" ..$ . #.oo. ..  ..$ . #.oo. .. ",
"o.  .o.  .  .o.oo.  .o.  .  .o.o",
".O.  ..o. .  .  .O.  ..o. .  .  ",
"X.o... O .O . .XX.o... O .O . .X",
".o. . .o. ..o.. .o. . .o. ..o.. ",
" ..oo.  O  . . . ..oo.  O  . . .",
". .. .. ... .oo.. .. .. ... .oo.",
"  O X ..X O.O .   O X ..X O.O . ",
"..o. .   .o ..$%&&&&&*   .o ..$ ",
"o. ..o.o.  .=-;:>,,,,<*o.  .   .",
"  .o.. . O  &12>,,,,,,34 O  . ..",
"@.    . . ..&56,,,3333,78 .. . +",
"  ..X.oo.. 8&96,,300003qw. ..o. ",
"o. . ..  *&q,e9r3ttttt&q%.o. .  ",
" .. O $@*3,,,qer3ttttt&:w . . ..",
".  .. . yu,,,qeip0tttt&a%#  X O ",
" ..$ . Oe6,,,sdf5agttgah4oo. .. ",
"o.  .o. e6,,,j1ke9lzzlex .  .o.o",
".O.  ..&96,,,,,,,,,r9e.o. .  .  ",
"X.o... &95j,rj>,,,,sc4 O .O . .X",
".o. . .vf9ir6i5rr,r:* .o. ..o.. ",
" ..oo. bneee3eeee3emM.  O  . . .",
". .. ..NB**=*VV**=CZA.. ... .oo.",
"  O X ..X O.O .  SDFGH..X O.O . ",
"..o. .   .o ..$ ..o. .   .o ..$ ",
"o. ..o.o.  .   .o. ..o.o.  .   .",
"  .o.. . O  . ..  .o.. . O  . ..",
"$.    . . .. . $@.    . . .. . $"
};
