/* XPM */
static char *result[] = {
/* columns rows colors chars-per-pixel */
"64 64 94 2 ",
"   c #000000",
".  c #0A0304",
"X  c #0C0A08",
"o  c #150306",
"O  c #190407",
"+  c #1E0409",
"@  c #07170F",
"#  c #270100",
"$  c #24050A",
"%  c #2D070D",
"&  c #3A0000",
"*  c #32080F",
"=  c #2D0F12",
"-  c #340A11",
";  c #3B0911",
":  c #251514",
">  c #2A1414",
",  c #241816",
"<  c #2C1917",
"1  c #271C19",
"2  c #291B19",
"3  c #321215",
"4  c #0E2C1C",
"5  c #152518",
"6  c #152C1E",
"7  c #1E291D",
"8  c #0F351F",
"9  c #0F381F",
"0  c #13311D",
"q  c #103B1E",
"w  c #2C231D",
"e  c #0F2E23",
"r  c #152A20",
"t  c #0F3220",
"y  c #113523",
"u  c #1C3624",
"i  c #123B24",
"p  c #1C3C29",
"a  c #143D34",
"s  c #222C21",
"d  c #392925",
"f  c #213224",
"g  c #223822",
"h  c #420000",
"j  c #500006",
"k  c #58000C",
"l  c #430A14",
"z  c #4C0C16",
"x  c #510D17",
"c  c #540D19",
"v  c #5B0E1B",
"b  c #44161B",
"n  c #4A161C",
"m  c #56121C",
"M  c #5D141F",
"N  c #620F1D",
"B  c #6C0F1E",
"V  c #63101D",
"C  c #69111F",
"Z  c #6D1221",
"A  c #721222",
"S  c #7C1425",
"D  c #422B2C",
"F  c #472D31",
"G  c #473131",
"H  c #5C353A",
"J  c #11411D",
"K  c #134724",
"L  c #154E26",
"P  c #15472E",
"I  c #19422C",
"U  c #164B2D",
"Y  c #17522B",
"T  c #18572B",
"R  c #175A2A",
"E  c #185C29",
"W  c #154331",
"Q  c #164830",
"!  c #284835",
"~  c #2E4B3D",
"^  c #31513D",
"/  c #4E5850",
"(  c #821426",
")  c #861628",
"_  c #8B1629",
"`  c #8F182B",
"'  c #91172B",
"]  c #95182D",
"[  c #9B192F",
"{  c #9E1A30",
"}  c #A31B31",
"|  c #AA1D34",
" . c #B21E36",
".. c #B81F39",
/* pixels */
"P P U R Y P W P P P W W U Y P P P U Y T U P P W W P P P P P P P P P P P P P P U P P P P P U T Y P W P P W W W Y U P P P U Y Y U ",
"U U U U T Q a P P P W W U U P P P U Y U P P P P P P P P P P P P P P P P P P P P P U Y U U U Y Y W a P P P W W U U P P P U Y Y P ",
"E T Y P Y Q a P P P P P P P P P P P P P P P P P P P P P P P P P P P P P P P P P P U E R R U U Y W a P P P P P P P P P P P P P P ",
"P Y Y Y P P P Y U Y Y P P P P P P P P P P P P P P P P P P P P P P P P P P P P P W W W Q U T Y P P P Y Y Y Y P P P P P P P P P P ",
"U U Y Y P P P T T Q Q P P P P P P P P P U U P P P P P P U Y U P P P U Y U P P P Y T Q U U Y T P P P Y Y U W P P P P P P P P P U ",
"T Y P U P P P Y Y Q W P Q P P P P P P P U Y P P P P P P P Y Y P P P T Q P P P P Y R E R U U U P P P Y Y Q W U W P P P P P P P Y ",
"T Y Y P P P P P P P Y Y W W P P P P P P Q P P P P P P P W W T T U U Y W W P P P P U E Y Y Y P P P P P P U Y Y a W P P P P P P P ",
"Y Y Y P P P P P U T Y a W W P P P P P P P P P P P P P P W W W U Y Y P P U Y Y U W W R Y Y U P P P P P Y T U W W W P P P P P P P ",
"W P U U Y P W P U U U W P P P P P P P P P P P P P P P P P I W U U P P Y T U W P W W W W U U Y U W W P U U P W Q P P P P P P P P ",
"W W U Y Y Q a P P P P P P P P P P P P P P P P P P P P P P P P P P P P U Y P W W P P a W W U T Y W W P P P P P P P P P P P P P P ",
"P P P T P P P P P P P P P P P P P P P P P P P P P P P P P P P P P P P P P P P P P P P P P U Y U P P P P P P P P P P P P P P P P ",
"P P P P P P P P P P P P P P P P P P P P P P U P P P P Q T T P U P P P P P P P P P P P P P P P P P P P P P P P P P P P P P P P P ",
"P P P P P P P P P P P P P P P P P P P P P P P Y Y Y U P Y Y U W Q P P P P P P P P P P P P P P P P P P P P P P P P P P P P P P P ",
"P P P P P P P P P P P P P P P P P P P P P P P Y R T T U U Y Y a W P P P P P P P P P P P P P P P P P P P P P P P P P P P P P P P ",
"P P P P P P P P P P P P P P P P P P P P P P W a Y E Y Y U U Y W W P P P P P P P P P P P P P P P P W P P P P P P P P P P P P P P ",
"P P P P P P Q a U T Y P P P P Y P P P P P Q a a Q U Y Y U P Q U Y Y Y P P P P P P P P P P P P P P W W Y Y Y P P P U Y U P P P U ",
"P P P P P P P W P Y Y U P P P U P P P P T T Q Q P P U Y P P Y Y T U W W Q P P P P P P P P P P P P P W Q Y Y U P P P U P P P P T ",
"P P P P P P P P P U Y Y U P P P P P P P Y R E Y Y P P Y U U Y Y U Q a a W P P P P P P P P P P P P P P P U Y Y P P P P P P P P T ",
"P P P P P P P P P P P P P P P P P P P P P Y E R Y U P P P U Y Y Q a a Q P P P P P P P P P P P P P P P P P P P P P P P P P P P P ",
"P P P P P P P P P P P P P P P P P P P P P P U Y Y Y P P P P U P U U U a a W P P P P P P P P P P P P P P P P P P P P P P P P P P ",
"P P P P P P P P P P P P P U Y P P P P P P P P U P U P U Y U P U Y Y Q a a P P P P P P P P P P P P P P P P P P P U Y P P P P P P ",
"P P P P P P P P P P U U P Y R P P P P P P P P P P P P Y Y U P U Y Q a a Q U P P P P P P P P P P P P P P U U P P T R P P P P P P ",
"P P P P P P P P P Y E Y P U Y a W P P P P P P P P a W Y U P P P P P P P P P P P P P P P P P P P P P P P T R T P U U a W P P P P ",
"P P P P P P P P P W Q Y Y U P P P P P P P P P P P Q Q P P P P P P P P P P P P P P P P P P P P P P P P P W W Y Y U P W P P P P P ",
"P P P P P P P Y T Y W U Y Y P P P P P P P P P P P P P P I p 3 ; ; ; ; ; ; ; ; ; w Q P P P P P P P P T T U P U Y U P P P P P P P ",
"P P P P P P P R E R T U U U P P P P P P P P P P P u s s s w x N Z Z V Z V Z C Z n s P P P P P P P U R R R Y U Y U P P P P P P P ",
"U P P P P P P Q R R R Y U P P P P W P P P P P P I d l ; * x S { } | | | | | |  .( ; g I P P P P P P P R R R Y P P P P P P W P P ",
"U P P P W Y R Y U Y Y Y Y U P P U T R U P P P p , Z S ; l S ] } } } } } } } } } { ) b r P P P P Y R Y Q Y R Y U U P P Y R R P P ",
"Q P P P W Q U T Y U U Y Y Y P P Y Y Y P P P P u * ) | v B } } | } { } } | | | }  . .S b u p Q W Q U T Q U Y Y T P P P Y T Y P P ",
"P P P P W a a U Y U P Y Y U P P Y U P P P P P u - S } ) ' } } { } } } { [ [ { [ { {  .( ; u I W a a U T U P Y Y U P P Y P W P P ",
"P P P P W W a a W P P P Y U U P P P P P P P P I = B _ ( ] } } { }  .) c c v v v x v { | ) n < P W a W W P P P Y U P P P P P P P ",
"P P P P P P W T Y U P P U P P P P P P P P P p 7 = N ) ( ' | } | } ` z o O O O O o $ v } | v - W W Q T Y U P P U P P P P P P P P ",
"P P P P P P U Y Y U P P P P P P P P P Q P P w ; ; N ) S ' } { | ' z o               + Z } v ; P P P T Y P P P P P P P P P P P P ",
"P P P P P P P P P P P P P P P P P P P s , , M ` _ c z ( ` ' } ) l O                 O V } v ; P P P P P P P P P U P P P P P P P ",
"P P P P P P P P P P P P P U Y P P I f b v v ` .. .A c N A ) | Z +                   + Z } N ; P P P P P P P P P Y Y P P P P P P ",
"U P P P P P P P P P P P P P U P P f ; S | } { } } | ` ; c ` | A % .               . + Z } v ; P P P P P P P P P P P P P P P P P ",
"Y U P P P P P P P P P P P P P P P g * S  .| } { }  .' ; x ' | A +                   $ V _ m ; P P P P P P P P P P P P P P P P P ",
"Y U P P P P P P P P P P P P P P p s z ) | } } } } | _ ; c ' { ( z O                 + v ( c * P P P P P P P P P P P P P P P P P ",
"U Y P P P P P P P P P P P P P P 2 z ( [ } } } { } | ` ; c ) ( [ ] c o               $ v ( c ; P P P P P P P P P P P P P P P P Y ",
"P P P P P P P P P P P P P P P P 2 x ( [ } { } } } | ] Z z x S [ ] S l o         . $ v A c w f P P P P P P P P P P P P P P P P Y ",
"P P P P P P P P P P U U P P P P , z S [ } } } } } } { ] N l N B B ) A l o . . . $ v A M 1 p P P P P P P P U U P P P P P W W P U ",
"P P U U P P P P P P Y Y U P P P 1 z S { } } } { } { } } ] B l % l A _ S l % - * v ( c < I P U P P P P P U Y T P U P P P W W P P ",
"P P U E U P P P P W W Y Y Y P w n A S [ } } } { } } } } } ] S Z A ` { ] ) A B A Z v s f P U T U P P P P W W Y T U P P P P P T Y ",
"P P P Y Y P W P P Q W W Y U P ; A ` ( ] } { } } } } } } } } | | | } } | | } ) ( m , u W U U T Y W W P P W W W Y Y W P P U Y Y U ",
"Y Y U U Y Q a P P P P W P U P ; B ( ( [ | } } } } } } } } } } } | { } } } [ ( z , 6 9 i K U U T W a P P P P W P U P P P U Y U P ",
"T T T U Y P W P U P P P P P P l A _ ( ) ] } | { _ [ } _ [ | } } } } } } | ) z 2 6 t J q 9 K P U Q W P P P P P P P P P P P P P P ",
"P U Y Y P P P Y Y Y Y P P P P , m ( ( ( ) [ } ] ) ] [ ( _ [ [ [ { } { { | B # 6 0 t e t 9 q q P P P T Y Y Y P P P P P P P P P P ",
"Y U U Y P P P Y Y P W P P P P y : N ) ) ) _ ) ' } [ ( ) ) _ _ ) ` | { ) ' v # 5 i 9 9 9 9 8 q i P P Y T P W P P P P P P P P P Y ",
"T U U Y P P P U Y P W U W W P @ X % m M v c v v Z N c v v c c v v k j h & H / p 9 q J q 9 9 t t P P U Y P P Q W W P P P P P P U ",
"T Y Y P P P P P P U T U W W Q     X > - = = = > = = = = = = > = 3 D G F d / t t t 9 J q 9 t t t P P P P U Y Y W W P P P P P P P ",
"Y T U P P P P P Y T U W W P P t e 4 r t 6 6 6 6 6 6 6 6 r r 5 6 u ! ~ ~ ^ Q i t e e 9 9 9 9 t i P P P Y Y Y W W P P P P P P P P ",
"W P U Y Y W W P U U P P P P P P t t t t 0 t t t t 4 8 y t t e 8 8 9 y i K p y t e t e e t 9 i Y W W P U U P W P P P P P P P P P ",
"a W P T Y P W P P P P P P P P P P i t t t t t t t t t t 9 t e 8 4 t t t i t e t 8 e e e e i Y U W W P P P P P P P P P P P P U P ",
"P P P Y P P P P P P P P P P P P P P i t t t t t t t t t t t 8 t t t t t e t t t t t t t K U Y P P P P P P P P P P P P P P P P P ",
"P P P P P P P P P P P P P P P P P P P P P i t t t t t t q q 8 t t t t t e t t t t i P P P P U Q P P P P P P P P P P P P P P P P ",
"P P P P P P P P P P P P P P P P P P P P P P P Y L K i y y J 9 e t t t i i i i P P P P P P P P P P P P P P P P P P P P P P P P P ",
"P P P P P P P P P P P P P P P P P P P U P P Q Y R R T U U Y Y a W P P P P P P P P P P P P P P P P P P P P P P P P P P P P P P P ",
"P P P P P P P Q P U P P P P P P P P P P P P W a Y R Y Y U P U W W P P P P P P P P P Q P P P P P P P P P P P P P P P P P P P P P ",
"P P P P P P P a U T U P P P P T U P P P P W a a I U Y Y U P P Y Y Y Y P P P P P P P P P P Q P P P P a U T U P P P U T U P P P P ",
"P P P P P P P W U Y Y Y U P P P P P P P Y R Y P P P P T U U U Y T U W a P P P P P P P P P P P P P P P P Y Y Y P P U P P P P P T ",
"P P P P P P P P P P Y U P P P P P P P P Y E E Y Y P P Y P U T Y Q W a W W P P P P P P P P P P P P P P P P U Y P P P P P P P P T ",
"P P P P P P P P P P P P P P P P P P P P P U E Y Y U P P P U Y Y W a a W P P P P P P P P P P P P P P P P P P P P P P P P P P P W ",
"P P P P P P P P P P P P P P P P P P P P P P U T Y Y P P W P P Q Q T U W a W P P P P P P P P P P P P P P P P P P P P P P P P P P ",
"P P P P P P P P P P P P P Y Y U P P P P P P P U P U P U Y Y P U T U W a a Q P P P P P P P P P P P P P P P P P P Y T P P P P P P "
};
