/* XPM */
static char *xpm_[] = {
/* columns rows colors chars-per-pixel */
"32 32 72 1 ",
"  c #6AA241",
". c #89AF32",
"X c #AC9888",
"o c #A8C029",
"O c #528D52",
"+ c #A1786C",
"@ c #AC8E74",
"# c #6F7827",
"$ c #5A6F31",
"% c #809D2E",
"& c #3F824F",
"* c #550D19",
"= c #5C0F1C",
"- c #5B4F2A",
"; c #8F8D6F",
": c #838321",
"> c #520D18",
", c #93182C",
"< c #A11B31",
"1 c #96192D",
"2 c #7F1526",
"3 c #68111F",
"4 c #736150",
"5 c #54401C",
"6 c #69101F",
"7 c #8A172A",
"8 c #440B14",
"9 c #130306",
"0 c #666523",
"q c #811426",
"w c #0D0204",
"e c black",
"r c #475335",
"t c #5F1F20",
"y c #27060B",
"u c #3A0911",
"i c #5F4619",
"p c #555555",
"a c #AAAAAA",
"s c #423527",
"d c #881628",
"f c #3D0912",
"g c #060102",
"h c #4A3C21",
"j c #711221",
"k c #28060C",
"l c #8C162A",
"z c #6C1120",
"x c #7C1425",
"c c #9A192F",
"v c #9D1A30",
"b c #8F172B",
"n c #593933",
"m c #4A2A18",
"M c #4B4022",
"N c #555E2C",
"B c #1A0408",
"V c #530D18",
"C c #25160F",
"Z c #233616",
"A c #2E3A11",
"S c #231411",
"D c #452D17",
"F c #4C611C",
"G c #4A5512",
"H c #6A8827",
"J c #5E6B17",
"K c #5B7521",
"L c #7EA12E",
"P c #486E2C",
"I c #517B31",
"U c #73932A",
/* pixels */
"  ..X.oo.. ..o.   ..X.oo.. ..o. ",
"o. . ..  .o. .  o. . ..  .o. .  ",
" .. O +@. . #$##$#% O +@. . . ..",
".  .. .  & $*=====-.. .  &  X O ",
" ..; . &.o:>,<122234 . &.oo. .. ",
"o.  .o.  561<78999825o.  .  .o.o",
".O.  ..o06q<78weeew=25.o. .  .  ",
"X.o... rtqq<2yeeeeeu<u O .O . .X",
".o. . .i6qqq2yppeeau<u.o. ..o.. ",
" ..oo.  suuq2yppeeau<u  O  . . .",
". .. .. ..uq2yeeeeeuqu. ... .oo.",
"  O X ..X u6d2fgeew>6h..X O.O . ",
"..o. .   #>>6jjk99f6u.   .o ..; ",
"o. ..o.o.uql=zlz==x>uo.o.  .   .",
"  .o.. . u1<<<<<<<<1u. . O  . ..",
"@.    . 02<<<<<<<<<lu . . .. . +",
"  ..X.oo5l<<<<cc<<<qu.oo.. ..o. ",
"o. . .. hq<<<<vbc<<165.  .o. .  ",
" .. O ;@5q<<<<1>61<qqqn@. . . ..",
".  .. . hqq<l1q>6q1qqqm  &  X O ",
" ..; . O5qqq1q69y6qqqqMO.oo. .. ",
"o.  .o. N666q6yeBV6>6i.  .  .o.o",
".O.  ..o.h5h6VCZASy6h..o. .  .  ",
"X.o... O .O DCFXXAe5.. O .O . .X",
".o. . .o. ..GH. FJK . .o. ..o.. ",
" ..oo.  O  LP. .IU.oo.  O  . . .",
". .. .. ... .oo.. .. .. ... .oo.",
"  O X ..X O.O .   O X ..X O.O . ",
"..o. .   .o ..; ..o. .   .o ..; ",
"o. ..o.o.  .   .o. ..o.o.  .   .",
"  .o.. . O  . ..  .o.. . O  . ..",
";.    . . .. . ;@.    . . .. . ;"
};
