/* XPM */
static char *result[] = {
/* columns rows colors chars-per-pixel */
"64 64 116 2 ",
"   c #010101",
".  c #0B0103",
"X  c #020805",
"o  c #070F0A",
"O  c #0B0B0B",
"+  c #150205",
"@  c #1C0407",
"#  c #1D0409",
"$  c #05120C",
"%  c #0E1514",
"&  c #071810",
"*  c #091E13",
"=  c #121313",
"-  c #1C1213",
";  c #200105",
":  c #2C0406",
">  c #24060B",
",  c #2A070C",
"<  c #2E0C0F",
"1  c #3D0F0E",
"2  c #2C0D11",
"3  c #350C12",
"4  c #3B0B12",
"5  c #221311",
"6  c #2E1314",
"7  c #221A16",
"8  c #2B1C17",
"9  c #2D1C1A",
"0  c #331214",
"q  c #381015",
"w  c #3D161A",
"e  c #311E1C",
"r  c #3B1A1B",
"t  c #0A2213",
"y  c #0C2518",
"u  c #0E2D1D",
"i  c #152016",
"p  c #102F1E",
"a  c #0F351F",
"s  c #0F381F",
"d  c #10371F",
"f  c #103A1E",
"g  c #25241C",
"h  c #2A221D",
"j  c #22281E",
"k  c #2C281D",
"l  c #30201A",
"z  c #0F2E23",
"x  c #0F3220",
"c  c #113623",
"v  c #1D3627",
"b  c #113A24",
"n  c #1C3927",
"m  c #1F362A",
"M  c #123E28",
"N  c #1A3D29",
"B  c #143D34",
"V  c #242D22",
"C  c #2D2929",
"Z  c #4C0000",
"A  c #42060D",
"S  c #440B14",
"D  c #4B0C16",
"F  c #4E0E19",
"G  c #550D19",
"H  c #5C0E1B",
"J  c #4D121B",
"K  c #55101B",
"L  c #6A0610",
"P  c #620F1D",
"I  c #64101E",
"U  c #6A101F",
"Y  c #731119",
"T  c #680F20",
"R  c #6D1221",
"E  c #741323",
"W  c #7C1325",
"Q  c #7F1928",
"!  c #11411D",
"~  c #124324",
"^  c #1C4527",
"/  c #15472E",
"(  c #19432A",
")  c #164B2D",
"_  c #17522B",
"`  c #18572B",
"'  c #175A2A",
"]  c #185C2A",
"[  c #154331",
"{  c #164830",
"}  c #204322",
"|  c #14554A",
" . c #2E5751",
".. c #3C635A",
"X. c #4C5856",
"o. c #516958",
"O. c #860D1F",
"+. c #831427",
"@. c #881527",
"#. c #861528",
"$. c #8B1629",
"%. c #931124",
"&. c #91172B",
"*. c #94182D",
"=. c #9A1A2F",
"-. c #9E1B30",
";. c #A31B32",
":. c #AB1D34",
">. c #B01E35",
",. c #B61F38",
"<. c #908285",
"1. c #9C8D90",
"2. c #929292",
"3. c #9C9D9C",
"4. c #A4A7A6",
"5. c #AFB3B3",
/* pixels */
"/ / ) ' _ / [ / / / [ [ ) _ { / / ) ) _ ) ) / [ / [ / / / / / / / / / / / / / / / / / ) / / ' _ / [ / / { [ [ _ ) / / / ) _ _ ) ",
") ) ) ) _ { B / / / / [ / ) / / / ) _ ) ) ) / / / / / / / / / / / / / / / / / / / ) ) ) ) ) ) ` [ B / / / / B ) ) / / / ) _ _ / ",
"] ` _ / _ { B / / / ) / / / / / / / / / / / / / / / / / / / / / / ) / / / / / / / ) ' ] ' ) ) _ { B / / / / / / / / / / / / / / ",
"/ _ _ _ ) / / _ ) _ ) / / / / / / / / / / / / / / / / / / / / / / / / / / / / / / [ [ ) ) ` _ / / / _ _ _ ) / / / / / / / / / / ",
") ) _ _ / / / ` _ ) { { / / / / [ ) / / ) ) / / / / / / ) ) ) / / ) _ ) ) / / / ) ` ) ) ) ) ` / / / ` _ / { / / / / / / / / / ) ",
"` _ / _ / / / _ _ { [ / { / / / ) / / / ) ) / / / / / / ) _ _ ) / ) _ ) ) / / / _ ' ] ' _ ) ) / / / ) _ { [ / { / / / / / / / _ ",
"` _ _ / / / / / / / ` _ [ [ / / / / / / ) / / / / / / / B [ _ _ ) ) ) [ [ ) / / / ) ' ` _ _ / / / / / / ) ` _ B [ / / / / / / / ",
"_ _ ) / / / / / ) ` ) B [ / / / / / / / / / / / / / / / / [ [ _ _ ) / / ) ` ) / [ [ ` _ ` ) / / / / / _ _ ) B { / / / / / / / / ",
"{ / ) ) _ / [ / ) ) ) [ / / / / / / / / / / / / / / / / / / [ / ) / / _ _ ) { / { [ [ { / ) _ ) [ [ ) / / ) [ [ / / / / / / / / ",
"B [ ) _ _ { B / / / / / / / / / / / / / / / / / / / / / / / ) / / / ) ) _ { B / / [ B B { ) ` _ [ B / / / / / / / / / / / / / / ",
"/ / / ` / / / / / / / / / / / / / / / / / ) / / / / ) / / / ) / / / / / / / / / / / / / / ) _ / ) ) / / ) / / / / / / / / / / / ",
"/ / / / / / / / / / / / / / / / / / / / / / / / / / / [ ` _ / [ / / ) / / / / / / / / / / / / / / / / / / / / ) / / / / / / / / ",
"/ / / / / / / / / / / / / / / / / / / / / / { _ _ _ ) ) _ ` ) [ [ / / / / / / / / / / / / / / / / / / / / / / / / / / / / / / / ",
") / / / / / / / / / / / / / / / / / / / / / { _ ] ' _ ) ) ` _ B B ) / / / / / / / / / / / / / / / / / / / / / / / / / / / / / / ",
"/ / / / / / / / / / / / / / / / / / / ) / / { B _ } 3 4 4 4 4 3 3 4 4 q n / / / / / / / / / / / / / / / ) / / / / / ) / / / / / ",
"/ / / / / / { B ) ` _ / / / / _ ) / / / / [ B B m l G R R E E W W E W E l N / / / / / / / / / / / [ [ ) _ ) / / / ) ` / / / / / ",
"/ / / / / / / [ / ) _ ) ) / / ) ) / / / ^ ^ ( ( 9 G $.;.>.>.;.=.=.-.;.-.P 9 N { / / / / / / / / / [ [ ) _ _ ) / / ) ) / / / / _ ",
"/ / / / / / / / / ) _ _ ) / / / / / / n 9 0 6 0 K #.-.;.>.:.R S D F S G *.E 8 N / / / / / / / / / / / ) ) ) _ ) / / / / / / / _ ",
"/ / / / / / / / / / / / / / / / / / v e H I H I Q ;.;.>.;.R >   . .   + P *.E 9 N / / / / / / / / / / / / / / / / / / / / / / / ",
"/ / / / / / / / / / / / / / / / / / g S +.&.+.#.=.:.;.-.E >             + T *.P h N / / / / / / / / / / / / / / / / / / / / / / ",
"/ / / / / / / / / / / / ) ) _ ) / / 9 S +.$.+.+.*.:.;.T >                 + G -.E 6 ( / / / / / / / / / / / / / ) _ / / / / / / ",
"/ / / / ) / / / / ) ) ) / ) ' / / { N V F E @.+.*.:.;.H +                 . S ;.+.0 N / / / / / / / / / ) / ) / ` ' [ / / / / / ",
"/ / / / / / / / / _ ' ` ) ) ) B [ / / N 8 F E @.&.;.;.I @                   D -.W 6 N / / / / / / / / / _ ] ` ) ) ) B [ ) / / / ",
"/ / / / / / / / / [ [ _ _ ) ) / / / / { / h D W +.&.;.P #   O O         O O D -.W 6 N / / / / / / / / / [ [ _ _ ) ) [ / / / / / ",
"/ / / / / / / _ _ ) { ) _ _ / / / / / / / N j J U &.;.P + % 3.2.%     = 4.<.A %.W 6 ( / / / / / / ) _ ` ) ) ) _ ) / / / ) / / / ",
") [ / / / / ) ' ] ' _ ) ) ) / / / / / / / / N 2 H =.;.P . % 4.3.=     = 5.1.A O.W 6 N / / / / / / ) ' ] ' _ ) ) ) / / / / / / / ",
") / ) / / / ) [ ' ] ] _ ) / / / / / / / / / N 3 I *.;.I #   = =         = - S +.U 6 ^ / / / / / / / ) ' ] ' _ ) ) / / / / ) / / ",
"/ / / / / _ ' _ ) _ _ _ _ ) / / _ _ _ / / / N q R &.$.&.R #                 4 +.U 0 N / / / / / _ ` ) ) _ ` _ _ ) / / ) _ _ / / ",
"/ / / / [ [ { ` _ ) ) _ _ ) / / _ _ _ / / ( V < D R +.;.=.G @             , P E J h ( / / / / [ { ) ` ) ) ) _ _ ) / / _ _ _ / / ",
"/ / / / [ B B ) _ ) / _ _ _ / / ) ) / / ( h 4 4 3 D W +.@.+.G >       . , R W S j ( / / / / / B B B ) _ ) ) _ _ ) / / ) ) / / / ",
"/ / / / / [ B B [ ) / / ) ) ) / / / / ( 9 D E #.$.E S 4 G +.+.G > @ # > P R F 4 j / / / / / / / [ B [ [ / / ) ) ) / / / [ ) / / ",
"/ / / / / [ / ` _ ) / / ) ) / / / / / N 6 T -.:.,.*.H F U %.=.#.I I P R *.R , 8 v / / / / / ) [ [ { ` _ ) / / ) / ) / / ) / / / ",
"/ / / / / / ) ` ` ) / / / / / / / / / v 0 W :.;.;.;.;.;.;.;.;.;.;.;.;.;.:.E 6 N / / / / / / / / / ) ' _ / / / / / / / / / / / / ",
"/ / / / / / / / / / / / / / / / / / j w Q ;.;.;.-.;.;.:.;.:.;.;.;.:.:.;.-.P 6 N / / / / / / / / / / / / / / / / ) / / / / / / / ",
"/ / / / / / / / / / / / / ) ` / / / g D *.:.;.;.;.;.;.;.=.&.=.;.;.-.;.-.$.G 0 N / / / / / / / / / / / / / / / / _ _ / / / / / / ",
") / / / / / / / / / / / / / / / / / j S E =.;.;.;.-.;.;.*.#.=.;.;.;.;.;.*.H 2 N ) ) _ / / / / / / / / / / / / / { / / / / / / / ",
") / / / / / / / / / / / / / / / / / j S E =.;.;.;.;.-.;.;.=.$.*.;.;.;.;.;.E 6 N / _ _ _ / / / / / / / / / / / / / / / / / / / / ",
"_ ) / / / / / / / / / / / / / / / V r H W =.;.;.;.;.;.;.;.*.U I *.;.;.;.-.W D C N { ) _ ) / / / / / / / / / / / / / / / / / / / ",
") _ / / / / / / / / / / / / / / / 3 I $.+.&.;.;.=.=.;.=.=.W S S +.=.;.-.@.@.W S h N B _ _ / / / / / / / / / / / / / / / / ) / _ ",
") ) / / / / / / / / / / / / / / / 1 H $.+.W &.;.&.$.;.*.#.+.D D +.@.*.;.#.@.W S j / / / / / / / / / / / / / / / / / / / / [ ) _ ",
"/ / / / / / / / / / ) / / / / / / 4 I $.#.E +.&.&.&.&.$.+.H > , H W @.&.$.$.+.S h / / / / / / / / / / / ) ) ) / ) / / / [ [ / ) ",
"/ / / ) / / / / / / _ _ ) / / / / q K W #.+.+.+.*.=.+.W H ,     4 E $.W E E U S m / / / / / ) / / / / / ) _ ` ) / / / ) [ B ) ) ",
"/ / ) ' ) / / / / [ [ _ ` _ / / / N h D W $.+.#.$.#.+.H ,     . 4 E &.+.D 3 1 V { / / / / ) ] ) / / / / [ [ _ ` ) / / / / ) _ _ ",
"/ / / ` _ / [ / / { [ [ _ ) / / / / ^ k H P H H E $.$.G +     . ; G P P T Z 5 N M ~ / / / ) ` _ [ B / / / [ [ ) ) / / / ) _ _ ) ",
"_ _ ) ) _ / B / / / / [ ) ) / / / / / ( g 7 5 > G W E F 5 o o X   + @ : L Y  .[ z a d ~ ~ ) ) _ [ B / / / / B ) ) / / / ) ) ) ) ",
"' ` _ ) ) / [ / / / / / / / / / / / / / ~ b y X > S 4 g p z x * X       : X.[ x x x f ! s b b ) [ [ ) ) ) ) / / / / / / / / / / ",
"[ ) _ _ / / / _ _ _ ` / / / / / / / { M & $ $ * i g - p u & $ c  .| | | { B c u x x z x s f f s M ) _ _ _ ) / / / / / / / / / / ",
"_ ) ) ` / / / ` ` { [ / / / / / / / ~ u o X $ u a c c c t X C ..c x b s c c u c d f c s s s f a x / _ _ / / / / / / / / / / ) ) ",
"` _ ) ) ) / / ) ) ) [ ) / [ [ ) / / x x s a u x x x x x * = o.b a a d x x x x x s ! ! s a a a z a x ) _ { { ) [ / / / / / / / ) ",
"_ _ _ ) / / / / ) ) ` ) [ [ / / / / x x x u x x x x x x z z d d a a d z z x a x a s ! s s a a a x x [ ) ) _ _ B [ / / / / / / ) ",
"_ _ ) ) / / / / ) _ _ B [ / / / ) / x z x x x x x x x x x z z s d s z a s s s x z z s s s s a a a x ) ) _ ) B [ / / / / / / / / ",
"[ ) ) ) _ ) B / ) ) ) / / / / / [ { ~ a x x x x x x x a x x z a a a a s s s z x z z z z a a s s x B ) ) ) ) / / / / / / / / / / ",
"B [ ) _ ) ) B / / / / / / / / / / / / ( x c a a x a x a x x x x z c u s b x z x a x z z x a s c / B / / / / / / / / / / / / / / ",
") / ) _ ) / / / / ) / / / / / / / / / / / b z c a z x x x x u a a u x x x x x x a u x z a c ~ ) / / / / / / / / / / / / / / / / ",
"/ / / / / / / / / / / / / / / / / / / / / / / M x x x x s s s a x x x x x x x x x u x c ~ [ / / / / / / / / / / / / / / / / / / ",
"/ / / / / / / / / / / / / / / / / / / / / / { ` ` _ ) b ~ ~ b z z x x x c x x b M / / / / / / / / / / / / / / / / / / / / / / ) ",
"/ / / / / / / / / / / / / / / / / / / / / / { ) ] ' _ ) ) _ ) B [ / / / / / / / / / / / / / / / / / / / / / / / / / / / / / / / ",
"/ / / / / / / / ) / / ) / / / ) / / / / / / { B _ ' _ _ ) / _ [ / / / / / / / / / / / / / / / / / ) [ ) / / / / / / ) / / / / / ",
"/ / / / / / / B ) _ _ ) / / / _ ) / / / / / B B [ ) _ _ ) / / _ _ _ _ / / / / / / / / / / / / / / [ B ) _ _ / / / ) _ / / / / / ",
"/ / / / / / / [ / ) _ ) ) / / ) / / / / _ _ _ / ) / ) _ ) ) _ _ _ ) [ B / / / / / / / / / / / / / / [ ) _ _ ) / / ) ) / / / / _ ",
"/ / / / / / / / / ) ) ) ) / / / / / / / _ ' ] _ ) / / _ / ) _ _ { [ B B { / / / / / / / / / / / / / / / ) ) ) ) / / / / / / / _ ",
"/ / / / / / / / / / ) / / / / / / / / / / _ ] _ _ _ / / / ) _ _ { B B { / / / / / / / / / / / / / / / ) / / ) / / / / / / / / / ",
"/ / / / / / / / / / / / / ) / / / / / / / / ) _ _ _ / / / / / { ) _ ) B B B / / / / / / / / / / / / / / / / / / / / / / / / / / ",
"/ ) / / / / / / / / / / / ) _ / / / / / / / / / ) ) / ) _ ) / _ _ ) [ B [ { / / / / / / / / / / / / / / / / / ) ) _ ) / / / / / "
};
