/* XPM */
static char *xpm_[] = {
/* columns rows colors chars-per-pixel */
"32 32 107 2 ",
"   c #6AA241",
".  c #89AF32",
"X  c #AC9888",
"o  c #A8C029",
"O  c #528D52",
"+  c #A1786C",
"@  c #AC8E74",
"#  c #3F824F",
"$  c #9F887B",
"%  c #5A6F31",
"&  c #4A613C",
"*  c #6F7827",
"=  c #8F8D6F",
"-  c #778A2B",
";  c #542E20",
":  c #701221",
">  c #7F1526",
",  c #695345",
"<  c #54401C",
"1  c #4A3C21",
"2  c #781324",
"3  c #9A192F",
"4  c #A11B31",
"5  c #731323",
"6  c #5C0F1C",
"7  c #6E2225",
"8  c #666523",
"9  c #69101F",
"0  c #2C070D",
"q  c #130306",
"w  c #68111F",
"e  c #811426",
"r  c #8C162A",
"t  c black",
"y  c #3A0911",
"u  c #711221",
"i  c #393939",
"p  c gray11",
"a  c #4C3C3E",
"s  c #520D18",
"d  c #717171",
"f  c #857477",
"g  c #590E1A",
"h  c #881628",
"j  c #831527",
"k  c #060102",
"l  c #5F4619",
"z  c #420A13",
"x  c #610F1D",
"c  c #851527",
"v  c #751223",
"b  c #3D0912",
"n  c #0D0204",
"m  c #5B301D",
"M  c #65913C",
"N  c #701222",
"B  c #27060B",
"V  c #4A0B16",
"C  c #96192D",
"Z  c #8E172B",
"A  c #871629",
"S  c #4C2E18",
"D  c #603939",
"F  c #5F8036",
"G  c #603532",
"H  c #9D1A30",
"J  c #93182C",
"K  c #8F172B",
"L  c #530D18",
"P  c #4D6F43",
"I  c #28060C",
"U  c #5A0E1A",
"Y  c #4D6D2D",
"T  c #476C2B",
"R  c #1F270B",
"E  c #130406",
"W  c #552F22",
"Q  c #5F8037",
"!  c #88AF33",
"~  c #2E3A11",
"^  c #73665B",
"/  c #87B037",
"(  c #A4C234",
")  c #85B33E",
"_  c #86B33E",
"`  c #87B23B",
"'  c #6AA344",
"]  c #528D53",
"[  c #486D2C",
"{  c #8DB238",
"}  c #B3C844",
"|  c #A4C261",
" . c #95BD78",
".. c #A9C569",
"X. c #87B466",
"o. c #91B540",
"O. c #AAC12D",
"+. c #89AF33",
"@. c #8AB034",
"#. c #73A84D",
"$. c #A3C160",
"%. c #D8E4BB",
"&. c #E2EAB8",
"*. c #C6D89C",
"=. c #7EAE5A",
"-. c #70A648",
";. c #538E53",
/* pixels */
"    . . X . o o . .   . . o .       . . X . o o . .   . . o .   ",
"o .   .   . .     . o .   .     o .   .   . .     . o .   .     ",
"  . .   O   + @ .   .   .   . .   . .   O   + @ .   .   .   . . ",
".     . .   .     #     $ % & % * % % . .   .     #     X   O   ",
"  . . =   .   # . o o - ; : > > > > > ,   .   # . o o .   . .   ",
"o .     . o .     < 1 ; 2 3 4 5 6 6 6 7 8 o .     .     . o . o ",
". O .     . . o 8 9 9 2 3 4 5 0 q q q w 7 8 . o .   .     .     ",
"X . o . . .   O 1 e e r 4 > q t t t t q 6 > % O   . O   .   . X ",
". o .   .   . o . y e r 4 > q t t t t q 6 > * o .   . . o . .   ",
"  . . o o .     O   1 u r > q i p t t a 6 > %   O     .   .   . ",
".   . .   . .   . . . s r > q d i t t f g 2 *   . . .   . o o . ",
"    O   X   . . X   O s h j 0 k t t t q s 9 * . X   O . O   .   ",
". . o .   .       . l z x c v b n t t b x m M     . o   . . =   ",
"o .   . . o . o . 1 9 > N s u u b B B x V l . o .     .       . ",
"    . o . .   .   y C 4 C > Z C A > > 2 S -   .   O     .   . . ",
"@ .         .   < 4 4 4 4 4 4 4 4 4 4 9 1   .   .   . .   .   + ",
"    . . X . o o < e 4 4 4 4 r C 4 4 4 9 D . o o . .   . . o .   ",
"o .   .   . . F ; e 4 4 4 4 3 2 A 4 4 > ; - .     . o .   .     ",
"  . .   O   = G 9 e C H 3 H h s 9 C 4 e 9 1 = @ .   .   .   . . ",
".     . .   . 1 9 e e J K K u b L e C e 9 1 .     #     X   O   ",
"  . . =   .   P m e e c h u I k B e e s ; -   O . o o .   . .   ",
"o .     . o .   F s s x e 9 q t n s s U < o .     .     . o . o ",
". O .     . . o . % * I s m Y T R E E W Q ! . o .   .     .     ",
"X . o . . .   O   t t   .   ~ t ^ / ( ) _ ` ' ]   . O   .   . X ",
". o .   .   . o .   . . o . ~ [ { } |  ...X.o.O.+.  . . o . .   ",
"  . . o o .     O     .   .   @.#.$.%.&.&.*.=.-.;.    .   .   . ",
".   . .   . .   . . .   . o o . .   . .   . .   . . .   . o o . ",
"    O   X   . . X   O . O   .       O   X   . . X   O . O   .   ",
". . o .   .       . o   . . =   . . o .   .       . o   . . =   ",
"o .   . . o . o .     .       . o .   . . o . o .     .       . ",
"    . o . .   .   O     .   . .     . o . .   .   O     .   . . ",
"= .         .   .   . .   .   = @ .         .   .   . .   .   = "
};
