/* XPM */
static char *result[] = {
/* columns rows colors chars-per-pixel */
"64 64 119 2 ",
"   c #010000",
".  c #0B0203",
"X  c #080907",
"o  c #040D08",
"O  c #0D0D0C",
"+  c #120305",
"@  c #1A0407",
"#  c #1D0508",
"$  c #05120B",
"%  c #08120B",
"&  c #07180E",
"*  c #18110F",
"=  c #1C0E11",
"-  c #0F1312",
";  c #091D13",
":  c #131312",
">  c #1D1E1E",
",  c #24050A",
"<  c #2B060D",
"1  c #280C0F",
"2  c #30070E",
"3  c #34080F",
"4  c #2E0D12",
"5  c #340B11",
"6  c #3B0911",
"7  c #271212",
"8  c #2B1515",
"9  c #251916",
"0  c #2A1817",
"q  c #251D19",
"w  c #291C19",
"e  c #341416",
"r  c #3C1117",
"t  c #32191D",
"y  c #0A2213",
"u  c #0C2619",
"i  c #0D2B1C",
"p  c #132117",
"a  c #102A19",
"s  c #0F331E",
"d  c #10351F",
"f  c #103A1E",
"g  c #26241D",
"h  c #2B241E",
"j  c #24291F",
"k  c #30231E",
"l  c #0E2E23",
"z  c #1C2120",
"x  c #0F3220",
"c  c #103724",
"v  c #1F3425",
"b  c #113A25",
"n  c #1C3A26",
"m  c #133F29",
"M  c #1A3E2A",
"N  c #143D34",
"B  c #212221",
"V  c #2C2720",
"C  c #242C21",
"Z  c #2A2820",
"A  c #213425",
"S  c #203822",
"D  c #353636",
"F  c #373838",
"G  c #430B14",
"H  c #4C0C16",
"J  c #4B0F18",
"K  c #510D17",
"L  c #530D18",
"P  c #5C0F1B",
"I  c #421117",
"U  c #43151B",
"Y  c #4A1018",
"T  c #53131C",
"R  c #5A121D",
"E  c #66000D",
"W  c #680614",
"Q  c #630F1D",
"!  c #700818",
"~  c #65101E",
"^  c #6A101F",
"/  c #6D1120",
"(  c #731222",
")  c #7B1324",
"_  c #1E4125",
"`  c #1F4826",
"'  c #15472E",
"]  c #19412A",
"[  c #164B2D",
"{  c #194D2A",
"}  c #17522B",
"|  c #18542B",
" . c #175A2A",
".. c #185C29",
"X. c #154331",
"o. c #164830",
"O. c #831427",
"+. c #841628",
"@. c #8B1629",
"#. c #8E182C",
"$. c #92172B",
"%. c #95182D",
"&. c #99192E",
"*. c #9E1A30",
"=. c #A21B31",
"-. c #AB1D34",
";. c #B71F38",
":. c #867A7C",
">. c #838484",
",. c #898C8C",
"<. c #928688",
"1. c #8E9090",
"2. c gray57",
"3. c #969A9A",
"4. c #E7DCDE",
"5. c #ECE1E3",
"6. c #EDEFEF",
"7. c #F3F4F4",
"8. c #FBFEFE",
/* pixels */
"' o.[ | } [ X.' ' ' X.o.[ [ [ ' ' [ [ } [ [ ' X.X.' ' ' ' ' ' ' ' ' ' ' ' ' ' ' ' ' ' ' ' [  .} ' N ' ' X.X.X.} [ ' ' ' [ } } [ ",
"{ { [ [ } o.N ' ' ' ' N [ [ ' ' ' [ } [ [ [ ' ' ' ' ' ' ' ' ' ' ' ' ' ' ' ' ' ' ' [ [ [ [ [ [ } o.N ' ' ' o.N [ [ ' ' ' [ [ } [ ",
".. .} [ [ o.N ' ' [ ' ' [ ' ' ' ' ' ' ' ' ' ' ' ' ' ' ' ' ' ' ' ' ' ' ' ' ' ' ' o.[  ... .} [ } ' N ' [ [ ' ' ' [ ' ' ' ' ' ' ' ",
"o.[ } } [ ' ' } [ } [ [ ' ' ' ' ' ' ' ' ' ' ' ' ' ' ' ' ' ' ' ' ' ' [ o.' ' ' ' o.X.X.o.[ | [ [ ' [ } [ } [ ' ' ' ' ' ' ' ' ' ' ",
"[ [ [ | [ ' ' } } [ o.' ' ' ' ' ' ' ' ' o.{ ' ' ' ' ' ' [ [ [ ' ' [ } [ [ ' ' ' [ } } [ [ [ } [ ' [ } } o.o.' ' ' ' ' ' ' ' ' [ ",
"} } [ [ [ ' [ [ } [ N [ o.' ' ' ' ' ' ' } { ' ' ' ' ' ' [ } } [ ' [ } [ [ ' ' ' }  ... .[ [ { ' ' ' } [ o.X.' o.' ' ' ' ' ' ' } ",
" .} } ' ' ' ' ' ' [ } } X.N ' ' ' ' ' ' o.' ' ' ' ' ' ' N X.} } [ [ } N X.[ ' ' o.[ ..} } } ' ' ' ' ' [ [ } } N X.' ' ' ' ' ' ' ",
"} } } o.' ' ' ' { } } N X.X.' ' ' [ ' ' ' ' ' ' ' ' ' ' ' X.X.} } [ ' ' [ } [ ' X.o. .} } [ ' o.' ' ' { } [ X.o.' ' ' ' ' ' ' ' ",
"X.[ [ [ [ ' N ' [ [ [ X.o.' ' ' ' ' ' ' ' ' ' ' ' [ ' ' ' X.X.{ [ ' ' } } { o.' X.X.X.X.o.} { } X.X.' [ [ [ X.X.' ' ' ' ' ' ' ' ",
"N X.[ } } [ N ' ' ' ' ' ' ' ' ' ' ' ' ' ' ' n e 5 6 6 6 6 6 6 6 5 6 e _ } ' N o.' o.N N X.' } } o.X.' ' ' ' ' ' ' ' ' ' ' ' ' ' ",
"' ' ' } [ [ ' ' ' ' ' ' ' ' ' ' ' ' ' ' ' n h J P P R ~ ~ ~ ~ ~ ~ / R h n ' ' ' ' ' ' ' ' { } ' ' ' ' ' ' ' ' ' ' ' ' ' ' ' ' ' ",
"' ' ' [ ' ' ' ' ' [ ' ' ' ' ' ' ' ' ' X.' g G / $.*.=.*.*.=.=.=.=.-.#.J q ' ' ' ' ' ' ' ' ' ' ' ' ' ' ' ' ' ' ' ' ' ' ' ' ' ' ' ",
"' ' ' ' ' ' ' ' ' ' ' ' ' ' ' ' ' ' ' n g I / #.-.-.;.-.+.( ( ) ) ( ) O.R j n ' ' [ ' ' ' ' ' ' ' ' ' ' ' ' ' ' ' ' ' ' ' ' ' ' ",
"' ' ' ' ' ' ' ' ' ' ' ' ' ' ' ' ' ' ] g G / %.*.=.=.=.@.J , < < < , G %.@.J g ] ' ' ' ' ' ' ' ' ' ' ' ' ' ' ' ' ' ' ' ' ' [ ' ' ",
"' ' ' ' ' ' ' ' ' [ [ ' ' ' ' ' o.M q I ( #.*.*.-.-.@.K # . . . . . @ H O.#.R g m ' ' ' ' ' ' ' ' ' ' ' [ [ ' ' ' ' [ ' ' ' ' ' ",
"' ' ' ' ' ' o.N [ } [ [ ' ' [ [ _ B H ^ @.*.-.-.=.@.H @               . H %.) Y Z n ' ' ' ' ' ' ' o.N [ } [ ' ' ' [ [ [ ' ' ' ' ",
"' ' ' ' ' ' ' X.[ [ } [ [ [ X.[ q G ( O.O.&.-.-.+.J @                   @ 6 ) $.T q ] ' ' ' ' ' ' X.X.[ [ } [ [ ' ' [ ' ' ' ' } ",
"' ' ' ' ' ' ' ' ' [ { } [ ' C Z Y / O.O.O.&.-.-.) 5 .                     1 +.-.Q 8 M ' ' ' ' ' ' ' ' ' [ } } [ ' ' ' ' ' ' '  .",
"' ' ' ' ' ' ' ' ' ' ' ' ' ' 3 G ( @.) ) O.%.-.-.+.6 +                   + 5 +.*.P 8 _ ' ' ' ' ' [ ' ' ' ' ' ' ' ' ' ' ' ' ' ' X.",
"' ' ' ' ' ' ' ' ' ' ' ' ' ' 6 G ) $.@.@.@.+.$.-.) 6 . - >.>.:       > ,.:.r ! *.P 8 ] ' ' ' ' ' ' ' ' ' ' ' ' ' ' ' ' ' ' ' ' ' ",
"' ' ' ' [ ' ' ' ' ' ' ' ' { e r / ) ( ( ( ) @.-.+.6   z 6.6.z       D 8.4.U E *.P 0 m X.' ' ' ' ' ' ' ' ' ' ' ' [  .' ' ' ' ' ' ",
"' ' ' ' ' ' ' ' o.[ [ [ ' } ` v r H H G H ^ @.=.+.6   z 7.7.B       F 8.5.U E =.Q 8 ] ' ' ' ' ' ' ' ' ' [ [ [ ' } } X.' ' ' ' ' ",
"' ' ' ' ' ' ' ' ' {  .} [ [ [ N C w w 7 3 Q $.-.O.6   : 1.2.:       z 3.<.r W %.P 8 n o.' ' ' ' ' ' ' ' }  .[ [ [ [ N ' ' ' ' ' ",
"' ' ' ' ' ' ' ' ' X.o.} } [ [ ' ' ] ] g 6 Q $.-.) 6 .   O O         . O = 5 ^ O.L 0 ] ' ' ' ' ' ' ' ' ' X.o.} } [ [ X.' ' ' ' ' ",
"' ' ' ' ' ' ' } } [ o.[ } [ [ ' ' ' ' C 6 / $.&.@.( 6 .                   < / O.L 8 n ' ' ' ' ' ' [ }  .[ [ [ } [ [ ' ' ' ' ' ' ",
"[ ' ' ' ' ' [  ..... .[ [ [ ' ' ' ' ' B 6 Q O.) $.-.) 3 .               + 6 ^ ) J w ] ' ' ' ' ' ' o. ... .} [ [ [ ' ' ' ' ' ' ' ",
"[ ' ' ' ' ' o.[  ... .} [ ' ' ' ' ' ' C 2 6 P ) %.&.@.Q 6 +           + G ( ^ J h n [ [ ' ' ' ' ' ' [  ... .} [ ' ' ' [ ' o.' ' ",
"' ' ' ' ' }  .[ [ [  .} } [ ' ' { } ` k H G G ^ ! ^ O.O.Q 5 . . . . + 6 ~ ) L 4 n ' [ ' ' ' ' ' } | } [ } } } } [ ' ' [  . .' ' ",
"' ' ' ' X.X.o. .[ [ [ } } [ ' ' { _ 8 T ) ) Q G 5 6 / ) O.P < # < # 6 ^ ^ G 3 5 v ' ' ' ' ' ' X.o.} } o.[ [ } } [ ' [ } } [ ' ' ",
"' ' ' ' N N N [ } [ ' } } } ' ' } A 3 P @.*.+./ H P ( %.*.@./ / ^ ~ ( %.O.K 6 5 v ' ' ' ' ' ' N N N { } [ ' } } [ ' ' [ [ ' ' ' ",
"' ' ' ' ' X.N N o.' ' ' [ [ [ ' ' v 5 P O.&.-.*.=.*.*.*.*.*.*.*.*.*.=.=.&.+.R 5 v ' ' ' ' ' [ o.X.N X.X.' ' ' } [ ' ' ' ' ' ' ' ",
"' ' ' ' ' X.'  .} [ ' ' [ [ ' ' ' n 1 P &.=.=.-.-.-.-.=.=.-.-.-.-.-.-.=.=.=.^ 5 v ' ' ' ' ' o.o.X.o.} } [ ' ' ' [ ' ' ' ' ' ' ' ",
"' ' ' ' ' ' [ } } { ' ' ' ' ' ' _ A r ( =.-.=.=.*.=.=.=.=.=.=.*.=.*.=.=.-.=./ 8 v ' ' ' ' ' ' ' ' { } } [ ' ' ' ' ' ' ' ' ' [ ' ",
"' ' ' ' ' ' ' ' o.' ' ' ' ' ' ] g U O.*.=.=.*.*.=.=.*.=.=.=.=.=.=.=.=.=.*.@.R 5 v o.' ' ' ' ' ' ' ' ' o.' ' ' ' ' ' ' ' ' ' ' ' ",
"' ' ' ' ' ' ' ' o.' ' ' ' { } M 8 P *.-.=.=.=.=.=.*.=.*.%.&.=.=.*.=.=.=.&.O.L 5 A o.' o.' ' ' ' ' ' ' ' ' ' ' ' [ [ [ ' ' ' ' ' ",
"[ ' ' ' ' ' ' ' ' ' ' ' ' ' ' ] 8 H ) &.=.=.=.=.=.=.=.*.@.+.&.-.=.=.=.=.&.+.K 5 n { { o.' ' ' ' ' ' ' ' ' ' ' ' [ [ ' ' ' ' ' ' ",
"[ [ [ ' ' ' ' ' ' ' ' ' ' ' ' ] 8 H ) %.=.=.=.=.=.=.=.*.%.$.%.=.=.=.=.=.*.%.) Y w S | { [ ' ' ' ' ' ' ' ' ' ' ' ' ' ' ' ' ' ' ' ",
"} [ ' ' ' ' ' ' ' ' ' ' ' ' ' ] 8 H ) %.=.=.=.=.*.=.*.=.=.%.) @.=.=.=.=.=.=.&.) L 8 ] | [ ' ' ' ' ' ' ' ' ' ' ' ' ' ' ' ' ' ' ' ",
"{ [ ' ' ' ' ' ' ' ' ' ' ' ' X.M 8 H ) &.=.=.=.=.=.*.=.-.&.) L Q @.=.-.=.&.@.@.O.( P t h [ ' ' ' ' ' ' o.' ' ' ' ' ' ' ' ' ' ' } ",
"[ [ ' ' ' ' ' ' ' ' ' ' ' ' ' _ 8 H ) $.&.=.*.*.*.=.=.%.$.Q 3 H O.%.&.-.&.O.) O.$.( G 3 [ ' ' ' ' ' ' [ ' ' ' ' ' ' ' ' ' ' ' } ",
"' ' ' ' ' ' ' ' ' [ { o.' ' ' ] 8 L ) +.@.=.=.+.#.=.&.+.@.( G L @.@.@.=.&.O.) O.@./ G 6 ' ' ' ' ' ' ' ' [ [ [ ' ' ' ' ' o.X.' [ ",
"' ' [ [ ' ' ' ' ' ' | } { ' X.] 8 H ) O.) @.%.@.#.%.#.) ) L , 6 ^ ( O.$.$.@.O.O.@.( G 6 ' ' [ ' ' ' ' ' [ } } ' [ ' ' ' N X.' ' ",
"' ' [  .[ ' ' ' ' X.X.| } o.o.M 8 H ) @.O.O.@.=.&.O.O.) L ,   + G ^ @.O.O.O.O.O.@./ G 6 ' [  .[ ' ' ' ' X.X.} } [ ' ' ' ' [ } } ",
"' ' ' } } o.X.' ' X.X.X.{ } [ m 8 L O.$.O.+.+.$.$.+.! K < .   . 6 ^ $.@./ L / +./ H V g ' [  .} X.X.' ' X.o.o.[ [ ' ' ' [ } } [ ",
"} } [ [ } o.N ' ' ' ' X.[ [ ' M w H ( ) ) ) ) ) O.O.Q < .     + 3 ^ O.O.Q 6 P ) J w { } { { [ | o.N ' ' ' ' X.[ [ ' ' ' [ [ [ [ ",
" .} } [ [ o.N [ ' ' ' ' ' ' ' ' n V H K H H P ) $.@.Q 3 .       + 6 R L Q ( Q H Z n  . .} } [ [ X.X.' ' ' [ ' ' ' ' ' ' [ ' ' ' ",
"' [ } } [ ' ' } } } | ' ' ' ' ' o.M w 8 8 9 r Q ) ( H , X o o o X + , # G ( T q M X.N X.} } } [ ' [ } } } [ ' ' ' ' ' ' ' ' ' ' ",
"} [ [ } ' ' [ } } [ N ' ' ' ' ' ' ' ' ] ] n C 6 J J ,   y s s i i % .   # G h M [  .| } o.[ | [ ' [ } } [ X.' ' ' ' ' ' ' ' [ [ ",
"} [ [ [ ' ' ' [ } [ X.[ X.X.' ' ' ' ' [ c x x p * @ X & i x f s x $     X 9 a c [  ...} } ' [ ' ' [ [ [ ' X.[ X.X.' ' ' ' ' ' [ ",
" .} } [ ' ' ' ' ' [  .} X.X.' ' ' ' ' c x x x x ;   & x l l c f s $     : x x x c [ ..} } } ' ' ' ' ' [ } } } X.X.' ' ' ' ' ' ' ",
"} } } ' [ ' ' ' [ } } N X.' ' ' ' ' [ x x x i & % ; i x x l l y $ & y ; i f c s l X.}  .} [ ' ' ' ' ' } } [ N o.' ' ' ' ' ' ' ' ",
"X.[ [ [ [ [ N ' [ [ [ X.' ' ' ' ' ' ' c x x u   o s x x s l l &   ; s d f d l x c X.X.X.' [ } } ' N ' [ [ ' X.' ' ' ' ' ' ' ' ' ",
"N X.[ } } ' X.' ' ' ' ' ' ' ' ' ' ' ' ' x s x x x x x x x x x x s x x s s x x x ' X.X.N X.[ } } X.X.' ' ' ' ' ' ' ' ' ' ' ' ' ' ",
"[ ' ' } ' ' ' ' ' ' ' ' ' ' ' ' ' ' ' ' ' X.x x x x x x x x x x x x x x s c X.' ' ' ' ' ' [ } [ ' ' ' ' ' ' ' ' ' [ ' ' ' ' ' ' ",
"' ' ' ' ' ' ' ' ' ' ' ' ' ' ' ' ' ' ' ' ' ' ' ' m c c x f c s x x x b m ' ' ' ' ' ' ' ' ' ' ' ' ' ' ' ' ' ' ' ' ' ' ' ' ' ' ' ' ",
"' ' ' ' ' ' ' ' ' ' ' ' ' ' ' ' ' ' ' ' ' ' o. .| } [ [  . .[ X.o.' ' ' ' ' ' ' ' ' ' ' ' ' ' ' ' ' ' ' ' ' ' ' ' ' ' ' ' ' ' ' ",
"' ' ' ' ' ' ' ' ' ' ' ' ' ' ' ' ' ' ' ' ' ' [ [  ...} [ [ } } N X.o.' ' ' ' ' ' ' ' ' ' ' ' ' ' ' ' ' ' ' ' ' ' ' ' ' ' ' ' ' ' ",
"' ' ' ' ' ' ' X.' [ ' [ ' ' ' [ ' ' ' ' ' ' X.N }  .} } [ [ [ N X.o.' ' ' ' ' ' ' ' [ ' ' ' ' ' ' ' ' ' [ ' ' ' ' ' ' ' ' ' ' ' ",
"' ' ' ' ' ' ' N [ } } [ ' ' ' } [ ' ' ' ' X.N N o.[ } } [ ' ' } } } } ' ' ' ' ' ' ' ' ' ' ' ' ' ' X.N [ } } ' ' ' [  .' ' ' ' ' ",
"' ' ' ' ' [ ' X.[ [ } [ [ ' ' [ ' ' [ ' } } } [ ' ' [ } { ' } } } } X.N X.' ' ' ' ' ' ' ' ' ' ' ' ' X.' } } } ' ' ' [ X.' ' '  .",
"' ' ' ' ' ' ' ' ' [ [ [ ' ' ' ' ' ' ' ' } ....} { [ ' [ [ [ } } o.X.N N o.[ ' ' ' ' ' ' ' ' [ ' ' ' ' ' ' } [ ' ' ' ' ' ' ' ' } ",
"' ' ' ' ' ' ' ' ' ' [ ' ' ' ' ' ' ' ' ' ' [  .} } [ ' [ ' [ [ | o.N N o.' ' ' ' ' ' ' ' ' ' ' ' ' ' ' ' ' ' ' ' ' ' ' ' ' ' ' ' ",
"' ' ' ' ' ' ' ' ' ' ' ' ' ' ' ' ' ' ' ' [ ' [ } } [ ' ' [ ' o.o.[ } { N N N ' ' ' ' ' ' ' ' ' ' ' ' ' ' ' ' ' ' ' ' ' ' ' ' ' ' ",
"' ' ' ' ' ' ' ' ' ' ' ' ' [  .' ' ' ' ' ' ' [ [ [ [ [ [ [ [ [ } } [ X.N N o.' ' ' ' ' ' ' ' ' ' ' ' ' ' ' ' ' ' } } ' ' ' ' ' ' "
};
