/* XPM */
static char *result[] = {
/* columns rows colors chars-per-pixel */
"64 64 73 1 ",
"  c black",
". c #120306",
"X c #1A0408",
"o c #071810",
"O c #091D12",
"+ c #27080C",
"@ c #34080F",
"# c #320E12",
"$ c #3A0911",
"% c #271513",
"& c #2A1414",
"* c #231E17",
"= c #251E19",
"- c #2F1B1A",
"; c #321013",
": c #3A1316",
"> c #351718",
", c #3D1A1B",
"< c #0F351F",
"1 c #0F381F",
"2 c #10351F",
"3 c #103A1E",
"4 c #23221B",
"5 c #24281B",
"6 c #0F2E23",
"7 c #152B21",
"8 c #1E2E23",
"9 c #0F3220",
"0 c #103523",
"q c #1E3324",
"w c #113A25",
"e c #1D3B27",
"r c #11342B",
"t c #1D362A",
"y c #133E29",
"u c #1B3C29",
"i c #143D34",
"p c #222D21",
"a c #282920",
"s c #223424",
"d c #440B14",
"f c #4B0C17",
"g c #520D19",
"h c #5C0E1B",
"j c #441118",
"k c #5B121D",
"l c #620F1D",
"z c #64101E",
"x c #6E1120",
"c c #751323",
"v c #7D1425",
"b c #134524",
"n c #15472E",
"m c #18422C",
"M c #164B2D",
"N c #194C2A",
"B c #17522B",
"V c #18572B",
"C c #175A2A",
"Z c #185B2A",
"A c #154331",
"S c #164830",
"D c #821426",
"F c #861528",
"G c #8C1629",
"H c #90172B",
"J c #95192D",
"K c #9B192F",
"L c #9D1A30",
"P c #A21B31",
"I c #AB1D34",
"U c #B11E36",
"Y c #B51F38",
/* pixels */
"nnMCBnAnnnASMBnnnMBVMMnSAAnnnnnnnnnnnnnnnnnnnMCMnAnnSAABMnnnMBBM",
"MMMNVSinnnninMnnnMBMnnnnnnnnnnnnnnnnnnnnnnBMMMBBSinnnSinMnnnMBBn",
"ZVBnBSinnnnnnnnnnnnnnnnnnnnnnnnnnnnnnnnnnnCCCBnBSinnnnnnnnnnnnnn",
"SBBBnnnBMBBnnnnnnnnnnnnnnnnnnnnnnnnnnnnnSSASMBBnSnBBBMnnnnnnnnnn",
"MMMVnnnVVnSnnnnnnnnnMMnnnnnnMBMnnMMBMnnnBVSMMMBnnnBBMSnnnnnnnnnB",
"CMnBnnnBBSAnSnnnnnnnMBnnnnnnMMBMnnVMMnnnBCCCBnBnnnMBSAnSnnnnnnnM",
"VBMnnnnnnnVBAinnnnnnnnnnnnnnAABBMMBiSnnnnnZBBBnnnnnnMBBiAnnnnnnn",
"VBBnnnnnMBMAASnnnnnnnnnnnnnnSAAMBMnnnBBMASCBBMnnnnnBBMASnnnnnnnn",
"SnMBBninMMMSnnnnnnnnnnnnnnnnnnSnMMnBBBSnAAAAnMBBAAnMMSAnnnnnnnnn",
"iSnBBninnnnnnnnnnnnnnnnnnnnnnnnnnnnMBMiSnniiSMBBAAnnnnnnnnnnnnnn",
"nnMBnnnnnnnnnnnnnnnnnnnnnnnnnnnnnnnnnnnnnnnnnMBnnnnnnnnnnnnnnnnn",
"nnnnnnnnnnnnnnnnnnnnnnnnnnnnBVnnnnnnnnnnnnnnnnnnnnnnnnnnnnnnnnnn",
"nnnnnnnnnnnnnnnnnnnnnnnBVBMnVVnAnnnnnnnnnnnnnnnnnnnnnnnnnnnnnnnn",
"nnnnnnnnnnnnnnnnnnnnnnnBCCVnMBBiSnnnnnnnnnnnnnnnnnnnnnnnnnnnnnnn",
"nnnnnnSSnnnnnnnnnnnnnnSiBCBBMMBAAnnnnnnnnnnnnnnnnAnnnnnnnnnnnnnn",
"nnnnnnnAnVBnnnnBMnnnnAiiSMBBnnSMMBBnnnnnnnnnnnnnnAABBBnnnnVMnnnn",
"nnnnnnSAnBBMnnnMnnnnVVSSnnMBnnBBVMAAnnnnnnnnnnnnnnAMBBMnnMMnnnnB",
"nnnnnnnnnMBBMnnnnnnnBCZBBnnBMMBBMAiAAnnnnMnnnnnnnnnnnBBnnnnnnnnV",
"nnnnnnnnnnnnnnnnnnnnnBZCBMnnnMBBAAiAnnnnnnnnnnnnnnnnnnnnnnnnnnnn",
"nnnnnnnnnnnnnnnnnnnnnnMBBBnnnnnMMSMAiAnnnnnnnnnnnnnnnnnnnnnnnnnn",
"nnnnnnnnnnnnnMBnnnnnnnnMMnnMBMnMVBAiAAnnnnnnnnnnnnnnnnnnMBnnnnnn",
"nnnnnnnnnnMMnBCnnnnnnnnnnnSBBMnBBSiAAMnnnnnnnnnnnnnnMMMAVCAnnnnn",
"nnnnnnnnnBCBnMBiAnnnnnnnnAiBMnnnnnAnnnnnnnnnnnnMnnnnVCBnMMAAnnnn",
"nnnnnnnnnASBBMnnnnnnnnnnnnnnnnnnnnnnnnnnnnnnnnnnnnnnAAVBMnAnnnnn",
"nnnnnnnVVMnSBMMnnnnnnnnnnnnnnnnnnnnnnnnnnnnnnnnnnMBCMnMBMnnnnnnn",
"nnnnnnMCCCVMMMnnnnnnnnnnnAAMMnAnnnnnnnnnnnMnnnnnnSCCCBnBMnnnnnnn",
"nnnnnnnnCZCVMnnnnnnnnnnnnAABBMinnnnnnnnnnMBnnnnnnnnCZCBnnnnnnAnn",
"nnnnABCBMMVBBMnnMVCMnnnnnnMBSAAnnnnnnnnnnnnnnnnnVCBnBCBBMnnBCCnn",
"nnnnASSVBMMBBBnnBBVnnnnnnMBBAAnnnnnnnnnnnnnnnnnASSVMMBBBnnnBVBAn",
"nnnnAiiMBMnBBMnnMMnnnnnnSnMnnnnnnnnnMMnnnnnnnnniiiMBMnBBMnnBnnnn",
"nnnnnAiiAnnnBMMnnnnnnnnnAAAnnnnnnnABBBnnnnnnnnnnAiASnnnBMnnnnnnn",
"nnnnnAnVBMnnMnMnnnnnnnnBSnnnnnnnnMBVMnnnnnnnnnSSASBBMnnMnnnnnnnn",
"nnnnnnnVBMnnnnnnnnnnnnnMnnnnnnnnnnnNn-$$$$$$$$$$$sBNMSnnnnnnnnnn",
"nnnnnnnnnnnnnnnnnnnnnnnnnnnnnnnnm4444kvccccvcccvc,8nnnnnnnnnnnnn",
"nnnnnnnnnnnnnMBnnnnnnnnnnnnnnnnuaggfgHYIIIIIIIIUIx:emnnnBBnnnnnn",
"MnnnnnnnnnnnnMMnnnnnnnnVCVnnnnn=kJLJKPPPPPPPPPPPPIv$qnnnnnnnnnnn",
"BnnnnnnnnnnnnnnnnnnnnnMCVSnnnnn%hIIIIPLPPPPPPLPLPYG@qnnnnnnnnnnn",
"BNnnnnnnnnnnnnnnnnnnnMVNttemeee%lIIIPPPPPLLPPPPPLIGg5unnnnnnnnnM",
"MBnnnnnnnnnnnnnnnnnnBVCs&@;&&@@+lIIIIPPPPPPPPPPPPPPLk;nnnnnnnnnB",
"nnnnnnnnnnnnnnnnnnnq554jccccccclhhkzkvKLPPLPPLPLPPPKk$nnnnnnnnSB",
"nnnnnnnnnMMMnnnnnmtjgfdcUIIIIIIKx$$$$xJPPPPPPPLPPPKFg$MnnnnnSAnn",
"nnnnnnnnnnBBMnnnnq:DKJJKPPPPPPPPLHvccHPPPPPLPPPPPPPPz$VnnnnniAnn",
"nnMZMnnnnAABVMnn8>zKUIIIPPPPPPPPIILHKPPPPLPPPPPPPPPKk$BBMnnnnnVB",
"nnnCVASnnAAAMBme$zJKPPPPPPPPPPPPLPPIPPPPPPPPPPPPPPJDf$ANBnnnMBVM",
"BBBMBSinnnnAMns$zHPPPPPPPPPPPPPPPPLLPPIPPPPPPPPPPHFDg$rMMnnnMMBn",
"CBBnNSAnnnnnmp,zDHJPPPJHHHHHHHHHHHLIIJGHHHHKIPPLJFDGg$2ynnnnnnnn",
"SMBBnnnBBBBnm#lGFvDJPKGvDvvDDDDvvvJILGvvDvDHPKPJvDDcj#<9nnnnnnnn",
"BMnVMnnBVnAnm%lGGFFGGGFFFFFFFFFFFFGGFFDFFFFGGGGGFGcf*76<nnnMnnMM",
"BMMMnnnMBnOOo.$lhhhhhhhhhhhhhhhhhhhhghhhhhhhhghhhlf*99<9ASnnnnnM",
"CBBnnnnnnM    X$$$$@$@$$$$$$$$$$$$$$$$$$$$$$$$$@$$;2<1<rAnnnnnnn",
"BBBnnnnnBBBAAnSnw9999999999996621<99<3w966332<<<<6<21<rSnnnnnnnn",
"ASMBBSAnnMnAnnnnny9999999999<<6<<<93396997669<<166<<<wAnnnnnnnnn",
"iAMBBnAnnnnnnnnnnnn99999999999<6<99<w99999666<1<9699nnnnnnnnnnnn",
"nnnBnnnnnnnnnnnnnnnnyw99999<<999999999999999<<1<20mnnnnnnnnnnnnn",
"nnnnnnnnnnnnnnnnnnnnnnny00<9<1<999999999999969wbmnnnnnnnnnnnSMnn",
"nnnnnnnnnnnnnnnnnnnnnnSVVBNybbw96<9999999wyynSSnnnnnnnnnnnnnnnnn",
"nnnnnnnnnnnnnnnnnnnnnnnBZZBNMBBimnnnnnnnnnnnnnnnnnnnnnnnnnnnnnnn",
"nnnnnnnSnnnnnnnnnnnnnnAiBCBBMnMASnnnnnnnnnnnnnnnnnSnnnnnnnnnnnnn",
"nnnnnnniNVBnnnMBMnnnnAiiAMBBMnnBMVBnnnnnnnnnnnnnnSiMBBnnnMVnnnnn",
"nnnnnnnASBBMnnnMnnnnBCBMnnMVMnMBVMAinnnnnnnnnnnnnnSnBBBnnnMnnnnC",
"nnnnnnnnnnMBMnnnnnnnBCZVMnnBnMVBSSiiSnnnnnnnnnnnnnnnnMBnnnnnnnnV",
"nnnnnnnnnnnnnnnnnnnnnBCBVMnnnMBBSiinnSnnnnnnnnnnnnnnnnnnnnnnnnnn",
"nnnnnnnnnnnnnnnnnnnnnnnBBBnnSnnnMBMiiinnnnnnnnnnnnnnnnnnnnnnnnnn",
"nnnnnnnnnnnnnMCnnnnnnnnMMMnMBMMMBMAiAAnnnnnnnnnnnnnnnnnnBBnnnnnn"
};
