/* XPM */
static char *result[] = {
/* columns rows colors chars-per-pixel */
"64 64 187 2 ",
"   c #371F00",
".  c #0F371F",
"X  c #3F2B0A",
"o  c #0E2C24",
"O  c #0F3220",
"+  c #113724",
"@  c #113B23",
"#  c #133E2A",
"$  c #143E34",
"%  c #462B05",
"&  c #593908",
"*  c #422A10",
"=  c #483418",
"-  c #5A3E11",
";  c #513D1E",
":  c #653D00",
">  c #723E00",
",  c #134323",
"<  c #15472E",
"1  c #164B2D",
"2  c #17522B",
"3  c #19552C",
"4  c #175A2A",
"5  c #185C29",
"6  c #154331",
"7  c #164830",
"8  c #1A4C32",
"9  c #3A412B",
"0  c #264535",
"q  c #304E3E",
"w  c #24563A",
"e  c #634002",
"r  c #6D4505",
"t  c #6C440B",
"y  c #7A4605",
"u  c #66481F",
"i  c #4A422E",
"p  c #55472B",
"a  c #564D39",
"s  c #584838",
"d  c #58523B",
"f  c #715622",
"g  c #775D2B",
"h  c #7A5F2C",
"j  c #62563C",
"k  c #62593B",
"l  c #6D5E3E",
"z  c #76602F",
"x  c #786132",
"c  c #2E5A43",
"v  c #365B48",
"b  c #345E49",
"n  c #386649",
"m  c #3A634D",
"M  c #3C694B",
"N  c #3F6552",
"B  c #655C47",
"V  c #635E51",
"C  c #406652",
"Z  c #446954",
"A  c #566E5D",
"S  c #4D735C",
"D  c #59785B",
"F  c #6A604A",
"G  c #746547",
"H  c #7A6B4D",
"J  c #6D6A53",
"K  c #656959",
"L  c #716D52",
"P  c #5B7966",
"I  c #677867",
"U  c #627A69",
"Y  c #797966",
"T  c #875006",
"R  c #83560E",
"E  c #9C5700",
"W  c #9A5902",
"Q  c #875B16",
"!  c #93640C",
"~  c #936614",
"^  c #966811",
"/  c #936A19",
"(  c #9D711F",
")  c #A4650B",
"_  c #B66C08",
"`  c #B57707",
"'  c #A36D15",
"]  c #A87A16",
"[  c #B47E11",
"{  c #82652D",
"}  c #926E2A",
"|  c #8C6A30",
" . c #8E7538",
".. c #997B38",
"X. c #8C754B",
"o. c #92794A",
"O. c #827C6B",
"+. c #5E8369",
"@. c #63846B",
"#. c #6E8475",
"$. c #758972",
"%. c #B48117",
"&. c #AA8939",
"*. c #D2921C",
"=. c #EE8F02",
"-. c #EB8D0B",
";. c #F08E02",
":. c #EC9204",
">. c #EE9806",
",. c #ED950D",
"<. c #ED9A0F",
"1. c #F19405",
"2. c #F79C09",
"3. c #ED9611",
"4. c #E49812",
"5. c #EB9B14",
"6. c #F29E15",
"7. c #F6A30C",
"8. c #F9A30C",
"9. c #F4A412",
"0. c #FCA611",
"q. c #FAAC15",
"w. c #F3A51B",
"e. c #F4AC19",
"r. c #FCAE19",
"t. c #FDB316",
"y. c #FFBB16",
"u. c #F5B11D",
"i. c #FDB41B",
"p. c #FEBA1E",
"a. c #DA9C21",
"s. c #ECAB26",
"d. c #F4AD24",
"f. c #FCB622",
"g. c #FFBB22",
"h. c #F4B728",
"j. c #FAB72E",
"k. c #FBBB2B",
"l. c #F2B933",
"z. c #FFCB1D",
"x. c #FFCD26",
"c. c #FEC22C",
"v. c #FFD226",
"b. c #FDC233",
"n. c #FAC73A",
"m. c #FCC43B",
"M. c #A98E46",
"N. c #B08D44",
"B. c #AE9449",
"V. c #B3964F",
"C. c #A38851",
"Z. c #AF965C",
"A. c #BEA253",
"S. c #888875",
"D. c #B09C67",
"F. c #BDA467",
"G. c #BCAA74",
"H. c #C9AB59",
"J. c #D7B656",
"K. c #DABC5A",
"L. c #E4BD4D",
"P. c #F6BC43",
"I. c #FECC46",
"U. c #F6C14A",
"Y. c #FAC749",
"T. c #FDCC4C",
"R. c #F9C655",
"E. c #FBCC54",
"W. c #FBCB59",
"Q. c #FED253",
"!. c #FDD35D",
"~. c #FFD95B",
"^. c #FFE05C",
"/. c #E5C662",
"(. c #FCCD61",
"). c #FED461",
"_. c #FEDB63",
"`. c #F6D569",
"'. c #FFDC6E",
"]. c #E7CD78",
"[. c #F3DC71",
"{. c #FFE063",
"}. c #F9E377",
"|. c #E6D58A",
" X c #FFEC80",
".X c #FFF5A8",
"XX c #FFFCB5",
/* pixels */
"< < 1 4 2 < 6 < < < 6 6 2 2 < < < 1 2 2 1 1 < 6 6 6 < < < < < < < < < < < < < < < < < < < < 4 2 < 6 < < < 6 6 2 1 < < < 1 2 3 1 ",
"1 1 1 1 2 7 $ < < < 6 6 < 1 < < 1 1 1 2 1 < < < < < < < < < < < 1 < < < < < < < < 7 1 2 1 1 1 3 6 $ < < < 6 6 < 1 < < < 1 2 2 < ",
"4 4 2 < 2 < $ < < < < < < < < < < < < < < < < < < < < < < < < < < < < < < < < < < 2 4 5 4 2 < 2 6 $ < < < < < < < < < < < < < < ",
"< 2 2 2 1 < < 2 1 2 2 < < < < < < < < < < < < < < < < < < < < < < < < < < < < < < 6 6 < 1 3 2 < < < 2 2 2 2 < < < < < < < < < < ",
"1 1 2 2 < < < 3 3 1 6 < < < < < < < < < 1 1 < < < < < < 1 2 1 1 < 1 2 1 1 < < < 2 3 1 1 < 2 2 < < < 2 2 < 6 < < < < < < < < < 1 ",
"4 1 < 1 < < < 2 2 7 6 7 6 < < < < < < < 1 1 < < < < < < 1 1 2 1 < 1 2 1 < < < < 2 5 5 3 1 < 2 < < < 2 2 7 6 < 6 < < < < < < < 2 ",
"3 2 2 < < < < < < 1 2 2 6 6 < < < < < < 1 < < < < < < < 6 6 2 2 1 1 1 6 6 1 1 < < 1 5 2 3 2 < < < < < < 2 3 2 6 6 < < < < < < < ",
"3 2 2 < < < < < 1 2 2 $ 6 < < < < < < < < < < < < < < < < 6 6 1 3 1 < < 1 3 1 < 6 6 4 2 2 1 < < < < < 2 2 1 $ 6 < < < < < < < < ",
"6 < 1 1 2 < 6 < 1 1 1 6 < < < < < < < < < < < < < < < < < < < 1 1 1 < 1 2 1 6 < 6 6 6 6 < 2 1 2 7 6 < 1 1 < 6 < < < < < < < < < ",
"$ < < 3 2 7 $ < < < < < < < < < < < < < < < < < < < < < < < < < < < < 2 2 7 6 6 < < $ 6 7 1 2 2 6 6 < < < < < < < < < < < < < < ",
"< < < 3 < < < < < < < < < < < < < < < < < < < < < < < < < < < < < < < < < < < < < < < < < 1 2 < < < < < < < < < < < < < < < < < ",
"< < < < < < < < < < < < < < < < < < < < < 1 < < < < < < 2 3 < < < < < < < < < < < < < < < < < < < < < < < < < < < < < < < < < < ",
"< < < < < < < < < < < < < < < < < < < < < < < 2 3 2 1 8 n n M N C C M b b < < < < < < < < < < < < < < < < < < < < < < < < < < < ",
"< < < < < < < < < < < < < < < < < < < < < < < 3 4 4 3 P p = ; ; ; ; p = L b < < < < < < < < < < < < < < < < < < < < < < < < < < ",
"< < < < < < < < < < < < < < < < < < < < < < 6 $ 3 5 @.B G.= B.K.J.J.J.K.N.G Z 7 < < < < < < < < < < < < < < < < < < < < < < < < ",
"< < < < < < < $ 1 3 2 1 < < < 2 1 < < < < 6 $ $ < @.B D.x A.'.I.c.Q.Q.x.h.' J w < < < < < < < < < 6 $ 2 3 1 < < < 1 3 < < < < < ",
"< < < < < < < 6 1 2 2 1 1 < < 1 < < < < 3 2 1 7 #.l H.].X /.Y.p.n.I.k.t.t.*.= w < < < < < < < < < < 6 1 2 2 1 < < < 1 < < < < 2 ",
"< < < < < < < < < 1 1 2 1 < < < < < < < 3 4 4 @.G A.`.x M.n.z.m.T.c.p.p.p.d.( I w < < < < < < < < < < < 1 2 2 < < < < < < < < 2 ",
"< < < < < < < < < < < < < < < < < < < < < 2 D l F.]. ...I.f.n.P.w.7.9.u.g.g.u.! J m < < < < < < < < < < < < < < < < < < < < < < ",
"< < < < < < < < < < < < < < < < < < < < < 1 9 X.XXF.= _.z.n.P.5.1.1.1.2.u.g.g.e.% S < < < < < < < < < < < < < < < < < < < < < < ",
"< < < < < < < < < < < < < 1 2 < < < < < < S k V.|.C.| R.I.P.3.0.r.r.i.0.1.i.g.l.Q I m < < < < < < < < < < < < < 1 2 < < < < < < ",
"< < < < < < < < < 1 1 < < 2 4 < 6 < < < < V .. X&.u ).m.P.,.0.p.f.f.f.f.7.1.f.).d.& U < < < < < < < < < < 1 1 < 2 4 6 < < < < < ",
"< < < < < < < 1 < 1 4 4 < 1 1 6 < < < < Z B N.[.&.h }.E.,.7.i.f.f.i.p.f.p.2.3.E.d.r I c < < < < < < < < 2 4 3 < 2 1 6 6 < < < < ",
"< < < < < < < < < 6 6 2 3 1 < < < < < < B B.}...z `.Q.d.=.0.p.g.f.i.i.p.p.0.,.f.g.r.t I < < < < < < < < 6 7 2 2 1 7 6 < 1 < < < ",
"< < < < < < < 2 2 2 7 1 2 2 < < < < < < d B.}. .g ~.p.:.0.p.g.f.p.p.p.p.b.).R.,.i.i.: U < < < < < 1 3 3 1 < < 4 1 < < < < < < < ",
"< < < < < < < 4 5 5 2 7 1 1 < < < < < < d Z..Xo.g ~.q.=.0.p.p.p.g.p.i.b.).'.(.-.t.i.: U < < < < < 1 4 4 4 2 1 1 1 < < < < < < < ",
"1 < < < < < < 6 4 4 4 4 1 < < < < < < < a Z.XXo.g ~.t.=.8.f.p.p.p.i.n.).~.Y.W.3.i.r.: U < < < < < < < 4 4 4 2 < < < < 6 < < < < ",
"1 < < < < 2 4 2 1 2 2 2 2 1 < < 1 3 5 < a Z.XXo.g ~.r.=.0.p.g.p.i.m.).!.k.k.W.3.i.i.: U < < < < 2 4 2 < 2 4 2 2 1 < < 2 4 4 < < ",
"< < < < 6 7 2 2 2 < 1 3 2 1 < < 2 2 3 < d &.{.} g ~.r.=.0.p.g.p.n.!.~.b.t.k.W.3.i.i.: U < < 6 6 7 2 2 7 2 1 4 3 < < < 2 2 2 < < ",
"< < < < 6 $ $ 1 2 1 < 2 2 2 < < 1 1 < < i %.z.! x ~.i.1.0.p.p.b.!.!.b.i.t.k.W.3.i.r.e U < < < 6 $ $ 1 2 1 < 1 2 1 < < 2 < < < < ",
"< < < < 6 6 $ $ 6 < < < 1 1 1 < < < < < i %.v.^ x ~.u.;.q.g.b.).!.k.i.p.t.b.).,.t.i.e P < < < < 6 $ 6 6 < < < 2 1 < < < < < < < ",
"< < < < < < 6 3 4 < < < 1 1 < < < < < < a [ v.! g ^.i.>.7.i.!.!.b.p.p.i.g.m.P.6.t.i.: U < < < < 6 7 3 2 1 < < < < < < < < < < < ",
"< < < < < < 1 2 2 1 < < < < < < < < < < J ( h.] { L.p.i.:.0.T.b.g.g.i.q.m.R.:.p.c.a.f P 7 7 < < < 1 3 2 1 < < < < < < < < < < < ",
"< < < < < < 1 < < < < < < < 1 < < < < < c F ( v.] t i.k.4.7.i.p.p.p.p.g.m.U.,.k.W.- #.1 < < < < < < < < < < < < < < < < < < < < ",
"< < < < < < < < < < < < < 1 2 < < < < < 1 A / v.] t h.!.E.,.8.t.g.k.g.m.U.<.k.Q.s.- U < < < < < < < < < < < < < 2 3 < < < < < < ",
"< < < < < < < < < < < < < < 1 < < < < < < v L W >.) f `.c.i.>.7.Y.!.).P.,.k.E.d.t $.w < < < < < < < < < < < < < < < < < < < < < ",
"1 1 < < < < < < < < < < < < < < < < < < < < K y 8._ - j.g.p.u.,.3.5.5.9.k.Q.b.9.% S 3 8 < < < < < < < < < < < < < < < < < < < < ",
"2 2 < < < < < < < < < < < < < < < < < < < 1 +.H E -.) R r.p.i.q.q.q.7.k.Q.b.7.f S.c 2 3 1 < < < < < < < < < < < < < < < < < < < ",
"1 1 < < < < < < < < < < < < < < < < < < 1 3 2 P H E _ % e.g.i.p.g.p.m.E.k.z.4.* m 6 $ 3 1 1 < < < < < < < < < < < < < < < < < 2 ",
"1 1 < < < < < < < < < < < < < < < < < < 2 2 < 1 +.H > T ^ r.i.p.g.m.T.m.y.7.Q S.v 7 7 < < < < < < < < < < < < < < < < < < < < 2 ",
"< < < < < < < < < < 1 1 < < < < < < 6 < < 1 1 2 , P H y > ' 0.t.p.b.m.y.6./ O.0 + # < < < < < < < < < < 1 1 1 < < < < < 6 6 < 1 ",
"< < < 1 < < < < < < 2 2 1 < < < < 7 6 < < < < , o o I G T   ! ` ` ` ` ` ~ Y v o O O + < < 1 1 < < < < < 1 2 3 < < < < < 6 6 < < ",
"< < 1 5 1 6 < < < 6 $ 2 3 2 < < < < < 2 2 < + o o o + P V j j j j j j s O.q O O O O + + < 1 5 1 < < < < 6 6 2 2 2 < < < < < 2 2 ",
"< < 1 2 2 < < < < < 6 6 2 1 < < < < 2 2 1 < + O O o o O + O O O O O O . O O O O O O O O 1 1 2 2 6 6 < < 6 6 6 2 1 < < < 1 2 4 1 ",
"2 2 1 1 2 < $ < < < < 6 1 1 < < < < 2 1 < < @ O O O O O O O O O O O O O O O O O O O . , 1 1 1 2 6 $ < < < < 6 1 1 < < < 1 1 1 < ",
"4 4 2 1 1 < 6 < < 1 1 < < < < < < 1 < < < < < + O O O O O O . O O O O O O O O O O O , 4 4 2 1 2 7 6 < < < < < < < < < < < < < < ",
"< 1 2 2 < < < 2 2 2 2 < < < < < < < < < < < < < , O O O O O O O O O O . O O O . + # $ 6 1 2 2 < < < 4 2 4 1 < < < < < < < < < < ",
"2 1 1 2 1 < < 2 2 < 6 < < < < < < < < < 1 1 < < < 6 < , @ @ @ O O . . . + + # < 2 2 2 2 1 1 2 1 < < 2 2 < 6 < < < < < < < < < 2 ",
"2 2 1 1 < < < 2 1 1 6 1 7 6 < < < < < < 2 1 < < < < < < < 1 3 1 < 1 2 7 7 < < < 2 4 4 4 2 1 2 < < < 2 1 7 6 1 6 6 < < < < < < 1 ",
"2 2 2 < < < < < < 1 3 1 6 6 < < < < < < < < < < < < < < $ 6 2 2 1 < 2 6 6 < < < < 1 4 3 2 1 < < < < < < 1 3 2 6 6 < < < < < < < ",
"2 2 2 < < < < < 2 2 2 6 6 < < < < < < < < < < < < < < < < 6 $ 2 3 1 < < 1 3 2 < $ 6 2 2 2 2 < < < < < 2 4 < 6 6 < < < < < < < < ",
"6 7 1 2 1 7 6 < < 1 < < < < < < < < < < < < < < < < < < < < 6 < 1 1 < 1 2 2 6 < < 6 6 6 < < 1 2 6 6 < 1 1 < 6 < < < < < < < < < ",
"$ 6 1 2 2 < 6 < < < < < < < < < < < < < < < < < < < < < < < < < < < < 2 2 < 6 6 < < $ $ 6 1 3 1 < 6 < < < < < < < < < < < < < < ",
"< < < 2 < < < < < < < < < < < < < < < < < < < < < < < < < < < < < < < < < < < < < < < < < 1 4 < < < < < < < < < 1 < < < < < < < ",
"< < < < < < < < < < < < < < < < < < < < < < 6 < < < < < 4 2 < < < < < < < < < < < < < < < < < < < < < < < < < < < < < < < < < < ",
"< < < < < < < < < < < < < < < < < < < < < < 7 4 4 4 < < 2 4 1 6 < < < < < < < < < < < < < < < < < < < < < < < < < < < < < < < < ",
"< < < < < < < < < < < < < < < < < < < < < < 7 2 4 4 2 1 1 2 2 $ 6 < < < < < < < < < < < < < < < < < < < < < < < < < < < < < < < ",
"< < < < < < < < < < < < < < < < < < < < < < 6 $ 2 4 2 2 1 < 1 6 6 < < < < < < < < < < < < < 1 < < < < < < < < < < < < < < < < < ",
"< < < < < < < $ 2 2 1 < < < 1 2 1 < < < < # $ $ < 1 2 2 1 < < 2 2 2 2 < < < < < < < < < < < < < < 6 $ 2 4 1 < < < 1 4 < < < < < ",
"< < < < < < < 6 7 2 2 2 < < < 1 1 < < < 2 4 1 7 < < 1 3 1 < 1 4 4 < 6 $ < < < < < < < < < < < < < < 6 < 1 4 2 < < < < < < < < 4 ",
"< < < < < < < < < < 1 2 1 < < < < < < < 2 4 4 2 1 1 < 2 < 1 2 2 7 6 $ 6 < < < < < < < < < < < < < < < < < 2 1 < < < < < < < < 2 ",
"< < < < < < < < < < < < < < < < < < < < < 2 4 2 3 1 < < < 1 2 2 6 $ $ 6 < 6 < < < < < < < < < < < < < < < < < < < < < < < < < < ",
"< < < < < < < < < < < < < < < < < < < < < 1 1 2 3 1 < < < < < 7 7 3 1 6 $ 6 < < < < < < < < < < < < < < < < < < < < < < < < < < ",
"< < < < < < < < < < < < < 2 2 < < < < < < < 1 1 1 1 < 1 2 1 < 1 2 2 6 $ $ < < < < < < < < < < < < < < < < < < < 1 4 < < < < < < "
};
