/* XPM */
static char *xpm_[] = {
/* columns rows colors chars-per-pixel */
"32 32 15 1 ",
"  c #6AA241",
". c #89AF32",
"X c #AC9888",
"o c #A8C029",
"O c #528D52",
"+ c #A1786C",
"@ c #AC8E74",
"# c #3F824F",
"$ c #8F8D6F",
"% c black",
"& c #FCE54E",
"* c #FFC900",
"= c #FFF2A0",
"- c gold",
"; c white",
/* pixels */
"  ..X.oo.. ..o.   ..X.oo.. ..o. ",
"o. . ..  .o. .  o. . ..  .o. .  ",
" .. O +@. . . .. .. O +@. . . ..",
".  .. .  #  X O .  .. .  #  X O ",
" ..$ . #.oo. ..  ..$ . #.oo. .. ",
"o.  .o.  .  .o%%%%  .o.  .  .o.o",
".O.  ..o. . %%&&&&%% ..o. .  .  ",
"X.o... O .O%&&****&&%. O .O . .X",
".o. . .o. %&**=---**&%.o. ..o.. ",
" ..oo.  O %&*;------*%  O  . . .",
". .. .. .%&*=--------&% ... .oo.",
"  O X ..X%&*----&----&%.X O.O . ",
"..o. .  %&*----&&*---&*% .o ..$ ",
"o. ..o.o%&*---&*&*---&*%.  .   .",
"  .o.. .%&*---*-&*---&*% O  . ..",
"@.    . %&*-----&*---&*%. .. . +",
"  ..X.oo%&*-----&*---&*%.. ..o. ",
"o. . .. %&*-----&*---&*% .o. .  ",
" .. O $@%&*-----&*---&*%. . . ..",
".  .. . %&*-----&*---&*% #  X O ",
" ..$ . O.%*-----**--&*%O.oo. .. ",
"o.  .o.  %*---------&*%  .  .o.o",
".O.  ..o. %&-------&*%.o. .  .  ",
"X.o... O .%*&&----&&*% O .O . .X",
".o. . .o. .%**&&&&**% .o. ..o.. ",
" ..oo.  O  .%%****%%o.  O  . . .",
". .. .. ... .o%%%%.. .. ... .oo.",
"  O X ..X O.O .   O X ..X O.O . ",
"..o. .   .o ..$ ..o. .   .o ..$ ",
"o. ..o.o.  .   .o. ..o.o.  .   .",
"  .o.. . O  . ..  .o.. . O  . ..",
"$.    . . .. . $@.    . . .. . $"
};
