/* XPM */
static char *result[] = {
/* columns rows colors chars-per-pixel */
"64 64 179 2 ",
"   c #1C1C17",
".  c #161F1A",
"X  c #1B1D1B",
"o  c #201F14",
"O  c #0D2D1D",
"+  c #19201C",
"@  c #142B1D",
"#  c #0E321C",
"$  c #0F391B",
"%  c #12351D",
"&  c #113E1E",
"*  c #2B2610",
"=  c #23231A",
"-  c #2C2A18",
";  c #2D321C",
":  c #35331C",
">  c #3C3519",
",  c #0D2621",
"<  c #0E2921",
"1  c #1B2320",
"2  c #142E21",
"3  c #182D23",
"4  c #122E28",
"5  c #0F3221",
"6  c #133322",
"7  c #193325",
"8  c #113B24",
"9  c #1A3628",
"0  c #163C29",
"q  c #193A29",
"w  c #163330",
"e  c #143E34",
"r  c #213423",
"t  c #253B26",
"y  c #2C3C24",
"u  c #383721",
"i  c #3C3B22",
"p  c #433D1E",
"a  c #443E22",
"s  c #134325",
"d  c #194427",
"f  c #15472E",
"g  c #1A432D",
"h  c #164B2D",
"j  c #144A22",
"k  c #17522B",
"l  c #18572B",
"z  c #175A2A",
"x  c #185C29",
"c  c #154331",
"v  c #1D4531",
"b  c #174830",
"n  c #1A4B32",
"m  c #294424",
"M  c #3E4824",
"N  c #384426",
"B  c #205933",
"V  c #5C4C19",
"C  c #61551E",
"Z  c #70641F",
"A  c #4A4524",
"S  c #444C27",
"D  c #534C25",
"F  c #564F2B",
"G  c #515027",
"H  c #545229",
"J  c #5B5523",
"K  c #625724",
"L  c #655B25",
"P  c #645A29",
"I  c #685E29",
"U  c #6D6123",
"Y  c #6E612A",
"T  c #706627",
"R  c #766A2C",
"E  c #7A6D2B",
"W  c #7F7331",
"Q  c #84792D",
"!  c #8A7A2B",
"~  c #88762C",
"^  c #94832B",
"/  c #9A882B",
"(  c #978837",
")  c #A38E2C",
"_  c #D7970C",
"`  c #D7980C",
"'  c #D89B0F",
"]  c #D99F11",
"[  c #D7A112",
"{  c #DCA115",
"}  c #DDA91A",
"|  c #E2AD1E",
" . c #D8B82F",
".. c #C3A733",
"X. c #C4AD34",
"o. c #CEB135",
"O. c #D3B633",
"+. c #D6B933",
"@. c #DFBF34",
"#. c #D3B739",
"$. c #D8BB3C",
"%. c #E5B424",
"&. c #E8B626",
"*. c #E9B827",
"=. c #E4BB2D",
"-. c #EABC2C",
";. c #ECBD30",
":. c #E3BF33",
">. c #DFC033",
",. c #DFC13C",
"<. c #ECC02F",
"1. c #E2C133",
"2. c #EDC432",
"3. c #EDCB34",
"4. c #E4C53A",
"5. c #E8C73A",
"6. c #EBC93A",
"7. c #F0CB36",
"8. c #F2CD3A",
"9. c #F0C334",
"0. c #F5D03E",
"q. c #BEA840",
"w. c #C1AD42",
"e. c #DBBF42",
"r. c #D5BA42",
"t. c #DAC044",
"y. c #D7C14C",
"u. c #EDCF46",
"i. c #E2C749",
"p. c #E4C94D",
"a. c #EACE49",
"s. c #E2C546",
"d. c #EED046",
"f. c #EFD24C",
"g. c #F5D444",
"h. c #F9D644",
"j. c #F7D846",
"k. c #FBDA46",
"l. c #F4D549",
"z. c #F8D74C",
"x. c #F7D848",
"c. c #FEDC4A",
"v. c #F7D751",
"b. c #FCDC53",
"n. c #F1D35B",
"m. c #FBDE5B",
"M. c #FBE05B",
"N. c #F5DB61",
"B. c #F9DD63",
"V. c #F0D96B",
"C. c #F1DD7E",
"Z. c #FDE164",
"A. c #FDE26A",
"S. c #FDE375",
"D. c #F6E17F",
"F. c #FDE57C",
"G. c #ECDB80",
"H. c #E5DB8F",
"J. c #EEDF8C",
"K. c #E1D683",
"L. c #F3DF83",
"P. c #EADE92",
"I. c #EBDE98",
"U. c #EFE08C",
"Y. c #F4E085",
"T. c #FDE787",
"R. c #F4E38E",
"E. c #F8E48A",
"W. c #FDEA8C",
"Q. c #EDE192",
"!. c #EFE09A",
"~. c #FEED96",
"^. c #F0E29A",
"/. c #FDED9D",
"(. c #F9E391",
"). c #FEEDA6",
"_. c #FEEFB1",
"`. c #FEF0B6",
"'. c #FEF1BC",
/* pixels */
"f f h z k f c f f f c c k k f f f h k k h f f f c f f f f f f f f f f h f f f f f f f f f f z k b c f f c c c k h f f f h k l h ",
"h h h h k b e f f f f e f h f f f h k k f f f f f f f f f f f f f f f f f f f f f h k h h h h k c e f f f c c h h f f f h k k f ",
"z z k f k b c f f f f f f f f f f f f f f f f f f f f f f f f f f f f f f f f f f h x x z k f k c e f f f f f f f f f f f f f f ",
"f k k k f b b k h k k f f f f f f f f f f f f f f f f f f f f f f f f f f f f f c c c b k k k f f f k k k k f f f f f f f f f f ",
"h h k k f f f k k h c b f f f f f f f f h h f f f f f f h k h f f f h k h f f f k k h h h k k h f f k k h c f f f f f f f f f h ",
"l k f k f f f k k b c f c f f f f f f f h k f f f f f f h h k h f h k h h f f f k x x z h f k f f f k k b c f c f f f f f f f k ",
"l k k f f f f f f h k k c c f f f f f f f f f f f f f f c c l k h h k e c f f f f f x k k k f f f f f f h k k c c f f f f f f f ",
"k k h f f f f f k k k e c b f f f f f f f f f f f f f f c c c h k k f f h l k f c b z k k h f f f f f k k k e c c f f f f f f f ",
"c f h h k b c f f h h c f f f f f f f f f f f f f f f f f f f h h f f k l h b f b c c c f h k h c c f h h f c b f f f f f f f f ",
"c c h l k c c f f f f f f f f f f f f f f f f f f f f h f f f f f f f h h b e f f g e e b h k k c c f f f f f f f f f f f f f f ",
"f f f k f f f f f f f f f f f f f f f f f f f f f f v 9 + = + = = = = = q f g b b f f f f h k v f f f f f f f f f f f f f f f f ",
"f f f f f f f f f f f f f f f f f f f f f f f g 3 3 @ M Q ^ ^ ^ ^ ^ ^ ^ y 2 2 2 g f b f f f f f f f f f f f f f f f f f f f f f ",
"f f f f f f f f f f f f f f f f f f f f f f n d X X X J X.1.>.>.1.>.>.>.: + . 1 0 b b b f f f f f f f f f f f f f f f f f f f f ",
"f f f f f f f f f f f f f f f f f f f f f f q m Z U Z / 1.0.0.0.0.0.0.0.Q R R Y m 9 g b b f f f f f f f f f f f f f f f f f f f ",
"f f f f f f f f f h f f f f f f f f f f g g + D 1.2.1.3.g.j.j.j.l.x.j.x.l.f.l.t.A X q b f f f f f c f f f f f f f f f f f f f f ",
"f f f f f f f e b l k f f f f k f f f g q r D ! 3.6.7.3.2.2.2.2.2.2.2.2.x.h.z.u.Q P t 9 f b f f f c c k k k f f f h l h f f f f ",
"f f f f f f b c f k k b f f f h h f b 0 X A o.5.g.x.h.1.] ` ` ` _ _ ' ' h.c.k.k.z.x.F   f n f f f f c h k k h f f f h f f f f k ",
"f f f f f f f f f h k k h f f f f f 9 i Y ! 4.0.x.g.2.&.%.%.%.%.%.&.%.&.-.9.k.k.k.b.( R r 7 q b f f f f h k k f f f f f f f f z ",
"f f f f f f f f f f f f f f f f c 6 1 K 1.3.j.j.k.7.{ | h.c.z.c.k.k.k.c.] ] h.k.c.k.c.v.: X 9 n f f f f f f f f f f f f f f f f ",
"f f f f f f f f f f f f f f f f f 6 X K 1.3.g.0.<.-.%.<.h.c.S.S.A.Z.b.c.&.&.;.9.h.c.k.c.: X q n b f f f f f f f f f f f f f f f ",
"f f f f f f f f f f f f f h k f b 7 X C =.7.h.2.' | 8.k.c.M.'.'.).W.m.c.k.0.{ { 0.c.c.c.: X 9 n b f f f f f f f h k f f f f f f ",
"f f f f f f f f f h h h h h z f 7 S Y ) 3.3.-.*.*.-.h.M.F.T.W.W.F.A.c.c.c.k.-.-.n.V.b.c.( W N 7 f f f f f f f f l z b f f f f f ",
"f f f f f f f f f k z k h h k e + R o.6.h.7.' | k.k.c.S.'.`.M.c.b.c.c.c.c.c.k.b.G.H.N.c.z.l.I X 8 f f f l x k f h h e c f f f f ",
"f f f f f f f f h c c k k h h f   E +.6.h.7.' | c.c.c.S.'.`.b.c.c.c.c.c.c.c.c.b.Y.I.N.c.c.v.Y + 0 b f f c c l k h f c f f f f f ",
"f f f f f f h k k h c h l h f f   E O.7.h.8.' | k.c.c.F.'.`.M.c.c.c.c.c.c.c.c.b.E.^.B.c.c.c.Y + 0 h l k f f h k h f f f f f f f ",
"h f f f f f h z x x z h h h f f X E O.7.x.8.' | c.k.c.S.`.`.c.c.c.c.c.c.c.c.c.b.E.^.B.c.c.z.Y X 8 h z z z l f k h f f f f f f f ",
"h f f f f f f f z z z k h f f f + E O.8.h.7.' | c.c.c.B././.c.c.c.c.c.c.c.c.c.b.E.^.B.c.k.v.I 1 0 b f z x x k f f f f f f c f f ",
"f f f f c k z k h k z k k h f h o E +.8.x.7.' | c.c.c.A.~.W.M.c.c.c.c.c.c.c.c.b.E.!.B.c.c.c.Y X d k k h k l l k h f f k z z f f ",
"f f f f c f h k h k h k k k f f X E +.3.k.7.] | k.c.c.A.~.~.b.c.c.c.c.c.c.c.c.c.Y.I.B.c.c.v.Y 1 0 k k n h k l k h f c k l k f f ",
"f f f f c e e b k h f k k h f f + Y ..5.k.8.{ | h.k.c.B.~.W.b.c.c.c.c.c.c.c.b.M.L.P.N.c.f.p.P 1 w c h k h f h k h f f k f f f f ",
"f f f f f c e c c f f f k h f f n 3 = L u.k.k.2.' } h.c.c.c.c.c.c.c.c.c.k.M.W.R.B.c.c.z.> o 9 n c e e c f f f l h f f f f f f f ",
"f f f f f c f k k b f f f h f f f 7 1 P l.z.k.8.} %.2.8.k.c.c.c.c.c.c.c.M.Z.D.D.m.k.h.l.: X q n c b l l f f f f f f f f f f f f ",
"f f f f f f f l k h f f f f f f b 7 + L d.c.c.x.x.8.] | h.c.c.c.c.c.c.k.R.R.b.x.k.k.8.6.: X 9 n b f k k f f f f f f f f f f f f ",
"f f f f f f f f f f h f f f f f b 9 1 G q.r.x.c.k.g.| =.v.m.M.M.M.M.M.M.D.C.b.c.k.k.$...; . q n b f f f f f f f f h f f f f f f ",
"f f f f f f f f f f f f f h l f b g g q u J f.z.k.k.h.n.G.J.R.R.W.R.R.U.M.c.c.k.8.3.T : q v n b f f f f f f f f k k f f f f f f ",
"h f f f f f f f f f f f f f h f f c b 9 . A y.f.c.c.k.N.K.H.Q.Q.R.Q.Q.H.b.k.c.j.6.$.D X v n n n f f f f f f f f f f f f f f f f ",
"k h f f f f f f f f f f f f f f f f f f f q - P c.c.c.c.b.v.b.b.b.v.b.v.c.c.3.+.V * m n n n n f f f f f f f f f f f f f f f f f ",
"k h f f f f f f f f f f f f f f f f f f f g = H i.i.p.a.c.c.c.c.c.c.c.c.a.t.$.X.A X g B k b b f f f f f f f f f f f f f f f f h ",
"h k f f f f f f f f f f f f f f f f f f s & % @       I i.c.c.c.c.k.3.2.>       @ 6 4 s n b c f f f f f f f f f f f f f f f f k ",
"f f f f f f f f f f f f f f f f f f 8 O # # % @ + + + H w.t.t.e.t.$.o.o.: X . X 3 8 < < # 5 s f f f f f f f f f f f f f f f f k ",
"f f f f f f f f f f h h f f f f s O O O O # O $ 5 < % 3 i a a a a a a p 3 3 3 3 5 6 O O O O O 8 f f f f f h h f f f f f c c f f ",
"f f f h f f f f f h l k h f f f 5 , < O O O O O < < 5 @ . + X . + + + . 2 5 6 O O O O O O O O O f f f f h k l h f f f f c c f f ",
"f f h z h f f f f c e k l h f f 5 O O # # # O , , , # O O O @ O O O O O O O O O O O O O O O $ # s b f f c c k k k f f f f f l l ",
"f f f z k f c f f c c c h k f f 8 5 # # # O O O O O O O O O O O O O O O O O O O O O O O O # # j c c f f c c c k h b f f h k l f ",
"k h h h k b e f f f f c h h f f f f 8 # O O O O O O O O O O O O O O O O O O O O O O $ # # 5 s k c e c f f f c f h f f f h h k f ",
"z z z f k f e f f f h f f f f f f f f f 8 5 O O O O O O O O O O O O O O O O O O O # & j l k f k f c h f f f f f f f f f f f f f ",
"f h k k f f f k k k k f f f f h f f f f f f f 0 8 5 5 O O O O O O O O O # # 5 8 8 c e c h k k f f h k k k k f f f f f f f f f f ",
"h h h l f f f l l b 0 f f f f f f f f f h h f f f f f f h k h f 0 f h h h f f f k l k h h h k h f h k k f c f f f f f f f f f k ",
"z h h k f f f h k f f h f c f f f f f f h h f f f f f f c h z h h h k c c f f f h z z z k h k f f f h k h c h c c f f f f f f h ",
"l k k f f f f f f h k h c c f f f f f f f h f f f f f f c c h k h h h c c h f f f h z k k h f f f f f f h k k c c f f f f f f h ",
"k l k f f f f f k z h c c f f f f f f f f f f f f f h f f c c h k h h f h z k h c c k k k k f f f f f k k h c f f f f f f f f f ",
"c f h h k f e f h h f c f f f f f f f f f f f f f f f f f f c h h h h h k h c f c c c c c h k h c c f h h f c f f f f f f f f f ",
"e c f z k f c f f f f f f f f f f f f f f f f f f f f f f f f f f f f h h h c c f f c c c h k k c c f f f f f f f f f f f f f f ",
"f f f k f f f f f f f f f f f f f f f f f f f f f f f f h h f f h f f h f f f f f f f c f h k f f f f f f f f f f f f h f f f f ",
"f f f f f f f f f f f f f f f f f f f f f f f f f f f f k k f c f f f f f f f f f f f f f f h f f f f f f f f f f f f f f f f f ",
"f f f f f f f f f f f f f f f f f f f f f f f l z k h f k z h c f f f f f f f f f f f f f f f f f f f f f f f f f f f f f f f f ",
"f f f f f f f f f f f f f f f f f f f f f f h k z z k h h k h e c f f f f f f f f f f f f h f f f f f f f f f f f f f f f f f f ",
"f f f f f f f c f h f c f f f f f f f f f f c e k z k k h h h c c f f f f f f f f f f f f f f f f f f h f f f f f f f f f f h f ",
"f f f f f f c c h z k f f f h k h f f f f c e e c h k k h h h k k k k f f f f f f f f f f f f f f c e h k k f f f h k f f f f f ",
"f f f f f f f f f h k k h f f h f f h f k z h h h f h k h h h k k h c c c h f f f f f f f f f f f f c f k k k h f h h f f f f k ",
"f f f f f f f f f h h h f f f f f f f f h z z z h h h h h h k k b c e e f h f f f f f f f f f f f f f f h h k f f f f f f f f k ",
"f f f f f f f f f f h f f f f f f f f f f k z k k h f f f h k k c e e c f c f f f f f f f f f f f f f f f f f f f f f f f f f f ",
"f f f f f f f f f f f f f h f f f f f f h f h k k h h f h f c c h k h c e c f f f f f h f f f f f f f f f f f f f f f f f f f f ",
"f f f f f f f f f f f f f h k h f f f f f f f h h h h h h h h k k k c e c c f f f f f f f f f f f f f f c f f f k k h f f f f f "
};
