/* XPM */
static char *result[] = {
/* columns rows colors chars-per-pixel */
"32 32 97 2 ",
"   c #252324",
".  c #292627",
"X  c #2A2826",
"o  c #2A2728",
"O  c #2C2929",
"+  c #332F2D",
"@  c #35312E",
"#  c #363332",
"$  c #3A3634",
"%  c #3E3936",
"&  c #3E3A39",
"*  c #413A32",
"=  c #423D3B",
"-  c #364C26",
";  c #3C562A",
":  c #334831",
">  c #404D26",
",  c #465527",
"<  c #4A5C24",
"1  c #45413D",
"2  c #49433F",
"3  c #47682F",
"4  c #596F28",
"5  c #4F7733",
"6  c #567F38",
"7  c #474241",
"8  c #4A4541",
"9  c #4E4945",
"0  c #524C46",
"q  c #544E4A",
"w  c #584F49",
"e  c #515140",
"r  c #56514C",
"t  c #5A534E",
"y  c #5A594B",
"u  c #5C5651",
"i  c #5E5853",
"p  c #5F5A59",
"a  c #61564C",
"s  c #665A4E",
"d  c #625B55",
"f  c #685E55",
"g  c #645D59",
"h  c #685F59",
"j  c #436E42",
"k  c #5D7C44",
"l  c #757B4A",
"z  c #6B6157",
"x  c #67605B",
"c  c #6A625C",
"v  c #70665D",
"b  c #746C5F",
"n  c #697955",
"m  c #69745A",
"M  c #6D6661",
"N  c #6F6963",
"B  c #726B64",
"V  c #786E64",
"C  c #766E69",
"Z  c #79726C",
"A  c #856C64",
"S  c #8A7565",
"D  c #84766B",
"F  c #8A7C71",
"G  c #A1786C",
"H  c #578238",
"J  c #588438",
"K  c #6D8A2D",
"L  c #61943D",
"P  c #7C983D",
"I  c #7EA230",
"U  c #3F824F",
"Y  c #538651",
"T  c #528D52",
"R  c #64844A",
"E  c #758A45",
"W  c #74844A",
"Q  c #679D40",
"!  c #689A44",
"~  c #699648",
"^  c #7A9442",
"/  c #6AA241",
"(  c #87963D",
")  c #9CB228",
"_  c #82A631",
"`  c #85A933",
"'  c #89AF32",
"]  c #84A53E",
"[  c #94A63B",
"{  c #9DB135",
"}  c #9DB13C",
"|  c #A6BE29",
" . c #A8C029",
".. c #858F4D",
"X. c #8F8D6F",
"o. c #AC8E74",
"O. c #AC9888",
/* pixels */
"/ / ' ' O.'  . .' ' / ' '  .' / / / ' ' O.'  . .' ' / ' '  .' / ",
" .' / ' / ' ' / / '  .' / ' / /  .' / ' / ' ' / / '  .' / ' / / ",
"/ ' ' / T / G o.' / ' / ' / ' ' / ' ' / T / G o.' / ' / ' / ' ' ",
"' / / ' ' / ' / / U / / O./ T / ' / / ' ' / ' / / U / / O./ T / ",
"/ ' ' X./ ' / U '  . .' / ' ' / / ' ' X./ ' / U '  . .' / ' ' / ",
" .' / / '  .' / / ' / / '  .'  . .' / / '  .' / / ' / / '  .'  .",
"' T ' / / ' '  .' / ' / / ' P / ' T ' / / ' '  .' / ' / / ' / / ",
"O.'  .' ' ' / T / ' Y ! ^ R E D F E ( ^ ^ ] / T / ' T / ' / ' O.",
"'  .' / ' ~ ` [ W d 2 i t r d r i x i a i y i ..^ / ] '  .' ' / ",
"/ ' ' } l x t r x M r y 0 9 0 0 r y 0 r t 7 t u r y d W Q ' / ' ",
"' / ` r 0 t c B d x g i 9 r 2 r 1 w r 9 t g p q x B x r y  . .' ",
"/ L m d c x x i M i r 9 d t t t d z z p 9 t u p t x v x c n ' / ",
"' E a a f f i B r x i x r h g u z s r d p t r q c r h h p u b / ",
"{ c d t d h a d i r Z g i x g p b v d 0 g p u u f f B B d t c ] ",
"R r 9 1 t 9 t d y y c C x Z N x d x h t q g q h d f c d 8 t u E ",
"S d q = 9 t r x r r c c x x N Z c u d t h p u r C h x h $ q g A ",
"6 r q % t t t 9 x i u u N M x x h N u u t q g C u d M a + w r k ",
"( p u 8 + 8 f v r p x p i y r 1 u 9 p 9 p t q 7 h M d o 2 7 u 5 ",
"L * t d 8 X = s V c r t r g x p p p g u r q c c 9 7 O u v c $ _ ",
"' 6 $ u 7 9 = + * e M N M M x p r p u g M g = #   = r w d @ j ! ",
"/ ' K 7 x p h 7 8 %   # @ 2 9 9 & 7 7 # #   @ = 9 d d d = K ' / ",
" .' / - @ q $ q d f 0 q 2 1 % 1 7 $ 7 7 9 7 q g q $ = . > | ' | ",
"' T ' / J > <     = 9 d x x i m d u t r q = & o o ; > 6 / ' / / ",
"O.'  .' ' ' / T H 4 : o X         o   o O , 3 j Q ' T / ' / ' O.",
"'  .' / ' / '  .' / ' '  .' I L P ) _ / ' / '  .' Q ' '  .' ' / ",
"/ ' '  . .' / / T / / ' / ' / ' P ' '  . .' / / T / / ' / ' / ' ",
"' / ' ' / ' ' / ' ' ' / '  . .' ' L ' ' / ' ' / ' ' ' / '  . .' ",
"/ / T / O./ ' ' O./ T ' T / ' / / L T / O./ ' ' O./ T ' T / ' / ",
"' '  .' / ' / / / '  ./ ' ' X./ ' '  .' / ' / / / '  ./ ' ' X./ ",
" .' / ' '  .'  .' / / ' / / / '  .' / ' '  .'  .' / / ' / / / ' ",
"/ / '  .' ' / ' / T / / ' / ' ' / / '  .' ' / ' / T / / ' / ' ' ",
"X.' / / / / ' / ' / ' ' / ' / X.o.' / / / / ' / ' / ' ' / ' / X."
};
