/* XPM */
static char *result[] = {
/* columns rows colors chars-per-pixel */
"64 64 156 2 ",
"   c #143E33",
".  c #143F33",
"X  c #143B35",
"o  c #143A36",
"O  c #143B36",
"+  c #143C34",
"@  c #143D34",
"#  c #143C35",
"$  c #143D35",
"%  c #143E34",
"&  c #143F34",
"*  c #153F34",
"=  c #143E35",
"-  c #143C36",
";  c #15452E",
":  c #15442F",
">  c #15452F",
",  c #15462E",
"<  c #15472E",
"1  c #15462F",
"2  c #15472F",
"3  c #16462F",
"4  c #16472F",
"5  c #15482D",
"6  c #15492D",
"7  c #16492D",
"8  c #154A2D",
"9  c #154B2D",
"0  c #164A2D",
"q  c #164B2D",
"w  c #15482E",
"e  c #15492E",
"r  c #15482F",
"t  c #16482E",
"y  c #16492E",
"u  c #16482F",
"i  c #16492F",
"p  c #154A2E",
"a  c #164A2E",
"s  c #164B2E",
"d  c #164A2F",
"f  c #164B2F",
"g  c #154C2D",
"h  c #164C2C",
"j  c #164D2C",
"k  c #164C2D",
"l  c #174C2D",
"z  c #164D2D",
"x  c #174D2D",
"c  c #164E2C",
"v  c #174E2C",
"b  c #164F2C",
"n  c #174F2C",
"m  c #164E2D",
"M  c #174E2D",
"N  c #164F2D",
"B  c #174F2D",
"V  c #164C2E",
"C  c #164D2E",
"Z  c #164D2F",
"A  c #164E2E",
"S  c #164F2F",
"D  c #16502B",
"F  c #17502B",
"G  c #16512B",
"H  c #17512B",
"J  c #17522A",
"K  c #17532A",
"L  c #17522B",
"P  c #16532B",
"I  c #17532B",
"U  c #17542A",
"Y  c #17552A",
"T  c #16542B",
"R  c #17542B",
"E  c #17552B",
"W  c #17562A",
"Q  c #17572A",
"!  c #17562B",
"~  c #17572B",
"^  c #16502C",
"/  c #17502C",
"(  c #16512C",
")  c #17512C",
"_  c #17502D",
"`  c #17512D",
"'  c #16522C",
"]  c #17522C",
"[  c #17532C",
"{  c #17522D",
"}  c #17532D",
"|  c #16502E",
" . c #17502E",
".. c #17542C",
"X. c #18572A",
"o. c #18562C",
"O. c #175829",
"+. c #175929",
"@. c #175A29",
"#. c #175B29",
"$. c #17582A",
"%. c #17592A",
"&. c #17582B",
"*. c #175A2A",
"=. c #175B2A",
"-. c #175C29",
";. c #185B29",
":. c #18582A",
">. c #18592A",
",. c #18582B",
"<. c #18592B",
"1. c #185A2A",
"2. c #185B2A",
"3. c #185C29",
"4. c #185D29",
"5. c #185E28",
"6. c #185E29",
"7. c #185C2A",
"8. c #144131",
"9. c #154131",
"0. c #154330",
"q. c #144231",
"w. c #154231",
"e. c #144331",
"r. c #154331",
"t. c #144032",
"y. c #144132",
"u. c #154132",
"i. c #144033",
"p. c #154033",
"a. c #144133",
"s. c #154133",
"d. c #144232",
"f. c #154232",
"g. c #154332",
"h. c #154233",
"j. c #154333",
"k. c #144430",
"l. c #154430",
"z. c #154530",
"x. c #154431",
"c. c #154531",
"v. c #154630",
"b. c #154730",
"n. c #154631",
"m. c #164630",
"M. c #164730",
"N. c #164731",
"B. c #154432",
"V. c #154532",
"C. c #154632",
"Z. c #144034",
"A. c #154034",
"S. c #154830",
"D. c #164830",
"F. c #164831",
/* pixels */
", , 8 X.G 2 8.< < > w.B.B b < < < 0 ^ L c 0 , w.w.l.< < < < < < < < < < < < < < < < , , , q X./ v.q.< < l.w.V.) j , < < q ^ I j ",
"b z q c I D.+ < < < , & a k < < < 0 b b 6 , < < w < < < < < < < < < < < < < < < < p c c k q c I c.@ < < < z.. k q < < < k ^ b w ",
"7.$.^ w / D.% w w w w < < < < < < < < < < < < < < < < < < < < < < < < < < < < < , z 2.7.Q b e H c.. w w w w < < < < < < < < < < ",
"2 N I ) 9 , 2 / ) H / w < < < < < < < < < < < < < < < < < < < < < < < < < < < < , l.A.r b I / p 1 t ) ) H b < < < < < < < < < < ",
"z k z I 8 , e I K C x.< < < < < < < < < k k < < < < < < k b j < , 8 c c 8 < < < / ..A z k m L e , 0 I I f x.< < < < < < < < < z ",
"W m a b 6 , w b ^ i f.q 1 > < < < < < < z z < < < < < < a N L q < q L C y , < , ( #.5.E z q b e , 6 b ^ M.g.0 z.> < < < < < < b ",
"E L / w < < < < < k I ) h.i.< < < < < < < < < < < < < < i.g.] L q q / & r.e w < , z 4.R L b < < < < < w z I / & u.w < < < < < < ",
"R I / < , < < < v L / Z.r.1 < < < < < < < < < < < < < < 1 r.a.) L c w > k L F e t.B.E I I b , , < < w n K z Z.x.1 < < < < < < < ",
"x.r z c b u y.< q k 0 f.1 < < < < < < < < < < < < < < < < > r.q k a < c L N c.< l.r.x.x.i j c b v.d.< q k y f.1 < < < < < < < < ",
"@ q.7 I H S.. < < , < < < < < < < < < < < < < < < < < < < < < < , < w b D d & > 5 z.% % r.q I ) z.i.< < , < < < < < < < < < < < ",
"< < e H 8 < < < < < < < < < < < < < < < < < < < < < < < w w < < < < < < < < < < < < < < < q H e < < < < < < < < < < < < < < < < ",
"< < < e < < < < < < < < < < < < < < < < < < < , , , < , ...., < < < < < < < < < < < < < < w e < < < < < < < < < < < < < < < < < ",
"< < < < < < < < < < < < < < < < < < < < < < e R E ) z < L E k q.z.< < < < < < < < < < < < < < < < < < < < < < < < < < < < < < < ",
"< < < < < < < < < < < < < < < < < < < < < < e ..7.=.L 9 z H ) @ 9.w < < < < < < < < < < < < < < < < < < < < < < < < < < < < < < ",
"< < < < < < < < < w w < < < < w < < < < < < 1 # ` @.L L q q / & r.w w < < < < < < < < < < < < < < < < < w w < < < < w < < < < < ",
"< < < < < < > % s L n w < < e / 9 < < < < r.# O z.c L L q < e M n H F w < < < < < < < < < < < < < z.& x L m < < < 8 ) 6 < < < < ",
"< < < < < < 1 f.y / L c e < w k e < < < / { Z D.1 w z L q w z L R _ c.y.z.< < < < < < < < < < < < 1 w.s ^ L c w < w k w < < < ( ",
"< < < < < < < w , 0 n / 8 < < , < < < < I 3.5.U z w < n 0 0 I L n N.o % l.w < < < < < < < < < < < < < < q / / e < < , < < < < E ",
"< < < < < < < < < < < < < < < < < < < < , ^ 3.I L c < < , q L I B.# = v.< < < < < < < < < < < < < < < < < < < < < < < < < < < , ",
"< < < < < < < < < < < < < < , < < < < < < w g L R c < < < w e e k N z i.$ y.< < < < < < < < < < < < < < < < < < , , < < < < < < ",
"< < < < < < < < < < , < , z ] w < < < < < < < k z q w k j q < k H / c.$ & l.< < < < < < < < < < < < < < < , < , m ) < < < < < < ",
"< < < < < < < < < p k 8 < ^ 1.b.1 < < < < < < , , > v.H L z w n H d @ % l.w < < < < < < < < < < < < < < 8 k 8 < [ ~ z.< < < < < ",
"< < < < < < < < , ^ 2.I 8 k B = l.< < < < < < < w w.% / k < < < < < < < < < < < < < < < < < < < < < < , [ 2.L e c z $ z.< < < < ",
"< < < < < < < , , x.V.L L j y z.1 < < < < < < < < , > y w < < < < < < < < < < < < < < < < < < < < < , , r.C.I ( k w z., < < < < ",
"< < < < < < e I ..C m.k L c < < < < < < < < < < < < w , , < < < < < < < < < < < < < < < < < < < , 0 I ..s b.z L k , < < < < < < ",
"w < < < < , 8 %.6.#.I p c k < < < < < < < < < < < 1 z.e 8 w z.< < < < < < < < < < w 6 w < < < < , k *.6.@.L p n k < < < < < < < ",
"8 < < < < < w w Q 6.;.I 8 < < < < < w < < < < < w w.% / K d $ 1 < < < < < < < < < q H e < < < < < < e >.4.1.L p < < < < < < < < ",
"w < < < , ^ >.^ g n E L ) k < < z R ,.e < < < < , y m I N.y.z.< < < < < < < < < < w 7 w < < < < I $.b 9 ) E L ^ q , < m ! ! < < ",
"< < < < q.n.S I c h z L I c < < b I ' w < < < < , k I c c.r.< < < < < < < < < < < < < < < < < q.F.| I m k c L I k , < ( R ^ < < ",
"< < < < t.O $ l / h < / L c < < c k , < < < < < > y n < < < < < < < < e 8 e < < < < < < < < , i.O * x / q w / I k , < b q ; < < ",
"< < < < w w.X $ z.< < < b c < < < < < < < < < < i.i.< < < < < < < < w ) I c < < < < < < < < < < y.X = 1 < < w ) z , < < < < < < ",
"< < < < < > r o.I h < < 6 e < < < < < < < < w F i > < < < < < < , 0 F I j 5 < < < < < < < < < < > i o.) q , < 7 w < < < < < < < ",
"< < < < < < 6 I ^ q < < < < < < < < < < < < w j 0 < < < < < < < < e j j e < < < < < < < < < < < < q R b p < < < < < < < < < < < ",
"< < < < < < < , , < < < < w 6 < < < < < < < < , < < < < < < < < < < , , < < < < < < < < < < < < < < , , < < < < w e < < < < < < ",
"< < < < < < < < < < < < , k H w < < < < < < < < < < < < < < < < < < < < < < < < < < < < < < < < < < < < < < < < c ^ < < < < < < ",
"e < < < < < < < < < < < < w 0 < < < < < < , e ~ 1.I , < < < < < < < < < < < < < j / b w < < < < < < < < < < < < e 6 < < < < < < ",
"c 7 < < < < < < < < < < < < < < < < < < , w j :.} f , , < < < < < < < < < < < < q / I m e < < < < < < < < < < < < < < < < < < < ",
"L c < < < < < < < < < < < < < < < < < < w z L ) B.f.q q w < < < < < < < < < < < < t B I k , < < < < < < < < < < < < < < < < < w ",
"x c < < < < < < < < < < < < < < < < < < b I H w j Y 3.4.b , < < < < < < < < < < < r.% n k , < < < < < < < < < < < < < < < < < ^ ",
"e e < < < < < < < < , , < < < < < < w < ^ ^ 0 b L O.4.N 5 < < < < < < < < < < < < 1 l.y e < < < < < < < < , , < < < < < < w < ) ",
"< < < , < < < < < a h k w < < < < > e., q q w L V V ] < < < < < < < < < < < < < < < < < < < , < < < < < 0 j k w < < < < l.e.< k ",
"< < w q w < < < , a / L k w < < w r.& r e w w B s.  , < < < < < < < < < < < < < < < < < < w q w < < < < s ) I 9 w < < w y.i.e w ",
"< , 9 ;.z , < < w w.Z.) I c < < < < w H I c > = X t.< < < < < < < < < < < < < < < < < < , m 2.8 , < < < y.h.L I k , < < < 8 L I ",
", , e Y L 4 i.< < 1 0.h.M b < < , 0 F I j 5 < l.l.> < < < < < < < < < < < < < < < < , , , q ! ( v.t.< < > r.h./ j , < < k H I h ",
"' b k z L D.+ < < < 1 t.a q < < < p c j e , < < < < < < < < < < < < < < < < < < , 0 ' ' c h j I c.@ < < < > y.s 9 < < < q c j w ",
"2.Q ( e b D.. w e 6 6 < < < < < < < , , < < < < < < < < < < < < < < < < < < < < , V <.2.Q b e F n.i.e e 6 e < < < < < < < , , < ",
"z.m I H 8 , w H L L ) w < < < < < < < < < < < < < < < < < < < < < < < < < < < < < r.$ 1 c I H e , 7 L L L b < < < < < < < < < < ",
"^ k 9 I 8 , e I U f u., < < < < < < < < j h < < < < < < j H c < , 0 b F q , < , ] &.} ^ q h L e , 0 I R i f., < < < < < < < < b ",
"W c k j e < w j c i c.h z.l.< < < < < < k k < < < < < < u C I k w q L d 2 , < , b %.5.E c k c w < e j c S.n.k l.l.< < < < < < z ",
"E L / < < < < < < j R / h.a.< < < < < < < < < < < < < < . f./ L k q n % x.p 5 < : V 3.R L b , < < < < w c I n & f.w < < < < < < ",
"I I / w < < < < n I _ = l.< < < < < < < < < < < < < < < < r.& / I c w 1 j I H e . j.I I L b < < < < w / K C = z.< < < < < < < < ",
"s.v.k b F D.. < 8 q y k.1 < < < < < < < < < < < < < < < < 1 k.0 q 6 w n J A j.1 > r.h.s.3 k b / z.i.< 0 q e k.2 < < < < < < < < ",
". q.0 I D r t.< < , < < < < < < < < < < < < < < < < < < < < < < , < w m b i i.1 5 > . . 0.q I ^ v.u.< < , < < < < < < < < < < < ",
"w < e H 6 < < < < < < < < < < < < < < < < < < < < < < < e e < < < < < < , < < < < < w w < q H w < < < < < < < < < < < < < < < < ",
"< < < w < < < < < < < < < < < < < < < < < < < , , , < , E E , < < < < < < < < < < < < < < < w < < < < < < < < < < < < < < < < < ",
"< < < < < < < < < < < < < < < < < < < < < , e ~ Q T c < G E z y.l.w < < < < < < < < < < < < < < < < < < < < < < < < < < < < < < ",
"< < < < < < < < < < < < < < < < < < < < < < e  .2.-.L k j / ) @ 9.w < < < < < < < < < < < < < < < < < < < < < < < < < < < < < < ",
"< < < < < < < 1 w e w < < < < w < < < < < < z.O  .+.L L q 0 n i.l.e w < < < < < < < < < < < < < < < 1 w e w < < < < w < < < < < ",
"< < < < < < > $ V K / w < < e H 9 < < < < w.# X l.k L L q , w _ H L H w < < < < < < < < < < < < < l.$ M I b < < < 8 L 6 < < < < ",
"< < < < < < , l.w b L b 6 < w q w < < < ' ! ` V w < q L q 7 b L R m f.. l.w < < < < < < < < < < < 1 l.y n I b w < w q w < < < T ",
"< < < < < < < < , p c b 6 < < , < < < < ( =.5.U c 6 < c e q I I C B.o . z.w < < < < < < < < < < < < < < q b b w < < , < < < < P ",
"< < < < < < < < < < < < < < < < < < < < , c 1.I L c < < , q H L B.$ & 1 1 1 < < < < < < < < < < < < < < < , < < < < < < < < < ; ",
"< < < < < < < < < < < < < < , < < < < < < w p L I c < < < < w w z ] n Z.- i.< < < < < < < < < < < < < < < < < < < , < < < < < < ",
"< < < < < < < < < < , , , m E e < < < < < < < 0 q 8 w m b k w m L m f.# p.z.< < < < < < < < < < < < < < , , , , ^ T w < < < < < "
};
