/* XPM */
static char *rcp1137046668432[] = {
/* columns rows colors chars-per-pixel */
"32 32 83 1 ",
"  c #6AA241",
". c #89AF32",
"X c #AC9888",
"o c #A8C029",
"O c #5F8036",
"+ c #6F7827",
"@ c #5A6F31",
"# c #838321",
"$ c #65913C",
"% c #528D52",
"& c #A1786C",
"* c #AC8E74",
"= c #5B301D",
"- c #590E1A",
"; c #5C0F1C",
": c #695523",
"> c #3F824F",
", c #5F1F20",
"< c #871629",
"1 c #9D1A30",
"2 c #A11B31",
"3 c #731323",
"4 c #62321F",
"5 c #8F8D6F",
"6 c #8F9724",
"7 c #62341B",
"8 c #130306",
"9 c #440B14",
"0 c #4A3C21",
"q c #520D18",
"w c #96192D",
"e c black",
"r c #27060B",
"t c #5F4619",
"y c #811426",
"u c #54401C",
"i c #791324",
"p c #AAAAAA",
"a c #7C5B60",
"s c #69101F",
"d c #717171",
"f c #5F3F44",
"g c #574E28",
"h c #4A0B16",
"j c #881628",
"k c #831527",
"l c #809D2E",
"z c #542E20",
"x c #711221",
"c c #1A0408",
"v c #530D18",
"b c #778A2B",
"n c #4F2924",
"m c #5A0E1A",
"M c #866860",
"N c #8C162A",
"B c #3A0911",
"V c #701221",
"C c #9A192F",
"Z c #8E172B",
"A c #63211E",
"S c #776F1E",
"D c #563530",
"F c #8F172B",
"G c #655422",
"H c #610F1D",
"J c #0D0204",
"K c #3D0912",
"L c #5D5320",
"P c #3F2A1A",
"I c #5B7521",
"U c #122012",
"Y c #4F7F4B",
"T c #30381A",
"R c #93786D",
"E c #6A8827",
"W c #332D0D",
"Q c #50501C",
"! c #2E3A11",
"~ c #476C2B",
"^ c #233616",
"/ c #4C611C",
"( c #829520",
/* pixels */
"  ..X.oo.. ..o.   ..X.oo.. ..o. ",
"o. . ..  .o.O+@@#+$. ..  .o. .  ",
" .. % &*. .O=-;;;;:$% &*. . . ..",
".  .. .  >O,<12;;;34. .  >  X % ",
" ..5 . >.67<12;888930. >.oo. .. ",
"o.  .o.  +qw2;eeeeer2t.  .  .o.o",
".%.  ..o.qyw2;eeeeer2u.o. .  .  ",
"X.o... % qiiw;epeepa2u % .% . .X",
".o. . .o.qssw;edeedfw0.o. ..o.. ",
" ..oo.  %ghsjkreeeeryu  %  . . .",
". .. .. .l+zxjsceecvqb. ... .oo.",
"  % X ..X %bnqyvrrvmM ..X %.% . ",
"..o. .   .o0syy2222NB.   .o ..5 ",
"o. ..o.o. @sw2222222yt.o.  .   .",
"  .o.. . %@VC2222222Nu . %  . ..",
"*.    . .O=Z2222222220. . .. . &",
"  ..X.oo.+qw2222CC222ASo.. ..o. ",
"o. . ..  +qw2222ww222su  .o. .  ",
" .. % 5*.@qw222wssw2ysD*. . . ..",
".  .. .  qyyFFwivviFysu  >  X % ",
" ..5 . %.qiiyFyvcrsyss0%.oo. .. ",
"o.  .o.  GhsHxyreJKxs7b  .  .o.o",
".%.  ..o.$Lhg=qPIUrhqb.o. .  .  ",
"X.o... % .Y@lT8RXEWQ+. % .% . .X",
".o. . .o. ..o.e .o!~. .o. ..o.. ",
" ..oo.  %  . .^. ./(o.  %  . . .",
". .. .. ... .oo.. .. .. ... .oo.",
"  % X ..X %.% .   % X ..X %.% . ",
"..o. .   .o ..5 ..o. .   .o ..5 ",
"o. ..o.o.  .   .o. ..o.o.  .   .",
"  .o.. . %  . ..  .o.. . %  . ..",
"5.    . . .. . 5*.    . . .. . 5"
};
