/* XPM */
static char *result[] = {
/* columns rows colors chars-per-pixel */
"64 64 116 2 ",
"   c #010101",
".  c #0C0103",
"X  c #060806",
"o  c #040C08",
"O  c #0B0C09",
"+  c #130305",
"@  c #1C0509",
"#  c #140909",
"$  c #06130C",
"%  c #0F110D",
"&  c #071910",
"*  c #22050A",
"=  c #240B0E",
"-  c #2E080D",
";  c #31070E",
":  c #34090F",
">  c #350911",
",  c #3D0A12",
"<  c #2B1516",
"1  c #271A17",
"2  c #2A1D1B",
"3  c #331516",
"4  c #3C1216",
"5  c #3D1418",
"6  c #321B1B",
"7  c #3A191A",
"8  c #0A2216",
"9  c #0C2518",
"0  c #0D291B",
"q  c #15261A",
"w  c #112E1E",
"e  c #0F341F",
"r  c #10371F",
"t  c #10391E",
"y  c #24231C",
"u  c #2B231D",
"i  c #222A1F",
"p  c #32221D",
"a  c #3E1C21",
"s  c #0E2D24",
"d  c #1E2222",
"f  c #1E2E21",
"g  c #0F3220",
"h  c #103522",
"j  c #1D3426",
"k  c #113B24",
"l  c #1C3927",
"z  c #133E2A",
"x  c #1A3D29",
"c  c #143E34",
"v  c gray14",
"b  c #292020",
"n  c #222C21",
"m  c #2B2E2E",
"M  c #213223",
"N  c #363B3A",
"B  c #440B14",
"V  c #4B0C16",
"C  c #4E0D18",
"Z  c #540D19",
"A  c #5C0E1B",
"S  c #401017",
"D  c #431419",
"F  c #4C131B",
"G  c #53141D",
"H  c #5A121C",
"J  c #64000D",
"K  c #680516",
"L  c #620F1D",
"P  c #760D1F",
"I  c #65111E",
"U  c #6B101F",
"Y  c #6C1220",
"T  c #741222",
"R  c #7B1425",
"E  c #4F2D33",
"W  c #124522",
"Q  c #144926",
"!  c #15472E",
"~  c #18412B",
"^  c #164B2D",
"/  c #194C29",
"(  c #185C27",
")  c #17522B",
"_  c #18572B",
"`  c #175A2A",
"'  c #185B2A",
"]  c #154331",
"[  c #164830",
"{  c #414041",
"}  c #4F4E4F",
"|  c #515453",
" . c #6B4A50",
".. c #735158",
"X. c #616665",
"o. c #6C6C6C",
"O. c #6E7271",
"+. c gray46",
"@. c #841526",
"#. c #891627",
"$. c #851528",
"%. c #8B1629",
"&. c #8E182B",
"*. c #93172B",
"=. c #93182C",
"-. c #9A192E",
";. c #9E1A30",
":. c #A31B32",
">. c #AA1D34",
",. c #B11E37",
"<. c #858988",
"1. c #8B8C8C",
"2. c #929594",
"3. c #E7E6E6",
"4. c #E9ECEC",
"5. c #FFFEFE",
/* pixels */
"! ! ^ ` ) ] ] ! ! ! ] ] ^ ) ! ! ! ^ ) _ ^ ^ ! [ ] ] ! ! ! ! ! ! ! ! ! ! ! ^ ] ^ ! ! ! ! ! ! ) ) ! ] ! ! ] ] ] ) ^ ! ! ! ^ ) ) ^ ",
"^ ^ ^ ^ ) [ c ! ! ! ! ] ! ^ ! ! ! ^ ) ^ ! ! ! ! ! ! ! ! ! ! ! ! ! ! ! ! ! ! ! ! ! ! ) ^ ^ ^ ) ) [ c ! ! ! ] ] ! ^ ! ! ! ^ ) ) ! ",
"' _ ) ! ) [ c ! ! ^ ^ ! ! ! ! ! ! ! ! ! ! ! ! ! ! ! ! ! ! ! ! ! ! ! ! ! ! ! ! ! [ ! ' ' ` ^ ! ) [ c ! ! ! ^ ! ! ! ! ! ! ! ! ^ ! ",
"! ) ) ) ^ ! ! ) ) ^ ^ ! ! ! ! ! ! ! ! ! ! ! ! ! ! ! ! ! ! ! ! ^ ! ! ! ! ! ! ! ! [ [ ] [ ) ) ) ^ [ ! ) ) ) ) ! ! ! ! ! ! ! ! ! ! ",
"^ ^ ) ) ! ! ! _ ) ^ [ ! ! ! ! ! ! ! ! ! ^ ^ ! ! ! ! ! ! ^ ) ^ ^ ! ^ ^ ) ^ ! ! ! ) ) [ ^ ^ ) ) ! ~ ! ) ) [ [ ! ! ! ! ! ! ! ! ! ^ ",
"_ ) ! ) ! ! ! ) ) [ ] ! [ ! ! ! ! ! ! ! ^ ) ! ! ! ! ! ! ! ^ ) [ ! ^ ) ^ ^ ! ! ! ) ` ( ` ^ ! ) ! ! ! ) ) [ ] ! ] ] ! ! ! ! ! ^ ^ ",
"_ ) ) ! ! ! ! ! ! ^ _ ) ] ] ! ! ! ! ! ! ! ! ^ ! ! ! ! ^ ] ] ) _ ! ^ ) c ! ^ ! ! [ ! ( ) ) ) ! ! ! ! ! ! ^ _ ) ] ] ! ! ! ! ! ! ^ ",
") ) ^ ! ! ! ! ! ^ ) ^ c ] [ ! ! ! ! ! ! ! ! ! ! ! ~ u , , , , , , , , , u ^ ^ ! ] [ ` ) ) ^ ! ! ! ! ! ) ) ^ c ] ! ! ! ! ! ! ! ! ",
"] ^ ^ ^ ) ! ] ! ^ ^ ^ [ [ ! ! ! ! ! ! ! ! ! ! ! ~ n D I Y R T R R T R $.G M ! [ ] ] [ ] [ ^ ^ ) ] ] ! ^ ^ ! ] ! ! ! ! ^ ! ! ! ! ",
"c ] ^ ) ) [ c ! ! ! ! ! ! ! ! ! ! ! ! ! ! ! ! ~ n , Y -.>.>.>.-.-.-.;.;.R F n ~ ! ] c c [ ^ ) ) ] ] ! ! ! ! ! ! ! ! ! ! ! ! ! ! ",
"! ! ! _ ! ! ! ! ! ! ! ! ! ! ! ! ! ! ! ! ! ! ~ n B T ;.:.>.,.&.V , V B , T =.F f ! ! ! ! ! ^ _ ! ! ! ! ! ! ! ! ! ! ! ! ! ! ! ! ! ",
"! ! ! ! ! ! ! ! ! ! ! ! ! ! ! ! ! ! ! ! ! ~ i D T =.>.>.>.#.B .   . X   > R &.G q ~ ! ! ! ! ! ! ! ! ! ! ! ! ! ! ! ! ! ! ! ! ! ! ",
"! ! ^ ! ! ! ! ! ! ! ! ! ! ! ! ! ! ! ! ! ! x < A =.>.>.:.&.B .             ; $.$.F n ~ ! ! ! ! ! ^ ! ! ! ! ! ! ^ ! ! ! ! ! ! ! ! ",
"! ! ! ! ! ! ! ! ! ! ! ! ! ! ! ! ! ! ! ! ! l 3 A =.:.>.&.B .                 - @.=.Z n ! ! ! ! ! ! ! ! ! ! ] ! ! ! ! ! ! ! ! ! ! ",
"! ! ! ! ! ! ! ! ! ! ! ! ! ! ! ! ! ! ! ! ! 6 H R $.>.,.&.>     X             @ R ;.Z q ! ! ! ! ! ! ^ ! ! ^ ^ ! ! ! ! ! ! ! ! ! ! ",
"! ! ! ! ! ! [ c ^ ) ) ! ! ! ! ) ! ! ! ! ! V R *.$.*.>.&.B   d } v       m } a P =.C n ! ! ! ! ! ! ] c ^ ) ^ ! ! ! ^ ) ^ ! ! ! ! ",
"! ! ! ! ! ! ! ] ! ^ _ ^ ^ ^ ! ^ ^ ! ! ! ^ B T #.R @.;.*.,   X.4.o.      <.3. .J *.G q ! ! ! ! ! ! ] ] ^ ) ) ^ ^ ! ! ^ ! ! ! ! ) ",
"! ! ! ! ! ! ! ! ! ^ ^ ) ^ ! ! ! ! ! ! ! _ B T U C T :.*.>   O.5.+.      2.5...J *.Z M ! ! ! ! ! ! ! ! ^ ^ ^ ) ^ ! ! ! ! ! ! ! ) ",
"! ! ! ! ! ! ! ! ! ! ! ! ! ! ! ! ! ! ! ! ! V R L : T >.=.>   N 1.{       | 1.E K @.V i ! ! ! ! ! ! ! ! ! ! ! ! ! ! ! ! ! ! ! ! ! ",
"! ! ! ! ! ! ! ! ! ! ! ! ! ! ! ! ! ! ! ! ! B T A , R :.=.C +   X         X X = U R V i ! ! ! ! ! ! ! ! ! ! ! ! ! ! ! ! ! ! ! ! ! ",
"! ! ! ! ! ! ! ! ! ! ! ! ^ ^ ) ! ! ! ! ! ! n 5 , B R *.=.*.Z +               * U R B i ~ ! ! ! ! ! ! ! ! ! ! ! ! ^ ^ ^ ! ! ! ! ^ ",
"! ! ! ! ! ^ ! ! ^ ^ ^ ^ ! ) _ ^ [ ! ! ! ! ~ f y 6 A T *.:.#.B +           @ Z U A 6 l ! ! ! ! ! ! ! ! ! ^ ^ ^ ! ) ` ] ! ! ! ! ! ",
"! ! ! ! ! ! ! ! ! ^ _ ) ^ ^ ^ c ] ! ! ! ! ! [ [ x 2 Z R R #.R B +       @ C R G u ~ ! ! ! ! ! ! ! ! ! ! ) ' ) ^ ) ^ c ] ! ! ! ! ",
"! ! ! ! ! ! ! ! ^ ] [ ) ) ^ ! ! ! ! ! ! ! ! ! ! ! ~ 2 , , U &.T B * * * C P Z u ~ ! ! ! ! ! ! ! ! ! ! ! ] ] ) ) ^ ^ ] ! ! ! ! ! ",
"! ! ! ! ! ! ^ ) ) ^ [ ^ ) ^ ^ ! ! ! ! ! ! ! ! ! ! M 7 Z Z U &.-.$.T T T &.=.U 6 j ~ ! ! ! ! ! ! ! ^ ` ) ^ ^ ^ ) ^ ^ ! ! ! ! ! ! ",
"^ ! ! ! ! ! ^ ` ` ` ) ^ ^ ^ ^ ! ! ! ! ! ! ! ! ~ n S T =.&.#.*.:.>.>.>.>.:.:.*.Y S M / ! ! ! ! ! ! ^ ` ' _ ) ^ ^ ^ ! ^ ] ! ! ! ! ",
"^ ! ! ! ^ ! ^ ^ _ ' ' ) ^ ! ! ! ! ^ ! ! ! ! ~ n , T -.:.:.;.-.:.:.:.>.:.:.>.:.-.U 4 M ! ! ! ! ! ! ! ^ _ ' ' ) ^ ! ! ! ^ ! ! ! ! ",
"! ! ! ! ] ) ) ) ) ^ ` ) ) ^ ! ! ^ _ _ ! ! [ ~ i B R :.>.:.>.:.;.:.;.;.:.:.:.:.;.R B i ! ! ! ! ! ) ` ) ^ ^ ` _ ^ ^ ! ! ^ ) ` ! ! ",
"! ! ! ! ] ] [ ) ^ ^ ^ ) ) ^ ! ! ^ _ ) ^ ! ! ~ n B R :.:.:.:.:.:.:.;.:.:.:.:.:.;.R B n ! ! ! ! ] ] ^ _ ^ ^ ^ ` _ ^ ! ^ ) ) ) ! ! ",
"! ! ! ! ] c c ^ ) ^ ^ ^ ) ) ! ! ^ ^ ! ! ! ! ~ i C =.>.:.:.:.;.:.:.:.:.:.:.;.:.>.&.B f ! ! ! ! c c c ^ ) ^ ! ^ ) ^ ! ! ^ ^ ! ! ! ",
"! ! ! ! ] ] c c ! ! ! ! ^ ^ ^ ! ^ ! ! ! ! z i D T :.>.:.:.:.;.:.;.:.:.:.:.:.:.>.=.B f ! ! ! ] ^ ] c ] ] ! ! ! ) ^ ! ! ! ! ! ! ! ",
"! ! ! ! ^ ] ! _ ` ^ ! ! ^ ^ ! ! ! ! ! ! ! x 3 L *.:.:.:.;.:.:.;.;.;.=.;.;.:.:.>.=.A 2 ! ! ! ^ ] ] [ _ ) ^ ! ! ! ^ ! ! ! ! ! ! ! ",
"! ! ! ! ! ! ^ ) ^ ^ ! ! ! ! ! ! ! ! ! ! ! x 3 A *.:.:.:.:.;.:.;.:.=.#.-.:.:.:.:.;.#.Z ^ ! ! ! ! ! ^ ) ^ ^ ! ! ! ! ! ! ! ! ! ! ! ",
"! ! ! ! ! ! ! ! ! ! ! ^ ! ! ^ ! ! ! ! ! ! x 3 A &.:.:.:.:.:.;.:.:.;.$.-.:.:.:.:.:.*.A ~ ! ! ! ! ! ! ! ^ ! ! ! ! ! ^ ! ! ! ! ! ! ",
"! ! ! ! ! ! ! ! ^ ! ! ! ! ! ^ ^ ! ! ! ! ! ~ < Z &.>.>.;.:.:.:.>.;.R U @.:.>.:.;.*.#.G ! ^ ! ! ! ! ! ! ! ! ! ! ! ^ ^ ^ ! ! ! ! ! ",
"^ ! ! ! ! ! ! ! ! ! ! ! ! ^ ^ ! ! ! ! ! ! j 3 L #.;.:.;.;.;.:.:.=.H , U *.:.:.*.$.$.A ! ! ! ! ! ! ! ! ! ! ! ! ! ^ ^ ! ! ! ! ! ! ",
"^ ^ ^ ! ! ! ! ! ! ! ! ! ! ! ! ! ! ! ! ! [ 4 Y R @.#.;.;.#.;.;.&.#.L , U &.&.:.*.$.#.Z ^ ^ ! ! ! ! ! ! ! ! ! ! ! ! ! ! ! ! ! ! ! ",
") ^ ! ! ! ! ! ! ! ! ! ! ! ! ^ ! ! ! ! ! [ B R *.$.R $.*.*.*.&.#.R B * V T @.&.*.&.$.Z ) ^ ! ! ! ! ! ^ ! ! ! ! ! ! ! ! ! ! ! ! ! ",
"^ ^ ! ! ! ! ! ! ! ! ! ! ! ! ! ! ! ! ! ! ^ B R #.R R @.&.-.%.R R V +   @ L #.$.T R #.A ^ ^ ! ! ! ! ! ! ! ! ! ! ! ! ! ! ! ! ! ! ) ",
"^ ^ ! ! ! ! ! ! ! ! ! ! ! ! ! ! ! ! ! ! ^ V R U V P %.$.$.#.T B +     * L %.#.A C R L ! ^ ! ! ! ! ! ! ! ! ! ! ! ! ! ! ! ! ! ! ) ",
"! ! ! ! ! ! ! ! ! ! ^ ^ ^ ! ! ! ! ! [ ! ! p Z B B R R L @.*.R -       + : I #.R L L S ! ! ! ! ! ! ! ! ! ^ ^ ^ ! ! ! ! ! ! ] ! ! ",
"! ! ^ ^ ! ! ! ! ! ^ ^ _ ^ ! ! ! ! [ c ! ! ~ u : V Y F 7 Y $.Y > O $ o   + B Y $.Y 3 M ! ! ^ ^ ! ! ! ! ! ^ ) ` ! ! ! ! ! ] ] ^ ! ",
"^ ! ^ ` ^ ! ! ! ! ] ] ) ) ^ ^ ! ! ! ! ) ) ^ x b , B n q 4 V B > 8 0 0 o + > B B 5 j ! ! ! ^ _ ^ ! ! ! ! ] ] ) ) ^ ! ! ! ! ^ ` ) ",
"! ! ! ) ) ^ c ! ! ! ] ] ^ ) ! ! ! ! ) _ ^ ^ ! j y 2 r 9 # + = y w s r 9 O * 1 y f ~ ! ! ^ ^ _ ) ! c ! ! ] ] ] ) ^ ! ! ! ^ ^ ` ! ",
") ^ ^ ^ ) ! c ! ! ! ! c ^ ^ ! ! ! ^ ^ ^ ^ ! g g s e e 0 o   % e r h h h & X q h h k ) ) ^ ^ ^ _ ] c ! ! ! ! ] ^ ^ ! ! ! ^ ^ ^ ^ ",
"' _ ) ^ ^ ^ c ^ ! ^ ! ! ! ! ! ! ! ! ^ ! ^ h g g g g e s 0 o o 0 h w 0 h &   8 e g g W ` _ ) ! ) ] ] ^ ^ ! ^ ! ! ! ! ! ! ! ! ! ^ ",
"! ^ ) ) ! ! ! ) ) ) ) ! ! ! ! ! ! ! ! ! [ g g g g e g e 0 o o 9 w g g e $   8 e g g s [ ^ _ ) ! ! ^ ) ) ) ^ ! ! ! ! ! ! ! ! ! ! ",
") ^ ^ ) ^ ! ^ ) _ [ ] ! ! ! ! ! ! ! ! [ ) k g g g g g e h t e e e e e r e e e s t t W ^ ^ ^ ) ! ! ^ ) ) ^ ] ! ! ! ! ! ! ! ! ! ^ ",
"` ^ ^ ^ ^ ! ! ^ ^ ^ ] ^ ] ] ! ^ ! ! ! ! [ ) k g g g g g g h t t g e h g g g g g h W ` ) ^ ^ ^ ! ! ! ^ ^ ] ] ^ ] ] ^ ! ! ! ! ! ^ ",
"` ^ ) ^ ! ! ! ! ^ ^ _ ) ] ] ! ! ! ! ! ! ! ! ] W g g g g s s h t e e t s g g e h z ) ' ) ) ) ! ! ! ! ! ^ ^ ` ) ] ] ! ! ! ! ! ! ^ ",
") ) ) ! ^ ! ! ! ^ _ ^ c ] ! ! ! ^ ! ! ! ! ! ! ! ! ] ] k h g s t t h h k k Q ^ ! ] ] ) ) ) ) ! ! ! ! ! ) ) ^ c ! ! ! ! ! ! ! ! ! ",
"] ^ ^ ^ ^ ^ c ! ^ ^ ! ! ! ! ! ! ! ! ! ! ! ! ! ! ! ! ! ! ! ! ] ^ ^ ^ ! ^ ) ) ] ! ] ] ] ] ! ^ ) ) ! c ! ^ ^ ^ ] ] ! ! ! ! ! ! ! ! ",
"c ] ^ ) ^ ^ ] ! ! ! ! ! ! ! ! ! ! ! ! ! ! ! ! ! ! ! ! ! ! ! ! ! ! ! ! ) ) ! ] ! ! ! c ] ] ^ ) ) ] ] ! ! ! ! ! ^ ! ! ! ! ! ! ! ! ",
"^ ! ! ) ! ^ ! ! ! ! ! ! ! ! ! ! ! ! ! ! ! ! ! ! ! ! ! ! ! ! ! ! ! ! ! ! ! ! ] ! ! ! ! ! ! ^ ) ! ! ! ! ! ! ! ! ! ! ! ! ^ ! ! ! ! ",
"! ! ! ! ! ! ! ! ! ! ! ! ! ! ! ! ! ! ! ! ! ! ! ! ! ! ! ! ` ) ! ! ! ! ! ! ! ! ! ! ! ! ! ! ! ! ^ ! ! ! ! ! ! ! ! ! ! ! ! ! ! ! ! ! ",
"! ! ! ! ! ! ! ! ! ! ! ! ! ! ! ! ! ! ! ! ! ! ! ) ) ) ) ! ) ) ^ ] ! ! ! ! ! ! ! ! ! ! ! ! ! ! ! ! ! ! ! ! ! ! ! ! ! ! ! ! ! ! ! ! ",
"! ! ! ! ! ! ! ! ! ! ! ! ! ! ! ! ! ! ! ! ! ! ! ) ` ` ) ^ ^ ) ^ ] ] ! ! ! ! ! ! ! ! ! ! ! ! ! ! ! ! ! ! ! ! ! ! ! ! ! ! ! ! ! ! ! ",
"! ! ! ! ! ! ! ] ! ^ ^ ! ! ! ! ! ! ! ! ! ! ! ] c ) ` ) ) ^ ^ ) ] ] ! ! ! ! ! ! ! ! ! ! ! ! ! ! ! ! ! ! ! ! ! ! ! ! ! ! ! ! ! ! ! ",
"! ! ! ! ! ! ! c ^ _ ^ ^ ! ! ^ ) ^ ! ! ! ! ] c c [ ^ ) ) [ ! ^ ^ ) ) ) ! ! ! ! ! ! ! ! ! ! ! ! ! ! ] c ^ ) ) ! ! ! ^ ) ^ ! ! ! ! ",
"! ! ! ! ! ! ! ! ^ ^ _ ^ ^ ! ! ^ ^ ! ! ! ) ) ) [ ^ [ ^ ) ^ [ ^ ) ) ) ] c ! ! ! ! ! ! ! ^ ! ! ! ! ! ! ! ! ) ) ) ! ! ! ^ ! ! ! ! ` ",
"! ! ! ! ! ! ! ! ! ^ ^ ^ ! ! ! ! ! ! ! ! ` ` ` ) ^ ! ! ^ ^ ^ ) ) ^ ] c c ] ! ! ! ! ! ! ! ! ! ! ! ! ! ! ! ! ^ ) ! ! ! ! ! ! ! ! ) ",
"! ! ! ! ! ! ! ! ! ! ^ ! ! ! ! ! ! ! ! ! ! ^ ` ` ) ) ! ^ ! ^ ) ) ] c c ] ! ! ! ! ! ! ! ! ! ! ! ! ! ! ! ! ! ! ! ! ! ! ! ! ! ! ! ] ",
"! ! ! ! ! ! ! ! ! ! ! ! ! ! ! ! ! ! ! ! ! ! ! ) ) ) ! ! ^ ! ^ ^ ^ ) ^ ] c ] ! ! ! ! ! ! ! ! ! ! ! ! ! ! ! ! ! ! ! ! ! ! ! ! ! ! ",
"! ! ! ! ! ! ! ! ! ! ! ! ! ^ ` ! ! ! ! ! ! ! ! ^ ^ ! ^ ^ ^ ^ ! ^ ) ^ ] c ] ] ! ! ! ! ! ! ! ! ! ! ! ! ! ! ! ! ! ! ) ) ! ! ! ! ! ! "
};
