/* XPM */
static char *rcp11363274661784[] = {
/* columns rows colors chars-per-pixel */
"32 32 71 1 ",
"  c #6AA241",
". c #89AF32",
"X c #AC9888",
"o c #A8C029",
"O c #528D52",
"+ c #A1786C",
"@ c #AC8E74",
"# c #778A2B",
"$ c #5A6F31",
"% c #6F7827",
"& c #809D2E",
"* c #3F824F",
"= c #555E2C",
"- c #671E28",
"; c #781324",
": c #7F1526",
"> c #5B2F23",
", c #8F8D6F",
"< c #8F9724",
"1 c #63211E",
"2 c #871629",
"3 c #9D1A30",
"4 c #A11B31",
"5 c #5C0F1C",
"6 c #731323",
"7 c #642A2D",
"8 c #520D18",
"9 c #96192D",
"0 c #3A0911",
"q c black",
"w c #27060B",
"e c #54401C",
"r c #811426",
"t c #8F172B",
"y c #393939",
"u c #432228",
"i c #791324",
"p c #AAAAAA",
"a c #7C5B60",
"s c #4A3C21",
"d c #69101F",
"f c #8C162A",
"g c #655422",
"h c #4A0B16",
"j c #881628",
"k c #831527",
"l c #65913C",
"z c #4A613C",
"x c #5B301D",
"c c #711221",
"v c #1A0408",
"b c #530D18",
"n c #5F8036",
"m c #93182C",
"M c #542E20",
"N c #8E172B",
"B c #9A192F",
"V c #666523",
"C c #563530",
"Z c #44402F",
"A c #610F1D",
"S c #3D0912",
"D c #0D0204",
"F c #574E28",
"G c #45432E",
"H c #4D282A",
"J c #73655B",
"K c #1F270B",
"L c #233616",
"P c #4C611C",
"I c #829520",
/* pixels */
"  ..X.oo.. ..o.   ..X.oo.. ..o. ",
"o. . ..  .o. .  o. . ..  .o. .  ",
" .. O +@. . #$%%$%& O +@. . . ..",
".  .. .  * =-;::::>#. .  *  X O ",
" .., . *.o<123455567 . *.oo. .. ",
"o.  .o.  %89440qqqw:0o.  .  .o.o",
".O.  ..o.$8945qqqqqw4e.o. .  .  ",
"X.o... O 8rt35qyqqyu4e O .O . .X",
".o. . .o.8ii95qpqqpa4s.o. ..o.. ",
" ..oo.  O8dd95qyqqyufe  O  . . .",
". .. .. .ghdjkwqqqqwre. ... .oo.",
"  O X ..Xlzxcjdvqqvb8n..X O.O . ",
"..o. .   .o e0rd00d8 .   .o .., ",
"o. ..o.o. lx;ff4444m8<.o.  .   .",
"  .o.. . O$d94444444re . O  . ..",
"@.    . . %;344444449s. . .. . +",
"  ..X.oo.#MN444444444eoo.. ..o. ",
"o. . ..  %894444BB4441V  .o. .  ",
" .. O ,@.$89444499444dC@. . . ..",
".  .. .  ZAt3B4tddt3rde  *  X O ",
" .., . O.8rrtt9ibbitrdsO.oo. .. ",
"o.  .o.  8ccrjrSDwdr8de  .  .o.o",
".O.  ..o.FhdAcrwqDScdx#o. .  .  ",
"X.o... O &GhgM8HJKwh8# O .O . .X",
".o. . .o. ..o..L.o.L. .o. ..o.. ",
" ..oo.  O  . .L. .PIo.  O  . . .",
". .. .. ... .oo.. .. .. ... .oo.",
"  O X ..X O.O .   O X ..X O.O . ",
"..o. .   .o .., ..o. .   .o .., ",
"o. ..o.o.  .   .o. ..o.o.  .   .",
"  .o.. . O  . ..  .o.. . O  . ..",
",.    . . .. . ,@.    . . .. . ,"
};
