/* XPM */
static char *result[] = {
/* columns rows colors chars-per-pixel */
"64 64 111 2 ",
"   c #000000",
".  c #0C0204",
"X  c #030A06",
"o  c #040D08",
"O  c #0D0B09",
"+  c #130305",
"@  c #180307",
"#  c #1D0508",
"$  c #07160E",
"%  c #0F1C13",
"&  c gray9",
"*  c #1E1E17",
"=  c #1A1C1C",
"-  c #25060B",
";  c #2B070D",
":  c #37010A",
">  c #3A040D",
",  c #34080F",
"<  c #2E0E12",
"1  c #3D0710",
"2  c #350E13",
"3  c #3B0911",
"4  c #271414",
"5  c #2D1314",
"6  c #2C1916",
"7  c #241E1B",
"8  c #2F1E1B",
"9  c #321416",
"0  c #381316",
"q  c #3B191B",
"w  c #0D2618",
"e  c #0D2A1B",
"r  c #1A271C",
"t  c #132D1E",
"y  c #1B291D",
"u  c #0F351F",
"i  c #11341F",
"p  c #10391E",
"a  c #25221C",
"s  c #2C241D",
"d  c #2B2A1E",
"f  c #32241D",
"g  c #0E2D24",
"h  c #1E2F24",
"j  c #0F3220",
"k  c #103724",
"l  c #1E3525",
"z  c #113B24",
"x  c #1C3927",
"c  c #133E2A",
"v  c #1B3C29",
"b  c #143E34",
"n  c #232323",
"m  c #242C21",
"M  c #282920",
"N  c #262B2A",
"B  c #223323",
"V  c #3B3D3D",
"C  c #420B14",
"Z  c #4B0C16",
"A  c #4C0F19",
"S  c #540D19",
"D  c #5B0E1B",
"F  c #421017",
"G  c #47141B",
"H  c #4C141B",
"J  c #50141B",
"K  c #5E121E",
"L  c #630F1D",
"P  c #64101E",
"I  c #69111F",
"U  c #6D1120",
"Y  c #741222",
"T  c #7C1325",
"R  c #124522",
"E  c #144926",
"W  c #1B4A27",
"Q  c #15472E",
"!  c #18432C",
"~  c #164B2D",
"^  c #185C27",
"/  c #17522B",
"(  c #18572B",
")  c #175A2A",
"_  c #185B2A",
"`  c #154331",
"'  c #164830",
"]  c #4F4547",
"[  c #4B4B4B",
"{  c #535353",
"}  c #555A5A",
"|  c #5B5E5E",
" . c #5B6161",
".. c #74686A",
"X. c gray50",
"o. c #831426",
"O. c #871528",
"+. c #8A1629",
"@. c #8F182C",
"#. c #911126",
"$. c #92172B",
"%. c #94182D",
"&. c #9C1A2F",
"*. c #9E1A30",
"=. c #A21B31",
"-. c #AB1D34",
";. c #B11E36",
":. c #CDD4D3",
">. c #E2D7D9",
",. c #F3E8EA",
"<. c white",
/* pixels */
"Q Q ~ ) / Q b Q Q Q ` ` ~ / Q Q Q ~ / / ~ ~ Q Q ` ' Q Q Q Q Q Q Q Q Q Q Q Q Q Q ~ Q Q ~ Q ~ ( / Q ` Q Q Q ` ` / ~ Q Q Q Q / / ~ ",
"~ ~ ~ ~ / ' b Q Q Q Q ` ~ ~ Q Q Q Q / ~ Q Q Q Q Q Q Q Q Q Q Q Q Q Q Q Q Q Q Q Q ` ~ ~ ~ ~ ~ ~ / ` b Q Q Q ` b ~ Q Q Q Q ~ / ~ ~ ",
"_ ( / Q / ' b Q Q Q Q Q Q Q Q Q Q Q Q Q Q Q Q Q Q Q Q Q Q Q Q Q Q Q Q Q Q Q Q Q Q ~ _ _ ( ~ ~ / ` b ~ Q ~ ~ Q Q ~ Q Q Q Q Q ~ Q ",
"Q / / / ~ Q Q / / / ~ Q Q Q Q Q Q Q Q Q Q Q Q Q Q Q Q Q Q Q Q Q Q Q Q Q Q Q Q Q Q ` ` ~ / / / ~ Q ~ ~ / / ~ Q Q Q Q ~ Q Q Q Q Q ",
"~ ~ / / Q Q Q ( ( ~ ' Q Q Q Q Q Q Q Q Q ~ ~ Q Q Q Q Q Q ~ ~ ~ Q Q Q / ~ ~ Q Q Q / / ~ ~ ~ ~ ( Q Q ~ ( / ~ ` Q Q Q Q Q Q Q Q Q ~ ",
"( / Q / Q Q Q / ~ ' ` Q ' ' Q Q Q Q Q Q / / Q Q Q Q Q Q Q / / ' Q ~ / ~ ~ Q Q Q / ^ _ ( / ~ ~ Q Q ~ ~ / Q ` ~ ` Q Q Q Q Q Q Q / ",
"( / / Q Q Q Q Q Q ~ / / ` b Q Q Q Q Q Q ' Q Q Q Q Q Q Q ` ` / / ~ ~ / b ' Q Q Q Q ~ _ ( / / Q Q Q Q Q ~ ~ / / b ` Q Q Q Q Q Q Q ",
"/ / ~ Q Q Q Q Q ~ ( / b ` Q Q Q Q Q Q Q Q Q Q Q Q Q Q Q Q ` ` / / / Q Q Q ( / Q b ` ( / ( ~ Q Q Q Q Q ~ ( ~ ` ` Q Q Q Q Q Q Q Q ",
"' Q ~ ~ / Q ` Q ~ ~ ~ ` Q Q Q Q Q Q Q Q Q Q Q Q Q Q Q Q ~ Q ` Q ~ Q Q / / / ' ~ ` ` ` ' Q ~ / ~ ` ` Q ~ ~ ~ ` ` Q Q Q Q Q Q Q Q ",
"b ' ~ / / ' b Q Q Q Q Q Q Q Q Q Q Q Q Q Q Q Q Q Q Q m 3 3 3 3 3 3 3 3 3 B ' b ` Q ` b b ' ~ ( / Q b Q Q Q Q Q Q Q Q Q Q Q Q Q Q ",
"Q Q Q ( Q Q Q Q Q Q Q Q Q Q Q Q Q Q Q Q Q Q Q Q Q x 8 S S D D P K P D P f x Q Q Q Q Q Q Q ~ / Q ~ Q Q Q Q Q Q Q Q Q Q Q Q Q Q Q ",
"Q Q Q Q Q Q Q Q Q Q Q Q Q Q Q Q Q Q Q Q Q Q Q Q ! 6 D %.=.=.=.=.=.=.=.=.L 6 Q Q Q Q Q Q Q Q Q Q Q Q Q Q Q Q Q Q Q Q Q Q Q Q Q Q ",
"Q Q Q Q Q Q Q Q Q Q Q Q Q Q Q Q Q Q Q Q Q Q ' W 6 D O.=.=.;.&.S S D S S +.T 4 ! Q Q Q Q Q Q Q Q Q Q Q Q Q Q Q Q Q Q Q Q Q Q Q Q ",
"Q Q Q Q Q Q Q Q Q Q Q Q Q Q Q Q Q Q Q Q Q ' B f D +.=.=.-.%.S @ + + + + J @.Y s x Q Q Q Q Q Q Q Q Q Q Q Q Q Q Q Q Q Q Q Q Q Q Q ",
"Q Q Q Q Q Q Q Q Q Q Q Q Q Q Q Q Q Q Q Q Q Q 7 Z +.=.-.*.%.S .           . S *.P s v Q Q Q Q Q Q Q ~ Q Q ~ ~ Q Q Q Q ~ Q Q Q Q ~ ",
"Q Q Q Q Q Q Q b ~ ( / Q Q Q Q / Q Q Q Q Q ' 7 C o.*.-.%.S @               + C %.U 6 ! Q Q Q Q Q Q ` b ~ / ~ Q Q Q ~ ~ ~ Q Q Q Q ",
"Q Q Q Q Q Q Q ` Q ~ / / ~ Q Q ~ ~ Q Q Q ~ s G Y o.&.;.%.C .                 3 &.T < ! Q Q Q Q Q Q Q ` ~ / / ~ ~ Q Q ~ Q Q Q Q / ",
"Q Q Q Q Q Q Q Q Q ~ / ~ ~ Q Q Q Q Q Q Q ( 3 I +.O.%.=.%.Z . = { &       V ] 1 %.Y 4 ! Q Q Q Q Q Q Q Q Q ~ ~ / ~ Q Q Q Q Q Q Q / ",
"Q Q Q Q Q Q Q Q Q Q Q Q Q Q Q Q Q Q Q Q Q 3 L O.T T %.*.C   } <.[       :.>.: #.T 6 ! Q Q Q Q Q Q Q Q Q Q Q Q Q Q Q Q Q Q Q Q Q ",
"Q Q Q Q Q Q Q Q Q Q Q Q Q Q Q Q Q Q Q Q Q 3 I Y C U *.%.Z    .<.[       :.,.: #.T 5 ! Q Q Q Q Q Q Q Q Q Q Q Q Q Q Q Q Q Q Q Q Q ",
"Q Q Q Q Q Q Q Q Q Q Q Q Q ~ / ~ Q Q Q Q Q 3 Y Y , L =.%.3   N X.n       | ..> O.U 5 ! Q Q Q Q Q Q Q Q Q Q Q Q Q ~ / Q Q Q Q Q Q ",
"Q Q Q Q Q Q Q Q Q ~ ~ ~ Q / ( Q Q Q Q Q Q 9 K I 3 U &.%.D -                 3 T L 9 ! Q Q Q Q Q Q Q Q Q ~ ~ ~ Q / / Q Q Q Q ` ~ ",
"Q Q Q Q Q Q Q Q Q / _ / ~ ~ ~ b ! Q Q Q Q Q s 3 3 Y +.+.=.I @             . 3 T L 2 ! Q Q Q Q Q Q Q Q Q / _ / ~ / ~ b ` Q Q ~ Q ",
"Q Q Q Q Q Q Q Q ~ ` ` / / ~ ~ Q ' Q Q Q Q Q x B B F I +.&.O.S #         . 3 Y K q l Q Q ~ Q Q Q Q Q Q Q ` ` / / ~ ~ ` Q Q Q Q Q ",
"Q Q Q Q Q Q Q / / / ` ~ / / Q Q Q Q Q Q Q Q Q Q Q h q L D o.o.S # . . . 3 U I 8 l Q Q Q Q Q Q Q Q ~ / / ~ ` ~ / ~ ~ Q Q Q Q Q Q ",
"~ Q Q Q Q Q ~ ( _ _ / ~ ~ ~ Q Q Q Q Q Q Q Q Q Q Q Q M 1 3 L +.O.S 3 C 3 T Y 2 x Q Q ~ Q Q Q Q Q Q ~ _ _ _ / ~ / ~ ` Q Q Q Q Q Q ",
"~ Q Q Q ~ Q ~ ' ) _ _ / ~ Q Q Q Q Q Q Q ` ~ Q Q Q 7 G Y U Y +.*.%.@.%.@.&.%.I 0 l ~ ~ ~ Q Q Q Q Q Q ~ ) _ _ / ~ ~ Q Q ~ Q ~ Q Q ",
"Q Q Q Q ` / ) / ~ / / / / ~ Q Q / / / ~ ~ Q Q v M A T *.&.%.%.=.-.-.-.-.-.=.%.Y q d Q Q Q Q Q Q / ) / ~ / / / ~ ~ Q Q ~ / / Q Q ",
"Q Q Q Q ` ` ~ / / ~ ~ / / ~ Q Q ~ / / ` ~ Q Q l 1 U *.-.=.=.=.=.*.=.*.=.=.=.=.%.D 2 ! Q Q Q Q ` ' ~ / / ~ ~ / ( ~ Q ~ / / / Q Q ",
"Q Q Q Q ` b b ~ / ~ ~ ~ / / Q Q / ~ Q Q Q Q Q x 1 U %.=.=.=.=.*.=.=.=.=.*.=.=.$.D 5 ! Q Q Q Q b b b ' / ~ Q / / ~ Q Q ~ ~ ~ Q Q ",
"Q Q Q Q ` ` b b ` ~ ~ Q ~ ~ ~ Q ~ Q Q Q Q Q Q x , T =.=.=.=.*.=.=.*.=.=.=.=.=.=.U 4 ! Q Q Q Q Q ` b ` ` Q Q Q / ~ Q Q Q Q Q Q Q ",
"Q Q Q Q ~ ` Q / / ~ Q Q ~ ~ Q Q Q Q Q Q Q Q x d S @.-.=.=.=.=.=.=.=.=.*.=.*.=.;.U 4 Q Q Q Q ~ ' ` ' / / ~ Q Q Q ~ Q Q Q Q Q Q Q ",
"Q Q Q Q Q Q Q / / ~ Q Q Q Q Q Q Q Q Q Q Q Q s Z o.&.=.=.=.=.=.=.=.*.&.=.=.=.=.-.Y 9 ! Q Q Q Q Q Q ~ / / Q Q Q Q Q Q Q Q Q Q Q Q ",
"Q Q Q Q Q Q Q Q Q ~ Q Q Q Q ~ Q Q Q Q Q Q Q a Z O.*.=.=.=.*.=.*.=.%.+.*.=.=.=.=.$.I 0 Q Q Q Q Q Q Q Q Q Q Q Q Q Q ~ Q Q Q Q Q Q ",
"Q Q Q Q Q Q Q Q Q Q Q Q Q ~ / Q Q Q Q Q Q Q a Z o.&.=.=.*.=.=.=.-.$.O.*.=.=.=.=.&.Y 1 Q Q Q Q Q Q Q Q Q Q Q Q Q / / Q Q Q Q Q Q ",
"~ Q Q Q Q Q Q Q Q Q Q Q Q Q ~ Q Q Q Q Q Q Q a Z o.&.=.=.=.=.=.=.&.O.Y %.=.=.=.=.$.Y C Q Q Q Q Q Q Q Q Q Q Q Q Q Q Q Q Q Q Q Q Q ",
"/ ~ Q Q Q Q Q Q Q Q Q Q Q Q Q Q Q Q Q Q ! Q a Z o.&.=.=.=.=.=.=.$.S C Y %.-.=.+.O.Y C / ~ Q Q Q Q Q Q Q Q Q Q Q Q Q Q Q Q Q Q Q ",
"/ ~ Q Q Q Q Q Q Q Q Q Q Q Q Q Q Q Q Q Q Q 8 H Y o.o.&.=.O.*.*.+.$.L C o.+.%.=.+.o.Y C / ~ Q Q Q Q Q Q Q Q Q Q Q Q Q Q Q Q Q Q Q ",
"~ / Q Q Q Q Q Q Q Q Q Q Q Q Q Q Q Q Q Q / 1 I $.O.T +.%.+.%.%.o.Y C - L Y +.%.+.O.Y 3 ~ ~ Q Q Q Q Q Q Q Q Q Q Q Q Q Q Q Q Q Q ( ",
"Q Q Q Q Q Q Q Q Q Q Q Q Q Q Q Q Q Q Q Q / 3 L o.T o.T o.=.+.T Y C .   ; I +.o.Y o.Y 3 Q ~ Q Q Q Q Q Q Q Q Q Q Q Q Q Q Q Q ~ Q / ",
"Q Q Q Q Q Q Q Q Q Q ~ ~ Q Q Q Q Q Q ' Q Q 3 U T C Y +.+.+.+.U C @   . , Y @.T C L o.C Q Q Q Q Q Q Q Q Q Q ~ ~ Q Q Q Q Q Q Q Q ~ ",
"Q Q Q ~ Q Q Q Q Q Q / / / Q Q Q Q ' b Q Q m G Z , Y Y D o.$.Y ,       + 1 Y O.U D S M Q Q ~ ~ Q Q Q Q Q ~ / / ~ Q Q Q Q b ` Q Q ",
"Q Q ~ ) ~ Q Q Q Q ` b / / ~ Q Q Q Q Q / ( ~ B 5 3 L H 6 L T L 3 O o o   @ Z Y T H a Q Q Q ~ ( ~ Q Q Q Q ` ` / ( ~ Q Q Q Q ~ / / ",
"Q Q Q ) / Q ` Q Q Q ` ` ~ / Q Q Q Q / / ~ Q Q m 3 1 7 t 2 1 3 3 w u t   - C 1 3 a Q Q Q ~ ~ / / ` ` Q Q Q ` ` ~ ~ ~ Q Q ~ / / ~ ",
"/ ~ ~ / / ' b Q Q Q Q ` ~ ~ Q Q Q ~ ~ / Q Q k i y r t j y e % . w k u w w % . * t k / / / ~ ~ ( ` b ~ Q Q Q ` ~ ~ Q Q Q ~ ~ ~ ~ ",
"_ ) / Q / ' b Q Q ~ ~ Q Q Q Q Q Q Q Q Q Q z j j j j j j j w $ $ e e j j w $ $ t i k R ( ( ~ ~ ~ ` ` Q ~ ~ ~ Q Q Q Q Q Q Q Q Q Q ",
"Q ~ / / Q Q Q / / / / Q Q Q Q Q Q Q Q Q Q j j j j j e u j $ X j k i u j o X j j t j g ' / ( / ~ Q Q / / ~ ~ Q Q Q Q Q Q Q Q Q Q ",
"/ ~ ~ / ~ Q Q / / Q ` Q Q Q Q Q Q Q Q Q ~ k j j j j j u u u u j e k u p j j j j p p R ~ ~ ~ / Q Q Q / / Q Q Q Q Q ~ Q Q Q Q ~ ~ ",
"/ ~ ~ / Q Q Q ~ / Q ' Q Q ` ' Q Q Q Q Q ~ ~ j j j j j j j j z p u k z j j j j j p R ^ / / ~ ~ ~ Q Q / ~ ' ' ~ ` ` ~ Q Q Q Q Q ~ ",
") / / Q Q Q Q Q Q ~ / / ` ` Q Q Q Q Q Q Q ~ Q c k j j j g g k p u j j g j j j j c ~ _ / / ~ Q Q Q Q Q Q ~ / / b ` ~ Q Q Q Q Q Q ",
"/ / ~ Q Q Q Q Q / / / b ` Q Q Q Q Q Q Q Q Q Q Q Q Q Q k j j g p p p j j R E ~ ~ ` ` / / / ~ ~ Q Q Q Q / / ~ ` ` Q Q Q Q Q Q Q Q ",
"` ' ~ / / ' ` Q Q ~ Q ' Q Q Q Q Q Q Q Q Q Q Q Q Q Q Q Q Q Q Q ~ ~ ~ ~ / / ' ` Q Q ` ` ` ~ ~ ~ / ` ` Q ~ ~ ~ ` Q Q Q Q Q Q Q Q Q ",
"b ` ~ / / Q ` Q Q Q Q Q Q Q Q Q Q Q Q Q Q Q Q Q Q Q Q Q Q Q Q Q Q Q Q ~ ~ ~ ` ` Q Q b b ` ~ / ~ ' ` Q Q Q Q Q Q Q Q Q Q Q Q Q Q ",
"Q Q Q / Q Q Q Q Q Q Q Q Q Q Q Q Q Q Q Q Q Q Q Q Q Q Q Q Q Q Q Q Q Q Q ~ Q Q Q Q Q Q Q ~ Q ~ / ~ Q Q Q Q Q Q Q Q Q Q Q Q Q Q Q Q ",
"Q Q Q Q Q Q Q Q Q Q Q Q Q Q Q Q Q Q Q Q Q Q ~ Q Q Q Q Q ) / Q Q Q Q Q Q Q Q Q Q Q Q Q Q Q Q Q Q Q Q Q Q Q Q Q Q Q Q Q Q Q Q Q Q ",
"Q Q Q Q Q Q Q Q Q Q Q Q Q Q Q Q Q Q Q Q Q Q ' ) / / ~ ~ / / ~ ` ` ~ Q Q Q Q Q Q Q Q Q Q Q Q Q Q Q Q Q Q Q Q Q Q Q Q Q Q Q Q Q ~ ",
"Q Q Q Q Q Q Q Q Q Q Q Q Q Q Q Q Q Q Q Q Q Q ' ~ _ ^ / Q ~ / / b ` Q Q Q Q Q Q Q ~ Q Q Q Q Q Q Q Q Q Q Q Q Q Q Q Q Q Q Q Q Q Q Q ",
"Q Q Q Q Q Q Q ' Q Q Q Q Q Q Q Q Q Q Q Q Q Q ` b / ) / / ~ ~ ~ ` Q Q Q Q Q Q Q Q Q Q Q Q Q Q Q Q Q Q Q ~ Q Q Q Q Q Q Q Q Q Q Q Q ",
"Q Q Q Q Q Q Q b ~ ( / Q Q Q ~ / ~ Q Q ~ Q ` b b ` ~ / / ~ Q ~ ~ ~ / / ~ Q Q Q Q Q Q Q Q Q Q Q Q Q ` b ~ / / Q Q Q ~ / Q Q Q ~ Q ",
"Q Q Q Q Q Q Q Q Q / / ~ Q Q Q ~ Q Q Q Q / / / ~ ~ Q ~ / ~ ~ / / / / ` b Q Q Q Q Q Q Q Q Q Q Q Q Q Q ` ~ / / ~ Q Q ~ ~ Q Q Q Q / ",
"Q Q Q Q Q Q Q Q Q ~ ~ ~ ~ Q Q Q Q Q Q Q / ^ ^ ( ~ ~ ~ ~ ~ ~ / / ' ` b b ` Q Q Q Q Q Q Q Q Q Q Q Q Q Q Q ~ ~ ~ ~ Q Q Q Q Q Q Q / ",
"Q Q Q Q Q Q Q Q Q Q Q Q Q Q Q Q Q Q Q Q ~ ~ ( / / ~ Q Q Q ~ ~ / ` b b ` Q Q Q Q Q Q Q Q Q Q Q Q Q Q Q Q Q Q ~ Q Q Q Q Q Q Q Q Q ",
"Q Q Q Q Q Q Q Q Q Q Q Q Q Q Q Q Q Q Q Q Q Q ~ / / ~ Q ~ ~ Q ~ ' / / ~ ` b ` Q Q Q Q Q Q Q Q Q Q Q Q Q Q Q Q Q Q Q Q Q Q Q Q Q Q ",
"Q Q Q Q Q Q Q Q Q Q Q Q Q / ( Q Q Q Q Q Q Q ~ Q ~ ~ ~ ~ ~ ~ ~ / / ' ` b b ` Q Q Q Q Q Q Q Q Q ~ Q Q Q Q Q Q Q ~ ~ / ~ Q Q Q Q Q "
};
