/* XPM */
static char *result[] = {
/* columns rows colors chars-per-pixel */
"32 32 209 2 ",
"   c #191E1F",
".  c #0E2F1B",
"X  c #13251A",
"o  c #1A251F",
"O  c #162B1E",
"+  c #1B2A1E",
"@  c #0D341D",
"#  c #0B381E",
"$  c #14331C",
"%  c #173818",
"&  c #1B3B1B",
"*  c #28371B",
"=  c #333D1B",
"-  c #1E1723",
";  c #1D1B23",
":  c #1D1A2C",
">  c #1D1A33",
",  c #1E1C39",
"<  c #241F29",
"1  c #231E37",
"2  c #1C2323",
"3  c #192526",
"4  c #142D23",
"5  c #1C2C23",
"6  c #0D3A23",
"7  c #143423",
"8  c #1B3223",
"9  c #153923",
"0  c #1A3A28",
"q  c #292D27",
"w  c #23242B",
"e  c #2D232C",
"r  c #352A2D",
"t  c #392E2C",
"y  c #203427",
"u  c #273824",
"i  c #223C28",
"p  c #2E3C2A",
"a  c #37362B",
"s  c #25233A",
"d  c #383537",
"f  c #303438",
"g  c #43362B",
"h  c #493A2C",
"j  c #412F31",
"k  c #443133",
"l  c #4A3831",
"z  c #523F30",
"x  c #1B590F",
"c  c #15411D",
"v  c #1B441B",
"b  c #164C1C",
"n  c #1A4819",
"m  c #0D581E",
"M  c #185A17",
"N  c #15541B",
"B  c #1C521B",
"V  c #274715",
"C  c #24441B",
"Z  c #264B1D",
"A  c #2D4C1B",
"S  c #324A19",
"D  c #285617",
"F  c #235D1D",
"G  c #355E13",
"H  c #375817",
"J  c #31521E",
"K  c #1A680C",
"L  c #16770D",
"P  c #0C6819",
"I  c #1E6313",
"U  c #196919",
"Y  c #187412",
"T  c #296A0C",
"R  c #336E0D",
"E  c #2A790B",
"W  c #3A750B",
"Q  c #337C08",
"!  c #2E6314",
"~  c #266816",
"^  c #376615",
"/  c #38611A",
"(  c #287615",
")  c #347115",
"_  c #36751A",
"`  c #0D4125",
"'  c #064923",
"]  c #0B4B26",
"[  c #134326",
"{  c #1C4323",
"}  c #154924",
"|  c #0E5523",
" . c #105220",
".. c #254220",
"X. c #2C4A22",
"o. c #3A4529",
"O. c #2A5429",
"+. c #375627",
"@. c #3A4735",
"#. c #156726",
"$. c #336425",
"%. c #406F0F",
"&. c #43790D",
"*. c #426714",
"=. c #4D7416",
"-. c #437D14",
";. c #497C12",
":. c #477218",
">. c #557719",
",. c #4E452E",
"<. c #54432B",
"1. c #55492B",
"2. c #5C4A2C",
"3. c #485629",
"4. c #50532F",
"5. c #4F4231",
"6. c #69562B",
"7. c #725D2C",
"8. c #705632",
"9. c #456A2B",
"0. c #4F7E2D",
"q. c #5F6033",
"w. c #4A7235",
"e. c #58783A",
"r. c #7C612D",
"t. c #6E7A2C",
"y. c #7D6B36",
"u. c #637A35",
"i. c #1B1C44",
"p. c #1E1F4A",
"a. c #201E40",
"s. c #242646",
"d. c #2B2B40",
"f. c #2B2C57",
"g. c #343056",
"h. c #353663",
"j. c #356F44",
"k. c #605151",
"l. c #725552",
"z. c #4D714B",
"x. c #487A49",
"c. c #82682F",
"v. c #856931",
"b. c #897331",
"n. c #89765C",
"m. c #A1786C",
"M. c #1D8205",
"N. c #2A8706",
"B. c #39860A",
"V. c #3D9403",
"C. c #3A910C",
"Z. c #2A8310",
"A. c #398811",
"S. c #44820C",
"D. c #4C880B",
"F. c #558D08",
"G. c #4B9B03",
"H. c #44960C",
"J. c #4B9808",
"K. c #599508",
"L. c #4A8817",
"P. c #598916",
"I. c #549719",
"U. c #658816",
"Y. c #54A201",
"T. c #5AA603",
"R. c #66A709",
"E. c #76AB09",
"W. c #6DB306",
"Q. c #74B403",
"!. c #76BB01",
"~. c #78B809",
"^. c #74A110",
"/. c #5A8639",
"(. c #5E923C",
"). c #66872C",
"_. c #70922F",
"`. c #718A36",
"'. c #62963B",
"]. c #7C9C31",
"[. c #7BC102",
"{. c #3F824F",
"}. c #568A49",
"|. c #528D52",
" X c #659C41",
".X c #689F40",
"XX c #6AA241",
"oX c #83B117",
"OX c #8E8335",
"+X c #979935",
"@X c #AA9D3E",
"#X c #82AA2D",
"$X c #99B226",
"%X c #82A531",
"&X c #85AB32",
"*X c #89AF32",
"=X c #A7BF29",
"-X c #ABAA3B",
";X c #AEB23C",
":X c #88CA02",
">X c #94D300",
",X c #A6E100",
"<X c #A8C029",
"1X c #B39E48",
"2X c #8F8D6F",
"3X c #978579",
"4X c #AC8E74",
"5X c #A2967F",
"6X c #AC9888",
/* pixels */
"XXXX*X*X6X*X<X<X*X*X/._.I G #./.=.U.0.) 5X*X<X<X*X*XXX*X*X<X*XXX",
"<X*XXX*XXX*X*XXXw.#XQ J I ,X&.*.R.Q.%.Q }.*X*XXXXX*X<X*XXX*XXXXX",
"XX*X*XXX|.XXl.d v U E T.;.n E X.^ ;.:XS.O..Xm.4X*X'.*XXX*XXX*X*X",
"*XXXXX*X*XXX*X&.V.] { K.M ../ Y B ! E J ^ (.*XXXXX|.XXXX6XXX|.XX",
"XX*X*X2XXX*XP.Q.V G.N 9 ] 9 E.J.F R 0 B.X.8 / j.*X<X<X*XXX*X*XXX",
"=X*XXXXX*X<X$.7 =.;.} +.Y T 8 W ( >XJ y ` | Y.0..X*XXXXX*X<X*X<X",
"*X|.*X.X.X9.N V $ G.D.W #.Z.M.~ ) R.N.[ c R.U R P./.*XXXXX*XXXXX",
"6X*X=X*X3.[ >XE.E.D.;.U L.W.G J V W.B.4 . $ x ~ :.I.|.XX*XXX*X6X",
"*X=X*XXX].{.L ; X =.!.C J.N.:.,XS $ # ` Q C N.B.R.O.%X&X<X*X*XXX",
"XX*X*X=XoX' S.U 7 / V   >.*.5 B b P G.W 6 G v $ 5 W 9._.XX*XXX*X",
"*XXX*X&XO E T.Y.] ^ + ] H >XV A H &.*.O 3 A.H   ! S.F.$.*X<X<X*X",
"XXXX|.u -.A.H.( ~ m v & R.D.F.) ,XS _ v 7 ( I 7 R.V =.= x.XX*XXX",
"*X*X$Xy y 2 Z.Y.T.M.N F ^.@ E.#.7 F v A.M J ) [ J U.; p *X*X2XXX",
"<X*X X` & 5 5 P.P Y.5 L.V.J.C.F.H { ../ [.| 3 3 $ @ n | XXXXXX*X",
"XXXX*X8 2 ] } B.] ^ [.:XH.W.D N.:X:Xm M [ ;.~ D G.w - G ].XX*X*X",
"4X*X'...I G ,X7 D _ ( | L [.H.R.H.Y.J.G.~.8 A ^ D C 2 f.XX*XXXm.",
"XXXX].* 3 M H 4 R.7 0 V.( ~.} Q.:.] =.E 7 x % = H D > i.*X=X*XXX",
"<X*XXX/.+.4 ] 2 < 9  .] n 2 C } ` ,XL.5 X O - F.% ^ < 3 p *XXXXX",
"XX*X*XXXz.[ n 8 F._ >X+ D 6 F L._ F.$.& ; X   8 5 3 1 ; *XXX*X*X",
"*XXXXX*X*Xw.q . X ~ 5 K.L !.) 7 7 % H ~ 2 2 5 - ` s.i.@.6XXX|.XX",
"XX*X*X2X/.4 B @ . X o A y + H 8 N 5 U R . 2 K ; : > s @.XX&X*XXX",
"<X*XXXXX).+.b L . X X Z U.^.L.C D +.-.C 5 i a.s s i.}.XX*X=X*X=X",
"*X|.*XXX'.R % % } v 6 % + K.5 $ @ $ ' 2 y : a.> p.- u..XXX*XXXXX",
"6X*X<X*Xu.% p < 8 E - O t 5 r g u b ..q 1 > , : : d.z.XX*XXX*X6X",
"*X<X*XXX*XXX*X9.o.Z ; q e 5.2.y.8.+Xc.y.e d.@.a 3.e.*X%X=X&X*XXX",
"XX*X*X<X<X*XXXXXx.w.q t 2.v.-X;X6.8.6.<.e s.a (.|..XXX*XXX#XXX*X",
"*XXX*X*XXX*X*XXX].3.g <.7.+X1Xr.OX,.2.h g s h.1 e.*X*XXX*X<X=X*X",
"XXXX|.XX6XXX*X*Xk.j k g b.v.b.-X@X,.a t j l 1 < 3X'.|.*X|.XX*XXX",
"*X*X<X*XXX*XXXXXe.r r 3.2.r.b.c.b.,.h <.r d g.z.XX*X<XXX*X*X2XXX",
"<X*XXX*X*X<X*X<X$XXXe.6.<.t.h h 7.r.d d e f h.h.&XXXXX*XXXXXXX*X",
"XXXX*X<X*X*XXX*XXXx.b.z q.1.<.o.r c.z d k `.4.g.XX|.XXXX*XXX*X*X",
"2X*XXXXXXXXX*XXX*XXXOX%X'.7.t 2Xn.1.8.u.e.}.].XX*XXX*X*XXX*XXX2X"
};
