/* XPM */
static char *result[] = {
/* columns rows colors chars-per-pixel */
"64 64 193 2 ",
"   c #0F371F",
".  c #113D1F",
"X  c #251F25",
"o  c #2D1E28",
"O  c #0F2E25",
"+  c #0F2D28",
"@  c #162C27",
"#  c #1C2F27",
"$  c #0F3221",
"%  c #0F3128",
"&  c #103522",
"*  c #1B3225",
"=  c #113B22",
"-  c #133529",
";  c #19332D",
":  c #133D2A",
">  c #1D3434",
",  c #143E34",
"<  c #1D3D36",
"1  c #1E3C39",
"2  c #242526",
"3  c #232B27",
"4  c #2C2228",
"5  c #252C28",
"6  c #2C2A2A",
"7  c #33222B",
"8  c #3B252E",
"9  c #342D2D",
"0  c #28332C",
"q  c #262E3E",
"w  c #292A3C",
"e  c #392733",
"r  c #362A35",
"t  c #3E2A36",
"y  c #332D39",
"u  c #213834",
"i  c #2F3832",
"p  c #26343E",
"a  c #29333F",
"s  c #233B3B",
"d  c #3F3037",
"f  c #393539",
"g  c #412731",
"h  c #442A33",
"j  c #4C2C35",
"k  c #442C39",
"l  c #4A2F3A",
"z  c #512E37",
"x  c #542F38",
"c  c #4B3134",
"v  c #43313D",
"b  c #4D323D",
"n  c #54313B",
"m  c #5D343C",
"M  c #62363E",
"N  c #64393C",
"B  c #6A3C3F",
"V  c #12441F",
"C  c #134424",
"Z  c #15472E",
"A  c #1A452F",
"S  c #164B2D",
"D  c #194A2F",
"F  c #17522B",
"G  c #18542B",
"H  c #185A29",
"J  c #185B2A",
"K  c #154331",
"L  c #1B4333",
"P  c #164830",
"I  c #194A33",
"U  c #1F443A",
"Y  c #1D4B3A",
"T  c #224236",
"R  c #284A31",
"E  c #23423A",
"W  c #224D3E",
"Q  c #2D4A3D",
"!  c #245836",
"~  c #38573C",
"^  c #41653F",
"/  c #262F41",
"(  c #263441",
")  c #283641",
"_  c #253C42",
"`  c #293C44",
"'  c #303440",
"]  c #313E44",
"[  c #433943",
"{  c #553541",
"}  c #5B3743",
"|  c #5E3844",
" . c #643A45",
".. c #6A3A41",
"X. c #6B3D49",
"o. c #713D43",
"O. c #2B4345",
"+. c #254C44",
"@. c #2D4C46",
"#. c #274649",
"$. c #2B4449",
"%. c #2C4C4C",
"&. c #324E44",
"*. c #265247",
"=. c #2D5146",
"-. c #295847",
";. c #27534A",
":. c #2E534D",
">. c #2E5B4C",
",. c #305346",
"<. c #325A47",
"1. c #3B5C42",
"2. c #31554A",
"3. c #325C4B",
"4. c #2B4E53",
"5. c #2D5452",
"6. c #2E5A53",
"7. c #305751",
"8. c #315D52",
"9. c #2E604C",
"0. c #3B6445",
"q. c #3D6D46",
"w. c #34634C",
"e. c #39654D",
"r. c #366B4C",
"t. c #3B6D4E",
"y. c #37714D",
"u. c #3B734E",
"i. c #3C7B4E",
"p. c #2F6253",
"a. c #336451",
"s. c #386750",
"d. c #356B51",
"f. c #396C50",
"g. c #367351",
"h. c #397551",
"j. c #377951",
"k. c #397B51",
"l. c #6C464E",
"z. c #744043",
"x. c #7B4345",
"c. c #7E4846",
"v. c #74424C",
"b. c #7A464D",
"n. c #7E4650",
"m. c #416B41",
"M. c #437245",
"N. c #457B46",
"B. c #497841",
"V. c #41744C",
"C. c #447C4B",
"Z. c #487F49",
"A. c #844B47",
"S. c #864A48",
"D. c #8B4E49",
"F. c #92524C",
"G. c #9B574E",
"H. c #834852",
"J. c #8B4B55",
"K. c #934F59",
"L. c #8C5151",
"P. c #935256",
"I. c #9E5850",
"U. c #955359",
"Y. c #A35B53",
"T. c #558D3F",
"R. c #5C993F",
"E. c #65AD3F",
"W. c #67B13E",
"Q. c #69B43D",
"!. c #6BB83D",
"~. c #3E824E",
"^. c #3C8251",
"/. c #4C8547",
"(. c #4E8B47",
"). c #44844C",
"_. c #4A8449",
"`. c #468A4B",
"'. c #4A8C49",
"]. c #508741",
"[. c #518D45",
"{. c #518F48",
"}. c #4F9447",
"|. c #4D9249",
" X c #539445",
".X c #589742",
"XX c #549B45",
"oX c #5A9D43",
"OX c #57A145",
"+X c #5DA442",
"@X c #5EA942",
"#X c #61A641",
"$X c #62AA40",
/* pixels */
"Z Z S H F P K Z Z Z K K F F Z Z Z S F F S S Z K K Z Z Z Z Z L ` 1 L L K Z Z Z Z Z Z Z Z Z Z J F Z K Z Z K K K F S Z Z Z S F F S ",
"S S S S F P , Z Z Z K K Z S Z Z Z D S F Z Z Z Z 1 L Z 1 s _ ,.).w.3.%.s L A Z Z Z Z S F S S S G K , Z Z Z P K S S Z Z Z S F F Z ",
"J J F Z F P , Z Z Z Z Z Z Z Z Z Z Z Z Z Z Z Z s 6.` O.t.8.C.XXC.OXh.{.f.#._ Q O.< D J J J F Z F K , Z Z Z Z Z Z Z Z Z Z Z Z P Z ",
"Z S G F Z Z P F F S F Z Z Z Z Z Z Z Z K u < Q XX`.d.XX_.g.XXk.V.XXV.XXh.a.(.XX6.0.#.1 K S G F Z Z Z F F F F Z Z Z Z Z Z Z Z Z Z ",
"S S S G S Z Z G G S K Z Z Z Z Z Z Z K s 5.8.[.@X`.).XXh.).+X Xg.(.XXd.`.XXXXi.i._.C.:.T S S G Z Z Z G F S K Z Z Z Z Z Z Z Z Z S ",
"G F S S Z Z Z F F P K P P K Z Z Z Z E 3.)./.i.g.XX$Xa.g.$X+XC.k.i.(. X X(.j.C.!.|.$Xh.w.T K F Z Z Z S F P K Z K P Z Z Z Z Z Z F ",
"G F F Z Z Z Z Z Z S F F K K Z Z E _ 7.h.$X#Xh.XX@X).OX/.).XX$XXX).|.|.a.C.OX~.C.+XC.a.a.u.#.L Z Z Z Z Z S G F , K Z Z Z Z Z Z Z ",
"G G F Z Z Z Z Z F F F , K Z L @.3.V.t.XX].t.g._.d.(.$X}.#X Xk.XX|.$X}.C.W.[.i.k.u.u.|.XXXX).$._ L Z Z F G S K K K Z Z Z Z Z Z Z ",
"K Z S S F Z K Z Z S Z K K Z , 0. XoXk.C.5.j.`. XC.{.OX|.$Xh._. XC._.$XC.XX)._.OX).).t.).`.e.7.[./.U Z S S Z K P Z Z Z Z Z Z S Z ",
"K K S G F Z , Z Z Z P I Y T ~ 1.d.|.V.6.XX$XXX/.a.).(.s./.8.+X{.a.s._.oX(.#X'.!.XX'.t. X$X#X`.f.}.M.( U Y Y Z Z Z Z Z Z Z Z Z Z ",
"Z Z Z G Z Z Z Z Z Z Z P @.T.XX|.}.m.g.(.XX'.|.@X`.XX`.h.5.C.$X XXX$Xi.C.a.#XZ.oX@X`.XX).$X$X$X'.V.[.f.$.:.W Z Z Z Z Z Z Z Z Z Z ",
"Z Z Z Z Z Z Z Z Z Z Z < ^ q.,.w.m.q.(.V.(.a.$X|.oX'.'.}.s.#X+X|.E.#X+X^.f.s.(./.XX|.}.|.`.$XC.s.).oXoXa.` L P P Z Z Z Z Z Z Z Z ",
"Z Z Z Z Z Z Z Z Z Z s q ^ T.OXXXW.#XC.8.k.8. XC./.a.#X`.`.+X$X).$X[._.@X(.a.`.f._.).`.`.|.i.i.a.6.8.8.a._ ` %.P Z Z Z Z Z Z Z Z ",
"Z Z Z Z Z Z Z Z Z Y %.<.).i.(.[.f.u.a.a.+X).7.|. Xd.OXd. X'.|.XX_. Xa.!._.a.'.u.[.a.XX_.$Xf.6.u.d.i.OXC.5.$.5.*.P Z Z Z Z Z Z Z ",
"Z Z Z Z Z Z Z Z Z L s w.( @.M.<.h.|.$X(.W. X(.C.`.d.$XC..X+Xk.oX8.V.e./.Z.XX7./.@Xu.XX X(.XX`.E.$XV.C.].).5._ P Z Z Z Z Z Z Z Z ",
"Z Z Z Z Z Z Z , I s :.w.e.@X X6.f.$XXX#X[.t.W.V.a.s.oXZ.V.W.t.|.oXe.}.h.+X#Xk.i.$XC.a.OXe.u.OX)._.+Xa.` e.O.#.1 Z S F S Z Z Z S ",
"Z Z Z Z P Z Z K I -.g.5.B.N.f.i.`.$X`.XX5.oX#Xf.#XC.i.[.7.C.).`.'.C.|.`.@X).$XV.`.E.7.6.8.a.h.'. X|.h.5.$.g.r.p Z Z S Z Z Z Z F ",
"Z Z Z Z Z Z Z P D *.%.) ( M.@X`.XXV.d.V.h.XX_.XX+X|.C.k.d.f.$XoXj.XX|.'.|.XX$X`.y.+Xu.5.h.k.d.s.@XW.@X~.:.O.a.w.Y Z Z Z Z Z Z G ",
"Z Z Z Z Z Z Z U +.O.u.8.5..Xr.g.t.oXE.XXa.d.|.!.(. XC.5._.$X$X$X|.+X$X).j.$XoXk.5.C.~.a.`.E.).h.d.d. X(.g.` @.%.%._ Z Z Z Z Z Z ",
"Z Z Z Z Z Z Z Y w.u.a.5.g.%.2.).oX X_..X8.).$X_.V.$Xs.4.'.$X`.$X$Xh.+X+Xa.XX_.$XC.4.~.XX XE.oXW.[.$.d.g.r.O.h.w.a s Z Z Z Z Z Z ",
"Z Z Z Z Z Z Z Y a.2.%.<.u.O.r.r.V.C.C.g.i.). X5.oX#Xt.oXd. XC.+XC.5.8.}.5.C.C.#X8.s.'.!.~.C.+XZ.E.` 5.r.j.y.%.r.s D Z Z Z Z Z Z ",
"Z S Z Z Z Z I 9.k.d.$.%.O.$.a./.W.#Xe.d.a.a.u.k.E.).u.W.(.e.8.s.XXa.7.i.(.a.C.V.8.}.).@X+X5.[.i.E.M.d.@.@.r.3.$.<.@.+.L Z Z Z Z ",
"Z Z Z Z Z Z -.k.2.` ` ` $.a. XoXt.8.7.s.+Xf.6.).XXa.k.XX$Xa._.8.C.i.h.OX!.).a.e.|.XXXX'.$Xi.t.a.).XXi.h.a.5.,.@.d.k._ K Z Z Z Z ",
"Z Z Z Z Z Z W +.a r.g._ $.r.$.3.e.C.$XXXW.[.).i.V.t.+X(.XX|.!.C.p.).$X).+X#Xh.d.$X_.{.XXC.}.|.6.d.w.<.y._ :.w.) ` %.P Z Z Z Z Z ",
"Z Z Z Z D +.6.$.r.d.` ` 6.5.5.oX|.$XXX+XXXi.W.q.d.`.$X(.`./._.i.}.V.W.XX~..X6.i.XX(.u.V.6.|.!._.5.r.:.k.@.( h.t.a ` -.Y P Z Z Z ",
"Z Z Z Z ! ;.+.` $.3.7.%.w.a. X X).$X`. Xd.OXE.u.+X`.`. X5.t.w._.W.a.oXoX6.|.6.f.`.'.E.#Xu.a.OXOXa.6.6.d.:.w _ d.3.` %.*.P K Z Z ",
"S Z Z S Z Z s =.y.h.%.O./ 8.u.d.XXC.i.`.k.+XXXk.$XoXf.a.8.C.y.W./.8.i.XX5.d.`. Xd.6.`.|.E.).r.C.g.a.g.^.@.$.3.O.^.r.L Z Z Z Z Z ",
"Z Z Z P Z F W k.>.@.a p >.^.@.a.u.d._.`.h.XXr.k.(.W.w.d.+XXX~.E.V.XXt._.r.).+XE.(.#Xu.k.i.a.5.g.%.@.%.u.r.$.^.%.@.i.K F G J Z Z ",
"Z Z Z Z K L ` $.$.u.>./ u.>.3.a.d.j.[.$Xd.t.6.k.k..Xi.XXE.).u.}.XXE.8.5.XX$Xi.+X@X@XXXa.w.>.) w.~.i.s ) @.) :.8._ 3.s I G F Z Z ",
"Z Z Z Z , 1 %.` u.g.$.a 3.) y.k.6.i.g.(.a.Z.(.7.k.|.i.`.@Xd.6.i.XX&.C. XV.Q._.a.XX|.oX7.r.a %.$.6.<.u.` w.O.@.d.4.) a P S Z Z Z ",
"Z Z Z Z P < ( ( k.a.$.( / ,.~.3.5.g.d.5.5.r.!.u.a.3.i.h.C.6.y.~.C.<.@XoX>.$XXXr.M.6.XX'.j.r.i.i.7.` q ) 8.u.<.^.O.q p L Z Z Z Z ",
"Z Z Z Z Z K :.%.O.` O.,.w ,.u.@.a.a.2.` a.k.XX_.d.4.@.~.6.a.d.r.$.t.!.).a.0.XX@.` #.i.u.6.i.<.~.:.4.3.O.) 2.` w.O.%.*.Z Z Z Z Z ",
"Z Z Z Z Z +.%.:.5.) u.%.a <.=.i.r.5.$.u.<.=.`.C.k.a.$.a.8.w.d.2.` h.R.h.%.@.C./ 3.3.r.^.5.3.a.h.<.` k.i.` 5.$.q a +.:.Y Z Z Z Z ",
"Z Z Z Z L p s +.%.O.7.$.:.O.O.k.` w.3.k.i.` w.a.k.d.4.$.k.w.8.$./ V.0.` 3.8.:.` ~.a.7.~.8.:.5.%.r.` >.r.a O.5.` %.U a s Z Z Z Z ",
"Z Z Z Z Z Z Z +.) %.` #.:./ ) 2.O.~.g.O.~.>.O.a.7.i.:.` h.g.4.3.@.` %.w <.^.$.w.3.O.5.g.@.$.$.:.) O.$.%.%.( ) ( ) p Z K Z Z Z Z ",
"Z Z Z Z Z Z Z s a Y ` ) ) a ( / w.i.O.` h.8.( %.%.O.O.q $.a.%.).2.` ` ,.%.u.%.@.%.) 5.5.` ` a %.4.) $.) %.) a p s ` Z Z Z Z Z Z ",
"S Z Z Z Z Z Z < L P :.` ) %.` ] w.r.w s d.$.a ) :.a w.a / O.] a.5.) a k.<.O.$.$.7.O.] $.) ( ( ` %.O.4.%.` $.6.W Z s K Z Z Z Z Z ",
"G S Z Z Z Z Z Z Z Y W #.%.%.` ( w.O.` ) 5.) ` ) ` ( y.w.` 4.` %.a ) ) 7.=.q $.%.` 4._ ` 7.` ` / ` ` %.5.` O.O.W Z Z Z Z Z Z Z Z ",
"S F Z Z Z Z Z Z Z Z s s :.#.a ) ` 7.#.) $.) ` $.` ) O.O.( 8.O.) ) 5.%.) $.) O.) ` 7.) ( ] %.2.%.) ) a O.2.) s K Z Z Z Z Z Z Z F ",
"Z S Z Z Z Z Z Z Z Z A L O.) ) ) ` 5.O.` ` 7.$.:.5.5.) ` ` ` 7./ %.6.) q %.O.a ( O.%.( ` ` ` %.%.) $.) ) ) ( Z Z Z Z Z Z Z Z Z F ",
"Z Z Z Z Z Z Z Z Z Z D s ) ) ) 5.$.) O.7.` ] 5.%.7.O.5.O.5.O.( ( %.` $.) O.` O.` 5.%.$.` ) ( a ` ) ) ) ) ( _ L Z Z Z Z Z Z K Z Z ",
"Z Z Z Z Z Z Z Z Z S F F I s ) 2.` q %.%.q ) 6.` %.$.5.` ` ] ' 5.) a $.) ) O.%.%.%.7.5./ ) ) s a ) ) ) ( L F G Z S Z Z Z K , S Z ",
"Z Z S J S Z Z Z Z K , F F T s Y L a ` ) a ` 4.) ) ` O.O.( ( t 8.$.a ) ) ) $.` ` ) ` %.) ) ) T s s L s p K K F G S Z Z Z Z Z G F ",
"Z Z Z J G Z K Z Z K K K S L U D Z L s ) L E a ) / ) ( O.] ] / O.` a ) $.a ) ( a p a ) ) s s a F Z K Z 1 K K K F F Z Z Z S F G S ",
"F S S S G P , Z Z Z Z K Z S Z Z Z Z T < Z K - > > q ( y y / ) ) ' ) ) ( a y ( a * ; p s S D s F K , Z Z Z Z K Z S Z Z Z S F S Z ",
"H J F Z F K K Z Z Z S Z Z Z Z Z Z Z Z Z Z = & & # { P.U.[ [ } ' b ' ' { ) r ( ; &   < J G F Z F K K Z Z Z Z Z Z Z Z Z Z Z Z Z Z ",
"K F G F Z Z Z F F F G Z Z Z Z Z Z Z Z Z A   & $ t n.U.P.l.L.b.X.|  . .J.v r * & & @ O Z S G G Z Z Z F F G F Z Z Z Z Z Z Z Z Z Z ",
"F S S G S Z Z F G S K Z Z Z Z Z Z Z Z Z S = $ $ r v.K.J.H.n.v.J.J.n.v.H.b k 0 &   . V S S S F S Z Z G G Z K Z Z Z Z Z Z Z Z Z F ",
"F S S S Z Z Z S F P P S K K Z Z Z Z Z Z S S = 0 v b H.H. .U.b.v.v.J.X. . .t { 9   C H G F S F Z Z S S F P K S K K Z Z Z Z Z Z F ",
"H F F Z Z Z Z Z Z S F S K K Z Z Z Z Z Z Z A f b t k } v.n.{ H.v.v. .X.J.{ k e b f R H G F S Z Z Z Z Z Z F G F , K Z Z Z Z Z Z Z ",
"F F F Z Z Z Z Z F F F K K Z Z Z Z Z Z Z A b b h t J.b.X.n |  .n { X.} H.l.P.n e l { R F F S Z Z Z Z Z F G S K K Z Z Z Z Z Z Z Z ",
"K K S F F P , Z Z S Z Z Z Z Z Z Z Z Z Z i l h t c.Y.I.F.M 7 7 g 7 g ..S.G.I.F.h e l d : Z S S F K K Z Z S Z K P Z Z Z Z P Z Z Z ",
"K K S F F P K Z Z Z Z K Z Z Z : : $ & & & 2 X N z.m B A.D.x 7 7 o j S.S.o.M N o.4 2 @ @ & & C C C , Z Z Z Z Z Z Z Z Z Z Z Z Z Z ",
"Z K S F Z Z Z P Z Z Z C = & $ $ &   $ = &   @ B z.z M m o.m 8 o 7 j z...m x M A.6   $ $ $ = = & & $ & = : Z Z Z Z Z Z Z Z Z Z Z ",
"Z Z Z Z Z Z Z P K C $ & & & & & & & & & & & c D.A.c.B z ..x 8 o 7 j ..j  .x.D.D.N * = $ $ & & & & $ & & & = : Z Z Z Z Z Z Z Z Z ",
"Z Z Z Z Z Z Z C & $ = & & & & & & & & & & 3 N B z z.z.n j 8 7 o 7 7 j j ..x.z M ..9 = $ & & & & & & & & & $ $ $ Z Z Z Z Z Z Z Z ",
"Z Z Z P Z Z Z & $ & = $ $ & & & & & & & # o.F.x.M 8 j h o 7 4 @ 2 7 7 e j h z o.D.A.6 $ $ $ & & & & & & & & & & = Z Z Z Z Z Z Z ",
"P Z Z Z Z Z Z $ & & & & & & & &   & & 3 m o.x.x.x 4 7 7 2 # = $ $ * 5 7 7 7 j z.A.....9 & = & & & & & & & & & & & Z Z Z Z Z Z Z ",
"Z Z Z Z Z Z Z , = V = & $ = = = & & & g ..B j 7 4 4 4 * = & = = = . = * 2 7 7 o k m m n * & & & & $ % & V = $ & Z Z F S Z Z Z Z ",
"Z Z Z Z P Z Z K Z C = = & $ $ = = & & 6 8 8 2 * & & & = = & = = = = $ O & & & & 2 7 7 6 & & & & & & $ & & V C Z Z Z S Z Z Z Z H ",
"Z Z Z Z Z Z Z Z Z S F C = & & $   & $ & . V V V . & & = & = C . = & + + & $ $ = & & & & & & & $ & $ $ : C S F Z Z Z Z Z Z Z Z F ",
"Z S Z Z Z Z Z Z Z Z Z Z Z Z K C : & & & & = V = . & & & $ = = = % + + & & * $ $ $ $ $ = & $ = : K C Z Z Z Z Z Z Z Z Z Z Z Z Z Z ",
"Z Z Z Z Z Z Z Z Z Z Z Z Z Z K Z Z Z Z Z : : C C C = & = $ & & $ = = = + % % : & : : : C Z Z Z Z Z Z Z Z Z Z Z Z Z Z Z Z Z Z Z Z ",
"Z Z Z Z Z Z Z Z Z Z K Z Z S H Z Z Z Z Z Z Z Z S S S D D F S P F G S K , K P Z P Z Z Z Z Z Z Z Z Z Z Z Z Z Z Z Z F F Z Z Z Z Z Z "
};
