/* XPM */
static char *xpm_[] = {
/* columns rows colors chars-per-pixel */
"32 32 179 2 ",
"   c #262423",
".  c #292625",
"X  c #292628",
"o  c #2E2B2B",
"O  c #2D2D26",
"+  c #312D2D",
"@  c #2F3628",
"#  c #35322D",
"$  c #393D27",
"%  c #312E31",
"&  c #363233",
"*  c #3A3535",
"=  c #3D3837",
"-  c #3E3938",
";  c #423D3D",
":  c #39442B",
">  c #3E4C31",
",  c #375A37",
"<  c #6D7D1B",
"1  c #444C2B",
"2  c #505E29",
"3  c #46413F",
"4  c #415431",
"5  c #4A5F3B",
"6  c #485A35",
"7  c #49552A",
"8  c #735834",
"9  c #45692A",
"0  c #586A2A",
"q  c #597221",
"w  c #4A6733",
"e  c #596D30",
"r  c #547838",
"t  c #6D7526",
"y  c #687F2F",
"u  c #62772C",
"i  c #66683F",
"p  c #727038",
"a  c #7D733B",
"s  c #777F34",
"d  c #657638",
"f  c #573F44",
"g  c #683D47",
"h  c #4B4445",
"j  c #4F4A4A",
"k  c #4B4446",
"l  c #504F47",
"z  c #534C4C",
"x  c #594349",
"c  c #57514F",
"v  c #5A524D",
"b  c #565446",
"n  c #564E51",
"m  c #575052",
"M  c #5B5354",
"N  c #5E5559",
"B  c #5D5854",
"V  c #7A4A49",
"C  c #7B5148",
"Z  c #794751",
"A  c #625956",
"S  c #645A5C",
"D  c #695D5C",
"F  c #60575A",
"G  c #5E6F4B",
"H  c #577753",
"J  c #6B6D4E",
"K  c #687548",
"L  c #747C4D",
"P  c #6A635B",
"I  c #676858",
"U  c #686557",
"Y  c #70645B",
"T  c #6A7A52",
"R  c #5F5A67",
"E  c #7B4E61",
"W  c #655D62",
"Q  c #685F64",
"!  c #645F6A",
"~  c #79506A",
"^  c #625F70",
"/  c #7F5777",
"(  c #6B6265",
")  c #6C6369",
"_  c #6A6464",
"`  c #71666A",
"'  c #74696E",
"]  c #796D6D",
"[  c #726865",
"{  c #6E6977",
"}  c #756C74",
"|  c #796D74",
" . c #7D7174",
".. c #7D727A",
"X. c #86792E",
"o. c #917B32",
"O. c #834E57",
"+. c #87515B",
"@. c #8A6356",
"#. c #827374",
"$. c #82757B",
"%. c #A1786C",
"&. c #6C862C",
"*. c #768B2B",
"=. c #608F3D",
"-. c #73853D",
";. c #679C3F",
":. c #799635",
">. c #3F824F",
",. c #528D52",
"<. c #678947",
"1. c #689843",
"2. c #6AA241",
"3. c #828021",
"4. c #9A8428",
"5. c #A6862C",
"6. c #85A834",
"7. c #89AF32",
"8. c #82A139",
"9. c #A8C029",
"0. c #8F8D6F",
"q. c #98877B",
"w. c #AC8E74",
"e. c #554F87",
"r. c #54568C",
"t. c #785F8F",
"y. c #67628C",
"u. c #746B88",
"i. c #6E728F",
"p. c #6A6599",
"a. c #797995",
"s. c #745CA3",
"d. c #5E70AE",
"f. c #6B76A4",
"g. c #777AA7",
"h. c #6977BC",
"j. c #7179B5",
"k. c #5A7CCE",
"l. c #5F75C5",
"z. c #5C76D9",
"x. c #5F74D1",
"c. c #647DC3",
"v. c #6C7BCA",
"b. c #6575C8",
"n. c #7379C0",
"m. c #637CD9",
"M. c #557AE3",
"N. c #867B84",
"B. c #887E8A",
"V. c #867D9A",
"C. c #6F80A8",
"Z. c #7884A6",
"A. c #6782BA",
"S. c #7486B7",
"D. c #5A84DB",
"F. c #6C84C3",
"G. c #6A8AC7",
"H. c #6B91C3",
"J. c #6E85D6",
"K. c #658AD2",
"L. c #6483DC",
"P. c #6C85DC",
"I. c #638ADB",
"U. c #6C8BD4",
"Y. c #718CD4",
"T. c #639BDC",
"R. c #6193D7",
"E. c #7793CB",
"W. c #598AE8",
"Q. c #5A98EA",
"!. c #5B95F1",
"~. c #599AFA",
"^. c #6484E3",
"/. c #618CE4",
"(. c #698CE1",
"). c #6496E8",
"_. c #6797F4",
"`. c #5FA5E9",
"'. c #AC9888",
/* pixels */
"2.2.7.7.'.7.9.9.7.7.2.7.7.9.7.2.2.2.7.7.'.7.9.9.7.7.2.7.7.9.7.2.",
"9.7.2.7.2.7.7.2.2.7.9.7.2.7.2.2.9.7.2.7.2.7.7.2.2.7.9.7.2.7.2.2.",
"2.7.7.2.,.2.%.w.7.2.7.2.7.2.7.7.2.7.7.2.,.2.%.w.7.2.7.2.7.2.7.7.",
"7.2.2.7.7.2.7.2.1.,.2.2.'.e ,.e t e 2.7.7.2.7.;.2.>.2.2.'.2.,.2.",
"2.7.7.0.2.7.2.>.7.9.9.7.2.7.7.a p o.t 0.1.7.2.,.7.9.9.7.2.7.7.2.",
"9.7.2.2.7.9.7.2.2.7.2.e X.9.o.3.3.t a 0 7.9.7.2.2.7.2.2.7.9.7.9.",
"7.,.7.2.2.7.7.9.7.2.t p 2.7.9 9 q , q 0 2.7.7.9.7.2.7.2.2.7.2.2.",
"'.7.9.7.7.7.2.,.2.7.,.p 7.2.q Y Y q &.< o.7.2.,.2.7.,.2.7.2.7.'.",
"7.9.7.2.7.2.7.9.7.p 7.X.9.t 0 9 q < q e o.2.7.9.7.2.7.7.9.7.7.2.",
"2.7.7.9.9.7.2.2.,.2.2.7.p 7.9 q 9 q q X.9.7.2.2.,.2.2.7.2.7.2.7.",
"7.2.7.7.2.7.7.2.7.7.7.e X.5.9.q q 9 q t p 7.7.2.7.7.7.2.7.9.9.7.",
"2.2.,.2.'.2.7.7.'.2.,.7.w 2.X.e 9 9 w p '.2.7.7.'.2.,.7.,.2.7.2.",
"7.7.9.7.2.7.2.2.2.7.9.2.7.t @.p t 7.4.7.2.7.2.2.2.7.9.2.7.7.0.2.",
"9.7.2.7.7.9.7.9.7.2.2.t 2.a a 7.5.7.a o.7.9.7.9.7.2.2.7.2.2.2.7.",
"2.2.7.9.7.7.2.7.2.,.e 2.7.2.7.7.2.a 7.9.o.7.2.7.2.,.2.2.7.2.7.7.",
"w.7.2.2.2.2.7.2.6.<.8 L C C _ D O.[ I C T H :.1.7.2.7.7.2.7.2.%.",
"2.2.7.7.w.<.s J _ Z F ! N m N B V _ Z Z +.x M ) J d T 8.7.9.7.2.",
"9.7.1.J m D ) Q } } Q ) ~ f.p.h.G.F./ Z g m x N W _ D B G 6.2.2.",
"2.7.<.v N Q | $.} a.T.I.~.s.W.D.r.b.I.p.K.G.i.( `  .| B N <.7.7.",
"7.L D Q #.N._ } Z._.W.z.z.c.h.k.m.n.b.x.m.D.Q.A.} ( $. .` P H 2.",
"1.Y D ` ` W ] Z.Y._.g.z.e.f.u.} n $.p.v.j.l.W.I.g.} ` #.} S S <.",
"i A F S W M  .H.U.R.V.^.j...| f #.#.^ d.k.u.`.L.F.#.W ) ( M [ K ",
"U _ z F ` F _ S.I.!.n.j.Y.V.B.N.| | a.b.M.y.W.J.S.$.#.N.W n ` P ",
"c m j f N D A { R.!./.v.h.v.P.J.P.G.b.b.m.P._.E.N.( ` [ h j S A ",
"b ( ( = h W ( F ) S.Q.).P.U.j.F.K.(.^.!.W.Q.C.' Q ] ' m * F D z ",
"6 z z z + ; ] #.] F ( } Z.F.I.Q.I.!.U.F.Z.Q n F Q | n + m n h 1 ",
":.& B W z o * v ] #.W } ( ) ( R R ! W F ( S | ) h % & S ] A # *.",
"1.r # z z D z ; # # M ) D } ....! ' ) W W z X X & m Q A v # u 2.",
"7.7.*.= m S M m F m = & X o o o o o % + & * k N M n A 3 & y 0.2.",
"9.7.;.2 O o   = j U c ] ` S N ( S n N Q _ z m z -   O   4 ;.2.7.",
"2.2.7.9.:.0 w :     - 3 h h j z j z f - - o     : , 6 =.7.2.7.7.",
"0.7.2.2.2.2.7.2.7.r e 7 > : O . X O @ : 4 w &.1.7.2.7.7.2.7.2.0."
};
