/* XPM */
static char *xpm_[] = {
/* columns rows colors chars-per-pixel */
"32 32 179 2 ",
"   c #182A18",
".  c #29340F",
"X  c #32390C",
"o  c #203013",
"O  c #262324",
"+  c #292625",
"@  c #292628",
"#  c #2E2B2B",
"$  c #2D2D26",
"%  c #312D2C",
"&  c #2F3628",
"*  c #35322D",
"=  c #393D27",
"-  c #21283F",
";  c #312E31",
":  c #363233",
">  c #3A3535",
",  c #3D3837",
"<  c #3E3938",
"1  c #48371F",
"2  c #523A1B",
"3  c #452027",
"4  c #4B262D",
"5  c #47232B",
"6  c #413024",
"7  c #53302D",
"8  c #512B33",
"9  c #423D3D",
"0  c #4E2A36",
"q  c #7A3E2E",
"w  c #7A2B3A",
"e  c #783533",
"r  c #39442B",
"t  c #3E4C31",
"y  c #395839",
"u  c #5B4018",
"i  c #505E29",
"p  c #46413F",
"a  c #415431",
"s  c #485A35",
"d  c #47512B",
"f  c #586A2A",
"g  c #4A6733",
"h  c #547838",
"j  c #657B2E",
"k  c #66683F",
"l  c #69793A",
"z  c #777F34",
"x  c #1C2945",
"c  c #462C4C",
"v  c #4A2C49",
"b  c #4A304A",
"n  c #45324F",
"m  c #422B50",
"M  c #453751",
"N  c #772F4F",
"B  c #7D3246",
"V  c #7E314D",
"C  c #773156",
"Z  c #7A3354",
"A  c #76345C",
"S  c #78345A",
"D  c #763B61",
"F  c #7A3C63",
"G  c #4B4445",
"H  c #4F4A4A",
"J  c #4E4847",
"K  c #534C4C",
"L  c #504F47",
"P  c #57514F",
"I  c #5A524D",
"U  c #565446",
"Y  c #564E52",
"T  c #575052",
"R  c #5B5354",
"E  c #5E5559",
"W  c #5D5854",
"Q  c #625956",
"!  c #645A5C",
"~  c #695D5C",
"^  c #5E6F4B",
"/  c #577753",
"(  c #6B6D4E",
")  c #6E7046",
"_  c #757F4B",
"`  c #6A635B",
"'  c #656855",
"]  c #70665F",
"[  c #687D50",
"{  c #5F5A67",
"}  c #655D62",
"|  c #685F63",
" . c #645F6A",
".. c #6B6265",
"X. c #6C6369",
"o. c #676065",
"O. c #71666A",
"+. c #74696E",
"@. c #796D6D",
"#. c #716467",
"$. c #756C74",
"%. c #796D74",
"&. c #7D7174",
"*. c #7C7279",
"=. c #6E6977",
"-. c #8D2D3D",
";. c #902F3F",
":. c #8F363A",
">. c #873B3C",
",. c #91343D",
"<. c #8D4727",
"1. c #83422A",
"2. c #914336",
"3. c #9A4731",
"4. c #A34C2F",
"5. c #883546",
"6. c #923242",
"7. c #94334A",
"8. c #8F3B5C",
"9. c #913752",
"0. c #91375B",
"q. c #8E3B62",
"w. c #8B3965",
"e. c #8C416D",
"r. c #827373",
"t. c #82767A",
"y. c #A1786C",
"u. c #768B2B",
"i. c #608F3D",
"p. c #679C3F",
"a. c #799732",
"s. c #708635",
"d. c #3F824F",
"f. c #528D52",
"g. c #678947",
"h. c #689843",
"j. c #6AA241",
"k. c #85A834",
"l. c #89AF32",
"z. c #82A139",
"x. c #A8C029",
"c. c #8F8D6F",
"v. c #98877B",
"b. c #AC8E74",
"n. c #797897",
"m. c #736A8B",
"M. c #6C72A0",
"N. c #6274BF",
"B. c #7179B4",
"V. c #777EA5",
"C. c #5B79CD",
"Z. c #6D7CCC",
"A. c #6677C8",
"S. c #7379C0",
"D. c #627BDA",
"F. c #5C7FE0",
"G. c #857F9B",
"H. c #847A83",
"J. c #6F80A8",
"K. c #7884A6",
"L. c #7486B7",
"P. c #5D82DC",
"I. c #6D84C3",
"U. c #6D89C6",
"Y. c #6F91C1",
"T. c #638BDC",
"R. c #6987D8",
"E. c #639BDC",
"W. c #6193D7",
"Q. c #7793CB",
"!. c #5B9AEA",
"~. c #5A97F0",
"^. c #598AEC",
"/. c #6583E4",
"(. c #658CE3",
"). c #6995E9",
"_. c #6595F5",
"`. c #AC9888",
"'. c #D3E3C6",
/* pixels */
"j.j.l.l.`.l.x.x.l.l.j.l.l.x.l.j.j.j.l.l.`.l.x.x.l.l.j.l.l.x.l.j.",
"x.l.j.l.j.l.l.j.j.l.x.l.j.2 1 1 u 2 1 l.j.l.l.j.j.l.x.l.j.l.j.j.",
"j.l.l.j.f.j.y.b.l.j.l.j.2 q 3.3.2.3.3.1 f.j.y.b.l.j.l.j.l.j.l.l.",
"l.j.j.l.l.j.l.j.j.d.j.1 >.2.2.6 2 1 1 3.2 p.l.p.j.d.j.j.`.j.f.j.",
"j.l.l.c.j.l.j.d.l.x.u 1.2.3.3.o o . . 7 2.2 j.f.l.x.x.l.j.l.l.j.",
"x.l.j.j.l.x.l.j.j.l.1 q 3.4.2 X X . o o 2 4.2 j.j.l.j.j.l.x.l.x.",
"l.f.l.j.j.l.l.x.l.1 1.q 2.3.1 o .   . o 1 3.2 x.l.j.l.j.j.l.j.j.",
"`.l.x.l.l.l.j.f.1 1.e q 1.2.2 % * . X . 2 3.1 f.j.l.f.j.l.j.l.`.",
"l.x.l.j.l.j.l.x.2 q 1.2 <.3.2 '.. X . '.2 2.2 x.l.j.l.l.x.l.l.j.",
"j.l.l.x.x.l.j.j.f.1 1 2 q 3.1 . o . . X u 1.1 j.f.j.j.l.j.l.j.l.",
"l.j.l.l.j.l.l.j.l.l.l.j.2 <.<.2 . o X 2 q 2 l.j.l.l.l.j.l.x.x.l.",
"j.j.f.j.`.j.l.l.`.j.f.l.f.1 2 q 6 6 6 q 7 j.l.l.`.j.f.l.f.j.l.j.",
"l.l.x.l.j.l.j.j.j.l.x.j.2 1.>.>.4.3.4.3.q 2 j.j.j.l.x.j.l.l.c.j.",
"x.l.j.l.l.x.l.x.l.j.j.2 q 2.2.3.4.4.2.3.3.<.2 x.l.j.j.l.j.j.j.l.",
"j.j.l.x.l.l.j.l.j.f.j.1 1.2.3.3.2.2.3.4.3.1.1 l.j.f.j.j.l.j.l.l.",
"b.l.j.j.j.j.l.j.k.g.l >.' :.:.6.6.6.,.>.:.:.1 h.l.j.l.l.j.l.j.y.",
"j.h.l.l.v._ s.( .. .3 w -.-.6.-.,.6.-.6.7.;.3 X.( l [ z.l.x.l.j.",
"x.l.h.( Q ~ #.| $.4 w w 5.9.8.8.8.Z 9.6.-.T w E ! ..~ W ^ k.j.j.",
"j.l.s.R E | %.t.4 5.W.D w./.w.q.q.Z q.q.8.8.B 5 +.r.@.E E g.l.l.",
"l.g.` ..t.t...$.K.F D A A 0.S C.S Z.C C w.P.D Z $.o.t.&.O.` / j.",
"g.] ~ #.O.| @.K.c _.V D.C M.7.w 8 O 4 A.C C D T.V.+.O.t.%.! Q g.",
"k ~ E Q } Y %.Y.R.n 5.c Z 5.$.5 t.O 5 N C m.M D.I.t.} O...E O.) ",
"' X.K E O.! ..L.T.~.v B.b G.0 0 O %.n.v m 0 ^.v L.t.*.t.| T O.` ",
"I T K G E ~ E =.W.!.(.Z.B.Z.R.- Z.R.N.A.x R._.Q.H...+.X.G H Q W ",
"U ..| < J } ..Q X.L.E.).(.R.B.S.R.T.^.x ^.~.J.+...+.+.T > Q | K ",
"s P K K % 9 +.r.@.! | $.K.I.T.!.T.!.R.L.K.| Y E ..%.Y % T Y 9 d ",
"a.: Q } H % > I @.r.} $.| X. . .} { } { ~ ~ %.O.G ; : ! @.~ * u.",
"h.h * K Y ~ K 9 * : T ..~ %.*.*. .$.X.} } K @ @ : T | Q U * j h.",
"l.l.u., Y Q T T Q T 9 : @ % # # # # ; ; ; > G E T P W p : s.c.p.",
"x.l.p.i # % + , J ' P @.#.! E o.! K E | ..L P K < + $ O a h.j.l.",
"j.j.l.x.a.f g r O O p p G J J P J K 9 9 , & + @ r y s i.l.j.l.l.",
"c.l.j.j.j.j.l.j.a.i.f d t = $ + @ $ * t t g s.h.l.j.l.l.j.l.j.c."
};
