/* XPM */
static char *xpm_[] = {
/* columns rows colors chars-per-pixel */
"32 32 119 2 ",
"   c #262424",
".  c #292625",
"X  c #2D2D26",
"o  c #2D2A2A",
"O  c #322E2D",
"+  c #2F3628",
"@  c #393D27",
"#  c #34322F",
"$  c #363331",
"%  c #393531",
"&  c #3D3836",
"*  c #3E3B38",
"=  c #423D3B",
"-  c #3D4427",
";  c #35412C",
":  c #3A482D",
">  c #3E4C31",
",  c #395839",
"<  c #444C2B",
"1  c #49552A",
"2  c #505E29",
"3  c #46413D",
"4  c #49423E",
"5  c #415431",
"6  c #445D30",
"7  c #4B573A",
"8  c #546529",
"9  c #5B6E2B",
"0  c #486431",
"q  c #4C6935",
"w  c #557C37",
"e  c #537338",
"r  c #62772C",
"t  c #687F2F",
"y  c #66683F",
"u  c #657637",
"i  c #6B7C39",
"p  c #777F33",
"a  c #474340",
"s  c #4B4642",
"d  c #4E4945",
"f  c #4F4A48",
"g  c #524C46",
"h  c #534E4A",
"j  c #565446",
"k  c #56514C",
"l  c #5A534E",
"z  c #575250",
"x  c #5C5651",
"c  c #5F5954",
"v  c #605750",
"b  c #625B55",
"n  c #685E56",
"m  c #645E59",
"M  c #5E644B",
"N  c #5E6F4B",
"B  c #577753",
"V  c #64664B",
"C  c #616A4E",
"Z  c #6C6D4C",
"A  c #6E7046",
"S  c #6E7648",
"D  c #607948",
"F  c #757F4B",
"G  c #666254",
"H  c #6E6257",
"J  c #67615C",
"K  c #6A635C",
"L  c #71675D",
"P  c #72685F",
"I  c #687550",
"U  c #687D50",
"Y  c #6C6561",
"T  c #6C6660",
"R  c #6F6761",
"E  c #696360",
"W  c #706760",
"Q  c #716963",
"!  c #726A65",
"~  c #726C68",
"^  c #766F6A",
"/  c #756E6C",
"(  c #7B736D",
")  c #A1786C",
"_  c #6C862C",
"`  c #7C8B27",
"'  c #708B2E",
"]  c #608F3D",
"[  c #73853D",
"{  c #679C3F",
"}  c #759133",
"|  c #7C9C30",
" . c #7C943C",
".. c #3F824F",
"X. c #528D52",
"o. c #658146",
"O. c #668D45",
"+. c #668648",
"@. c #698E48",
"#. c #669742",
"$. c #699147",
"%. c #669B40",
"&. c #6A9C44",
"*. c #6AA241",
"=. c #6AA241",
"-. c #85A833",
";. c #86A837",
":. c #84A831",
">. c #88AE32",
",. c #89AF32",
"<. c #89AF32",
"1. c #82A139",
"2. c #A8C029",
"3. c #A8C029",
"4. c #8F8D6F",
"5. c #8F8D6F",
"6. c #98877B",
"7. c #AC8E74",
"8. c #AC9888",
/* pixels */
"*.*.,.,.8.,.2.2.<.<.*.<.<.3.<.*.*.*.<.<.8.<.3.3.<.<.*.<.<.3.<.*.",
"2.,.*.,.*.,.,.*.*.<.3.<.*.<.*.*.3.<.*.<.*.<.<.*.*.<.3.<.*.<.*.*.",
"*.,.,.*.X.*.) 7.<.*.<.*.<.*.<.<.*.<.<.*.X.*.) 7.<.*.<.*.<.*.<.<.",
",.*.*.,.,.*.,.*.*...*.*.8.*.X.*.<.*.*.<.<.*.<.*.*...*.*.8.*.X.*.",
"*.,.,.4.*.,.*...<.3.3.<.*.<.<.*.*.<.<.4.*.<.*...<.3.3.<.*.<.<.*.",
"2.,.*.*.,.2.,.*.*.<.*.*.<.3.<.3.3.<.*.*.<.3.<.*.*.<.*.*.<.3.<.3.",
",.X.,.*.*.,.,.2.<.*.<.*.*.<.*.*.<.X.<.*.*.<.<.3.<.*.<.*.*.<.*.*.",
"8.,.2.,.,.,.*.X.*.<.X.*.<.*.<.8.8.<.3.<.<.<.*.X.*.<.X.*.<.*.<.8.",
",.2.,.*.,.*.,.2.,.*.,.,.3.<.<.*.<.3.<.*.<.*.<.3.<.*.<.<.3.<.<.*.",
"*.,.,.2.2.,.*.*.X.*.*.,.*.<.*.<.*.<.<.3.3.<.*.*.X.*.*.<.*.<.*.<.",
",.*.,.,.*.,.,.*.,.,.,.*.<.3.3.<.<.*.<.<.*.<.<.*.<.<.<.*.<.3.3.<.",
"*.*.X.*.8.*.,.,.8.*.X.,.X.*.<.*.*.*.X.*.8.*.<.<.8.*.X.<.X.*.<.*.",
",.,.2.,.*.,.*.*.*.,.2.*.,.,.4.*.<.<.3.<.*.<.*.*.*.<.3.*.<.<.4.*.",
"2.,.*.,.,.2.,.2.,.*.*.,.*.*.*.<.3.<.*.<.<.3.<.3.<.*.*.<.*.*.*.<.",
"*.*.,.2.,.,.*.,.*.X.*.*.,.*.<.<.*.*.<.3.<.<.*.<.*.X.*.*.<.*.<.<.",
"7.,.*.*.*.*.,.*.;.@.i S M V G l J G M C I D  .&.<.*.<.<.*.<.*.) ",
"=.&.<.>.7.+.[ Z m c g x h 4 h g l l h l m l h m V u U 1.,.2.<.*.",
"3.<.#.Z x v v l m J z h j l h l h v l l s s x h h b b x C -.*.*.",
"=.<.[ k h x K R m K v h g k s h g j j l h b b z b L m k x +.<.<.",
"<.o.b b Y Q l b m J h l l b l k v n b l k k k k b x W L m n B *.",
"$.L l b b l n K x k K c l b J m L H v x m x h h n n v Q J l x O.",
"y l g j k s K b c d ( c J T m x L L v k h E h m c P l v l g J A ",
"H b 4 h b k c b g l G T J ~ / ~ b m K l h b a k K P K ~ l 4 m K ",
"k g 4 = g j g c l l c J R m b J m m x k m z E b Q k b v = 3 k c ",
"j b x % 4 l l g l J b x m J x x c b c z h h b b l b m d O g b h ",
"7 k d a o & n L n l x b c k c d x s x b E z a h l J f o d d 4 < ",
"} % l c s X % 4 H K z m z c l z h z z h x k m b = o O l L b # ' ",
"=.e $ s h l 4 = O O h b l J T E z c c k z s .   $ s c z h # r =.",
"<.<.` & l b h g h h % O   o o o o o o O # $ = h h g l 4 % t 5.=.",
"2.<.&.2 o o   & s b h J m z f x z a h c c d h h *   O . 5 { =.<.",
"=.=.<.2.| 8 0 -     = a s s s h f h = = * o   . @ , 6 ] <.=.<.<.",
"4.<.*.*.*.*.<.*.:.w 9 1 > @ o   . o + > > q _ #.>.=.<.<.=.<.=.5."
};
