/* XPM */
static char *result[] = {
/* columns rows colors chars-per-pixel */
"64 64 140 2 ",
"   c #131214",
".  c #181717",
"X  c #191817",
"o  c #171619",
"O  c #191719",
"+  c #151C1A",
"@  c #1D1B1C",
"#  c #201C17",
"$  c #211F1E",
"%  c #17271E",
"&  c #24211E",
"*  c #29231E",
"=  c #1F1E20",
"-  c #211E20",
";  c #1D2621",
":  c #1C2B22",
">  c #103221",
",  c #1B3326",
"<  c #163927",
"1  c #1B3827",
"2  c #1D352A",
"3  c #1A3C2B",
"4  c #143D34",
"5  c #252324",
"6  c #292625",
"7  c #222C26",
"8  c #2C2926",
"9  c #272528",
"0  c #2A272A",
"q  c #232E29",
"w  c #2D2A2A",
"e  c #322D2C",
"r  c #213125",
"t  c #23342A",
"y  c #2C322D",
"u  c #23382C",
"i  c #34312E",
"p  c #39332D",
"a  c #322E30",
"s  c #263F34",
"d  c #2E3F33",
"f  c #363331",
"g  c #3A3633",
"h  c #313833",
"j  c #3D3935",
"k  c #3B3739",
"l  c #3E3A3A",
"z  c #403B36",
"x  c #423D3B",
"c  c #15472E",
"v  c #1A432D",
"b  c #164B2D",
"n  c #194D2A",
"m  c #17522B",
"M  c #18572B",
"N  c #175A2A",
"B  c #185C29",
"V  c #154331",
"C  c #164830",
"Z  c #1C4A31",
"A  c #24422C",
"S  c #214734",
"D  c #234A35",
"F  c #284B37",
"G  c #2B4738",
"H  c #2B4E3A",
"J  c #354135",
"K  c #33473A",
"L  c #3B443C",
"P  c #344C3B",
"I  c #3C4C3E",
"U  c #215231",
"Y  c #2F513D",
"T  c #46413D",
"R  c #49433E",
"E  c #43483F",
"W  c #524536",
"Q  c #544A3E",
"!  c #355040",
"~  c #3C5242",
"^  c #464241",
"/  c #4A4542",
"(  c #454840",
")  c #4E4945",
"_  c #4E4B49",
"`  c #524B46",
"'  c #534D4A",
"]  c #435243",
"[  c #4A5147",
"{  c #465548",
"}  c #4D524A",
"|  c #4A5B4D",
" . c #5D5147",
".. c #56514C",
"X. c #5A534D",
"o. c #50594D",
"O. c #5E584F",
"+. c #565351",
"@. c #5C5652",
"#. c #565C54",
"$. c #5E5954",
"%. c #5E5A58",
"&. c #60554C",
"*. c #655A4E",
"=. c #6B5C4E",
"-. c #615751",
";. c #635B55",
":. c #695E55",
">. c #645E59",
",. c #695F59",
"<. c #5E6058",
"1. c #6E604E",
"2. c #636055",
"3. c #6C6157",
"4. c #66615C",
"5. c #6B635C",
"6. c #6B685F",
"7. c #71655C",
"8. c #75695E",
"9. c #796B5D",
"0. c #666160",
"q. c #6D6661",
"w. c #6F6864",
"e. c #6E6968",
"r. c #716760",
"t. c #736B64",
"y. c #796D64",
"u. c #756E69",
"i. c #796F68",
"p. c #7B7066",
"a. c #77716B",
"s. c #7B726C",
"d. c #777270",
"f. c #7D7571",
"g. c #7F7872",
"h. c #81766D",
"j. c #807771",
"k. c #837A74",
"l. c #897E74",
"z. c #8A817A",
/* pixels */
"c c b N m c V c c c V V b m c c c b b m b b c V V c c c c c c c c c c c c c c c c c c b c b M m c V c c c 4 V m b c c c b b M b ",
"b b b n M C 4 c c c c 4 b b c c c b b m b b c c c c c c c c c c c c c c c c c c b b b b b b b m V 4 c c c V V b b c c c b m b b ",
"B N m c b C 4 b c b c c c b c c c c c c c c c c c c c c c c c c c c c c c c c c c b N N M b b m V 4 c b b b c c c c c c c c b c ",
"C b m m b c c b b m b b c c c c c c c c c c c c c c c c c b c c c c c c c c c b V V V b b M m b c b m b m b c c c c c c c c c c ",
"b b m m b c b m M b V b c c c c c c c c b b c c c c c c b b b c c b m b b c c c m m b b b b m c c b N m b V b c c c c c c c c b ",
"M m c b b c b b b C V c V c c c c c c b b b c c c c c c b b m b c b m b c c c c m N B N m b b b c b b b V V b V c c c c c c c m ",
"m m m c c c c c b b m m V 4 c c c c c c b c c b c c c c V V m m b b m 4 V b c c c b B m m m c c c c c b b M m 4 V c c c c c c c ",
"m M m c c c c c b m m 4 V c c c c c c c c c c c c c c c V V V m m b c c b m b b 4 V N m N b c b c c c n M b 4 V c c c c c c c c ",
"V c b b m C V c b b b V c c c c c c c c c c c c c c c c c c c c b b c b m m V c c V V V b b b b V V c b b b V c c c c c c c c c ",
"4 V b m m V V c c c c c c c c c c c c c c c c c c c c c c c c c c c b m b b 4 c c c 4 4 V b m m V V c c b c c c c c c c c c c c ",
"c c c m b c c c c c c c c c c c c c c c c c c c c c c c c c c c c c c c c c c c c c c c c b b b c c c c c c c c c c c c c c c c ",
"c c c b c c c c c c c c c c c c c c c c c c c c c c c c m m c c c c c c c c c b c c c c c b b c c c c c c c c c c c c c c c c c ",
"c c b c c c c c c c c c c c c c c c c c c c b M m m m V M M c V V c c c c c c c c c c b c c c c c c c c c c c c c c c c c c c c ",
"c c c c c c c c c c c c c c c c c c c c c c b m B B m b b m m 4 4 b c c c c c c c c c c c c c c c c c c c c c c c c c c c c c b ",
"c c c c c c c C c c c c c c c c c c c c c c V 4 m N m M b b m V c c b c c c c c c c c c c c c c c c c c c c c c c c b c c c c c ",
"c c c c c c V V b m m c c c c m b c c c c V 4 4 V b m m c V b b b m b b c c c c c c c c c c c c c V V b m b c c c b b b c c c c ",
"c c c c c c c V c m m m c c c b b c c c m m C C c c b m b c n m m m V V V c c c c c c b c c c c c V V b m m b c c c b c c c c m ",
"c c c c c c c c c c m b c c c c c c c c M B B M b c c m b c m m m V 4 4 V c c c c c c c c c c c c c c c b m m c c c c c c c V N ",
"c c c c c c c c c c c c c c c c c c c c c m B M m b c c c b M M V 4 4 V c c c c c c c c c c c c c c c c c c c c c c c c c c c c ",
"c c c c c c c c c c c c c c c c c c c c c b b m M m c c c c c c b C b V 4 V c c c c c c c c c c c c c c c c c c c c c c c c c c ",
"c c c c c c c c c c c b V b m c c c c c c c c b c c c b b b b b m m C 4 V V c c c c c c c c c c c c c c c c c c b m c c c c c c ",
"c c c c c c c b c b c b c m B V c c c c c c c c c c C m M c b b m C 4 4 c b c c c c c c c c c c c c c c b b b c m N V c c c c c ",
"c c c c c c c c c m B m b b m V c c c c c c c c c V 4 m b b c c c c C c c c c c c c c c c c c c c c c c m B m c m b 4 V c c c c ",
"c c c c c c c c c V V m M b c V c c c c c c c c c c c c c c c c c c c c c c c c c c c c c c c b c c c c V V m m b c c c c c c c ",
"c c c c c c b m m b V b m b c c c c c c c c c c c c c c c c c c c c c c c c c c c c c c c c c c c b m m b V b m b c c c c c c c ",
"c c c c c c b N B B m b m b c c c c c c c c c c c c c c b b V c c c c c c c c c c c c c c c c c c b N B N M b b b c c c c c c c ",
"b c c c c c b b N B B N b c c c b b c c c c c c c V 4 m M c 4 c c c c c c c c c c c M c c c c c c c b N B B m b c c c c c c c c ",
"c b c c V m N m b m m m m b c c b m m c c c c c c c b m V V V c c c c c c c c c c c n c c c c c m N m b b N m m b c c m m N c c ",
"c c c c V V C m b b b m M b c c b m m c c c c c c b m n V V b c c c c c c c c c c c c c b c V V C b m m b b m m b c c m m m c c ",
"c c c c 4 4 4 b m b c m M b c c m b c V c D H F G I ] P I $.....$.4.>.{ P [ ~ H H Y H c c c c V 4 4 C m b b m m b V c m b c c c ",
"c c c c b V 4 4 c b c V n b c c b H | P J ' &.4.;.` ;.5.3.3.2.` 4.5.:.&.;. .' 4.3.;.4.L K { H V V 4 V V b b c m m V c c c c c c ",
"c c c c c V c m m b Z Z b Z F I o.>.>.T T O.@.-.;.R ) 3.4.2.4.R ' 2.4.5.y.` ` 8.4.@.;.` l %.e.+.K D U m Z C c c c c c c c c c c ",
"c c c c c c b m U ~ 5.4.~ l ,.;.@.>.0.' z @.X.X.-.x e R / / ) x / X...X.` g ` ;.q.5.;.) x ' >.q.>.@.f P %.0.! C b c c c c c c c ",
"c c c c c C D [ X.$.3.4.@.l ^ ;.q.w.u.d.@.( x / ` / ..' ` ` ' ..@.O.X.$...X.X.) R / g x ,.@.) @.5.) j $.>.,.%.} H C c c c c c c ",
"c c c c c G +.2.-.X.X.X.4.5..._ @.,.@.' _ %.q.4.-.-.' ) R R X.X.R Q X.X.) ` -.X.X.;.' ^ ' ;.@.k j X.r.5.@.@.;.>.;.} c c c c c c ",
"b c c b c % _ T T ..X.q.a.r.s.k.' ' ;.q.w.%.$.' g R -. .R x ' ' T j  .) ) ..R R @.' ;.e.%.@._ ) >.r.y.p.t.,.' R ' @.> V c c c c ",
"m c c c v 4.5.../ ) ) O.$.6.p.$.>.f.s.q.;.' T X.' ..;.` / / _ )  ...' `  .....;...z ' >.,.q.4.....5.7.7.7.X.` ` ;.r.E V c c c c ",
"m b c Z O.s.;.*.r.a.5.-...../ $.u.w.@.' ` X.T ) 3.5.X.' ..;.;.;.5.3.7.y.p.3.2..._ x @.@.' @.;.>.X.T ..2.5.9.y.5.>.q.p.%.S c c c ",
"n m v ;.5.&.$.;.t.p.a.k.u.T O.u.5._ @.p.R / X.2...' >.t.5.` R T ` `  . .X.@.%.O.@.$.` ` >.x T %.u.4.) q.a.y.8.4.%.;.>.,.$.S c m ",
"c c ;.&.W R ..;.%.-.2.6...-.s.6.x ` 0.4...>.q.$./ O.%.>.>.-.@.:.5.3.=.X.` ' :.4.$.$.@.X...' @./ ;.a.O.R X.;.:.O.@.@./ / ' ;.Z m ",
"c ~ 8.7.7.&.&.7.2.-.*.R ) p.u.;.$.$.O./ 6.y.u.) ' ..$.5.5.5.,.5.8.y.9.:.;.-.` @.f.0._ +./ ;...T -.5.y.' / r.u.i.s.;.@.>.>.@.d c ",
"Z 6.8.4.:...@.:.:.4.y.) ..s.3.` >.5.` T k.g.4.R X.q.5.@.@.;.;.;.5.y.9.3.@.-.O.z +.e.q.@./ _ ` ' ) :.h.-.X.j.s.i.i.,._ ' ;.q.q.Z ",
"h / ` ..` T _ ` ) ) / j &.y.4.` O.5.X.T f.k.u.T %.g.t.q.0.>.' ' 4.y.7.4.;.@.;.' l >.t.0.) >.y.>./ :.y.:.T X...' X.) x ' q.>...P ",
"( ) ..' / w R :.$.` / z O.r.:...-.X.X.' $.a.z.2.) k.d.p.e.q.0.$.X.-.7.5.4.5.0.' l +.>.>.^ X.>.@.' 3.8.:.' 7.;.;.X./ g X.:.%.X.} ",
"<.w.5.4.X.j T X.2.t.5.T R 7.7.' T R 2.X.:...4.p.@.;.a.j.d.d.d.i.r.@.;.5.u.r.X._ ^ +.@.@.l x ' =.;.t.l. .:.l.k.d.q.( p &.@.4.5.%.",
"| 5.;.X.X.R x z g T ` ..T X.7.4.` X...$.5.6.;.@.q.;.%.%.e.g.k.k.s.t.@.-.@...-.O.' q.q.@.' %.' T 7.h.j./ ..' ' ;.+.f i X.@.5.u.#.",
"L ` _ R ) j i _ ' Q ' 5.4.j $.6.2.^ p q.$.%.u.u.t.5.@.;.X.X.@.X...$.;.%.@.' / ..u.q.X.' j.4.` 4.g.s.^ @.q.-.O.:.' @ e ` ....X.( ",
"J ' ) ' ` ) 8 i 5.y.;.;.2.T j ;.q.5.......%...$.q.d.f.i.,.;.>.5.4.t.f.u.;.' ' ..@.' X./ -.;.q.z.s.x l w.r.y.p.8.i O / X.` / %.L ",
"J 7.r.>.>.;.x @ p ;.$./ ' @./ g  .y.5.$.$.>.T %.5.@.>.%.%.@.>.;.@. .>.>.@.@.@.@.;.^ _ ' @.r.i.-.x ' 5.@._ ,.i.z = a ..@.:.5.r.h ",
"q ' 5.;.,.>./ e * 5 / 5.>.q.5.:.R l %.g.u.#...>...$.4.T _ ' g T _ +.T ) ..u.' a ' ,.X.@.,.X.g g ;.t.r.5.u.e.f O - T / T @.y./ + ",
"A x ;._ x ) / x e . 8 / ;.9.p.7.5.:.` x ' q.5.>.2.4.) R %.%.^ ^ @.%.^ T _ 0.>.>.q.a.q.) a x ' x / q.r.t.,.l $ 5 x  .' z z ` 0 , ",
"4 f k X.' @.;.@./ 8 # $ x &.=.9.p.p.3.O./ k _ @.' $.4.a.r.q.e.0.0.0.0.e.r.q.%.%.>./ i _ ;.q.y.>.` / @./ 0 - -  .r.8.r.r.,.0 = c ",
"4 s 8 g ;.5.q.@.) _ w . 5 8 W 1.9.p.s.y./ %.q.$._ ) ' ..) ^ ) _ ^ ^ _ ^ ^ _ _ l ( @.@.' t.u.u.e.;.a O - = 0 ' t.i.r.7.:.z $ 2 c ",
"c c r 6 f ;.w.) T k x x i 5 * p p Q =.' e.g.d.g.z.$.' u.>.' +._ ^ ' +._ ' ^ %.t.u.u.g.-.z ' ^ w - O O w x R T X.:.y.*.e - ; c c ",
"c c v y 6 e x l T ..;.>...l p w * * # f #.>.;.t.y.) u.z.j.i.j.q.-.e.d.u.d.0.' r.r.-.' ' 0 o O   - 0 ^ +.>.,.>./ x ) 0 - 0 c c c ",
"c c c c q 6 ' t.q.$.$.;.>.5._ w p g 5 @ O 9 f x i w ' ` @.-.q.@.l / _ ^ ^ _ f g k e 9 @ O @ a e a ..w.,.;.;.>.t.7./ 0 7 c c c c ",
"c c c c b : g ..q.w.4.>.r.' g _ X.@.' x p 5 $ 5 o   - $ 5 5 = = - - - - - - # - 5 O 0 e f x ) .._ x ) ;.;.;.-.' x a 7 c c c c c ",
"c c c c c < @ 5 y ) >.>.l x 5.r.>.;.>.5.;.p x g w 5 e w @ @ - - - a e 0 f i a k x g e X.-.' @.q.e.;.^ f @.X.f $ @ 5 3 c c c c c ",
"c c c c c c % 8 6 5 f 8   e x ' X.5.t.4.z ` t.5.:.-.;.' g ..@.@.@.' ^ a ' +.-.-.@.5._ z ..;.5.,.@.^ k O e 5 . 5 0 t n c c c c c ",
"c c c c c c c v t 8 5 @ O $ 5 5 - g ` j / s.s.h.s.i.s.../ s.i.r.q.>.;.^ X.,.>.e.t.7.:.z z x g 9 0 - @ O 6 O 5 y 3 V c c c c c M ",
"c c c c c c c c c v r ; < 7 5 5 5 @ X @ x ^ x T ` X.,.^ / 7.,.,.@.@.w.%.T X.) z k a e w 5 @ - 9 0 5 ; < : ; c c c c c c c c c M ",
"c c c c c c c c c c c c c c v 1 7 0 8 @ & 0 0 5 5 5 0 5 8 - $ 9 0 w k a $ - w - - = @ - $ 5 9 : 2 V c c c c c c c c c c c c c c ",
"c c c c c c c c c c c c c V c c c c 3 , , 7 5 5 w e w @ - 6 O @ - - 9 = = - - 0 5 w y r , 3 c c c c c c c c c c c c c c c c c c ",
"c c c c c c c c c c c c c m m c c c c c c c c v v 3 u 3 , q 7 7 2 9 9 q 2 t 3 3 v c V c c c c c c c c c c c c b b m b c c c c c "
};
