/* XPM */
static char *xpm_[] = {
/* columns rows colors chars-per-pixel */
"32 32 109 2 ",
"   c black",
".  c #3A0911",
"X  c #262424",
"o  c #292625",
"O  c #2D2D26",
"+  c #2D2A2A",
"@  c #322E2D",
"#  c #2F3628",
"$  c #393D27",
"%  c #34322F",
"&  c #363331",
"*  c #393531",
"=  c #3D3836",
"-  c #3E3B38",
";  c #423D3B",
":  c #3D4427",
">  c #35412C",
",  c #3A482D",
"<  c #3E4C31",
"1  c #395839",
"2  c #444C2B",
"3  c #49552A",
"4  c #505E29",
"5  c #46413D",
"6  c #49423E",
"7  c #415431",
"8  c #445D30",
"9  c #4B573A",
"0  c #546529",
"q  c #5B6E2B",
"w  c #486431",
"e  c #4C6935",
"r  c #557C37",
"t  c #537338",
"y  c #62772C",
"u  c #687F2F",
"i  c #66683F",
"p  c #657637",
"a  c #777F33",
"s  c #474340",
"d  c #4B4542",
"f  c #4E4945",
"g  c #4F4A48",
"h  c #514B46",
"j  c #534D4A",
"k  c #565446",
"l  c #56514D",
"z  c #5A534E",
"x  c #5C5551",
"c  c #5F5954",
"v  c #605750",
"b  c #625B55",
"n  c #685E56",
"m  c #645E59",
"M  c #5E6F4B",
"N  c #577753",
"B  c #64664A",
"V  c #6C6D4C",
"C  c #6E7046",
"Z  c #757F4B",
"A  c #676455",
"S  c #6C6257",
"D  c #66605C",
"F  c #6B635C",
"G  c #71675C",
"H  c #72685F",
"J  c #687D50",
"K  c #6E6660",
"L  c #706760",
"P  c #716963",
"I  c #811426",
"U  c #A11B31",
"Y  c #A1786C",
"T  c #6C862C",
"R  c #7C8B27",
"E  c #708B2E",
"W  c #608F3D",
"Q  c #73853D",
"!  c #679C3F",
"~  c #759133",
"^  c #7C9C30",
"/  c #7C943C",
"(  c #3F824F",
")  c #528D52",
"_  c #658146",
"`  c #668D45",
"'  c #668648",
"]  c #698E48",
"[  c #669742",
"{  c #699147",
"}  c #669B40",
"|  c #6A9C44",
" . c #6AA241",
".. c #6AA241",
"X. c #85A833",
"o. c #86A837",
"O. c #84A831",
"+. c #88AE32",
"@. c #89AF32",
"#. c #89AF32",
"$. c #82A139",
"%. c #A8C029",
"&. c #A8C029",
"*. c #8F8D6F",
"=. c #8F8D6F",
"-. c #98877B",
";. c #AC8E74",
":. c #AC9888",
">. c white",
/* pixels */
" . .@.@.:.@.%.%.@.@. .@.@.%.@. . . .@.@.:.@.%.%.@.@. .@.@.%.@. .",
"%.@. .@. .@.@. . .@.%.@. .@. . .%.@. .@. .@.@. . .@.%.@. .@. . .",
" .@.@. .)  .Y ;.@. .@. .. . . . . . @. .)  .Y ;.@. .@. .@. .@.@.",
"@. . .@.@. .@. . .(  .I U U U . . . U . @. .@. . .(  . .:. .)  .",
" .@.@.*. .@. .( @.%.. U U U .       . U . @. .( @.%.%.@. .@.@. .",
"%.@. . .@.%.@. . .@.. U U .           . U . @. . .@. . .@.%.@.%.",
"@.) @. . .@.@.%.@.. I U U .           . U . @.%.@. .@. . .@. . .",
":.@.%.@.@.@. .)  .. I I U .   >.    >.. U .  .)  .@.)  .@. .@.:.",
"@.%.@. .@. .@.%.@.. I I U .   >.    >.. U . @.%.@. .@.@.%.@.@. .",
" .@.@.%.%.@. . .)  .. I I U .         . I .  . .)  . .@. .@. .@.",
"@. .@.@. .@.@. .@.@.@.. I I I .     . I . @.@. .@.@.@. .@.%.%.@.",
" . .)  .:. .@.@.:. .) @.. . I I . . I . :. .@.@.:. .) @.)  .@. .",
"@.@.%.@. .@. . . .@.%.. I I I U U U U I . @. . . .@.%. .@.@.*. .",
"%.@. .@.@.%.@.%.@. . .I U U U U U U U U I . @.%.@. . .@. . . .@.",
" . .@.%.@.@. .@. .)  .I U U U U U U U U I .  .@. .)  . .@. .@.@.",
";.@. . . . .@. .o.] . U U U U U U U U U U . / | @. .@.@. .@. .Y ",
"....#.@.-.Z T V m c . U U U U U U U U U U I . m B p J $.@.&.@. .",
"&.#.[ V x b b z m D . U U U U U U U U U U I . j l c b c M X. . .",
"..#.Q l j x F H D F . U U U U U I I U U I I . x b F S l z ' @.@.",
"#.J b v P P z b m . I I U I U I I I I U I I . l b x L F m m N  .",
"{ S v v b c b F x . . U I U I I . . I I I I . j m m b L D z v ` ",
"i z h k z 6 S b c f . U . I I .     . I I . j m v H z b z j m C ",
"S b 6 k b k c b h z m . m . . . m   . . . b 5 z S H F P z 6 m F ",
"j h 6 ; f z h v z z b D K     D m m   z m z K c L l b v ; 5 l c ",
"k b b * ; z c h v D b x c D   x x b   l j j b b z m m f @ j n h ",
"9 l d d @ * b G n j x m c l   g x g   c K x s j z D d + f f 6 2 ",
"~ * x x 6 O * 6 S S z m x c x j l l l l x j m b ; @ @ l G b % E ",
"..t & d j v 6 ; % % g c z D K K l m x l x d o X & d x x h % y ..",
"@.@.R - l b j h l g * % o + + + + + @ + @ & ; j j g x d * u =...",
"&.@.} 4 + @ X = g b g F m z g c l s g c b d j j ; X + o 7 } ..@.",
" . .@.&.^ 0 w : o X - 5 d d d g g g s ; - + X o $ 1 8 W @...@.@.",
"=.@. . . . .@. .X.r q 3 < $ + o o + % , < e T } +...@.@...@...=."
};
