/* XPM */
static char *xpm_[] = {
/* columns rows colors chars-per-pixel */
"32 32 175 2 ",
"   c #262423",
".  c #292625",
"X  c #2D2D26",
"o  c #292628",
"O  c #2E2B2B",
"+  c #312D2D",
"@  c #2F3628",
"#  c #35322D",
"$  c #393D27",
"%  c #312E31",
"&  c #363233",
"*  c #3A3535",
"=  c #3D3837",
"-  c #3E3938",
";  c #423D3D",
":  c #39442B",
">  c #3E4C31",
",  c #395839",
"<  c #444C2B",
"1  c #505E29",
"2  c #46413F",
"3  c #415431",
"4  c #485A35",
"5  c #49552A",
"6  c #586A2A",
"7  c #486431",
"8  c #4C6935",
"9  c #547838",
"0  c #687F2F",
"q  c #62772C",
"w  c #66683F",
"e  c #657638",
"r  c #6C7C3B",
"t  c #777F34",
"y  c #4B4445",
"u  c #4E4847",
"i  c #4F4A4A",
"p  c #504F47",
"a  c #534C4C",
"s  c #57514F",
"d  c #5A524D",
"f  c #565446",
"g  c #564E51",
"h  c #575052",
"j  c #5B5354",
"k  c #5E5559",
"l  c #5D5854",
"z  c #625956",
"x  c #60575A",
"c  c #645A5C",
"v  c #695D5C",
"b  c #5E6F4B",
"n  c #577753",
"m  c #6B6D4E",
"M  c #6E7046",
"N  c #617949",
"B  c #747C4D",
"V  c #686557",
"C  c #646C54",
"Z  c #6A635B",
"A  c #676858",
"S  c #6D6B58",
"D  c #70665F",
"F  c #6A7A52",
"G  c #5F5A67",
"H  c #655D62",
"J  c #685F64",
"K  c #645F6A",
"L  c #625F70",
"P  c #676065",
"I  c #6B6265",
"U  c #6C6369",
"Y  c #6D6862",
"T  c #71666A",
"R  c #74696D",
"E  c #796D6D",
"W  c #726865",
"Q  c #6E6977",
"!  c #67697A",
"~  c #756C74",
"^  c #796D74",
"/  c #7D7174",
"(  c #7D727A",
")  c #827374",
"_  c #83757B",
"`  c #A1786C",
"'  c #6C862C",
"]  c #768B2B",
"[  c #608F3D",
"{  c #73853D",
"}  c #679C3F",
"|  c #799635",
" . c #3F824F",
".. c #528D52",
"X. c #668648",
"o. c #698E48",
"O. c #668746",
"+. c #669742",
"@. c #699147",
"#. c #689C42",
"$. c #6AA241",
"%. c #85A834",
"&. c #89AF32",
"*. c #82A139",
"=. c #A8C029",
"-. c #8F8D6F",
";. c #98877B",
":. c #AC8E74",
">. c #66678B",
",. c #746B88",
"<. c #6E728F",
"1. c #6D779C",
"2. c #797995",
"3. c #696995",
"4. c #5E70AE",
"5. c #6B76A4",
"6. c #777EA5",
"7. c #7675A8",
"8. c #6D76BF",
"9. c #6D78BF",
"0. c #6777BA",
"q. c #7179B5",
"w. c #5A7CCE",
"e. c #5F75C5",
"r. c #5C76D9",
"t. c #5F74D1",
"y. c #6272C6",
"u. c #647DC3",
"i. c #6D78C7",
"p. c #627CCE",
"a. c #6C7BCA",
"s. c #6574C6",
"d. c #7379C0",
"f. c #637CD9",
"g. c #5C7FE0",
"h. c #557AE3",
"j. c #867B84",
"k. c #887E8A",
"l. c #867D9A",
"z. c #6F80A8",
"x. c #7884A6",
"c. c #6782BA",
"v. c #7084B8",
"b. c #7686B7",
"n. c #5A84DB",
"m. c #6C84C3",
"M. c #6F8BC0",
"N. c #6788C8",
"B. c #6690C6",
"V. c #6F91C1",
"C. c #7793CB",
"Z. c #6E85D6",
"A. c #658AD2",
"S. c #6C8AD3",
"D. c #6483DC",
"F. c #6C85DC",
"G. c #628ADB",
"H. c #6E8DD8",
"J. c #718CD4",
"K. c #6193D7",
"L. c #639BDC",
"P. c #5F88E5",
"I. c #568BEA",
"U. c #5790E8",
"Y. c #5B9AEA",
"T. c #5B95F1",
"R. c #599AFA",
"E. c #6484E3",
"W. c #618CE4",
"Q. c #698CE1",
"!. c #6094E0",
"~. c #6697EA",
"^. c #6797F4",
"/. c #5FA5E9",
"(. c #AC9888",
/* pixels */
"$.$.&.&.(.&.=.=.&.&.$.&.&.=.&.$.$.$.&.&.(.&.=.=.&.&.$.&.&.=.&.$.",
"=.&.$.&.$.&.&.$.$.&.=.&.$.&.$.$.=.&.$.&.$.&.&.$.$.&.=.&.$.&.$.$.",
"$.&.&.$...$.` :.&.$.&.$.&.$.&.&.$.&.&.$...$.` :.&.$.&.$.&.$.&.&.",
"&.$.$.&.&.$.&.$.$. .$.$.(.$...$.&.$.$.&.&.$.&.$.$. .$.$.(.$...$.",
"$.&.&.-.$.&.$. .&.=.=.&.$.&.&.$.$.&.&.-.$.&.$. .&.=.=.&.$.&.&.$.",
"=.&.$.$.&.=.&.$.$.&.$.$.&.=.&.=.=.&.$.$.&.=.&.$.$.&.$.$.&.=.&.=.",
"&...&.$.$.&.&.=.&.$.&.$.$.&.$.$.&...&.$.$.&.&.=.&.$.&.$.$.&.$.$.",
"(.&.=.&.&.&.$...$.&...$.&.$.&.(.(.&.=.&.&.&.$...$.&...$.&.$.&.(.",
"&.=.&.$.&.$.&.=.&.$.&.&.=.&.&.$.&.=.&.$.&.$.&.=.&.$.&.&.=.&.&.$.",
"$.&.&.=.=.&.$.$...$.$.&.$.&.$.&.$.&.&.=.=.&.$.$...$.$.&.$.&.$.&.",
"&.$.&.&.$.&.&.$.&.&.&.$.&.=.=.&.&.$.&.&.$.&.&.$.&.&.&.$.&.=.=.&.",
"$.$...$.(.$.&.&.(.$...&...$.&.$.$.$...$.(.$.&.&.(.$...&...$.&.$.",
"&.&.=.&.$.&.$.$.$.&.=.$.&.&.-.$.&.&.=.&.#.&.$.$.$.&.=.$.&.&.-.$.",
"=.&.$.&.&.=.&.=.&.$.$.&.$.$.$.&.=.&.$.&.&.=.&.=.&.$.$.&.$.$.$.&.",
"$.$.&.=.&.&.$.&.$...$.$.&.$.&.&.$.$.&.=.&.&.$.&.$...$.$.&.$.&.&.",
":.&.$.$.$.$.&.$.%.o.r B C S Y c R R A S F N | #.&.$.&.&.$.&.$.` ",
"$.$.&.&.;.B { m U U x J k h k k P U x J ~ H j U m e F *.&.=.&.$.",
"=.&.#.m l v I J ~ ^ H L >.5.N.0.B.c.1.! k h I k H Y v l b %.$.$.",
"$.&.{ h z v ^ _ ~ 2.L.W.R.n.I.n.p.s.G.G.G.B.<.J R ) E x l X.&.&.",
"&.O.v Y _ _ I ~ x.^.P.t.r.u.u.w.D.i.8.y.t.n.~.c.Q J _ / R Z n $.",
"o.D v T T J R x.J.^.7.f.s.1.,.^ _ _ 3.s.q.e.U.F.6.R T _ ~ c z o.",
"w z x c H j / V.S.L.l.E.q._ ^ U _ ) Q 4.w.,./.F.v._ H R J k Y M ",
"V U a x T x U b.G.T.8.q.J.l.k.j.^ ^ 2.y.h.>.I.F.b._ ^ _ H g R Z ",
"d h a 2 k v l Q K.Y.E.a.9.i.F.Z.Z.N.y.y.f.E.~.C.j.I T T y a c j ",
"f J J ; y H J c U v.!.~.G.S.q.u.A.Q.E.T.U.Y.5.R J ~ R h * x v a ",
"4 d a a + ; E ) E z P ( x.m.G.Y.n.T.H.v.2.P h k J ^ g + h g y < ",
"| & j J a O * d E ) P ~ I U P K K G H G U H ^ R y % & c E v + ] ",
"#.9 # i a c a ; # # h U H ^ ( ( H ~ P H H g o o & h J x f # q $.",
"&.&.] ; d z j h k h = & o O O O O O % + % * y k j g z 2 & 0 -.$.",
"=.&.} 1 O +   = i Z s E T v j P H a k H I i h a -   X   3 #.$.&.",
"$.$.&.=.| 6 7 :     2 2 y y u s i s 2 ; - @ . . : , 4 [ &.$.&.&.",
"-.&.$.$.$.$.&.$.&.9 6 5 > $ X . o X # : > 8 ' +.&.$.&.&.$.&.$.-."
};
