/* XPM */
static char *xpm_[] = {
/* columns rows colors chars-per-pixel */
"32 32 156 2 ",
"   c black",
".  c #3A0911",
"X  c #262423",
"o  c #292625",
"O  c #2D2D26",
"+  c #292628",
"@  c #2E2B2B",
"#  c #312D2D",
"$  c #2F3628",
"%  c #393D27",
"&  c #35322D",
"*  c #312E31",
"=  c #363233",
"-  c #3A3535",
";  c #3D3837",
":  c #3E3938",
">  c #423D3D",
",  c #3A482D",
"<  c #39422A",
"1  c #3E4C31",
"2  c #395839",
"3  c #444C2B",
"4  c #505E29",
"5  c #46413F",
"6  c #415431",
"7  c #445D30",
"8  c #4B573A",
"9  c #49552A",
"0  c #586A2A",
"q  c #486431",
"w  c #4C6935",
"e  c #547838",
"r  c #687F2F",
"t  c #62772C",
"y  c #66683F",
"u  c #777F34",
"i  c #657638",
"p  c #4B4445",
"a  c #4E4847",
"s  c #4F4A4A",
"d  c #504F47",
"f  c #534C4C",
"g  c #57514F",
"h  c #5A524D",
"j  c #565446",
"k  c #564E52",
"l  c #575051",
"z  c #5B5354",
"x  c #5E5559",
"c  c #5D5854",
"v  c #625956",
"b  c #645A5C",
"n  c #695D5C",
"m  c #5E6F4B",
"M  c #577753",
"N  c #6B6D4E",
"B  c #6E7046",
"V  c #617949",
"C  c #757F4B",
"Z  c #686557",
"A  c #6A635B",
"S  c #70665F",
"D  c #687D50",
"F  c #5F5A67",
"G  c #655D62",
"H  c #685F63",
"J  c #645F6A",
"K  c #676065",
"L  c #6B6265",
"P  c #6C6369",
"I  c #716467",
"U  c #71666A",
"Y  c #74696E",
"T  c #796D6D",
"R  c #6E6977",
"E  c #756C73",
"W  c #796D74",
"Q  c #7D7174",
"!  c #7C7279",
"~  c #811426",
"^  c #A11B31",
"/  c #827373",
"(  c #82767B",
")  c #A1786C",
"_  c #6C862C",
"`  c #708B2E",
"'  c #7C8B27",
"]  c #608F3D",
"[  c #73853D",
"{  c #679C3F",
"}  c #799635",
"|  c #3F824F",
" . c #528D52",
".. c #668648",
"X. c #698E48",
"o. c #668746",
"O. c #669742",
"+. c #699147",
"@. c #669B40",
"#. c #6A9C44",
"$. c #6AA241",
"%. c #85A834",
"&. c #89AF32",
"*. c #82A139",
"=. c #A8C029",
"-. c #8F8D6F",
";. c #98877B",
":. c #AC8E74",
">. c #67628C",
",. c #736A8B",
"<. c #6E728F",
"1. c #7A7C97",
"2. c #777EA5",
"3. c #6D76BF",
"4. c #6072CB",
"5. c #6D7CCC",
"6. c #7379C0",
"7. c #637CDA",
"8. c #557AE3",
"9. c #847A83",
"0. c #6F80A8",
"q. c #7884A6",
"w. c #6782BA",
"e. c #7084B8",
"r. c #7686B7",
"t. c #6D84C3",
"y. c #6F8BC0",
"u. c #6A87CC",
"i. c #6D8CCD",
"p. c #6F91C1",
"a. c #7793CB",
"s. c #6E85D6",
"d. c #678AD0",
"f. c #6C8AD3",
"g. c #6483DC",
"h. c #6D87DC",
"j. c #638BDC",
"k. c #6E8DD8",
"l. c #718CD4",
"z. c #6193D7",
"x. c #629CDF",
"c. c #598AEC",
"v. c #5790E8",
"b. c #5E96E9",
"n. c #569EED",
"m. c #5D9AEA",
"M. c #5B95F1",
"N. c #6786E3",
"B. c #658CE3",
"V. c #6094E0",
"C. c #6992E6",
"Z. c #609AEC",
"A. c #6998EC",
"S. c #5FA5E9",
"D. c #AC9888",
"F. c white",
/* pixels */
"$.$.&.&.D.&.=.=.&.&.$.&.&.=.&.$.$.$.&.&.D.&.=.=.&.&.$.&.&.=.&.$.",
"=.&.$.&.$.&.&.$.$.&.=.&.$.&.$.$.=.&.$.&.$.&.&.$.$.&.=.&.$.&.$.$.",
"$.&.&.$. .$.) :.&.$.&.$.&.$.&.&.$.&.&.$. .$.) :.&.$.&.$.&.$.&.&.",
"&.$.$.&.&.$.&.$.$.| $.$.. . . . . . $.&.&.$.&.$.$.| $.$.D.$. .$.",
"$.&.&.-.$.&.$.| &.=.=.. ^ ^ ^ . . . ^ . $.&.$.| &.=.=.&.$.&.&.$.",
"=.&.$.$.&.=.&.$.$.&.. ~ ^ ^ .       . ^ &.=.&.$.$.&.$.$.&.=.&.=.",
"&. .&.$.$.&.&.=.&.$.. ~ ^ .           . . &.&.=.&.$.&.$.$.&.$.$.",
"D.&.=.&.&.&.$. .$.. ~ ~ ^ .           . . &.$. .$.&. .$.&.$.&.D.",
"&.=.&.$.&.$.&.=.&.. ~ . ^ .   F.    F.. . $.&.=.&.$.&.&.=.&.&.$.",
"$.&.&.=.=.&.$.$. .. ~ . ^ .           . . &.$.$. .$.$.&.$.&.$.&.",
"&.$.&.&.$.&.&.$.&.&.. . ~ ^ .         . . &.&.$.&.&.&.$.&.=.=.&.",
"$.$. .$.D.$.&.&.D.$. .&.~ ~ ~ .     . ~ D.$.&.&.D.$. .&. .$.&.$.",
"&.&.=.&.$.&.$.$.$.&.=.$.~ ~ ~ ^ ^ ^ ^ ~ $.&.$.$.$.&.=.$.&.&.-.$.",
"=.&.$.&.&.=.&.=.&.$.$.. ^ ^ ^ ^ ^ ^ ^ ^ . =.&.=.&.$.$.&.$.$.$.&.",
"$.$.&.=.&.&.$.&.$. .$.. ^ ^ ^ ^ ^ ^ ^ ^ . &.$.&.$. .$.$.&.$.&.&.",
":.&.$.$.$.$.&.$.%.X.. ~ ^ ^ ^ ^ ^ ^ ^ ^ . V } #.&.$.&.&.$.&.$.) ",
"$.$.&.&.;.C [ N L P . ~ ^ ^ ^ ^ ~ ^ ^ ^ ~ . x P N i D *.&.=.&.$.",
"=.&.@.N h n I K E W . ~ ^ ^ ^ ^ ~ ^ ^ ^ ~ . L x b P n c m %.$.$.",
"$.&.[ h x L Q ! E 1.. ~ ^ ^ ^ ^ . ~ ^ ^ ~ . <.G Y / E v v ..&.&.",
"&...A L ( ( K E q.. ~ ~ ~ ^ ~ ~   . ~ ~ ~ . Z.w.E L ( W U A M $.",
"X.S n I U L Y q.l.. ~ . ~ ~ ~ .   . ~ ~ ~ . v.j.2.Y U ( E b b o.",
"y v x b G z Q p.i.z.. . . ~ ~ .     . ~ . ,.S.h.y.( G U H x U B ",
"Z P f v I b P e.j.M.6.. i.. . . W   . . 8.>.c.h.r.( Q ( G k U Z ",
"h k f p x G z R z.b.N.5.6.5.  s.s.u.  4.7.N.A.a.9.H Y I p s b v ",
"j H H : a G P v P e.V.C.B.f.  t.d.B.  M.c.n.2.E H E Y k - b H f ",
"8 g f f # > Y / T v L ! q.t.j.m.j.M.k.y.1.J f x H W k @ k k 5 3 ",
"} * v G s @ - h T / G E K P K J F G G x L G W U p * - b / n & ` ",
"{ e & f f n f > & & z P b W ! ! H R P G G f + + - k H v d & t { ",
"&.&.' - h b l l v k ; = + @ @ @ @ * # # = - p x z k c p & r -.$.",
"=.&.{ 0 @ # X : a b k T P n x L G s x H L d l f > o + o 9 @.$.&.",
"$.$.&.=.} 0 q < X X > 5 a p a f f f > > : @ X + % 2 7 ] &.$.&.&.",
"-.&.$.$.$.$.&.$.%.] 0 9 1 % O o o O & , 1 w _ @.&.$.&.&.$.&.$.-."
};
