/* XPM */
static char *result[] = {
/* columns rows colors chars-per-pixel */
"64 64 203 2 ",
"   c #010101",
".  c #0C0103",
"X  c #060807",
"o  c #0D0B0A",
"O  c #130305",
"+  c #1B0509",
"@  c #190C0D",
"#  c #141313",
"$  c #181515",
"%  c #171619",
"&  c #191719",
"*  c #171A19",
"=  c #1D1B1B",
"-  c #22050A",
";  c #23090D",
":  c #2E080D",
">  c #31070E",
",  c #34080F",
"<  c #360A11",
"1  c #3D0A12",
"2  c #2D1215",
"3  c #201C17",
"4  c #211E1D",
"5  c #2A1D1B",
"6  c #3E1216",
"7  c #361718",
"8  c #3D151A",
"9  c #331C1B",
"0  c #17271E",
"q  c #1B241F",
"w  c #24221E",
"e  c #2B231E",
"r  c #222A1F",
"t  c #1F1E20",
"y  c #211E20",
"u  c #3E1D22",
"i  c #1D2521",
"p  c #1C2B22",
"a  c #103221",
"s  c #1B3326",
"d  c #163927",
"f  c #1C3927",
"g  c #1D352A",
"h  c #163D2A",
"j  c #1A3C2B",
"k  c #143E34",
"l  c #252324",
"z  c #292625",
"x  c #222C23",
"c  c #2C2926",
"v  c #272528",
"b  c #2A272A",
"n  c #232E29",
"m  c #2D2B2A",
"M  c #3D2224",
"N  c #322E2C",
"B  c #382828",
"V  c #213223",
"C  c #23342A",
"Z  c #273429",
"A  c #2C322D",
"S  c #35312E",
"D  c #39342E",
"F  c #322E30",
"G  c #2A3F34",
"H  c #363331",
"J  c #3A3633",
"K  c #363937",
"L  c #3D3936",
"P  c #3E3A39",
"I  c #440B14",
"U  c #4B0C16",
"Y  c #4E0D18",
"T  c #540D19",
"R  c #5C0E1B",
"E  c #401017",
"W  c #44131A",
"Q  c #4B131B",
"!  c #45181E",
"~  c #53141D",
"^  c #5A111D",
"/  c #64000D",
"(  c #670010",
")  c #680516",
"_  c #620F1D",
"`  c #760D1F",
"'  c #66101E",
"]  c #6B101F",
"[  c #461A20",
"{  c #541922",
"}  c #671220",
"|  c #6D1221",
" . c #741222",
".. c #7B1425",
"X. c #482528",
"o. c #4D2E32",
"O. c #552E32",
"+. c #4C3535",
"@. c #403B36",
"#. c #423D3B",
"$. c #523B3C",
"%. c #15472E",
"&. c #19422C",
"*. c #164B2D",
"=. c #194D2A",
"-. c #17522B",
";. c #18572B",
":. c #175A2A",
">. c #185C2A",
",. c #154331",
"<. c #1F4530",
"1. c #164830",
"2. c #1C4A31",
"3. c #24422C",
"4. c #2C4636",
"5. c #234A35",
"6. c #254936",
"7. c #2B4F3C",
"8. c #354135",
"9. c #334B3B",
"0. c #39493D",
"q. c #215231",
"w. c #45413D",
"e. c #4A433D",
"r. c #43483F",
"t. c #53483A",
"y. c #355040",
"u. c #3C5242",
"i. c #464242",
"p. c #4A4542",
"a. c #454840",
"s. c #4E4945",
"d. c #4E4B4A",
"f. c #544443",
"g. c #584747",
"h. c #524B46",
"j. c #534D4A",
"k. c #465549",
"l. c #455748",
"z. c #4D524A",
"x. c #56514C",
"c. c #5A534E",
"v. c #59564C",
"b. c #555451",
"n. c #5C5652",
"m. c #565C54",
"M. c #5E5954",
"N. c #60564E",
"B. c #655A4E",
"V. c #6B4A50",
"C. c #615751",
"Z. c #635B55",
"A. c #695E55",
"S. c #645E59",
"D. c #6B5F5B",
"F. c #735158",
"G. c #5E6058",
"H. c #6E604E",
"J. c #65615C",
"K. c #696359",
"L. c #6B635C",
"P. c #71665C",
"I. c #75695E",
"U. c #796C5D",
"Y. c #646463",
"T. c #6D6661",
"R. c #6F6863",
"E. c #6C6C6C",
"W. c #726761",
"Q. c #736B64",
"!. c #796E66",
"~. c #756E69",
"^. c #796F68",
"/. c #7B7066",
"(. c #77716B",
"). c #7C726B",
"_. c #6E7271",
"`. c gray46",
"'. c #7E7671",
"]. c #7F7872",
"[. c #841526",
"{. c #891627",
"}. c #851528",
"|. c #8B1629",
" X c #8E182B",
".X c #93172B",
"XX c #93182C",
"oX c #9A192E",
"OX c #9E1A30",
"+X c #A31B32",
"@X c #AA1D34",
"#X c #B11E37",
"$X c #81766D",
"%X c #807771",
"&X c #847A74",
"*X c #897E74",
"=X c #887F79",
"-X c #8A827A",
";X c #858988",
":X c #8B8C8C",
">X c #929594",
",X c #E8E9E9",
"<X c #FFFEFE",
/* pixels */
"%.%.*.:.-.%.,.%.%.,.,.1.*.-.%.%.%.*.*.;.*.*.%.,.,.%.%.%.%.%.%.%.%.%.%.%.%.%.%.%.%.%.%.%.%.*.;.-.%.k %.%.,.,.,.-.*.%.%.%.*.*.-.*.",
"*.*.*.=.-.1.k %.%.%.%.k *.%.%.*.%.*.-.*.*.%.%.%.%.%.%.%.%.%.%.%.%.%.%.%.%.%.*.%.%.*.*.*.*.*.*.-.1.k %.%.%.%.k *.*.*.%.%.*.-.-.*.",
">.:.-.%.*.*.k %.%.%.%.%.%.%.%.%.%.%.%.%.%.%.%.%.%.%.%.%.%.%.%.%.%.%.%.%.%.%.%.%.%.*.>.>.:.*.*.-.%.k *.%.*.%.%.%.%.%.%.%.%.%.%.%.",
"1.*.-.-.*.%.1.-.-.-.*.*.%.%.%.%.%.%.%.%.%.%.%.%.%.%.%.%.%.1.*.%.%.%.%.%.%.%.%.%.%.,.,.*.*.;.-.*.%.*.*.-.-.*.%.%.%.%.%.%.%.%.%.%.",
"*.*.*.;.*.%.%.-.;.*.,.%.%.%.%.%.%.%.%.%.*.*.%.%.%.%.%.%.%.-.*.*.%.*.*.-.%.%.%.%.-.-.*.*.*.*.-.*.%.*.-.-.*.1.%.%.%.%.%.%.%.%.%.*.",
";.-.*.*.*.%.*.*.*.1.,.*.1.%.%.%.%.%.%.%.*.=.%.%.%.%.%.%.%.=.-.1.%.*.-.*.*.%.%.%.-.:.>.:.*.*.*.%.%.%.*.-.1.,.%.1.%.%.%.%.%.%.%.-.",
";.-.-.%.%.%.%.%.*.*.;.-.,.k %.%.%.%.%.%.*.*.%.%.%.%.%.%.,.,.-.;.*.*.-.k ,.*.%.%.%.*.>.;.;.-.*.%.%.%.%.*.*.;.-.k k *.%.%.%.%.%.%.",
"-.-.-.%.%.%.%.%.*.-.*.k ,.%.%.%.%.%.%.%.%.%.%.%.%.%.w 1 1 1 1 1 1 1 1 1 e *.-.%.k 1.-.-.;.*.%.%.%.%.%.*.-.*.k 1.%.%.*.%.%.%.%.%.",
",.*.*.*.*.*.,.%.*.*.%.,.%.%.%.%.%.%.%.%.%.%.%.%.&.x W ' |  . ...........~ V &.%.,.,.,.,.1.*.-.*.,.,.%.*.*.*.,.%.%.%.%.%.%.%.%.%.",
"k ,.*.-.-.1.k %.*.%.%.%.%.%.%.*.%.%.%.%.*.*.%.&.x 1 | oX@X#X@XoXoXoXOXOX..Q x &.%.1.k k 1.*.-.-.,.,.%.%.1.%.%.%.%.%.%.%.%.%.%.%.",
"%.%.%.-.*.%.%.%.%.%.%.%.%.%.%.%.%.%.%.%.%.%.&.x 1  .OX+X@X#X XU 1 U I 1  .XXQ p &.%.%.%.%.=.-.*.%.%.%.%.%.%.%.%.%.%.%.%.%.%.%.%.",
"%.%.%.*.%.%.%.%.%.%.%.%.%.%.%.%.%.%.%.%.%.&.r W  .oX@X@X@X|.I .   .     < .. X{ 0 &.%.%.%.%.%.%.%.%.%.%.%.%.%.%.%.%.%.%.%.%.%.%.",
"%.%.%.%.%.%.%.%.%.%.%.%.%.%.%.%.%.%.%.%.%.h 2 R .X@X@X+X|.I .             > }.}.Q x &.%.%.%.%.%.%.%.%.%.%.%.%.%.%.%.%.%.%.%.%.%.",
"%.%.%.%.%.%.%.%.%.%.%.%.%.%.%.%.%.%.%.%.%.f 7 R  X+X@X XI .                 : }..XU x %.%.%.%.%.%.%.%.%.%.%.%.%.%.%.%.%.%.%.%.%.",
"%.%.%.%.%.%.%.%.%.%.*.%.%.%.%.*.%.%.%.%.%.7 ^  .|.+X#X X1     X             + ..OXT 0 %.%.%.%.%.%.%.%.%.%.%.%.%.%.%.%.%.%.%.%.%.",
"%.%.%.%.%.%.1.k *.-.*.*.%.%.*.*.*.%.%.%.%.U ...X{.XX@X X1   i b.v       m z.u ` oXU r %.%.%.%.%.%.,.k -.-.-.%.%.%.*.-.%.%.%.%.%.",
"%.%.%.%.%.%.1.,.%.-.;.*.%.%.%.*.*.%.%.%.;.I  .|. .[.+XXX1   Y.,XE.      ;X,XV.( .XY x %.%.%.%.%.%.1.,.*.-.-.*.%.%.%.*.%.%.%.%.-.",
"%.%.%.%.%.%.%.%.%.*.*.-.*.%.%.%.%.%.%.%.-.I ..] Y  .+X.X<   _.<X`.      >X<XF./ .XY r %.%.%.%.%.%.%.%.%.*.-.-.%.%.%.%.%.%.%.,.:.",
"%.*.%.%.%.%.%.%.%.%.%.%.%.%.%.%.%.%.%.%.%.U ..R >  .@XXX<   K :Xi.      b.;XO.) {.U r %.%.%.%.%.%.%.%.%.%.%.%.%.%.%.%.%.%.%.%.%.",
"%.%.%.%.%.%.%.%.%.%.%.%.%.%.%.%.%.%.%.%.%.I  .R I  .@X.XY O   X           X ; ] ..U 0 %.*.%.%.%.%.%.%.%.%.%.%.%.%.%.%.%.%.%.%.%.",
"%.%.%.%.%.%.%.%.%.%.%.%.%.1.-.1.%.%.%.%.%.x 8 1 U ...X.X.XT O               - ] ..I r %.%.%.%.%.%.%.%.%.%.%.%.%.*.-.%.%.%.%.%.%.",
"%.%.%.%.%.%.%.%.%.%.*.*.%.=.:.1.%.%.%.%.%.&.p w 9 ^  ..X@X{.I O           + T ] R 9 f %.%.%.%.%.%.%.%.%.%.*.*.%.-.:.%.%.%.%.%.%.",
"%.%.%.%.%.%.%.%.%.*.>.-.*.*.-.k 1.%.%.%.%.%.%.%.h 5 T  . .{...I O       + Y ..~ 5 &.%.%.%.%.*.%.%.%.%.%.-.:.-.*.*.*.k ,.%.%.%.%.",
"%.%.%.%.%.%.%.%.%.,.1.-.-.-.%.1.%.%.%.%.%.%.%.%.%.h e 1 I ] |. .I - - - Y ` T e &.%.%.%.%.%.%.%.%.%.%.%.,.1.-.-.*.*.%.%.%.%.%.%.",
"%.%.%.%.%.%.%.:.-.*.1.*.-.*.%.%.%.%.%.%.%.%.%.%.&.V 7 ~ T ] |.oX{. .|  . XXX_ 9 s &.&.%.%.%.%.%.,.*.-.:.*.1.*.-.*.1.%.%.%.%.%.%.",
"%.%.%.%.%.%.%.:.:.:.:.*.=.*.%.%.%.%.%.%.%.%.%.&.x E  ..X.X{..X+X@X@X@X@X@X+XXX| 6 V &.%.%.%.%.%.%.*.:.>.:.-.*.-.*.1.%.%.%.%.%.%.",
"*.%.%.%.%.%.1.1.:.:.:.-.*.%.%.%.%.%.%.%.%.%.%.r I  .oX+X+XoX+X+X+X@X@X@X+X@X+XXX .6 V %.%.*.%.%.%.%.*.:.>.:.-.*.%.%.%.%.%.,.%.%.",
"%.%.%.%.%.-.:.*.*.*.:.-.-.*.%.%.*.;.:.%.%.%.&.r I ..+X@X+X+X+X+XOXOXOXOX+X+X+X+X .I r %.%.*.%.%.;.-.-.*.-.-.-.-.*.%.%.-.:.:.%.%.",
"%.%.%.%.,.1.*.:.*.*.*.;.-.*.%.%.-.-.-.%.%.%.%.r 1 ..+X+X+X+X+X+X+XOX+X+X+X+X+XOX..I x %.%.%.%.,.1.*.;.*.*.*.-.-.*.%.%.-.-.-.,.%.",
"%.%.%.%.,.k k *.-.*.%.*.-.-.1.*.*.*.%.%.%.5.4.c Y .X@X+XoX+XoX+XOX+X+XOX+XOX+X@X XI A *.%.%.%.k k k *.-.*.1.-.-.*.%.%.-.*.%.%.%.",
"%.%.%.%.,.,.k k 1.*.%.1.*.-.%.*.%.7.l.9.8.t.o.{  .+X@X+X+X+XoX+X+X+X+X+X+X+X+X@X XI $.0.4.k.7.1.,.k k 1.*.*.%.-.*.%.%.%.%.%.%.%.",
"%.%.%.%.%.%.,.:.-.*.2.2.%.2.6.0.b.K.K.w.w.g.8 ^ .X@X+X+X+X+X+X+X+XoXoXOXOX+X+X@XoXR X.d.#.M.T.b.0.5.q.-.1.1.%.%.%.%.%.%.%.%.%.%.",
"%.%.%.%.%.%.%.;.q.u.K.J.u.P S.S.n.S.J.x.#.f.8 _ .X+X+X+X+XOX+X+X+XoX{.oX+X+XOX+X+X{.T s.#.h.S.T.S.b.J 0.M.Y.y.%.%.*.%.%.%.%.%.%.",
"%.%.%.%.%.1.5.k.c.M.K.L.c.P p.M.Y.R.~.~.b.#.8 T  X+X+X+XOX+X+X+X@XXX{.oX+X+XOX@X+X.XT #.A.n.h.n.D.d.L M.S.S.S.z.7.1.%.%.%.%.%.%.",
"%.%.%.%.%.7.M.S.C.c.c.c.K.J.x.s.Z.J.c.x.j.x.u T  X+X+X+X+X+X+X+XOX..| [.+X+X+XOXXX|.T i.j.S.n.K J v.W.L.n.n.Z.S.Z.z.h %.%.%.%.%.",
"%.%.%.%.%.0 s.w.p.j.c.T.!.Q.].&Xx.j.S.T.W.f.! R |.+X+X+XOXOX+XOX XR 1 } XX+X@X.X}.}.T W.M.n.d.p.S.Q.Q./.!.S.j.e.j.n.a 1.%.1.*.%.",
"=.*.%.%.=.K.L.x.p.s.s.c.b.P.).n.S.%X^.T.S.W } [.[.|.OXOX|.oXOX|.|._ 1 | |. X+X.X[.[.T S.D.T.L.b.x.K.L.P.I.v.h.h.C.W.a.,.%.%.%.%.",
"-.=.%.<.M.).C.C.P.(.L.Z.c.x.s.n.~.T.n.g.h.I ...X}...}..X.XXX.X|. .I - I  .[. X.X X{.T n.j.c.S.S.c.e.h.K.L.U.!.L.S.T.~.S.<.1.%.%.",
"=.*.&.C.H.N.M.Z.W./.^.&X(.w.M.(.L.d.M.^.e.I ..|.....[.|.oX|.[. .Y O   - _ {.}. ...{.^ h.S.P #.M.Q.L.s.T.~.!.I.L.M.S.A.D.b.5.%.-.",
"1.*.K.c.e.e.x.J.n.M.K.L.s.M.).P.#.j.J.J.j.U ..] U ` |.{.|.}. .I O     - _ |.|.T T .._ c.x.j.c.s.S./.n.w.c.S.A.c.n.b.i.s.j.M.2.-.",
"%.u.I.P.P.v.N.P.K.N.B.e.h./.Q.Z.b.Z.n.s.L.O.^ I I ....' [.XX .<       O , ' {..._ R Q b.p.Z.j.#.C.P.!.h.s.L.~.^.$XS.x.D.S.n.4.%.",
"2.L.W.L.S.v.N.A.S.K.Q.s.v./.P.h.S.T.h.w.*XW.X., U | { Q | [.} 1 @ = $   . I ] {.] [ g.n.p.j.j.j.f.A.$XN.c.&X).^.^.A.j.j.S.L.T.2.",
"4.p.h.x.j.w.h.h.s.s.s.P C.^.K.h.c.L.c.w.).&XL.M 1 W $.f.[ I U < c h.@.# O 1 I U W g.Q.J.s.S.^.A.s.A.!.S.#.c.x.j.x.h.#.j.T.S.j.9.",
"w.s.j.j.i.N e.Z.M.h.w.@.c.P.S.j.C.c.v.j.Z.(.-Xh.u +.h.w.@ O 2 M D #.e.D $ + X.B B j.S.S.e.b.S.c.j.K.U.A.j.P.S.n.n.i.J x.S.M.c.x.",
"G.T.L.S.x.@.w.v.K.P.P.w.w.R.P.h.P e.K.c.Z.j.h.j.@.w.j.p.=   3 h.h.@.#.f.z o B J F #.n.n.L #.j.A.C.W.*Xv.A.=X&X(.T.s.D N.M.L.L.m.",
"z.L.S.c.c.e.#.@.L w.s.x.w.c.P.K.j.x.x.M.T.x.w.#.p.w.#.#.#.$ # s.c.s.#.#.* . N @.L s.c.c.x.M.j.#.P.$X%Xp.x.j.j.S.b.F N c.c.T.Q.m.",
"0.h.s.w.s.P N h.j.s.h.K.K.L n.P.J.w.J T.M.w.h.j.s.p.#.#.S o X S L #.#.#.$   w J j.p.L x.'.D.d.K.].^.e.b.L.C.N.A.h.= c h.x.x.b.s.",
"8.x.d.j.h.h.c S K.Q.Z.Z.K.w.P Z.R.K.j.x.x.s.L #.s.j.c.j.i.e.w.w.i.h.b.j.w.J J L P L i.i.Z.M.T.-X'.#.#.Q.Q.!./.I.N = s.c.h.s.n.0.",
"8.L.W.S.S.Z.#.& D K.n.p.d.M.p.J x.!.L.c.M.K.J w.e.P w.w.#.#.i.w.@.@.#.i.#.P #.#.#.J s.j.n.T.^.C.P j.L.n.j.S.~.@.t F x.N.A.L.W.K ",
"Z j.A.A.D.S.p.B w l s.L.K.L.L.A.w.L S.'.~.b.x.b.w.P w.S H K b B J @.S F J j.H v s.D.b.n.A.j.L L Z.Q.W.L.~.R.J & 4 i.p.i.n.!.w.* ",
"3.#.Z.d.#.p.e.#.N $ m w.Z.U./.P.P.A.h.w.d.T.J.S.Z.S.r.J s.#.F F P #.F J #.n.M.S.T.~.T.s.H #.j.#.h.L.W.Q.S.P 3 l #.N.j.@.P f.m s ",
"k H L x.x.b.A.Z.p.c = w #.B.B.U././.P.n.s.L j.c.x.M.J.~.T.T.W.Y.J.Y.Y.R.R.T.n.S.S.s.N s.S.T.Q.A.j.i.n.p.b = z N.W.P.D.W.L.b q %.",
"k G b J M.L.T.b.s.d.m # l c t.H.U./.).Q.d.M.T.b.s.s.j.x.s.i.s.d.i.i.d.i.i.d.d.P i.b.Z.j.W.~.~.~.n.H & y = b x.W.^.Q.W.A.@.4 g %.",
"1.1.n v H C.T.s.w.L #.#.S w c B D t.H.h.T.].(.].-XM.j.~.S.j.b.d.p.j.b.d.d.i.n.~.Q.~.'.C.#.j.i.b y & & N #.i.#.x.Z.!.C.c = p %.%.",
"%.%.&.A c c w.P #.b.S.S.j.#.S m w e = H M.M.S.Q.Q.s.Q.-X%X^.'.T.Z.R.~.~.`.D.j.R.W.n.x.j.v & % # y b i.b.A.D.S.i.#.t.m y n &.%.%.",
"%.%.1.%.n c j.~.T.M.n.Z.K.L.s.m D L l = t v H #.S N j.j.c.Z.T.n.P p.d.p.p.d.H J L N l = & = F N F x.T.S.A.Z.S.~.W.s.c n &.%.%.%.",
"%.%.%.%.%.p J x.T.R.J.S.W.j.L p.b.n.x.#.D l = v % o y 4 z y y = t y y y l z % l l & b S J #.h.c.j.i.d.n.A.Z.n.j.#.F C %.%.%.%.%.",
"%.%.%.%.%.d = l m s.S.S.P #.L.T.S.Z.A.P.A.D #.L m b N c = 4 y l y F F b F F N H P L B b.n.j.b.T.T.S.#.H b.c.J 4 & l h %.%.%.%.%.",
"%.%.%.%.%.%.i x m l S m # N w.d.b.D.Q.A.H j.W.L.A.Z.Z.x.J j.n.b.n.j.i.F x.b.n.Z.Z.A.s.@.j.Z.L.S.b.p.P % B l & l b n =.%.%.%.%.%.",
"%.%.%.%.%.%.1.j C c l = $ 4 l v y J h.P i.$X).$X).^.).j.s.).(.W.T.F.S.#.c.S.S.T.Q.P.S.P @.#.L z b y = & v & l Z j 1.1.1.%.%.%.;.",
"%.%.%.%.%.%.%.%.%.&.p p d x v l l = & = #.i.#.i.s.b.L.i.s.L.L.S.n.n.R.M.e.x.s.#.K F N m y = y l b y i d p p &.%.%.%.%.%.%.%.%.-.",
"%.%.%.%.%.%.%.%.%.%.1.%.%.%.&.f n n c = w b v l l l c l z y = b b b P H = l b z l t = y y l n x g ,.%.1.%.%.%.%.%.%.%.%.%.%.%.%.",
"%.%.%.%.%.%.%.%.%.%.%.%.%.*.%.%.%.%.h s s x l v m c c = l l = = y y y y = l l y l m m C s j %.%.%.%.%.%.%.%.%.%.%.%.%.%.%.%.%.%.",
"%.%.%.%.%.%.%.%.%.%.%.%.%.*.;.%.%.%.%.%.%.&.&.%.<.<.C g s n l n g v v g g C j j &.&.1.%.%.1.%.%.%.%.%.%.%.%.%.*.*.-.*.%.%.%.%.%."
};
