/* XPM */
static char *result[] = {
/* columns rows colors chars-per-pixel */
"64 64 229 2 ",
"   c #010101",
".  c #0C0507",
"X  c #130305",
"o  c #1B0509",
"O  c #101016",
"+  c #151415",
"@  c #1A1916",
"#  c #181718",
"$  c #1C1B1B",
"%  c #22050A",
"&  c #27090D",
"*  c #34080F",
"=  c #370B14",
"-  c #3D0A12",
";  c #221E1E",
":  c #281818",
">  c #371719",
",  c #1A241E",
"<  c #25221D",
"1  c #2B241E",
"2  c #222A1F",
"3  c #1E1B20",
"4  c #211E21",
"5  c #3E1C21",
"6  c #1E2623",
"7  c #1C2E24",
"8  c #1B3326",
"9  c #193627",
"0  c #1B3D2A",
"q  c #18213C",
"w  c #143E34",
"e  c #242323",
"r  c #292625",
"t  c #232C23",
"y  c #2A2826",
"u  c #2A2729",
"i  c #242C29",
"p  c #2D2B2B",
"a  c #312D2D",
"s  c #243428",
"d  c #35302C",
"f  c #322E31",
"g  c #283D33",
"h  c #373735",
"j  c #393434",
"k  c #3B363A",
"l  c #3E3A3B",
"z  c #440B14",
"x  c #4B0C16",
"c  c #4E0D18",
"v  c #540D19",
"b  c #5C0E1B",
"n  c #46131A",
"m  c #56121C",
"M  c #680313",
"N  c #620F1D",
"B  c #66101E",
"V  c #6B101F",
"C  c #471A24",
"Z  c #561723",
"A  c #451F32",
"S  c #6C1221",
"D  c #741222",
"F  c #7B1425",
"G  c #482736",
"H  c #512A36",
"J  c #473836",
"K  c #423C3C",
"L  c #15472E",
"P  c #19422C",
"I  c #164B2D",
"U  c #194B2C",
"Y  c #17522B",
"T  c #19552C",
"R  c #175A2A",
"E  c #185C2A",
"W  c #154331",
"Q  c #184731",
"!  c #1B4931",
"~  c #294836",
"^  c #374639",
"/  c #35513F",
"(  c #45413D",
")  c #273555",
"_  c #443E41",
"`  c #573B43",
"'  c #453B66",
"]  c #3A5343",
"[  c #454243",
"{  c #4B4444",
"}  c #494C46",
"|  c #4D4649",
" . c #4E4A4C",
".. c #534944",
"X. c #534B4C",
"o. c #594D4D",
"O. c #4B5348",
"+. c #54514B",
"@. c #57564D",
"#. c #554D52",
"$. c #565153",
"%. c #5B5355",
"&. c #595B55",
"*. c #5B5B55",
"=. c #5D555A",
"-. c #654853",
";. c #625554",
":. c #695450",
">. c #625A55",
",. c #6A5A54",
"<. c #61565A",
"1. c #645B5C",
"2. c #685D5E",
"3. c #5D6056",
"4. c #66615B",
"5. c #6A625D",
"6. c #76665E",
"7. c #535073",
"8. c #655C62",
"9. c #695E62",
"0. c #6C5971",
"q. c #6C6264",
"w. c #6B6866",
"e. c #6D6469",
"r. c #726564",
"t. c #736A65",
"y. c #7A6A64",
"u. c #71666B",
"i. c #746A6D",
"p. c #7A6C6C",
"a. c #756B72",
"s. c #756F70",
"d. c #766B77",
"f. c #796D72",
"g. c gray46",
"h. c #7D7174",
"j. c #7E737A",
"k. c #841526",
"l. c #851528",
"z. c #8B1629",
"x. c #8C1729",
"c. c #93172B",
"v. c #93182C",
"b. c #9A192E",
"n. c #9E1A30",
"m. c #A31B32",
"M. c #AA1D34",
"N. c #B11E37",
"B. c #826E6D",
"V. c #84736C",
"C. c #837474",
"Z. c #897777",
"A. c #83757B",
"S. c #85797D",
"D. c #8A7B7C",
"F. c #927D79",
"G. c #97837F",
"H. c #4E5391",
"J. c #6B5D83",
"K. c #6C6786",
"L. c #7B6B86",
"P. c #7F7582",
"I. c #786A9A",
"U. c #7B7B99",
"Y. c #4E66B7",
"T. c #6F6DAC",
"R. c #7777A8",
"E. c #6C78BA",
"W. c #7677B6",
"Q. c #5876C7",
"!. c #5370C9",
"~. c #597AD9",
"^. c #6A78C7",
"/. c #6D74C8",
"(. c #6579D7",
"). c #5578E7",
"_. c #657EE5",
"`. c #857A83",
"'. c #877886",
"]. c #8B7D83",
"[. c #89728A",
"{. c #84789A",
"}. c #8777A4",
"|. c #807FD1",
" X c #7E839B",
".X c #6C80AB",
"XX c #7A83A9",
"oX c #6E85BA",
"OX c #7887B9",
"+X c #5D90DC",
"@X c #6B84CB",
"#X c #708ECE",
"$X c #7498C7",
"%X c #6787D8",
"&X c #7387D5",
"*X c #6898D6",
"=X c #5BA8DA",
"-X c #66ABD9",
";X c #5985E8",
":X c #5A9AE8",
">X c #4D87FF",
",X c #598AFA",
"<X c #4D99FE",
"1X c #5898FA",
"2X c #6788E7",
"3X c #6897E9",
"4X c #7794E7",
"5X c #668EF6",
"6X c #6797F6",
"7X c #5AA7E7",
"8X c #5EB0EE",
"9X c #4BA8FF",
"0X c #59A5FE",
"qX c #47BAFF",
"wX c #4BBBFF",
"eX c #56B7FA",
"rX c #6AA1EC",
"tX c #64A3FD",
"yX c #8E8085",
"uX c #8D828B",
"iX c #898B8A",
"pX c #928389",
"aX c #968688",
"sX c #8E8A99",
"dX c #978994",
"fX c #A28F90",
"gX c #8783A7",
"hX c #A596A0",
"jX c #F3F3F3",
/* pixels */
"L L I R Y L W L L W W W Y Y W L L I Y Y I I L L L L L L L L L L L L L L L L L L L L L W L I Y Y W W L L W W W Y I L L L I Y Y I ",
"I I I I Y L w W L L W W L I L L L I Y I L L L L L L L L L L L L L L L L L L L L L I Y I I I Y Y W W L L L W W I I L L L I Y Y L ",
"R R Y L Y L W L L L I L L L L L L L L L L L L L L L L L L L L L L L L I L L L L L I E E R I L Y W W L L L L L L L L L L L L L L ",
"L Y Y Y I W L Y Y Y Y L L L L L L L I L L L L L L L L L L L L L L L L L L L L L W W W L Y Y Y I W L Y Y Y Y L L L L L L L L L L ",
"I I I Y I L L Y Y I W L L L L L L L L L I I L L L L L L L I I L L I Y I I L L L Y Y I I I I Y L L L Y Y I W L L L L L L L L L I ",
"T Y L Y L L L Y Y L W I L W L L L L L L I Y L L L L L L L Y Y I L L Y I I L I L Y E E R Y I Y L L L Y Y L W L W L L L L L L L Y ",
"Y Y Y L L L L L L I Y Y W W L L L L L L L L L L L L L L W W Y Y I I Y W L L I W L I E Y Y Y L L L L L L I Y Y w W L L L L L L L ",
"Y Y Y L L L L L I Y I W W L L L L L L L L L L L L P 2 - - - - - - - - - 1 I I I W W R Y Y I L L L L L Y Y Y W W L L L L L L L L ",
"W L I Y Y Q W L I I I W L L L L L L L L L L L L P 2 z B D D D D F F F l.m 8 L L L W W W I I Y I L W L I I Q W L L L L L L L L L ",
"w W L Y Y Q W L I L L L L L L L L L L L L L L L t > S b.M.N.M.b.b.b.n.n.k.n t P L L w w W I T Y W W L L L L L L L L L L L L L L ",
"L L I Y L L L L L L L L L L L L L L L L L L P 2 z D b.M.M.N.z.x - x - - D v.c 2 P L L L L I Y I L L L L L L L L L L L L L L L L ",
"L L L L L L L L L L L L L L L L L L L L L P 2 n D v.M.M.M.z.z .   X     = F x.c , P L L L L L L L L L L L L L L L L L L L L L L ",
"L L L L L L L L L L L L L L L L L L L L L 0 : b c.M.M.m.z.z .             * k.k.n t P I L L L L L L L L L L L L L L L L L L L I ",
"L L L L L L L L L L L L L L L L L L L L L 9 > b c.m.M.x.x .                 * F v.c , L L L L L L L L L L L L L L L L L L L L L ",
"L L L L L L L W L I I L L L L I L L L L L > m F z.m.N.z.=                   o k.m.c 2 L L I L L L L L L L L L L L L L L Q L L L ",
"L L L L L L W W I Y I I L L I I I L L L L x F c.l.c.M.c.-   6 O.e       p  .a F c.c 2 L L L L L L W W I Y Y L L L I Y I L L L L ",
"L L L L L L L W L I Y I I L L I I L L L Y z D l.F k.b.v.-   w.jXs.      yXjX:.M v.c , I L L L L L L W I Y Y I I L L I L L L L Y ",
"L L L I L L L L L I Y Y I L L L L L L L Y z D V x D m.c.-   g.jXg.      sXjX:.M c.v 2 L L L L L L L L L I I Y I L L L L L L W R ",
"L L L L L L L L L L L L L L L L L L L L W x F N * D M.c.*   k iX]       @.iXH M k.x 2 I L L L L L L L L L L L L L L L L L L L L ",
"L L L L L L L L L L L L L L L L L L L L L z D b - F m.c.x X   .             & V F x , L L L L L L L L L L L L L L L L L L L L L ",
"L L L I L L L L L L L L W I Y I L L L L L t > z x k.c.c.c.v X               % V F x 2 L L L L L L L L L L L L L I I L L L L L L ",
"L L L L L L L L L I I I I Y R W L L L L L L , < 1 b D c.M.l.z X           o v V b 1 9 L L L L L L L L L I I I L R R W L L L L L ",
"L L L L L L L L L Y R Y I I I w L L L L L L L L P : v D F k.F z X       X v D m : P U L L L L L L L L L Y E Y I I I W W L L L L ",
"L L L L L L L L I W W Y Y I I L L L L L L L L L L P : - z V z.F z % % % v D b 1 P L L L L L L L L L L L W W R I I I W L L L L L ",
"L L L L L L I Y Y I I I Y I I L L L L L L L L L L 8 > m v D z.b.l.D D D x.v.B > 8 U I L L L L L L I Y Y I W I Y I W L L L L I L ",
"L L L L L L I R E R Y I I I L L L L L L L L L P 2 z D v.x.k.z.m.M.M.M.M.M.m.c.S z 8 P I L L L L L I E E E Y I Y I I L L L L L L ",
"I L L L L L W I R E R Y I L L L L W L L L L L 2 z D b.m.m.m.m.m.m.m.M.m.M.m.m.v.V n s L L L L L L L I E E E Y L I L L L L W L L ",
"L L L I L Y E I I I R Y Y I L L I T E I L L P 2 z F m.M.m.m.m.b.m.n.n.m.m.m.m.m.D z 2 I L L L L Y E I I Y Y Y Y I L L I R R L L ",
"L L L L W W I Y I I I Y Y Y L L Y Y Y L L L L 2 - F m.m.m.m.m.m.m.n.m.m.m.m.m.n.F x t L L L W W W I Y I I Y Y Y I L L Y Y I I L ",
"L L L L W W w I Y I Q Y Y Y L L Y I L L L ! ~ 2 x v.M.m.m.m.m.m.n.m.m.m.n.m.m.M.x.z t L L L L W W W Q Y I L Y Y I L L I I W L L ",
"L L L L W W w W W L L I I Y W W L ~ ] ~ ~ { J Z F m.M.m.m.m.m.m.m.m.m.m.n.m.m.N.c.z _ ] ~ ] ! W w w W W L L I I I L L L L L L L ",
"L L L L L W L Y R I Q Q L I ! ] O.>.w.} ..-.n b c.m.m.m.b.m.m.b.n.n.v.n.m.m.m.m.v.b A $.[ 8.8.O.] ! R Y I L L I L I L I L L L L ",
"I L L L L L L Y T / 4.*./ ^ 1.1.8.a.d.1.| <.C b c.m.m.m.n.m.m.m.m.v.l.b.m.m.n.m.m.z.v ;.| 1.f.a.1.%.h ~ &.&.~ L L L L L L L L L ",
"L L L L L L ! ] +.>.4.5.;.l $.d.j.P.`.'.e.` > b x.m.m.m.m.m.n.m.m.b.l.b.M.m.m.m.m.z.v  .i.8.%.d.`.%.h >.1.4.4.] ~ L L L L L L L ",
"L L L L L ~ *.4.;.+.%.1.a.f.=.$.a.d.e.9.%.o.5 v c.m.m.m.m.m.m.m.n.F S k.m.M.m.n.c.z.v  .8.a.8._ [ 1.S.a.8.=.>.1.*.O.L L L L L L ",
"I L L L L , } ( { >.q.j.].S.].dX1.=.q.y.L.J.G N z.m.m.m.b.n.m.m.v.b - S v.m.m.c.k.k.b B.,.8.=.#.e.S.D.yXS.p.1.{ X.@.9 L L L L L ",
"Y L L L L @.5.%...#.%.e.e.`.pXi.a.].G.OXeXG S k.k.z.b.n.z.b.n.z.z.N z S z.x.m.v.l.l.b =XoXP.6.8.q.j.S.C.Z.q.%.#.1.t.^ L L L L L ",
"Y I L P O.V.5.t.h.S.i.e.1.9.=.8.S.].*X0X:Xz D c.l.F z.c.c.c.c.z.F z o z D k.c.c.x.l.v +X%X2XXXt.1.$.8.t.f.C.S.a.i.i.t.@.L L L L ",
"Y Y P 4.6.q.q.e.].uX].dX]. .q.Z.C.oX3X6X_.z F z.F F k.z.n.z.l.D x X   % N x.l.D F z.b (.@XwX,XK.S.p.$.S.`.D.D.C.u.f.t.t.$.! L Y ",
"L L @.@...o.1.u.e.t.f.S.8.8.Z.iX3X3X0X6X,Xx F V x D z.k.z.l.D z X     o N x.x.v c F b ).%X7X*X1XoXZ.2.X.u.f.p.9.8.8.#. .+.@.! Y ",
"L / y.t.p.>.5.S.f.9.5.o.=.F.pXrX#XW.2X0XR.H Z z z F F B l.v.D *       X * B z.F N b A >X<XT.E.2X@X'.D.=.o.f.`.`.].i.8.a.9.%.~ U ",
"P 4.p.p.p.,.r.i.f.f.S.;.8.F.OX0X4X|.rX%X[.[.' = x S Z C D l.V = o e @   X z S l.S C -.T.wX9X>X;X%X}.].r.u.dXpX].].p.=.8.9.q.>.! ",
"~ ..@.1.<.X.%.<.=.<.=.[ q.Z.R.7X*X/.:XQ.'.}.E.' z c -.9.C z z = { Z.9.$ X = z - A J.d.J.*X8X/.&X:XR.F.f.#.q.9.9.q.<. .=.h.w.%./ ",
"( ( o.=.#.j X.w.9.%.X.{ q.C. X%X@X%X:X:X{.S.}.Q.H.-.B.r.: X > ` 1.a.h.=.4 % ` 7.H.Q.J.0.E.&XW.2X1X XV.p.%.f.e.9.1.#._ <.i.5.@.( ",
"*.t.f.a.<.l | u.h.S.j.X.X.C.U.6X:X+X(.9X(.L.L.^.7X%X}.y.a   a A.A.9.i.B.J + Y.).).).0.0.,X)./.rXtX XG.6.p.hXdX].j.%.l q.u.i.q.3.",
"@.5.e.9.8...{ { { X.=.=. .q.B.E.%XoX%X1X,X_.I.R.[.E.@X@XK.4 4 `.].'.0.E.) O H.I.,X!.J.;X<X<X3X4X{.F.dX$.8.1.9.u.e.K k 2.q.a.w.@.",
"] X.$.#.%.{ j %.%.X.=.f.u.{ r.`.:XwXwXW./.5X_.2XW.W./.^.!.q O !.5X6XrX1X)   ' ).;XT._.5X&XrXtXXXpXyX=.8.f.9.1.p.<.e k =.9.1.>.O.",
"^ | #.#.%.#.r l A.S.i.p.h.[ { y.B..X1X@X-X6X(.^.&X_.W.U.(.(.(.%X(./.U.{.I.E.).)./.,X5X4XtXrXsXaXdX#.[ `.yX].].D.l $ X.<.=. .%.^ ",
"^ 6.t.t.u.q.| @ K f.u.#.=.9. ._ q.Z.R.0XeX3X#X1X2X&X#X&XI.I.R.I.R.@X@X2X,X,X~.5X%XQ.qXqX;X'.F.j. .<.a.e.=.f.pX .# k 1.q.i.t.t.h ",
"t ..2.q.f.u.%.p ; a %.i.a.S.j.q...| r.uX{.@X*X3X&XeX0X(.^.~.2X<X9X1X9X<X/.&XeXeXtX3X%XT.j.,.| _ 9.S.A.f.A.j._ + e X.#.%.2.p.{ , ",
"P ( <.X. .#..._ a + a =.j.Z.yXZ.y.9.%.{ <.C.y.j.XX$X6XE.+X1X2XqX,X(.0X0X5X4X6X*XOXgXC.o.K { $.| <.S.A.'.S.| @ e { <.%.K K ..p 7 ",
"0 h K +. .8.e.q.X.y @ < ..p.6.V.].aXB.1...[ 1.9.:.6.U. XXXOX$X$XOXOXOXXXXXU.d.r.6.;._ $.8.j.].9.o.%.a.%.p # u =.p.C.i.2.,.y , L ",
"W g y ( >.w.p.q.%.$.p O e a ..V.G.G.].].$.8.f.8. .@.;.,.%...o.<.X.#.o.o.o.;.#.[ #.8.=.=.].].'.uXa._ e 3 + f <.C.D.h.t.6.{ $ 8 L ",
"P Q i y j 1.t.=. .[ [ _ a e 1 J ( ,.V.>.a.sXuXdXfXw.=.S.u.%.=.#. .#.%.%.$.#.u.`.S.].dXe. .e.=.k u O O f _ | ..r.p.p.,.d ; 6 L L ",
"L L P a y d ( l _ %.q.e.=.l d 1 : < < l a.g.a.uXuX=.`.hXdXpXpXj.d.`.'.uXuXd.1.'.`.i.q.1.p $ + O $ u _ =.i.a.9.{ ( ( a ; u P L L ",
"L L L P t y X.5.4.*.q.e.a.t.%.d a d ; ; , e j { [ k 8.9.r.a.`.d. .8.8.8.=.=._ _ { j e $ @ + u p f 8.h.a.u.q.q.q.5...r i P L L L ",
"L L L L L 7 K =.w.t.>.5.h.1.l #.1.1.#.K a e 6 e + O $ $ u y e e 3 u e 3 3 e + e e # u a j _ #.8.$. .=.9.,.>.*.$...h i L L L L L ",
"L L L L L 9 @ r h X.5.5.( ( 1.a.u.e.a.i.2.j l k r e p r @ + @ # 3 e u u p a u j K k a 1.9.<.9.i.i.<.[ l *.;.K e @ e 0 L L L L L ",
"L L L L L P , r y e k a + j { +.>.w.p.p.{ X.C.p.q.q.4.=.k %.1.=.=.%. .j %.1.q.q.e.i.X.{ <.2.t.5.>. .K # d y # < e i U L L L L L ",
"L L L L L L L 9 s y r @ + ; e y r K o._ { C.D.D.D.C.`.8.#.].].j.h.u.e.| 8.t.e.a.p.p.5.K K { K y p e 3 @ e @ e p 0 ! I L L L L Y ",
"L L L L L L L L L 0 t 6 8 e e e e $ @ @ { ..{ | +.>.t.| ..p.t.t.1.*.w.1. .*...{ K j j a e ; 3 e u 4 6 8 e , 0 L L L L L L L L Y ",
"L L L L L L L L L L L L L P P 8 i i y ; < y t e e y p y p r e p f f ( k $ e p r e 3 $ , < e e e 8 0 L W L L L L L L L L L L I I ",
"L L L L L L L L L L L L L I L L L P 8 7 7 e e u y y y $ e ; + @ $ 4 u 3 # e r e e p p i 7 9 L L L L L L L L L L L L L L L L L L ",
"L L L L L L L L L L L L L Y Y L L L L L L L 0 P P g s 8 8 u e t i e u i 7 i 8 0 0 P ! L L L L L L L L L L L L L Y Y L L L L L L "
};
