/* XPM */
static char *result[] = {
/* columns rows colors chars-per-pixel */
"64 64 221 2 ",
"   c #0E0E0F",
".  c #151516",
"X  c #1A1916",
"o  c #181718",
"O  c #1C1B1B",
"+  c #211E1E",
"@  c #1A241E",
"#  c #25211D",
"$  c #1E1B20",
"%  c #211F20",
"&  c #1E2723",
"*  c #1C2E24",
"=  c #1B3326",
"-  c #193627",
";  c #1B3D2B",
":  c #143D34",
">  c #242323",
",  c #292625",
"<  c #242B25",
"1  c #2A2826",
"2  c #2A2729",
"3  c #242C29",
"4  c #2D2A2B",
"5  c #312D2D",
"6  c #25362B",
"7  c #35302C",
"8  c #322E31",
"9  c #283D33",
"0  c #363333",
"q  c #393434",
"w  c #393A36",
"e  c #3B363A",
"r  c #3E3A3B",
"t  c #433B36",
"y  c #423C3C",
"u  c #15472E",
"i  c #19432D",
"p  c #164B2D",
"a  c #184A2D",
"s  c #17522B",
"d  c #19552C",
"f  c #175A2A",
"g  c #185C29",
"h  c #154331",
"j  c #164830",
"k  c #1C4932",
"l  c #2B4435",
"z  c #224A35",
"x  c #2A4A38",
"c  c #394339",
"v  c #334C3B",
"b  c #35513F",
"n  c #45413D",
"m  c #443E41",
"M  c #3E4E41",
"N  c #3A5343",
"B  c #454244",
"V  c #4B4444",
"C  c #4B4D46",
"Z  c #4D4649",
"A  c #4E494B",
"S  c #534A45",
"D  c #584944",
"F  c #534B4C",
"G  c #594D4D",
"H  c #455245",
"J  c #4B5349",
"K  c #54524B",
"L  c #5A524D",
"P  c #54594D",
"I  c #554D52",
"U  c #575153",
"Y  c #5B5355",
"T  c #565B51",
"R  c #5B5C55",
"E  c #5D555A",
"W  c #5F595A",
"Q  c #6A564E",
"!  c #635554",
"~  c #625A54",
"^  c #6A5A54",
"/  c #60565A",
"(  c #645B5C",
")  c #695D5D",
"_  c #5D6057",
"`  c #65615B",
"'  c #6B625D",
"]  c #76665E",
"[  c #5F5865",
"{  c #655C62",
"}  c #695E63",
"|  c #69586D",
" . c #6D5C75",
".. c #6C6264",
"X. c #6E6867",
"o. c #6D6469",
"O. c #716465",
"+. c #736A65",
"@. c #7B6B65",
"#. c #71666B",
"$. c #7A6669",
"%. c #74696D",
"&. c #7A6C6B",
"*. c #7B716F",
"=. c #6A6779",
"-. c #756B72",
";. c #7A6E72",
":. c #766978",
">. c #7D7174",
",. c #7D737B",
"<. c #836D6B",
"1. c #83736D",
"2. c #89736B",
"3. c #816F71",
"4. c #837474",
"5. c #8A7776",
"6. c #82757B",
"7. c #85797D",
"8. c #8B7B7C",
"9. c #937D76",
"0. c #917D7C",
"q. c #97837F",
"w. c #5C5A90",
"e. c #6A5784",
"r. c #6D6A86",
"t. c #796B87",
"y. c #7F7582",
"u. c #676497",
"i. c #776B99",
"p. c #6F7493",
"a. c #7A7A97",
"s. c #5E5EA9",
"d. c #5D6AB7",
"f. c #6868A8",
"g. c #786EA4",
"h. c #6B72A8",
"j. c #7877A8",
"k. c #686CB8",
"l. c #716EB6",
"z. c #6877B8",
"x. c #6C7ABC",
"c. c #7577B5",
"v. c #5E6ACA",
"b. c #5A73C9",
"n. c #596DD6",
"m. c #5A78D8",
"M. c #6A6EC9",
"N. c #6877C8",
"B. c #717AC6",
"V. c #637BD3",
"C. c #677AD8",
"Z. c #4D7AEE",
"A. c #5779E3",
"S. c #567CF2",
"D. c #647EE4",
"F. c #627FFF",
"G. c #806A85",
"H. c #847A83",
"J. c #8B7D83",
"K. c #887886",
"L. c #917C88",
"P. c #867A9A",
"I. c #857CA4",
"U. c #807FD1",
"Y. c #7E839B",
"T. c #6C80AB",
"R. c #7983A9",
"E. c #6E86B9",
"W. c #7887B9",
"Q. c #5880C9",
"!. c #5D8ADC",
"~. c #5C91DE",
"^. c #6B84CB",
"/. c #7485C8",
"(. c #7498C7",
"). c #6B83D5",
"_. c #6787D8",
"`. c #7387D5",
"'. c #6D97D2",
"]. c #6697D8",
"[. c #5BA8DA",
"{. c #66ABD9",
"}. c #4B8EE6",
"|. c #5C83E4",
" X c #5485EA",
".X c #5998E8",
"XX c #4D82FF",
"oX c #4D8AFE",
"OX c #5D86F3",
"+X c #5589FF",
"@X c #5A89F9",
"#X c #4D99FE",
"$X c #5897F9",
"%X c #5A9CFF",
"&X c #6689E8",
"*X c #6997E8",
"=X c #7594E5",
"-X c #6489F7",
";X c #6696F6",
":X c #5AA8E9",
">X c #5EB0EE",
",X c #4BA8FF",
"<X c #56A7FD",
"1X c #5DA1FC",
"2X c #47BAFF",
"3X c #4BBBFF",
"4X c #52B3FE",
"5X c #56B8FA",
"6X c #6AA1EC",
"7X c #64A4FE",
"8X c #51C3FF",
"9X c #8E8185",
"0X c #8D828B",
"qX c #928389",
"wX c #968688",
"eX c #8C869A",
"rX c #958993",
"tX c #988894",
"yX c #A28F90",
"uX c #8783A7",
"iX c #A596A0",
/* pixels */
"u u p f s u h p u h h h p s u u u p p s s p u h : u u u u u u u u u u u u u u u u u u u u p f s u h u u u : h s p u u u p s s p ",
"p p p p s j : u u u u : u p u u u p s p p u u u p u u u u u u u u u u u u u u u j p p p p p p s j : u u u j : p p u u u p p s p ",
"f f s u p u h u u u p u u u u u u u u u u u u u u u u u u p u u u u u u u u u u u p g g f s p s j : u u p u u u u u u u u u u u ",
"u s s s p u j s s s p p u u u u u u u u u u u u u u u u u u u u u u u u u u u p u h h p p s p p u p p s s p u u u p u u u u u u ",
"p p p d u u u s s p j u u u u u u u u u p p u u u u u u p p p p u p s p p u u u s s p p p p s u u p s s p j u u u u p u u u u p ",
"f p u s u u u s s j h u u j u p u u u u p p u u u u u u p s s p u p s p u u u u s f g f s p p p u u s p j h p j u u u u u u u s ",
"d s s u u u u u u u s s h : u u u u u u p p u u u u u u : h s s p p s : h p u u u p g s s s u u u u u p p s s : : p u u u u u u ",
"s s s u u u u u s s s : h u u u u u u u u u u u u u u u u h h p s p u u p s p p : j f s s p u p u u u p s p h h u u u u u u u u ",
"h p p p s u h u u p p j j u u u p u u u u u u u u u u u u u j u p p u p s s j u h h h h p p p p h h u p p p h u u u u u u u u u ",
": j u s s j : u u u u u u u u u u u u u u u u u u u u u u u u u u u p s p p : u u u : : h p s s h h u u u u u u u u u u u u u u ",
"u u u s p u u u u u u u u u u u u u u u u u u u u u u u u u u u u u u u u u u u u u u u u p p p u u u u u u u u u u u u u u u u ",
"u u u p u u u u u u u u u u u u u u u u u u u u u u u u d s u u u u u u u u u u u u u u u p p u u u u u u u u u u u u u u u u u ",
"u u u u u u u u u u u u u u u u u u u u u u p s s s p p d s p j u u u u u u u u u u p u u u u u u u u u u u u u u u u u u u u u ",
"u u u u u u u u u u u u u u u u u u u u u u u s g g s p p s s : : u u u u u u u u u u u u u u u u u u u u u u u u u u u u u u u ",
"u u u u u u u u u u u u u u u u u u u u u u h : s f s s p p s h u p u u u p u u u u u u u u u u u u u u p u u u u u u u u u u u ",
"u u u u u u j : p s s u u u u s p u u u u h : : j p s s u u u p p s p p u u u u u u u u u u u u u h h p s p u u u p s p u u u u ",
"u u u u u p u h u p s p u u u p p u u u s s s j u u p s u u s s d p u : u u u u u u u u u u u u u u h p s s p u u u p p u u u s ",
"u u u u u u u u u p s s u u u u u u u u s g g s s u u s p p s s p j : : h p u u u u u u u u u u u u u u p s s u u u u u u u u s ",
"u u u u u u u u u p u u u u u u u u u u u s g s s p u u u p s s j : : j u u u u u u u u u u u u u u u u u u u u u u u u u u u u ",
"u u u u u u u u u u u u u u u u u u u u p p p s s s u u u u u p p p p h : : u u u u u u u u u u u u u u u u u u u u u u u u u u ",
"u u u u u u u u u u u u u p d u u u u u u u u p u u u p p p p p s s j : : h u u u u u u u u u u u u u u u u u h p s u u u u u u ",
"u u u u u u u u u p p p u s f u u u u u u u u u u u u s s p p p s j : : u u u u u u p u u u u u u u u u u p p u s f h u u u u u ",
"u u u u u u u u u p g s p u p : j u u u u u u u u h : s p p u u u u u u u u u u u u u u u u u u u u u u s f s u p p h h u u u u ",
"u u u u u u u u u j j s s p u u u u u u u u u u u u u u u u u u u u u u u u u u u p p u u u u u u u u u h j s s p p u u u u u u ",
"u u u u u u u s s s h p s p p p u u u u u u u u u u p u u u u u u u u u u u u u u u u u u u u u p p s s p j p s p u u u u u u u ",
"p u u u u u u f g g s p p p u u u u u u u u u u u u u u p u h u u u u u u u u u u u p p u u u u u p g g g s p p j u p u u u u u ",
"p u u u u u p j f g g s p u u u u p u u u u u u u u : p s p : j u u u u u u u u u p s u u u u u u u u f g g s p p u u u u u u u ",
"u u u u j s f s p s s s s p u u p s d u u u u u u p p s j : j u u u u u p u u u u u p u u u u u s f s p s s s s p u u p s f u u ",
"u u u u h j p s s p p s s s u u s s s u u u u u u u s s j h j u u u j j u u u u u u u u u j j h j j s s p p s s p u u s f p u u ",
"u u u u : : : p s p u s s p u u p p u u u k z z z v M l c T K J T W R N x H v z z z z u u j j h : : p s p u s s p u u p p h u u ",
"u u u u u h : : h u u u s s u u p z N x l S ~ ..( Y #.-.-.%.%.W ;.,.%.O.O.) Y ....' W M l N k j h : h j p u u s p u u u p u u u ",
"u u u u u h u s s p j u u u z v J R X.C V } o.%.%.F ! >.>.;.>.U { -.;.4.J.( Y 7.>...o.U B W o.J l k d p p j u p u p u u u u u u ",
"u u u u u u p s d b ` T N c ` ( ..%.:.E Z ..o.o.#.A e Y U G R V G ) ) ' ( B E ;.7.6.;.E A ( >.-.{ T q x T T x u u p u u u u u u ",
"u u u u u u k N K ~ ` ' Y r U -.,.y.H.L.o.F V S D S Y Y E [ =.=.r.=.=.X.Y ! ! D S Y V A %.{ U -.7.Y e R ) ` ` H z u u u u u u u ",
"u u u u u x R ) ! L ! ( -.-.E U o.:.o.{ E ! #.t.p.E.).*X7X@XM.OX4X].;X$XE./.Y.=.~ Q D A { -.{ B V ( 6.-.{ W ~ ( R J i u u u u u ",
"p u u u p @ C n V ~ ..,.J.7.J.rX{ E O.+.6.c.=X7X8X4Xz.M.,X,X~.,X,X|.+X|.l.<X4X^.R.E.j.<.^ { E I o.4.J.J.7.%.) V F U - u u u u u ",
"p p u p u P ' L F I Y o.%.7.qX%.=.8.q.W.5X4XQ.!.%X+X@X XZ.}..Xb.z.N.l.g.V.<X.Xz.1X$X<X[.E.y.] ( ..,.7.5.5...U I ( +.c u u u u u ",
"s p u i P 1.' #.>.6.%.o.{ { E { 8.9X'.<X;X>X|.n.-XF.OXd.w.e.w.f.f.h.j.c.B.f.u.m.S.N..X]._.*Xj.X.( U ( #.%.4.8.-.%.%.@.P u u u p ",
"a s i T ] ' ..#.J.9XH.rX9XA ` 4.5.E.6X;Xm.S.v.n.S.k.i.j.'.~.oXoX+X+X&XF.).h.n.n.d.n.A.V.^.3X@Xr.7.$.U 6.J.J.8.>.%.-.%.O.P k u p ",
"a a P L V G ) #.o.%.*.7.( { 5.eX*X.X7X;X+Xf.f.@Xs.f.&X;X&Xz.u.r.a.t.i.l.V.m.k.i.c.m.Z.A._.:X].$XE.8.) I o.;.&...( { F A G T u s ",
"u v +.+.&.~ ) 7.-.O.) F E 0.rX6X`.W.OX7Xj.t._.C.f.OXf.=.;.<.$.<.4.5.2.$. .u.m._.j.:.u.oX#Xk.l.*XE.K.8.Y G ;.H.7.9X#.{ %.} Y l p ",
"a ' &.&.&.) O.&.-.;.8.! ( 0.W.<X=XU.6X&XK.P.-X@X-Xg.%.o.} :.-.-.4.0.0.3.] } k.#X$Xu.G.f.2X,XoX|._.j.wXO...tX0XqX9X%.E { ..' ` k ",
"l V L ) ( F Y ( E / / B ..5.R.[.].M.*Xz.L.P.C. XM.K.6.,.:.:.{ } 4.J.8.;.%...| b.}.k.:.:.'.>XM.`.$Xj.0.-.F O.} } ../ A E >...Y v ",
"n V K Y F 0 F ..} Y I m ..3.j.`.N.Q.:X.XP.8.P..X.XeX8.L.H.y.,.{ } -.6.,.;.$.:.b.m.V.e. .B.`.c.&X.XY.2.&.Y ;.o.{ ( I m / %.) K H ",
"T +.-.-./ r V O.>.7.4.I F 4.a.;X.X~._.,Xn.i.G.B.:X=XI.9.9XL.0X9X6.} %.<.<.P.@XA.m.XX|  . XS.c.6X7XuXq.' &.iXtX0X,.U y } #.%..._ ",
"P ..O.} } F B Z B F E Y C ..4.x.^.E._.+X@XD.i.g.G.c.V./.R.rXtXtXL.H. .z.^.OXN.i. Xb.e.&X#X#X*X=XP.9.tXY { ( } #.| m e } ..-.X.T ",
"M G Y I Y B 0 Y Y I Y &.#.B O.H..X3X3Xc.B.@X&X&Xc.c.M.B.D.-X_.-X-X;X6X$Xb.w.w.A.|.l.D.;X`.6X7XR.qXqXE { ;.) ( %.^ > e Y ..( ~ J ",
"c C I U Y I 2 t 6.7.-.;.4.B V $.<.T.%XB.{.;XC.x.&X).c.a.V.V.V._._.M.a.P.i.M.Z.S.N.@X;X].7X;XeXyXrXI B H.9XJ.9X8.r $ I R Y A L c ",
"w ' +.#.#...V . t ,.#.U E o.F m ..5.j.1X5X*X`.1X&X).'.`.i.i.j.i.j.^.).&X@X+XC.;X).b.3X2X.XH.9.>.A E -.o./ ;.qXZ o e ( ..%.+.+.w ",
"3 K ' ..;.#.Y 5 # 4 Y -.-.,.;.} S V O.0Xa.^.].].`.4X<XC.N.C.&X#X#X<X,X#XN.B.5X3X7X*X_.h.:.^ Z B } 7.7.%.6.,.B . , F I U ) &.C o ",
"i n ^ F A I G y 5 . 5 Y ;.0.wX4.$...Y V / 4.<.>.R.E.*XB.~.+X&X2X XV.%X<X;X=X;X'.W.uX6.G t V I Z / 7.6.J.6.Z o > B / Y m r S 4 = ",
"i 0 r K F ( ..o.F 1 X # Z &.] 1.8.wX3.( F B E ..Q ] a.uXR.W.(.(./.W.W.R.R.P.:.O.] ! m I { 6.9X| U Y :.U 4 o 2 ! &.4.$.' ~ 4 O u ",
": 9 , y ) X.-.o.Y U 4 . , 7 n 2.q.q.8.9XE { ;.{ J L ! ^ Y G U ! L F G G G Y G B I { [ E L.0XH.J.%.y % $ . 8 / 4.J.4.+.] V O = u ",
"u u < , w ~ +.Y A m m m 5 > # t n ^ 2.~ =.rX0XrXyX%.R y.o.U Y I A U Y Y E I o.H.7.J.rX..A o.E e 2 . . 8 m V G O.@.@.~ 5 # & u u ",
"u u i 7 1 7 n w B Y o.#.E t 7 7 + # # t %.:.-.9X0XW H.iXtXqXrXy.=.H.L.0X0X:./ J.J.%.o.( 4 O o   $ 2 m / -.-.} n y S 5 + 4 i u u ",
"u u u i < # G ..( R ( #.%.#.Y 7 7 q O O @ < e V B e ( ..O.%.6.-.I [ { [ E E m m B q > o o o 2 4 8 { :.-.#.......' V , < i u u u ",
"u u u u u * y Y X.X.~ ' >.{ r I ( ( I t 5 > & > .   O O , , , > O 1 , $ % > . % % o 2 5 q m I { U Z / } ~ ~ ~ Y V q 3 u u u u u ",
"u u u u u - X < e K ' ' n y ' %.%.o.%.%.' e r q < , 4 , O . o X & , , , 5 4 4 0 m q 5 ) } / { %.-.( m r ~ ! t % O > - u u u u u ",
"u u u u u i @ 1 < # t 5 . q V G ( ..&.%.V I 4.&.O.} ' Y e Y E E E Y Z q Y ( } ....-.F B / ( +...W C y o 7 4 o + , 3 a p u u u u ",
"u u u u u u j - 6 1 > o . O > , , t L y B 4.7.8.8.4.H.( I J.J.,.;.#.o.Z { #.o.;.*.&...t t V t 4 2 , O X > o > 6 ; a a u u u u s ",
"u u u u u u u u u ; * & = > > > > + X O B C V V K Y +.A G +.+.+.~ W #.( A Y S n y e 7 5 , % % > , % & * > @ ; u u u u u u u u s ",
"u u u u u u u u u u i i p u ; = < < , + # 1 , , , 2 4 1 5 , > 4 5 0 n e + , 5 , > O O & + % < & = ; h j u i u u u u u u u u u u ",
"u u u u u u u u u u u u u p u u u u = * < > , , 4 < 1 O > + o o $ $ , $ o > , , , 4 4 3 * = i u u u u u u u p u u u u u u u u u ",
"p u u u u u u u u u u u u s s u u u u u u u ; i i 6 6 = * < < > < < > 3 = 3 - - ; ; u u u k u u u u u u u u u p s s u u u u u u "
};
