/* XPM */
static char *result[] = {
/* columns rows colors chars-per-pixel */
"64 64 240 2 ",
"   c #0F0F0F",
".  c #151516",
"X  c #191817",
"o  c #1C1B1B",
"O  c #211E1E",
"+  c #0C241E",
"@  c #0D2A1B",
"#  c #1B271E",
"$  c #122B1C",
"%  c #0F331B",
"&  c #13341D",
"*  c #23241D",
"=  c #27311F",
"-  c #1E1B20",
";  c #211F20",
":  c #1A2A22",
">  c #1B2D23",
",  c #183626",
"<  c #1C3425",
"1  c #1D3B26",
"2  c #1B3D2A",
"3  c #143E34",
"4  c #252323",
"5  c #292625",
"6  c #242C23",
"7  c #2B2B24",
"8  c #2A2729",
"9  c #252C29",
"0  c #2D2A2B",
"q  c #312D2D",
"w  c #3B2D28",
"e  c #233424",
"r  c #2A3325",
"t  c #263629",
"y  c #233E2C",
"u  c #2B3C2C",
"i  c #383325",
"p  c #34322B",
"a  c #3C332A",
"s  c #343B2D",
"d  c #3B3B2E",
"f  c #322E31",
"g  c #263C33",
"h  c #373733",
"j  c #393434",
"k  c #3B363A",
"l  c #3E3A3B",
"z  c #462E2A",
"x  c #44332B",
"c  c #4C342E",
"v  c #44392D",
"b  c #52332F",
"n  c #56362F",
"m  c #452D31",
"M  c #483534",
"N  c #443B32",
"B  c #423C3C",
"V  c #573735",
"C  c #66343B",
"Z  c #1D4627",
"A  c #15472E",
"S  c #1A422C",
"D  c #164B2D",
"F  c #194B2C",
"G  c #17522B",
"H  c #1A542A",
"J  c #175A2A",
"K  c #185C2A",
"L  c #154331",
"P  c #184731",
"I  c #1B4931",
"U  c #24422E",
"Y  c #2A422C",
"T  c #264B2B",
"R  c #35442C",
"E  c #245228",
"W  c #284835",
"Q  c #384538",
"!  c #35513F",
"~  c #45423D",
"^  c #4D473F",
"/  c #534137",
"(  c #443E41",
")  c #4D3C42",
"_  c #5A3F41",
"`  c #6C3B43",
"'  c #793D46",
"]  c #3A5343",
"[  c #454244",
"{  c #4A4444",
"}  c #494D45",
"|  c #4D464A",
" . c #4E494B",
".. c #574745",
"X. c #534C4C",
"o. c #594D4D",
"O. c #4B5348",
"+. c #54514B",
"@. c #57564D",
"#. c #554D52",
"$. c #575153",
"%. c #5B5355",
"&. c #5A5B55",
"*. c #5D555A",
"=. c #624B4D",
"-. c #6A4849",
";. c #6E4C4D",
":. c #664C53",
">. c #625453",
",. c #6A5657",
"<. c #625A55",
"1. c #61575B",
"2. c #645B5C",
"3. c #6A5D5D",
"4. c #75575C",
"5. c #5D6056",
"6. c #66615B",
"7. c #6A625D",
"8. c #76665E",
"9. c #53516B",
"0. c #655C62",
"q. c #6A5F63",
"w. c #6C5B6C",
"e. c #785C65",
"r. c #6D5474",
"t. c #665A74",
"y. c #6C6264",
"u. c #6E6865",
"i. c #6D6469",
"p. c #716565",
"a. c #736A65",
"s. c #71666B",
"d. c #7B6768",
"f. c #746A6D",
"g. c #7A6C6C",
"h. c #7B716F",
"j. c #6B6375",
"k. c #756B72",
"l. c #766877",
"z. c #7A6E72",
"x. c #7D7175",
"c. c #7D737B",
"v. c #823C48",
"b. c #824D54",
"n. c #864C56",
"m. c #835864",
"M. c #83696C",
"N. c #8B686E",
"B. c #85736C",
"V. c #837474",
"C. c #8A7776",
"Z. c #82757B",
"A. c #85797D",
"S. c #8B7B7C",
"D. c #927D7A",
"F. c #97837F",
"G. c #395FAF",
"H. c #5A568A",
"J. c #515890",
"K. c #695683",
"L. c #675D96",
"P. c #746D85",
"I. c #786987",
"U. c #6A6799",
"Y. c #786A99",
"T. c #7A7998",
"R. c #5959A8",
"E. c #5368B1",
"W. c #5875B1",
"Q. c #6869A8",
"!. c #7271A3",
"~. c #7776A9",
"^. c #696BB7",
"/. c #716DB4",
"(. c #6A77B9",
"). c #7576B6",
"_. c #5867C5",
"`. c #5874C9",
"'. c #496FD1",
"]. c #5879D9",
"[. c #6979C7",
"{. c #6D74C8",
"}. c #6579D7",
"|. c #5779E5",
" X c #5279ED",
".X c #647EE4",
"XX c #877685",
"oX c #8B7687",
"OX c #847A83",
"+X c #8B7D83",
"@X c #867A9A",
"#X c #857CA4",
"$X c #807FD1",
"%X c #7E839B",
"&X c #5E82BE",
"*X c #6D83AA",
"=X c #7A83A9",
"-X c #6E85BA",
";X c #7887B9",
":X c #5684D1",
">X c #5C88D8",
",X c #5893DD",
"<X c #6A85CA",
"1X c #7292CD",
"2X c #6886D8",
"3X c #7387D5",
"4X c #6798D7",
"5X c #5BA6D7",
"6X c #66ABD9",
"7X c #5986E7",
"8X c #4890E0",
"9X c #5A98E8",
"0X c #4D87FF",
"qX c #5989F7",
"wX c #4D99FE",
"eX c #5898FA",
"rX c #6687E6",
"tX c #6997E8",
"yX c #7794E7",
"uX c #6489F7",
"iX c #6797F6",
"pX c #56ACEF",
"aX c #59A8EA",
"sX c #4BA7FF",
"dX c #58A7FD",
"fX c #47BAFF",
"gX c #4BBBFF",
"hX c #55B8FC",
"jX c #6AA1EC",
"kX c #64A3FD",
"lX c #51C1FC",
"zX c #8E8185",
"xX c #8D828B",
"cX c #928389",
"vX c #968688",
"bX c #8C869A",
"nX c #978893",
"mX c #A28F90",
"MX c #8783A7",
"NX c #A596A0",
/* pixels */
"A A D J D D L L A L L L G G A A A D D G G D A S L A A A A A A A A A A A A A A A A A A A L D J G L L A A L L L G D L A A D G G D ",
"D D D D G D 3 L A A L L A D A A A D G D D A A A A A A A A A A A A A A A A A A A A D G D D D D G L 3 A A A L L D D A A A D G G A ",
"J J G A G D L A A A A A A A D L A A A A A A A A A A A A A A A A A A A A A A A D A D K K J G A G L L A A A A A A A A A A A A A A ",
"A G G G D L A G G G G A A A A A A A A A A A A A A A A A A A A A A A A A A A A A L L L A G G G A L A G G G G A A A A A A A A A A ",
"D D D G A A A G G D L L A A A A A A A A D D A A A A A A D D A A A D D G D A A A G G D D D D G A A D G G A L L A A A A A A A A G ",
"H G D G A A A G G D L D A L A A A D A A D D A A A A A F A G G F A D G D A A A A G J K J G D G A A A G G D L D L L A A A A A A G ",
"G G G A A A A A D D G G L L A A A A A A D A A A A A < * 9 2 S = = 6 e 4 1 A A A A D K G G D A A A A A A D G G L L A A A A A A A ",
"G G G A A A A A D G D L L A A A A A A A A A A A A A 0 7 e 2 u x x a x z r F G D L L J G G G A A A A A G G D L L L A A A A A A A ",
"L A D G D A L A D D D L D A A A A A A A A A A A S y a u U u v b c n b c x = S A A L L L A D D G L L A D D A L A A A A A A D A A ",
"L L A G G A L A A L A A L A A A A A A A A A A , 7 a Y U U N x 7 r 7 r r v c > 2 A A 3 3 A D G G A L A A A A A A A A A A A A A A ",
"L A D G D A A A A A A A A A A A A A A A A S 1 r a s d N N x 7 $ $ $ $ $ 7 x z r 1 A A A A D G A A A A A A A A A A A A A A A A A ",
"A A A A A A A A A A A A A A A A A A A A A S 6 z s U c n c r @ @ @ @ @ @ $ 6 c x < A A A A A A A A A A A A A A A A A A A A A A A ",
"A A A A A A A A A A A A A A A A A A A A A Z 6 a R T n N T & @ @ @ @ @ @ @ @ 6 s 2 S A A A A A A A A A A A A A A A A A A A A A A ",
"A A A A A A A A A A A A A A A A A A A A A S e x R E n R Z & @ + + @ @ @ @ @ * d s e A A A A A A A A A A A A A A A A A A A A A A ",
"A A A A A A A A A A D L A A A D A A A S 2 S 2 f d E / R 2 $ @ + + @ @ @ @ $ * x b 7 1 A A A A A A A A A A A A A A A A A A A A A ",
"A A A A A A L L D G G A A A A G A A A r w p g a i Z E R 6 @ @ % @ @ @ @ $ $ # c c 7 2 A A A A A A L L D G G A A A D G D A D A A ",
"A A A A A A A L A G G D A A A D D A A S y T U t t s T Y e @ % Z % % @ + 1 , * d u 1 A A A A A A A A L D G G D A A D D A A A A G ",
"A A A A A D A A A D G G D A A L A A A A F H E Z e x u T Z & % & % + + + : $ = u 2 S S A A A A A A A A A D G G A A A A A A A L J ",
"A A A A A A A A A A A A A A A A A A A A & U J & i i Y U U S & @ + + + + @ @ 6 u y e 2 A A A A A A A A A A A A A A A A A A A A A ",
"A A A A A A A A A A A A A A A A A A A A y Z Z Z i a U u N U 2 @ @ @ @ + + + # p a 6 Z A A A A A A A A A A A A A A A A A A A A A ",
"D A A A A A A A A A A A A D G A A A A A A A S Z t i u s v Y r $ % @ @ + $ : 7 i p e S A A A A A A A A A A A A A D D A A A A D L ",
"A A A A A A A A A A D D A G K L A A A A A A A A 2 9 a Y Z a a e % @ + + # 7 z u A A A A A A A A A A A A D D D A J J L A L A A A ",
"A A A A A A A A A G K G A D G 3 A A A A A A A A A , 6 = 1 i z w > : : , e a y S A A A A A A A A A A A A G J G D D D L L A D A D ",
"A A A A A A A A A L L G G G D L A A A A A A A 2 S S r w w x x d a w p U s b u 2 A A A A A A A A A A A A L L G G D D L A A A A L ",
"A A A A A A D G G G L D G D A A A A A A A A A < t S v n b b s y c n M Y R b b s S S A A A A A A A D G G D A D J D A A A L A A A ",
"A A A A A A D J K K G D G D A A A A A A A A A 2 e a n M R b V N s c c U Y N n d 2 A D A A A A A A G K K J G D D D A A A D A A A ",
"D D A A A A D L J J J G D A A A A A A A A A 2 A 2 x m R T d M N U s b h u Y v h u S G A A A A A A A D G K J G D A A A D A L A A ",
"A A A A L G J G D G J G G D A A D G J A A 2 e S U I G T U g g U U d n n d U U N x S F A A A A A G G G D G G G G D A A D J J A A ",
"A A A A L A D G D D D G G D A A G G G A A U a 2 u N E R M g Y u v c c d U Y N h u p S A A A L L D D G D D D G G D A D G G D A D ",
"A A A A L 3 3 D G D A G G G A A G D A S U s h Y d V { N V =.o...' ` -.O.~ / C ~ h b u S A A A L L L D G D A G G D A A D D A A A ",
"A A A A A L 3 L L D A P D D D L A W ] p z V >.3.,.=.e.d.M.g.d.:.n.4.m.4.n.v.' b.;.' _ h W ] I A 3 3 3 L A A A G D A A A A A A A ",
"A A A A L L A G G D P P D D I ! O.&.u.m V 1.e.s.e.` :.x.M.n.m.=.4.4.4.N.N.v.C n.b.4.>.| k 0.i.O.] I G G D A A A D A A A A A A A ",
"A A A A A A A H H ! 6.&.] Q 6.6.y.k.l...M 4.q.e.e.` M >.-.` -._ -.=.} 7.,.C ' n.m.M.g.%.m 0.z.z.0.%.h ! &.&.W A A A A A A A A A ",
"A A A A A A F ! @.<.6.7.$.l $.l.c.P.XX+X:.C C _ ` _ :.;.:.w.r.j.j.t.i.u.:.-.' -...` M ) =.0.$.k.A.$.h &.6.6.5.O.W A A A A A A A ",
"A A A A A W 5.6.>.o.%.<.k.z.*.$.f.z.i.o.:.-.4.l.P.Q.[.)./.}.^.7XW.J.G.:X~.~.m.w.,.` V ..1.k.q.( { 2.Z.k.0.%.<.2.&.O.S A A A A A ",
"A A L D D # { [ { <.y.c.+XA.zXcX0.*.p.-.l./.2XtXlXpX^.Q.[.,X<X8X&XJ.G.'./.9XW./.T.*X=X8.,.0.*.#.i.Z.+XS.A.z.2.{  .&.% A A A A A ",
"G D A A A @.7.$.X.$.$.i.s.OXcXf.j.S.F.MXpXpX`.[.9X7X|.].|.8X].E.W.^.L.L.{.9X>X(.7X7XdX5X;XP.4.2.y.c.C.C.A.y.$.#.<.a.Q A A L D L ",
"G D D S O.B.7.a.x.Z.k.y.0.0.*.0.A.zX4XdXaX9X`._._.R.`.R.H.K.K.H.9.H.Q.~./.L.L.`. X^.,X,X2XtX=Xi.2.$.2.s.f.V.S.g.k.f.a.@.D D A A ",
"D G S &.8.u.y.s.S.cX+XcXzX .7.C.V.-XjXiX.X XE._.'.H.I.~.<X:X'.G.G.'.rXuX{.U.E._.E.`.`.}.<XgXqXP.A.f.$.A.+X+XS.x.s.k.f.a.$.I A G ",
"D D @.>...X.2.s.i.s.x.OX0.6.C.%XjXiXeXiXqXQ./.qXR.Q.rXuXrXW.9.( L.P.I./.].`.R.U.).]. X|.2XaX4XeX-XC.3.#.i.k.g.y.0.0.X. .+.&.P G ",
"A ! a.a.d.<.3.A.g.q.3.X.1.D.bXjX1X).rXdX~.l.rX}.Q.qXQ.l.l.d.g.d.B.C.B.d.t.H.].}.#Xl.L.0XwX^./.tX-XXXS.%.o.x.OXXXzXf.2.f.q.>.W A ",
"A 6.g.g.h.3.p.g.z.z.S.*.2.D.MXdXyX$XjXrXoX#X.XuXuX!.f.y.i.l.k.z.V.F.F.x.>.0.Q.sXwXU.I.!.fXhX0X7X2X=X+Xp.y.nXcX+X+Xf.*.0.y.y.6.I ",
"Y } %.2.2.X.%.2.1.1.*.{ y.C.~.aX4X(.9X-XoXbX2X7X[.oXOXc.l.l.y.0.x.F.C.z.f.p.w.`.8X^.l.l.4XpX[.3XeX~.D.z.X.s.q.q.p.*. .*.x.y.@.! ",
"~ { o.%. .j X.y.0.*. .{ y.V.%X2X<X].9X9XY.S.#XqXtX@XC.cXOXc.c.0.y.k.c.x.z.s.l.`.'.].I.r.(.3X).rX9XT.B.g.%.z.i.q.2.#.( 1.f.6.X.} ",
"&.a.z.z.1.N | y.x.A.c.#.X.V.%XiX9X>X}.sX}.Y.XX[.aXyX#XD.zXxXzXcXc.y.g.B.M.T.qX].|.0Xr.t.qX|.{.tXkXbXvX3.g.NXnX+XP.$.B q.s.f.y.5.",
"@.7.i.y.q. .{ | { X.%.%.| y.B.-X4X-X4XeXqX.XY.Y.Z.{.[.<X#XnXnXnX+XXXt.(.<XqX}.Y.7X[.l.7XwXwXtXyX@XF.mX$.0.2.0.f.y.B k 3.y.k.u.@.",
"] X.$.#.$.{ j $.$.#.%.z.s.{ p.P.rXfXlX).{.uX.XrX).).{.[.rX7X}.uXuXiX9XeX`.L.L.|.7X/..XuX3XjXkX=XcXcX*.0.z.0.2.d.<.4 k %.0.2.2.O.",
"Q | X.$.%.#.0 k A.A.f.g.x.[ { g.h.~.eX<X6XiX}.[.3X.X).T.}.}.].rX2X{.@X@XY.^. X X`.uXiXyXkXtXbXmXnX$.{ P.cX+X+XS.B ; X.2.*.X.@.Q ",
"Q 7.a.s.s.y.{ X B V.f.$.*.q.#.l y.C.~.dXhXtX3XdXrX3X1X3XY.Y.~.Y.~.<X3XrXqXqX|.uX2X}.gXfX9XOXD.z. .*.z.y.*.z.vX{ X k 2.y.f.a.a.s ",
"6 o.6.y.z.s.$.q O 0 $.f.l.A.x.y...| p.xX@X<X4X4X3XhXdX}.(.|.rXeXwXdXsXwX[.3XhXlXdXtX>XQ.x.,.| { q.A.Z.k.c.c.[ . 4 #.$.$.q.g.} X ",
"y ~ <.X. .#.X.[ q . q >.x.C.vXV.g.q.%. .*.B.d.c.=X1XiX(.,XeXtXfXqX}.wXdXiXyXiX1X;XbXV.=.B ) #.| 2.A.Z.+XA.| X 4 { 1.$.B l X.0 < ",
"3 s B o.X.0.y.y.X.7 X O  .g.8.B.S.vXM.<.X.[ *.y.<.8.T.%X%X;X1X1X;X-X;XMX=XT.l.p.p.>.( #.0.c.+Xq.#.$.f.*.0 X 8 %.g.V.g.3.<.0 - S ",
"3 u 8 B 2.a.f.y.*.$.f   4 q ^ B.F.F.+X+X$.0.z.0...@.>.<.>.o.#.>.+.X.o.o.o.>.X.[ #.0.2.*.@XzX+X+Xf.( ; - . f ,.V.S.V.a.8.{ O < A ",
"A I 6 6 h <.a.%.#.( ( ( q 5 * x N ,.B.2.z.cXbXnXnXa.*.A.p.$.*.#. .$.*.$.$.#.s.OXS.+XnXq.| i.*.k ; . . 0 ( | X.p.d.g.<.q * # S A ",
"A A S q 7 p ~ k B *.q.s.*.B d 0 O * * l k.k.z.xXcX*.+XNXnXcXnXc.j.XX+XxXbXz.0.XX+Xs.y.0.0 o .   ; 8 ) *.k.k.q.{ ~ ..q O 6 S A L ",
"A A A S 5 5 X.y.2.&.3.s.s.f.%.q q d o o o 9 j { [ k 0.0.p.k.A.k.#.0.0.0.*.*.l ( { j 4 X o . 0 0 f 0.c.l.i.y.y.y.7.^ 8 9 S A A A ",
"A A A A A : B &.u.u.2.6.h.0.B X.0.2.#.B q 4 : 4 .   O o 5 7 4 4 - 8 4 4 ; * . ; 4 X 8 q j ( #.0.$.| 1.q.<.<.&.$.{ s 9 A A A A A ",
"A A A A A , o 5 j +.7.6.~ ~ 3.k.s.i.f.f.7.j B h 0 4 0 5 X X X X : 4 5 5 0 q 8 j l k q 3.q.1.0.f.k.2.B k <.%.N 4 o 4 1 A A A A A ",
"A A A A A S # 4 5 4 k q . p { X.&.p.B.s.{ $.x.f.y.0.0.%.k $.*.*.*.%.| j $.2.q.i.y.f.X.{ 1.<.s.7.<. .k o p q X 4 8 9 F D A A A A ",
"A A A A A A A 2 9 7 6 o X O 5 5 5 B o.B ) V.S.S.F.V.S.0.#.zX+XZ.z.f.w.| 0.s.i.z.h.g.y.B B ^ B 0 0 4 O X 4 X 4 9 2 L A A A A A G ",
"A A A A A A A A A 2 6 : < 4 4 4 4 O X o ^  .{ { +.<.u. .X.g.a.a.2.&.s.6.X.%...~ B j h 0 5 O ; ; 8 4 - , 6 : 1 A A A A A A A A G ",
"A A A A A A A A A L S A A S 2 , 6 9 5 O * 0 5 4 4 4 q 5 8 8 4 0 f f ~ k O 4 0 5 4 - o O O 4 8 : < 2 A L A A S L A A A A A A A A ",
"A A A A A A A A A A A A A A A A A A , : : 6 4 0 8 8 6 o 4 ; . X o ; 8 - X 4 5 4 4 0 0 r > < A A A A A A A A A A A A A A A A A A ",
"A A A A A A A A A A A A A G G A A A L A A S 2 2 S y t < > 8 4 6 6 6 4 9 > 9 2 2 2 S L A A L A A A A A A A A A A G G D A A A A A "
};
