/* XPM */
static char *result[] = {
/* columns rows colors chars-per-pixel */
"64 64 245 2 ",
"   c #06150E",
".  c #0A170E",
"X  c #07180D",
"o  c #100F11",
"O  c #091411",
"+  c #141614",
"@  c #181816",
"#  c #1C1B1B",
"$  c #2F150F",
"%  c #211E1D",
"&  c #2B1C18",
"*  c #391619",
"=  c #321C19",
"-  c #3C1D1D",
";  c #0F2016",
":  c #1A261E",
">  c #27211D",
",  c #222A1F",
"<  c #35241E",
"1  c #25311D",
"2  c #1E1B20",
"3  c #211E21",
"4  c #3F1C2E",
"5  c #1E2623",
"6  c #1C2D24",
"7  c #1C3426",
"8  c #1A3828",
"9  c #1B3C2A",
"0  c #1D223F",
"q  c #143E34",
"w  c #242323",
"e  c #292625",
"r  c #232C24",
"t  c #2A2826",
"y  c #272929",
"u  c #2D2A2A",
"i  c #342A24",
"p  c #312D2D",
"a  c #233223",
"s  c #26362C",
"d  c #36322C",
"f  c #352C32",
"g  c #393434",
"h  c #393636",
"j  c #3E3A3B",
"k  c #47161C",
"l  c #441B1D",
"z  c #4B1B1E",
"x  c #51181E",
"c  c #43211F",
"v  c #451D21",
"b  c #4C1D20",
"n  c #561C22",
"m  c #691E31",
"M  c #462121",
"N  c #4B2123",
"B  c #47282C",
"V  c #5A2326",
"C  c #572428",
"Z  c #522A37",
"A  c #483935",
"S  c #423C3C",
"D  c #642329",
"F  c #65272A",
"G  c #6B252C",
"H  c #74262F",
"J  c #742A2E",
"K  c #7B2B2F",
"L  c #6F2D36",
"P  c #7A2733",
"I  c #772830",
"U  c #7A2931",
"Y  c #65363A",
"T  c #15472E",
"R  c #19422C",
"E  c #164B2D",
"W  c #1A492B",
"Q  c #17522B",
"!  c #19552C",
"~  c #175A2A",
"^  c #185C2A",
"/  c #154331",
"(  c #184731",
")  c #1C4932",
"_  c #294937",
"`  c #37463A",
"'  c #304E39",
"]  c #45413D",
"[  c #342D4E",
"{  c #4B2D4C",
"}  c #443E41",
"|  c #413C4B",
" . c #5A3446",
".. c #46355B",
"X. c #7A3843",
"o. c #6A3351",
"O. c #78395A",
"+. c #573664",
"@. c #7B3B67",
"#. c #3B5043",
"$. c #454244",
"%. c #4A4444",
"&. c #474B45",
"*. c #4D464A",
"=. c #4E494B",
"-. c #564B49",
";. c #534B4C",
":. c #4B5348",
">. c #56544C",
",. c #554D52",
"<. c #584C59",
"1. c #4E5F54",
"2. c #575153",
"3. c #5B5355",
"4. c #5A5B55",
"5. c #5D555A",
"6. c #625554",
"7. c #6F5253",
"8. c #625A55",
"9. c #61575A",
"0. c #645B5C",
"q. c #6A5B5A",
"w. c #5D6056",
"e. c #66615B",
"r. c #6A625D",
"t. c #76665E",
"y. c #59446D",
"u. c #595469",
"i. c #4E4975",
"p. c #774568",
"a. c #655C62",
"s. c #695F62",
"d. c #69586D",
"f. c #6F5375",
"g. c #6C6264",
"h. c #6E6865",
"j. c #6D6469",
"k. c #726465",
"l. c #736A65",
"z. c #7A6867",
"x. c #71666B",
"c. c #746A6D",
"v. c #7A6C6C",
"b. c #756B72",
"n. c #746C70",
"m. c #7A6E72",
"M. c #766978",
"N. c #7D7175",
"B. c #7D737B",
"V. c #81242F",
"C. c #822A34",
"Z. c #862836",
"A. c #8C2B3B",
"S. c #932839",
"D. c #86313E",
"F. c #863746",
"G. c #8A314B",
"H. c #963545",
"J. c #843D60",
"K. c #8E4151",
"L. c #836E6D",
"P. c #85736C",
"I. c #837474",
"U. c #8A7777",
"Y. c #82757B",
"T. c #85797D",
"R. c #8B7B7C",
"E. c #927D7A",
"W. c #97837F",
"Q. c #3B5598",
"!. c #535289",
"~. c #6F5787",
"^. c #426C9C",
"/. c #726C86",
"(. c #796A87",
"). c #68649B",
"_. c #786A99",
"`. c #7B7998",
"'. c #4F5BAC",
"]. c #575BA4",
"[. c #526FA6",
"{. c #6868A9",
"}. c #786BA1",
"|. c #6B71AD",
" X c #7776A9",
".X c #696CB7",
"XX c #6D79BA",
"oX c #7677B6",
"OX c #5B75C9",
"+X c #4E6DD5",
"@X c #5979D8",
"#X c #6A72C7",
"$X c #6978C8",
"%X c #657AD7",
"&X c #557AE3",
"*X c #577BF1",
"=X c #647EE4",
"-X c #8B7687",
";X c #847A83",
":X c #8B7D83",
">X c #887886",
",X c #867A9A",
"<X c #857CA4",
"1X c #7E839B",
"2X c #5389B4",
"3X c #6C80AB",
"4X c #7A83A9",
"5X c #6E85BA",
"6X c #7887B9",
"7X c #5D90DC",
"8X c #6B84CB",
"9X c #7292CB",
"0X c #6786D8",
"qX c #7387D5",
"wX c #6798D7",
"eX c #61ABDC",
"rX c #5886E8",
"tX c #4890E0",
"yX c #5A99E8",
"uX c #4D87FF",
"iX c #5A89F8",
"pX c #4D99FE",
"aX c #5898FA",
"sX c #6687E6",
"dX c #6997E8",
"fX c #7794E7",
"gX c #6489F7",
"hX c #6797F6",
"jX c #5BAAEB",
"kX c #4BA7FF",
"lX c #59A6FE",
"zX c #4ABBFF",
"xX c #54B8FA",
"cX c #6AA1EC",
"vX c #64A3FD",
"bX c #8E8185",
"nX c #8D828B",
"mX c #928389",
"MX c #968688",
"NX c #8D8997",
"BX c #978893",
"VX c #9B9C9E",
"CX c #A28F90",
"ZX c #8783A7",
"AX c #B6C8BC",
/* pixels */
"T T E ~ Q T / T T / / / E Q T T T E Q Q E E T T q T T T T T T T T T T T T T T T T T T T T T ! Q / / T T / / T Q E T T T E Q Q E ",
"E E E E Q T q T T T / / E E T T T E E Q E T T T E T T T T T T T T T T T T T T T T E E Q E E Q Q / q T T T / / T E T T T E Q Q T ",
"~ ~ Q T Q T q T T T T T T T T T T T T T T T T T T T T T T T T T T T T T T T T T T E ~ ~ ~ E T Q / / T T T T T T T T T T T T T T ",
"T Q Q Q T T T Q Q Q Q T T T T T T T T T T T T T T T T T T T T T T T T T E T T T T / / T Q Q Q E / T Q Q Q Q T T T T T T T T T T ",
"E E E ! E T T ~ Q E / T T T T T T T T T E E T T T T T T T Q E T T E E E E T T T Q ~ T E E Q ! T T T ~ Q T / T T T T T T T T T Q ",
"! Q T Q E T T E Q E / T / T T T T T T T Q E T T T T T T E E ! T T E Q T T T T T Q ~ ^ ~ E T Q T T E E Q T / T / T T T T T T T E ",
"Q Q Q T T T T T T E Q Q / / T T T T T T T T T T T T 8 = = = = = = & & = 9 E T T T E ^ Q Q Q T T T T T T E ! Q q / T T T T T T T ",
"! ! E T T T T T E Q Q q / T T T T T T T T T T T T R a * l l v z c z z z a W Q E q / ~ ! ! E T / T T T Q ! E / / T T T T T T T T ",
"/ T E Q Q T / T E E E / E T T T E T T T T T T T T , l F H P I K K K U K z a T T R / / / E E Q Q / / T E E E / T T T T T T T T T ",
"/ / T Q Q T / T E E T T / T T T T T T T T T T T , - D H K C.H c c M v M G V 5 T T / q q / E Q Q / / T T T T T T T T T T T T T T ",
"/ T T Q T T T T / T T T T T T T T T T T T T 9 1 - D H K C.H c + . + + + M H N r T T T T T E Q E T T T T T T T T T T T T T T T T ",
"T T T T T T T T / T T T T T T T T T T T T T 8 * D H K K J c o X   X X X . b H z r R T T T T T T T T T T T T T T T T T T T T T T ",
"T T T T T T T T T T T T T T T T T T T T T E 8 = V J K H c @ X           X + - H z , T T T T T T T T T T T T T T T T T T T T T T ",
"T T T T T T T T T T T T T T T T T T T T T 7 < C V J C.J c + X X         X O - U n , T T T T T T T T T T T T T T T T T T T T T E ",
"T T T T T T T / T E T T T T T T T T T T 7 < V G F F J J i + X O   X X     X - I n , T T E T T T E / T T E T T T T T T T T T T T ",
"T T T T T T / / E Q Q T T T T Q E T T T * n G F V V F K M + O s + X X   6 y - H n : T T T T T T T / / E Q E T T T E Q E T T T T ",
"T T E T T T T / T Q ! Q T T T E E T T T & n J V - c J J c X _ AX#.      VXNX$ I n a T T T T T E T / / E Q Q Q E T T E T T T T Q ",
"T T T T T T T T T E Q E T T T T T T T T W < z c = c H H - X : 1.5       #.&.= G z : T T T T T T T T T T E E E E T T T T T T / ~ ",
"T T T T T T T T T T T T T T T T T T T T E 8 1 1 & N G G V = X X         X X - V z , T T T T T T T T T T T T T T T T T T T T / / ",
"T T T T T T T T T T T T T T T T T T T T E E W Q , b F D U V & X     X     + - V l r T T T T T T E T T T T T T T T T T T T E E E ",
"T T T T T T T T T T T T / E Q / T T T T W T T E T , z F F D N &   X X   + v n k a T T T T T T T T T T T T T T T E Q T T T T T T ",
"T T T T T T T T T T E T T Q ~ E T T T T T T T T T 9 a - - V F b & . + + - n i a T T T T T T T T T T T T E E E / Q ~ / T T T E T ",
"T E T T T T T T T Q ~ Q E E Q q T T T T T T T T E 9 r * = c G G V M b b F D < 9 T T T T T T T T T T T T Q ^ Q E E E q / T T / T ",
"T T T T T T T T T T / ! ! E E / T T T T T T T T T r l G G F G I U U U P K H V * a T T T T T T T T T T T / / Q Q E E / T T E T T ",
"T T T T T T E Q Q E / E Q E T T T T T T T T T R , l G H I H H I I U U U I I H n - a T T T T T T T E Q Q E T E Q E E T T T T T T ",
"T T T T T T E ~ ^ ^ ~ E Q E T T T T T T T T T R % x H U K I I I I I I I I U U G k , T T T T T T T E ^ ~ ~ Q T Q E T T T T T E T ",
"E T T T T T E / ~ ^ ^ Q E T T T T T T T T T T T < N C U K I I H I I I I H U I G z , Q T T T T T T T T ~ ~ ~ Q T E T T T T E T T ",
"T T T T / Q ~ Q E E ~ Q Q E T T E ! ! E T T T R C g _ U P I I H I I I I U U U P b , E T T T T T Q ~ Q E Q ~ Q Q E T T E Q Q T T ",
"T T T T / / E Q Q E E Q Q Q / / E ~ ! T T T 9 > V F F K J U K K H H U I H I U Z.z : T T T T T / T E Q Q E Q Q Q E T T Q Q Q T T ",
"T T T T / q q E Q E T Q Q E E / E E T T T 9 i n F K S.V.C.D.D.D.A.D.D.Z.C.Z.U A C i ) E T T / / q / E Q E T Q Q E T T E E T T T ",
"T T T T / / q q / T T T Q E E E E _ #.' s B D X.L Z.H.K.H.H.H.A.H.F.D.S.H.S.D.t.K.Y 2.` _ #.( / / q q / T T E E E T T T T T T T ",
"T E T T T T / ~ Q E ( E T E ) ` :.4.r.&.v D X.x.X.Z.F.N.K.S.H.A.S.D.F.H.H.A.A.H.G.F B ,.*.4.j.&.#.) ! Q E / T E T E T T E T T T ",
"T T T T T / T Q ! ' e.w.' ` 0.0.r.n.M.5.* o.s.a.o.Z.V.P A.S.A.S.Z.G D q.F.S.Z.Z.Z.p.t.Z %.0.m.b.0.3.h ' 4.4.' E T T T T T T T T ",
"T T T T T W E #.>.4.e.r.9.j 2.b.B.(.>X:X-. .Y Y P P S.S.Z.G.F.p.F. .<.q.X.S.G.Y L L Y v c.a.3.b.T.3.h 4.e.0.4.&._ E T T T T T T ",
"T T T T T ' 4.r.6.>.3.0.m.m.6.3.c.N.x.a.6.Y P G.O.O.J.-Xp.G.@.iX~.!.7Xo.O.J.G.b.X.P H b a.b.a.} %.0.I.b.a.4.8.0.4.:.T T T T T T ",
"T T T T T : %.] %.6.g.I.>XT.bXNXu.5.k.t.B )..X@.jX].@.#X~.J.@.@.+.[ 0 [ }.0XO.O.F.f.`.C 6.s.5.<.j.N.bXbXR.c.0.%.=.4.6 T T T T T ",
"Q T T T E 4.r.>.-.3.3.j.x.;XmXx.c.W.W.4X2X^.+.@.i.+.@.~.+X].X.{ ^.i.o 4 f.~.@.].+.!.lX2X5X>Xr.0.g.B.T.U.U.g.3.,.8.l.` E T T T T ",
"Q E T T :.P.r.x.N.Y.x.j.a.a.5.a.R.bXwXlXjX[.+. .!.+.@.+.y.o.m B i.!...y.o.m o.].'.i.[.7X0XdX Xk.0.2.0.x.c.I.R.c.c.c.z.>.T T T T ",
"E ! R 4.t.r.h.x.>XMX:XNX:X=.g.U.Y.5XdXhX=X*X]...*Xi.+.<Xi.[ ..[ 0 Q.=XgX!.4 4 [ ].'...OX8XxXaX/.T.c.2.Y.:X:XR.N.x.b.c.h.2.) T Q ",
"W E >.>.-.-.0.x.g.c.v.T.0.g.I.nXdXyXlXhXiX{.{.*X].{.=XhX0X|.i.3 u./._..XOX!.0 ~.|.@X+X&X0XjXwXaX5XU.q.2.x.b.v.g.a.a.,.;.-.1.T Q ",
"T ' z.l.v.6.r.Y.b.g.q.-.5.E.NXcXqXZXgXhX X(.sX%X{.rX|.M.M.L.k.6.L.U.P.L.| [ '.0X XM.).uXpX.XoXsX5X;XR.3.;.N.;XT.bXx.a.c.s.6._ E ",
"E r.v.v.c.q.k.m.m.m.R.9.a.E.6XlXfXqXcXsX-XNXgX*XiX Xc.s.s.M.b.b.N.:XE.v.i f {.kXaX).B.{.zXkXuXrX0X XMXk.g.BXmXbXbXv.5.a.g.g.0.W ",
"` -.>.q.0.;.5.8.5.9.9.} g.T. XeXwX#XyX2X-X,X%XrX$X-X;XN.M.M.a.s.I.:XR.m.c.g.d.OXtX{.(.M.wXjX#XqXaX XE.m.,.j.a.g.g.5.=.5.N.g.2.' ",
"` %.;.3.;.g ;.g.a.5.;.%.j.L.1X0X$X0XyXyX<XU.<XyXdX,XU.mX>XB.B.s.s.c.Y.Y.M.z.M.OX+X@X/.f.XXqXoXsXyX1XP.v.3.m.j.a.0.,.} 9.x.r.-.:.",
"4.l.b.x.9.j %.k.m.T.Y.;.;.I.1XhXyX0X%XkX%X(.-X$XyXdX<XE.bXmXbXmXY.s.v.P.L.`.iX&X&XuXd.f.rX&X#XcXhX1XW.r.v.CXCXnXB.<.S s.x.x.l.w.",
"1.r.x.j.a.;.%.*.%.;.3.5.%.g.L.5X0X5XwXaXiX=X}.}.>XXX$X8XZX,XBXBX-X>X~.|.0XrX$X_.rXOX~.iXpXpXdXfXZXE.CX3.0.0.d.b.g.} h s.g.b.k.1.",
"] >.2.,.3.%.g <.4.;.5.c.x.%.z.(.yXzXzXoX#XgX*XsXoXoX#X$X%XgX0XgXgXhXcXaXOX!.).&XsX.X=XfXqXcXvX4XmXmX5.u.M.s.0.z.9.w h 6.s.0.0.:.",
"` &.;.3.3.;.t j Y.T.c.N.N.%.%.z.v.3XhX8XeXhX%XXXqX=XoX`.0X%X@X0X0X#X`.,X_..X*X*XOXgXhXwXvXcXNXCXBX,.%.;XbX:X:XR.S 2 ,.9.3.=.>.` ",
"` r.l.x.x.g.%.@ S I.x.<.5.j.=.S q.R. XlXxXdXqXlXsX$X9XqX}._. X_. X8XqXsXiXiX=XhX0XOXzXzXwX`.E.m.=.5.c.j.5.M.MX*.@ j 0.g.c.h.l.h ",
"r -.r.k.N.x.,.p > t 3.b.b.Y.N.g.-.%.k.nX`.8XwXdXqXxXlX%XXX=XrXaXpXlXkXpX#X$XxXzXvXdX0X|.M.7.*.$.g.T.T.c.Y.B.} @ 3 ;.,.3.s.z.%.; ",
"R ] 8.-.=.<.-.S u + d 5.N.U.MXI.v.j.3.%.9.I.L.N.4X6XhXXX7XaXdXzXtX%XlXkXhXfXhX9X6XZXY.-.S %.,.*.9.T.Y.>XY.*.# 3 %.6.<.S S -.p 7 ",
"R h j -.;.0.j.s.;.t @ % =.v.t.P.R.MXL.9.;.} 5.r.8.t.1XZX`.6X9X9X9X6XZX X4X4XM.k.t.8.} 2.a.N.:Xj.2.3.c.5.u # e 6.m.I.v.r.8.u # T ",
"q s t S q.h.b.j.3.2.u + w d -.P.W.W.bXbX2.0.M.a.:.>.6.6.6.-.3.6.-.;.-.-.-.6.2.$.;.a.a.5.nX:X:X>Xc.S 3 2 + f 9.I.R.I.l.l.%.% 7 T ",
"E ) y e h 8.l.4.=.$.$.S p w < i A q.P.8.M.BXNXBXCXx.9.>Xk.3.4.,.;.<.5.5.2.,.x.;XT.:XBXa.=.d.5.j e + + p } *.-.k.z.L.8.p % , T T ",
"E / R u t d ] h $.3.j.x.8.[ d i % > > S n.b.b.bXnX5.:XVXBXmXmX(.n.;X-X:XnXM.a.:X>Xx.j.0.u 2 @ o 2 y | 9.b.b.s.] A &.p 3 y 9 T T ",
"/ E T W r t ;.g.e.4.e.x.c.x.4.p p d # # : r g &.$.h a.a.k.b.;Xb.,.a.d.a.5.5.} S %.g w # # + e u f a.m.b.x.s.g.h.t.] e r R T T T ",
"T T T T T 6 S 4.g.h.e.q.n.0.j ,.0.0.,.S p w > w + o # # e e w 5 2 w w w 3 w + 3 w @ e p g } ,.a.,.*.5.s.8.8.8.>.%.h r T T T T T ",
"T T T T T 7 @ e h ,.r.r.] ] r.c.x.g.b.c.r.g j h e w u e # @ @ @ 2 y e w p u e h } g p 0.s.9.a.x.b.0.} j 8.6.j w # w 9 T T T T T ",
"T T T T T R : e t > h p + g %.>.8.k.v.c.%.;.Y.v.k.a.s.5.j <.5.4.5.5.=.h 5.0.s.g.g.b.;.%.0.q.l.h.8.=.S @ d u @ w e y E E T T T T ",
"T T T T T T R 9 s t e # @ # w e e S >.$.%.I.T.R.R.I.T.a.,.:XW.B.m.x.g.*.0.x.x.M.v.v.g.S S %.S t u w 2 @ w @ w u 9 T E T T T T Q ",
"T T T T T T T T T 9 6 5 7 w w w > # @ # &.=.%.%.>.8.l.=.-.v.l.x.0.4.x.a.=.3.%.] S g g p e # w w y 3 5 6 w : 9 T T T T T T T T ! ",
"T T T T T T T T T T T T T R R 7 y y t # > t e e w t u e u e w u p p ] h > y p t w 2 # # % w w w 7 9 T / T T T T T T T T T T T T ",
"T T T T T T T T T T T T T T T T T T 8 6 6 w e e t u t # w % @ @ 2 w w 3 # w e w w u u r 6 9 T T T T T T T T T T T T T T T T T T ",
"T T T T T T T T T T T T T E ! T T T T T T R 9 9 R 9 s 7 6 y w r y 5 w y 6 r 8 9 9 R ( T T T T T T T T T T T T T E ~ T T T T T T "
};
