/* XPM */
static char *result[] = {
/* columns rows colors chars-per-pixel */
"64 64 204 2 ",
"   c #1C1B0D",
".  c #191E1A",
"X  c #290D15",
"o  c #291815",
"O  c #331E19",
"+  c #0B270A",
"@  c #13260D",
"#  c #0F2319",
"$  c #132513",
"%  c #12241B",
"&  c #163415",
"*  c #1D3916",
"=  c #1D331E",
"-  c #153C1D",
";  c #1C3D1B",
":  c #282A0F",
">  c #21330F",
",  c #252913",
"<  c #3A261D",
"1  c #332918",
"2  c #263413",
"3  c #233C14",
"4  c #233D1B",
"5  c #2C3918",
"6  c #37311D",
"7  c #37381B",
"8  c #0F2A26",
"9  c #142B24",
"0  c #152827",
"q  c #162E29",
"w  c #163D23",
"e  c #1B3F21",
"r  c #16302A",
"t  c #19352D",
"y  c #193829",
"u  c #1B3531",
"i  c #143E34",
"p  c #1C3C34",
"a  c #1A3639",
"s  c #372C21",
"d  c #3E2D21",
"f  c #283926",
"g  c #2B3B26",
"h  c #273E29",
"j  c #3A3725",
"k  c #213330",
"l  c #462A1E",
"z  c #522B1F",
"x  c #453B16",
"c  c #472B22",
"v  c #512F22",
"b  c #443324",
"n  c #4A3524",
"m  c #423A28",
"M  c #4F3E29",
"N  c #533F2C",
"B  c #5C3D2B",
"V  c #6A3F2C",
"C  c #1E411D",
"Z  c #27440E",
"A  c #274014",
"S  c #2B4315",
"D  c #23451D",
"F  c #2A491B",
"G  c #2D4C1B",
"H  c #354513",
"J  c #344D1A",
"K  c #3A4819",
"L  c #365216",
"P  c #36521C",
"I  c #3A541C",
"U  c #3E581D",
"Y  c #154225",
"T  c #1A4424",
"R  c #194A25",
"E  c #15472E",
"W  c #1A452B",
"Q  c #164B2D",
"!  c #184D2B",
"~  c #185C27",
"^  c #17522B",
"/  c #19552B",
"(  c #175A2A",
")  c #185B2A",
"_  c #154331",
"`  c #1A4232",
"'  c #164830",
"]  c #224423",
"[  c #244626",
"{  c #364728",
"}  c #3B5621",
"|  c #3E5B21",
" . c #43541D",
".. c #425B1D",
"X. c #485A1E",
"o. c #55511E",
"O. c #496419",
"+. c #51711B",
"@. c #57462C",
"#. c #455E20",
"$. c #495A21",
"%. c #6D462E",
"&. c #744732",
"*. c #7A4B35",
"=. c #695835",
"-. c #705F38",
";. c #466121",
":. c #4B6522",
">. c #4E6A23",
",. c #526523",
"<. c #526D25",
"1. c #5C6C25",
"2. c #566D28",
"3. c #547126",
"4. c #5D7127",
"5. c #5A7822",
"6. c #567528",
"7. c #5A7629",
"8. c #5D7B2A",
"9. c #64742A",
"0. c #697429",
"q. c #617D2B",
"w. c #6A7E2C",
"e. c #78673F",
"r. c #7D6C41",
"t. c #8C1D16",
"y. c #B71F1B",
"u. c #84553A",
"i. c #87583D",
"p. c #8B5C3E",
"a. c #A44B26",
"s. c #816228",
"d. c #8D633E",
"f. c #905B41",
"g. c #9A6247",
"h. c #837546",
"j. c #957140",
"k. c #A6694C",
"l. c #A9764E",
"z. c #B47D54",
"x. c #53872C",
"c. c #5C842C",
"v. c #64822D",
"b. c #69852E",
"n. c #698929",
"m. c #71852E",
"M. c #769529",
"N. c #698730",
"B. c #6C8B30",
"V. c #7D8731",
"C. c #728D31",
"Z. c #759333",
"A. c #7B9535",
"S. c #749936",
"D. c #7D9936",
"F. c #708351",
"G. c #838C33",
"H. c #859535",
"J. c #839A37",
"K. c #8C9A36",
"L. c #819E38",
"P. c #899E39",
"I. c #909336",
"U. c #959C39",
"Y. c #A48836",
"T. c #85A23A",
"R. c #8CA43B",
"E. c #8BAB3C",
"W. c #9AAE37",
"Q. c #94A43B",
"!. c #95AD3E",
"~. c #99AE3F",
"^. c #94B03F",
"/. c #A3AE3F",
"(. c #839543",
"). c #BD8B59",
"_. c #BF9059",
"`. c #9BB240",
"'. c #8DA45A",
"]. c #A3B341",
"[. c #ABB742",
"{. c #A6BA43",
"}. c #AABA44",
"|. c #B1BB44",
" X c #A8BB51",
".X c #819168",
"XX c #94A66C",
"oX c #C6975D",
"OX c #D4A462",
"+X c #E2BD67",
"@X c #B3C146",
"#X c #BAC447",
"$X c #B5C648",
"%X c #BEC648",
"&X c #BECA4A",
"*X c #C0C748",
"=X c #C3CA49",
"-X c #C5D34D",
";X c #CBD44D",
":X c #D5DA50",
">X c #C1CE8D",
",X c #C9D598",
"<X c #E3E8BC",
"1X c #E9ECC5",
/* pixels */
"E E Q / ^ Q _ E E E _ _ Q ^ E E E Q Q ^ ^ Q E i E _ E E E E E E E E E E E E E E E E E E E Q ^ ^ Q i E E _ _ _ ^ Q E E E Q ^ ^ Q ",
"! ! Q Q ^ ' i E E E E i Q Q E E E Q ^ Q Q E E E E E E E E E E E E E E E E E E E E Q Q Q Q Q Q ^ ' i E E E ' i Q Q E E E Q ^ Q Q ",
"( ( ^ Q Q ' i E E E Q E E Q E E E E E E E E E E E E E E E E E E E E E E E E E E ' Q ) ( / Q Q ^ ' i Q E Q E E E E E E E E E Q E ",
"' Q ^ ^ Q E ' ^ Q ^ Q Q E E E E E E E E E E E E E E E E E E E Q E E E E E E E Q ' ' _ ' ^ ^ ^ Q E Q Q ^ ^ Q E E E E E E E E E E ",
"Q Q Q ^ Q Q E ^ ^ Q _ E E E E E E E E E Q ! E E E E E E Q Q ! E E Q Q Q Q E E E ^ ^ Q Q Q Q ^ ' E Q ^ ^ Q ' E E E E E E E E E Q ",
"/ ^ Q Q Q E Q Q ^ Q _ Q ' E E E E E E E ! ! E E E E E E Q ^ / E E Q / ! E E E E ^ ( ~ ( ^ Q Q Q E E Q ^ ' _ Q ' E E E E E E Q Q ",
"^ ^ ^ E E E E E E Q ^ ^ _ i E E E E E E ' ' E E E E E E _ _ ^ ^ Q Q ! i _ Q E E E Q ( ^ ^ Q E E E E E Q Q ^ ^ i i Q E E E E E E ",
"^ ^ ^ Q E E E E ! ^ ^ i _ _ E E E E E E Q E E E E E E E T 3 A A A A E E Q ^ ! Q i ' ( ^ ^ ^ E E E E E Q ^ Q _ _ E E E E Q E E E ",
"_ Q Q Q Q E _ E Q Q Q _ ' E E E E E E E E E E E E E E e P v.b.v.q.q.F R ^ ^ _ E _ _ _ _ ' ! Q ^ _ _ E Q Q Q _ E E E E E E E E E ",
"i _ Q ^ ^ ' i E E E E E E E E E E E E E E E E E E E Y F N.{.@X|.@X^.7.D ! ' _ E E E i i ' E ^ ^ _ _ E E E E E E E E E E E E E E ",
"E E E ^ Q Q E E E E E E E E E E E E E E E E E E E E 4 v.!.}.=X*X=X].!.>.; E E E E E E E E ! ^ E E E E E E E E E E E E E E E E E ",
"E E E Q E E E E E E E E E E E E E E E E E E E E E * 7.T.[.*X*X%X%X%X`.L.;.- E E E E E E E E E E E E E E E E E E E E E E E E E E ",
"E E E E E E E E E E E E E E E E E E E E E E E ( ] 3.T.}.%X=X%X%X%X=X#X{.A.| C E E E E E E E E E E E E E E E E E E E E E E E E E ",
"E E E E E E E E E E E E E E E E E E E E E E R ] S T.~.}.%X*X%X%X%X%X%X[.`.B.& T T E E E E E E E E E E E E E E E E E E E E E E E ",
"E E E E E E E E E E Q E E E E E E E E E E T 3 3 S A.!.!.}.=X%X%X%X=X].!.!.v.* A A W E E E E E E E E E E E E E E E E E E E E E E ",
"E E E E E E E i Q ^ Q E E ' Q ^ ! E E E - ,.].C...v.T.~.}.#X#X[.=X|.{.`.D.6.X.J.].J Y E E E E E E _ _ Q ^ Q E E E Q ^ Q E E E E ",
"E E E E E E E _ Q Q ^ Q Q Q E Q Q E E e U `.-XR.5.v.v.9.<.S.@XT.#Xc.3.q.v.8.v.`.-XH.G Y E E E E E E _ Q ^ ^ Q E E E Q E E E E ^ ",
"E E E E E E E E E Q ^ ! Q E E E E E E - v.Q.A.Z.v.v.<.G : o.T.T.A.x 2 P 7.v.v.D.A.`.:.C E E E E E E E E Q ^ ^ E E E E E E E E ( ",
"E E E E E E E E E E E E E E E E E E E E ] A #.N.>.v.c.x.a.t.O.@XA y.s.c.v.8.3.v.J S T W E E E E E E E E E E E E E E E E E E E E ",
"E E E E E E E E E E E E E E E E E E E E W T D P J q.Z.T.I.Y.Q.%XK.Y.U.D.Z.6.H P T T Q E E E E E E E E E E E E E E E E E E E E E ",
"E E E E E E E E E E E E Q Q ^ E E E E E E E Q ; A 8.D.W.n.S.:X;X;Xx.J.!.S.<.& ; E E E E E E E E E E E E E E E E Q ^ E E E E E E ",
"E E E E E E E E E Q Q Q ' Q ( ' E E E E E E E T S q.A. X8. .~.}.P.H (.`.S.>.3 Q E E E E E E E E E E E E E Q E ' ^ ( ' E E E E E ",
"E E E E E E E E E Q ( / Q Q ! i _ E E E E T 3 3 S v.M.<X,X+.S J H n.1X>XM.>.2 3 E E E E E E E E E E E E ^ ( ^ Q Q ^ i _ E E E E ",
"E E E E E E E E E _ ' ^ ^ Q Q E E E E E e } m.3.P J n.XXF.Z + + + L .X'.5.L U 7.4 - W E E E E E E E E E _ ' ^ ^ Q ' _ E E E E E ",
"E E E E E E E ^ ^ ^ ' Q ^ ! E E E E E T J H.@XL.<.S ;.+.O.X.4.1.4...O.+.U J q.T.<.1.[ W E E E E ' Q ^ ( Q ' Q ^ Q E E E E E E E ",
"E E E E E E Q ( ) ( ^ ' ! Q E E E E E * U.&XT.S.v.<.3 7.!.}.=X=X=X].E.U F 5.B.L.~.;Xw.4 E E E E E Q ( ( ( ^ E ^ Q E E E E E E E ",
"Q E E E E E ' ' ( ( ( ( Q E E E Q * & H.}.`.D.B.v.v.:.S v.!.A.D.D.`.:.J <.N.D.!.#X=X&X9.; E E E E E E ( ( ( ^ Q E E E E E E E E ",
"E E E E E Q ( ^ Q ^ ^ ^ ^ ! E E D 9.4.[.{.T.8.#.B.B.8.U U ;.P I P :.J ;.q.Z.`.!.}.=X;Xm.& E E E ^ ( ^ E ^ ( ^ Q Q E E Q ^ ( E E ",
"E E E E _ ' ^ ^ Q Q Q ^ ^ ^ E ] 1.$X$X~.D.v.I A 6.8.B.v.I 3 S S S 3 ;.v.v.B.P.b.R.|.}.9.A E E _ ' ' ^ ^ Q ^ ^ ^ E E ' ^ ^ ^ E E ",
"E E E E _ i i ' ^ Q E ^ ^ Q e ,.;X%X%X[.b.J ; E S 8.D.C.3.:.:.>.>.:.8.A.A.7.#.S Z.~.!.Z.>.* E i i i Q ^ Q E ^ ^ Q E E ^ Q E E E ",
"E E E E _ _ i _ E E E E ^ ^ - 5.;XO.X./.@X4.; E S D.!.T.v.3.:.>.:.6.B.R.^.N.3 T P v.D.T.8.3 E E _ i i ' E E E ^ ^ E E E E E E E ",
"E E E E E _ E ^ ^ Q E E E E E { w., @ |./.| T ! ] 3.R.^.E.C.<.>.7.A.R.`.J.| T E e P v.!.b.& E ' ' ' ^ ^ Q E E E E E E E E E E E ",
"E E E E E E E ^ ^ E E E E E ` h 7 B 2 U.:.w Q ! Q & v.R.`.J.6.>.q.R.~.R.:.& E E E ; P J.H.S W E E ! / ! Q E E E E E E E E E E E ",
"E E E E E E E E E E E E E E h V g.f.O 5 [ E E E E 3 O.v.B.8.:.:.>.v.B.8.U C E E E E ; 9.}.A.S E E E E E E E E E E Q E E E E E E ",
"E E E E E E E E E E E E g d B f.k.%.z e E E E E E T 7 1 $.c.8.<.v.c. .1 4 R E E E ; 2.R.}.].3 E E E E E E E E E Q Q E E E E E E ",
"E E E E E E E E E E E h B &.*.i.&.j m E E E ' ^ ~ ^ . X 6  .$.K $.K O X y E E E Q D <.!.;X|.5 E E E E E E E E E Q Q Q E E E E E ",
"^ E E E E E E E E W W v f.k.*.l b E E E _ E ^ ( ^ R 2 b s X o O o o b < 2 E E E E ^ - 9.=XU.A E E E E E E E E E E E E E E E E E ",
"^ ! E E E E E E [ c c u.z.u.j W W E E E ' ^ ^ ^ _ 4 6.6 O n @.-.n N @.< , T E E E E ! F  .J E E E E E E E E E E E E E E E E E Q ",
"! ! E E E E ' h b p.i.k.i.m W E E E E E ' ^ / ` ` 3 C.8.1 n r.r.e.c =.b   ] p ` E _ i ! T T E E E E Q E E E E E E E E E E E E Q ",
"' ! E E _ W h j u.).oXoXV f E E E E E E ^ ^ ` k ` 3 B.E. .1 -.h.=., M @.H f p p E _ E E Q Q E E E E E E E E E E E E E E E Q E ^ ",
"Q ' E E E n z *.).oXoX_.%.g E E E E _ E E ` k ' p 3 C.E.3.@ d h.X 3   0.n.= p p p E E E E E E E E E E E Q Q Q E E E E E ' _ E Q ",
"E E E ! j i.l.l.OX+X%.V j E E E E _ i E E E ` ` p 3 J.^.+.r k 1 t ; ..P.B.= p p p E E E E Q Q E E E E E Q ^ ^ E Q E E E i _ E E ",
"E E Q j v &.d.u.d.j.f g / ! ' E E E E ^ / ` k a a $ m.J. .% q . 9 $ :.G.,.# i p p p _ E E Q ( Q E E E E _ _ ^ ^ Q E E E E Q ^ ^ ",
"E E E b n d c 6 < s i _ ! ^ E E E E ^ ^ ` k p p q H 0.V. .$ 9 9 9 $ 1.V.1.2 9 9 t p ` E E Q ( ^ E i E E E ' _ ^ Q E E E Q ^ ^ Q ",
"^ Q Q Q / _ i E E E E _ Q Q E E E Q Q ! ` a r 9 > V.I.V.L # 9 q 9 $ ,.G.I.0.  8 9 r E ^ ! Q Q ^ _ i E E E E _ E Q E E E Q Q Q Q ",
"( / ^ Q ^ Q i Q E Q E E E E E E E E E E ` u 9 0 0 H H H 2 9 9 9 9 9 3 H H 5 9 9 9 9 Y ( ( ^ Q Q _ _ E E Q Q E E E E E E Q E E E ",
"E Q ^ ^ Q E E ^ ^ ^ ^ E E E E E E E E E E 9 9 9 9 % # # 0 9 9 9 9 9 % # $ 9 9 9 9 9 8 Q Q / ^ E E Q ^ ^ ^ Q E E E E E E E E E E ",
"^ Q Q ^ E E Q ^ / ' _ E E E E E E E E E Q y 9 9 9 9 9 9 9 9 9 9 9 9 9 r 9 9 9 9 9 - Y Q Q Q ^ Q E Q ^ ^ E _ E E E E E E E E Q Q ",
"( ^ Q Q Q E E Q Q Q ' Q E _ E E E E E E Q ' q 9 9 9 9 9 9 9 9 9 9 9 9 q 9 0 9 9 8 Y ( ^ ^ Q Q Q E E Q ^ ' _ Q _ _ E E E E E E Q ",
"^ ^ Q Q E E E E Q Q ^ ^ _ i E E E E E E Q E ` u q 9 9 9 0 0 9 9 9 9 9 0 0 9 9 0 i ^ ) ^ ( Q E E E E E E ^ ^ ^ _ _ E E E E E E E ",
"^ ^ ^ Q E E E E Q ^ ^ i ' E E E E E E E E E ' i p p t q q 0 9 9 9 r q q r y E E _ _ ^ ^ ^ Q E E E E E ^ ^ Q _ _ E E E E E E E E ",
"_ Q Q Q ^ E i E Q Q Q _ E E E E E E E E E E E E E p p p p p p i ` W ` ` ` ` _ E E _ _ _ E Q Q ^ _ _ E Q Q E _ E E E E E E E E E ",
"i _ Q ^ ^ E i Q E E E E E E E E E E E E E E E E E E E E E E E E E E E ! Q Q i E E E i i _ Q ^ ^ _ _ E E E E E E E E E E E E E E ",
"E E Q Q Q E E E E E E E E E E E E E E E E E E E E E E E E Q E E E E E ` E Q E E E E E E E Q ^ E E E E E E E E E E E E E E E E E ",
"E E E Q E E E E E E E E E E E E E E E E E E E E E E E E ^ ^ Q Q E E E E E E E E E E E E E E Q E E E E E E E E E E E E E E E E E ",
"E E E E E E E E E E E E E E E E E E E E E E ' ^ / ^ Q Q ^ ^ Q _ _ E E E E E E E E E E E E E E E E E E E E E E E E E E E E E E E ",
"E E E E E E E E E E E E E E E E E E E E E E E ^ ( ~ ^ E Q ^ ^ i _ E E E E E E E E E E E E E E E E E E E E E E E E E E E E E E E ",
"E E E E E E E _ Q E E Q E E E Q E E E E E E _ i ^ ( ^ ^ Q Q Q _ _ ! E E E E E E E E E E E E E E E E E E Q Q E E E E E E E E E E ",
"E E E E E E E i Q ^ ^ Q E E E ^ Q E E E Q _ i i ' E ^ ^ Q E Q Q ^ ^ ^ Q E E E E E E E E E E E E E _ i Q ^ Q E E E Q ^ Q E E E E ",
"E E E E E E E E E Q ^ Q Q E E Q E E E E ^ ^ ^ ' Q E Q ^ Q Q ^ ^ / ! _ i _ Q E E E E E E E E E E E E _ E ^ ( Q Q E Q Q E E E E ^ ",
"E E E E E E E E E E Q Q E E E E E E E E ^ ( ~ / ! Q E Q Q Q ^ ^ ' _ i i ' E E E E E E E E E E E E E E E E ^ Q E E E E E E E Q ^ ",
"E E E E E E E E E E Q E E E E E E E E E Q Q ( ^ ^ Q E Q E Q Q ^ _ i i ' E _ E E E Q E E E E E E E E E E E E E E E E E E E E E E ",
"E E E E E E E E E E E E E Q E E E E E E E Q Q ^ ^ Q E E Q E ' ' Q ^ ! _ i i E E E E E E E E E E E E E E E E E E E E E E E E E E ",
"E E E E E E E E E E E E E Q ^ Q E E E E E E E Q Q Q Q Q Q Q Q ^ ^ Q _ i i E E E E E E E E E E E E E E E E E E E ^ ^ E E E E E E "
};
