/* XPM */
static char *xpm_[] = {
/* columns rows colors chars-per-pixel */
"32 32 166 2 ",
"   c #540A0E",
".  c #48120C",
"X  c #5B180F",
"o  c #5A160F",
"O  c #5C0B10",
"+  c #4C1C12",
"@  c #5C1210",
"#  c #5E1910",
"$  c #610C12",
"%  c #6C0C13",
"&  c #621511",
"*  c #651B11",
"=  c #691C17",
"-  c #731F13",
";  c #791E10",
":  c #7B1218",
">  c #59240F",
",  c #4B2012",
"<  c #472C16",
"1  c #542212",
"2  c #5C2412",
"3  c #522E13",
"4  c #5D321A",
"5  c #6B2412",
"6  c #6B2C13",
"7  c #622813",
"8  c #742314",
"9  c #732D14",
"0  c #7C2B15",
"q  c #712E1B",
"w  c #6C3013",
"e  c #663C16",
"r  c #7A3515",
"t  c #743A15",
"y  c #763615",
"u  c #5D3A30",
"i  c #773325",
"p  c #5F471F",
"a  c #6C4217",
"s  c #60411B",
"d  c #624A1A",
"f  c #6A4A1E",
"g  c #6E431B",
"h  c #7D4416",
"j  c #78401B",
"k  c #774818",
"l  c #7F581E",
"z  c #74581C",
"x  c #7E691B",
"c  c #524720",
"v  c #584D26",
"b  c #5F5121",
"n  c #54552B",
"m  c #575E2E",
"M  c #67412F",
"N  c #6D4322",
"B  c #7D4524",
"V  c #655522",
"C  c #695C24",
"Z  c #57602D",
"A  c #596532",
"S  c #5B6C35",
"D  c #5D7437",
"F  c #5F7C38",
"G  c #686526",
"H  c #656E2C",
"J  c #6A6523",
"K  c #726520",
"L  c #6F742B",
"P  c #747C26",
"I  c #7F7C27",
"U  c #767724",
"Y  c #627A32",
"T  c #607E39",
"R  c #3F794A",
"E  c #4B5F40",
"W  c #76524F",
"Q  c #4F7749",
"!  c #801A11",
"~  c #8C151A",
"^  c #9D1C1E",
"/  c #8A2B1A",
"(  c #833517",
")  c #843C17",
"_  c #893E18",
"`  c #85311A",
"'  c #803021",
"]  c #893B25",
"[  c #AB2821",
"{  c #B72825",
"}  c #874517",
"|  c #884417",
" . c #8A4518",
".. c #854B1B",
"X. c #8A4A18",
"o. c #904319",
"O. c #964C1A",
"+. c #984E1C",
"@. c #914A17",
"#. c #82561A",
"$. c #8B5119",
"%. c #9A541B",
"&. c #9A5B1B",
"*. c #94581A",
"=. c #A35D1C",
"-. c #8B621C",
";. c #99651C",
":. c #A5631C",
">. c #A9641D",
",. c #AA6C1E",
"<. c #B06B1F",
"1. c #AD701E",
"2. c #B1711E",
"3. c #824127",
"4. c #884828",
"5. c #985627",
"6. c #B44426",
"7. c #826925",
"8. c #807626",
"9. c #9B623C",
"0. c #B67320",
"q. c #BB7920",
"w. c #A5693D",
"e. c #83615F",
"r. c #997F71",
"t. c #A1786C",
"y. c #75822C",
"u. c #798728",
"i. c #7C8D2A",
"p. c #7D942E",
"a. c #638336",
"s. c #648C3A",
"d. c #6B8437",
"f. c #66933C",
"g. c #67983F",
"h. c #699C3F",
"j. c #6A933C",
"k. c #3F824F",
"l. c #518750",
"z. c #528D52",
"x. c #699E40",
"c. c #6AA241",
"v. c #848125",
"b. c #8B8D25",
"n. c #868B2B",
"m. c #958321",
"M. c #8F9622",
"N. c #85942D",
"B. c #829D2E",
"V. c #809B30",
"C. c #BE8120",
"Z. c #83A32F",
"A. c #98A524",
"S. c #85A631",
"D. c #87AB31",
"F. c #89AF32",
"G. c #A3B727",
"H. c #A5BC28",
"J. c #C38522",
"K. c #CA8D23",
"L. c #A8C029",
"P. c #8F8D6F",
"I. c #A6816A",
"U. c #AC8E74",
"Y. c #AB9787",
"T. c #AC9888",
/* pixels */
"c.c.F.F.T.F.L.L.F.F.c.F.F.L.F.c.c.c.F.F.Y.F.L.L.F.F.c.F.F.L.F.c.",
"L.F.c.F.c.F.F.c.c.F.L.F.c.F.c.c.L.F.c.F.c.F.F.c.c.F.L.F.c.F.c.c.",
"c.F.F.c.z.c.t.U.F.c.F.c.F.c.F.F.c.F.F.c.z.c.t.U.F.c.F.c.F.c.F.F.",
"F.c.c.F.F.c.F.c.c.k.c.c.T.c.z.c.F.c.c.F.F.c.D.h.c.k.c.c.Y.c.z.c.",
"c.F.F.P.c.F.c.k.F.L.L.F.c.F.F.c.s.K h t a U h.l.F.L.L.F.c.F.F.c.",
"L.F.c.c.F.L.F.c.c.F.c.c.F.H.F.H.x ..2.2.>.k i.c.c.F.c.c.F.L.F.L.",
"F.z.F.c.c.F.F.L.F.c.F.c.c.F.c.Y ..<.K.K.J.=.a A.F.c.F.c.c.F.c.c.",
"T.F.L.F.F.F.c.z.c.F.z.c.F.H a 2 =.2.K.K.J.<.+.+ V p.z.c.F.c.F.Y.",
"F.L.F.c.F.c.F.L.F.c.F.F.A.#.&.0 | @.2.1.:.| ( 9 *.C Z.F.L.F.F.c.",
"c.F.F.L.L.F.c.c.z.c.c.F.s.7 6 8 8 ; ; @.; ; 0 8 6 p j.F.c.F.c.F.",
"F.c.F.F.c.F.F.c.F.F.F.c.F.L.M.1 +.5.&.1.&.5.( < p.F.F.c.F.L.L.F.",
"c.c.z.c.T.c.F.F.T.c.z.F.z.f.P 1 5.9.w t 4.w.( 3 P.h.z.F.z.c.F.c.",
"F.F.L.F.c.F.c.c.c.F.H.c.p.-.B * q 4.} h X.3.* 5 f y.L.c.F.F.P.c.",
"L.F.c.F.F.L.F.L.F.c.h.i.#.>.O.) * 5 ) ) t * 8 %.:.;.Y D.c.c.c.F.",
"c.c.F.L.F.F.c.F.c.z.a.C %.) t y 0 * X X # 8 ( O.2.C.V f.F.c.F.F.",
"U.F.c.c.c.c.F.c.F.s.#.:.:.6 c M +. .8 * 0 O.) 4 X.>.t U c.F.c.t.",
"c.c.F.F.T.F.L.H.F.B.g 5 6 b.F.a.9 _ 0 - ( ( > G.K w | x Z.L.F.c.",
"L.F.c.F.c.F.F.c.c.n.` % 4 F.c.f.2 & * & = @ p c.f.4 %.z f.D.c.c.",
"c.F.F.c.z.c.P.I.8.' ~ i I c.F.B.2   O $ O   u U.Z.b ,.z p.c.F.F.",
"F.c.c.F.F.c.N.] ^ i d.f.T.x.Q m r 5 $ : $ & . T f.R H s.Y.c.z.c.",
"c.F.F.P.x.N.B { [ m.L.F.c.V.L n } r , = + 6 2 E u.L.L.F.c.F.F.c.",
"L.F.c.c.K / ^ 6.5.V.c.c.F.b.L K &.} v v N &.t m D p.c.c.F.L.F.L.",
"F.z.F.c.N j j -.N.c.F.c.c.L A v ;.j C A b $.;.d L F F.c.c.F.c.c.",
"T.F.L.F.F.F.c.z.c.F.z.c.F.a.L e.W J u.L L m n A F S.z.c.F.c.F.T.",
"F.L.F.c.F.c.F.L.F.c.F.F.L.S.y.S L v.L S L S L v.p.c.F.F.L.F.F.c.",
"c.F.F.L.L.F.c.c.z.c.c.F.c.F.x.p.D y.y.b.b.y.F f.l.x.c.F.c.F.c.F.",
"F.c.F.F.c.F.F.c.F.F.F.c.F.L.L.F.F.c.F.F.c.F.F.c.F.F.F.c.F.L.L.F.",
"c.c.z.c.T.c.F.F.T.c.z.F.z.c.F.c.c.c.z.c.T.c.F.F.Y.c.z.F.z.c.F.c.",
"F.F.L.F.c.F.c.c.c.F.L.c.F.F.P.c.F.F.L.F.c.F.c.c.c.F.L.c.F.F.P.c.",
"L.F.c.F.F.L.F.L.F.c.c.F.c.c.c.F.L.F.c.F.F.L.F.L.F.c.c.F.c.c.c.F.",
"c.c.F.L.F.F.c.F.c.z.c.c.F.c.F.F.c.c.F.L.F.F.c.F.c.z.c.c.F.c.F.F.",
"P.F.c.c.c.c.F.c.F.c.F.F.c.F.c.P.U.F.c.c.c.c.F.c.F.c.F.F.c.F.c.P."
};
