/* XPM */
static char *result[] = {
/* columns rows colors chars-per-pixel */
"64 64 182 2 ",
"   c #1D1C1D",
".  c #281A14",
"X  c #2C1A16",
"o  c #2F1C18",
"O  c #311B17",
"+  c #11220A",
"@  c #1B2C0D",
"#  c #1B340F",
"$  c #12241B",
"%  c #18251A",
"&  c #1D2E1E",
"*  c #1B3712",
"=  c #1D3A15",
"-  c #133619",
";  c #173C1D",
":  c #1C3D1A",
">  c #253A0F",
",  c #382E11",
"<  c #34241A",
"1  c #233D13",
"2  c #2A3B15",
"3  c #253518",
"4  c #3B341C",
"5  c #343B19",
"6  c #3B3B1B",
"7  c #132627",
"8  c #142B24",
"9  c #132728",
"0  c #162E29",
"q  c #192B28",
"w  c #143123",
"e  c #153A25",
"r  c #183F20",
"t  c #16312A",
"y  c #1B3529",
"u  c #1A352D",
"i  c #193A2A",
"p  c #1B3634",
"a  c #143E34",
"s  c #1B3D34",
"d  c #222E2E",
"f  c #3A2A24",
"g  c #333625",
"h  c #3C3724",
"j  c #343D26",
"k  c #213D32",
"l  c #4F2C1F",
"z  c #5E2413",
"x  c #472C23",
"c  c #443423",
"v  c #4A3524",
"b  c #423C25",
"n  c #483428",
"m  c #1C411D",
"M  c #2D410F",
"N  c #37520D",
"B  c #264014",
"V  c #2B4315",
"C  c #2E4A14",
"Z  c #22421C",
"A  c #2A451C",
"S  c #334B15",
"D  c #374915",
"F  c #354119",
"G  c #3A451B",
"H  c #334C19",
"J  c #3D481D",
"K  c #35511C",
"L  c #3B541C",
"P  c #3D591D",
"I  c #3A611C",
"U  c #174424",
"Y  c #1B4323",
"T  c #1C4A25",
"R  c #15472E",
"E  c #19432B",
"W  c #164B2D",
"Q  c #1A4B2C",
"!  c #195A26",
"~  c #17522B",
"^  c #19542B",
"/  c #175A2A",
"(  c #185C2A",
")  c #154331",
"_  c #1B4232",
"`  c #164830",
"'  c #1C4B30",
"]  c #204326",
"[  c #264C24",
"{  c #385621",
"}  c #43541B",
"|  c #425C1F",
" . c #4C601F",
".. c #54462A",
"X. c #455B20",
"o. c #574632",
"O. c #475D3B",
"+. c #6E422D",
"@. c #61522F",
"#. c #734730",
"$. c #7A4A35",
"%. c #635033",
"&. c #6F5C3A",
"*. c #456121",
"=. c #4B6622",
"-. c #4E6924",
";. c #526623",
":. c #526D25",
">. c #5B6D28",
",. c #4A7426",
"<. c #547126",
"1. c #587427",
"2. c #5B7629",
"3. c #5D7A2A",
"4. c #6B6B28",
"5. c #64762B",
"6. c #6C722A",
"7. c #627E2C",
"8. c #6A7C2D",
"9. c #70772A",
"0. c #71613A",
"q. c #C83424",
"w. c #8C543B",
"e. c #8C5C39",
"r. c #A27C33",
"t. c #905B42",
"y. c #9C6D42",
"u. c #877848",
"i. c #9F7646",
"p. c #A77845",
"a. c #AC7950",
"s. c #B27E53",
"d. c #60821F",
"f. c #5E812B",
"g. c #65832D",
"h. c #6A852E",
"j. c #668A2E",
"k. c #6B892F",
"l. c #70862F",
"z. c #698730",
"x. c #6D8C31",
"c. c #738E32",
"v. c #739133",
"b. c #7C9635",
"n. c #7D9A36",
"m. c #7DA535",
"M. c #748269",
"N. c #818A32",
"B. c #889736",
"V. c #839B37",
"C. c #839E38",
"Z. c #929F39",
"A. c #85A139",
"S. c #8BA43B",
"D. c #8EA93C",
"F. c #90A63C",
"G. c #95AB3E",
"H. c #9BAE3F",
"J. c #99B03F",
"K. c #A2AE3F",
"L. c #B88555",
"P. c #8CA442",
"I. c #9BAF40",
"U. c #9CB340",
"Y. c #A2B542",
"T. c #ACB742",
"R. c #A4BA44",
"E. c #ABBA43",
"W. c #B1BC44",
"Q. c #A9B953",
"!. c #ABBC7E",
"~. c #C5925C",
"^. c #D3A562",
"/. c #B4C146",
"(. c #B8C247",
"). c #BBC749",
"_. c #C2CB4A",
"`. c #C6D14C",
"'. c #D4D84F",
"]. c #DDE252",
"[. c #F0CA70",
"{. c #F8F9D7",
/* pixels */
"R R W / ~ R ) R R R ) ` W ~ R R R W ~ / W R R R a R R R R R R R R R R R R R R R R R R R R R / Q ` ) R R R ) ` ~ W R R R W ~ ~ W ",
"W W W W ~ ` a R R R R a R W R R R W ~ W W R R R R R R R R R R R R R R R R R R R R R W ~ W W R / ` a R R R ` a R W R R R W ~ ~ R ",
"( / ~ R ~ ` ) R R R R R R R R R R R R R R R R R R R R R R R R R R R R R R R R R R R ( ( / W R ~ ` a R R R R R R R R R R R R R R ",
"R W ^ ~ R ` ` ~ W ~ ~ R R R R R R R R R R R R R R R R R R R R R R R R R R R R R ` ` ) ` ~ ~ ~ W ` R ~ ~ ~ W R R R R R R R R R R ",
"W W W ^ W R R ~ ~ W ` R R R R R R R R R ~ W R R R R R R R ~ W R R R Q ~ W R R R ~ ~ W W W W / R R R ~ ~ W ` R R R R R R R R R W ",
"/ ~ W W R R R ~ ~ ` ) R ` ` R R R R R R W W R R R R R R W W ^ R R W ~ R W R R R ~ ( ( / ~ W W R R R ~ ~ ` ) R ` R R R R R R R ~ ",
"~ ~ ~ R R R R R R W ~ ~ ) a R R R R R R R R R R R R R R ) ) ~ ~ W W ~ ) ) R R R R R / ~ ~ ~ R R R R R R R / W a ) R R R R R R R ",
"~ ~ ~ R R R R R W ~ ~ a ) R R R R R R R R R R R R R R R Z B B B B B B Z R ~ / R a ) / / ^ W R R R R R W / R ) ) ` R R R R R R R ",
"` R W W ~ R a R W W W ` ` R R R R R R R R R R R R R R : :.l.l.h.3.3.<.P m ~ ` R R ) ) ) R W ~ W ` ) R W W R ) ` R R R R R R R R ",
"a ` R ~ ~ R a R R R R R R R R R R R R R R R R R R E Y | H./.Y.Y.G.D.A.g.H T a ) R ` a a ` W ~ ~ ` ) R R R R R R R R R R R R R R ",
"R R R / R R R R R R R R R R R R R R R R R R R R R Y } H._.W.G.G.H.A.n.n.g.H Y E R R R R R Q ~ R R R R R R R R R R R R R R R R R ",
"R R R R R R R R R R R R R R R R R R R R R R R R ; L F.W._._.W.G.H.A.A.n.g.g.K r R R R R R R R R R R R R R R R R R R R R R R R R ",
"R R R R R R R R R R R R R R R R R R R R R R R U K V._._._.(.T.H.S.A.n.x.g.g.| : R R R R R R R R R R R R R R R R R R R R R R R R ",
"R R R R R R R R R R R R R R R R R R R R R R Y H V.`._./.(.Y.F.F.C.n.k.g.2.*.B : R R R R R R R R R R R R R R R R R R R R R R R R ",
"R R R R R R R ` R R R R R R R R R R R R R E V V.(._.(.H.G.H.D.n.C.x.g.3.-.C 1 Z R R R R R R R R R ` R R R R R R R R R R R R R R ",
"R R R R R R ` ) R / ~ R R R R W W R R R R E V W.'.).E.Y.D.A.A.n.k.h.2.-.2.v.I.8.- R R R R R R R R ` ) R ~ ~ R R R W ~ R R R R R ",
"R R R R R R R ) R ~ ~ W R R R W R R R R ~ ~ T >.K.J.<.x.x.c.v.c.g.2.<.3.b.D._.T.:.m W R R R R R R ` a R ~ ~ W R R R W R R R R ~ ",
"R R R R R R R R R W ~ ~ W R R R R R R R / / ! 1 g.6., -.g.g.3.g.g.-.:.j.n.C.n.S.V.A Y R R R R R R R R R R ~ ~ R R R R R R R R / ",
"R R R R R R R R R R R R R R R R R R R R R W 1 C.,.z q.b.m.k.g.g.-.-.-.<.g.S.:.1 A E R R R R R R R R R R R R R R R R R R R R R R ",
"R R R R R R R R R R R R R R R R R R R R U K Z._.n.4.r.G.G.A.c.3.-.=.-.-.-.*.{ H * R R R R R R R R R R R R R R R R R R R R R R R ",
"R R R R R R R R R R R R R W ~ R R R R R ; ;.]._.H.m.m.H.H.C.x.g.-.-.=.-.=.H L K Y W R R R R R R R R R R R R R R W ~ R R R R R R ",
"R R R R R R R R R W W R R ~ / ` R R R R r X.T.I.n.P.Q.H.A.k.7.f.-.-.-.-.=.-.H m R R R R R R R R R R R R R W R R ~ ~ ) R R R R R ",
"R R R R R R R R R W / ~ R W ~ a R R R R R T J g.d.!.{.S.n.v.2.-.-.-.:.*.1 1 1 m R R R R R R R R R R R R / / ~ R ~ W a ` R R R R ",
"R R R R R R R R R ) ` ~ ~ ~ R R R R R R R R U K C O.M.1.n.v.3.2.:.:.P H *.<.7.P ; R R R R R R R R R R R ) ` ~ ~ W R ` R R R R R ",
"R R R R R R R ~ ~ ~ ` R ~ W R R R R R R R R R * X. .N <.v.v.g.3.X.P K | n.D.U.v.K Y R R R R R R R R ~ ~ W R W ~ W R R R R R R R ",
"R R R R R R W / ( ( ~ ` ~ W R R R R R R R R R * B.`.G.A.g.g.2.*.B * P b.H.H.J.H.v.C Y R R R R R R ~ / / / ~ R ~ W R R R R R R R ",
"W R R R R R R ` / ( ( ~ R R R R R R R R R R R * k.U.S.v.x.=.B V | L 2.S.J.H././.S.v.K U R R R R R R ` / ( / ~ R R R R R R ` R R ",
"R R R R R ~ / ~ R ~ / ~ ~ W R R ~ ~ ^ R R R R Y P :.-.P | L C K 1.g.v.A.G.U.E.T.H.S.K ; R R R R ~ / ~ R ~ / ~ ~ W R R ~ ~ / R R ",
"R R R R ` ` W ~ ~ W W ~ ~ ~ R R W ~ ~ R R R R R U : : * > | 3.3.z.A.S.b.g.c.F.H.D.A. .T E R R ) ` ~ ~ ` W ~ ~ ~ R R ` ~ ~ ~ R R ",
"R R R R a a a W ~ W R ~ ~ W R R ~ W R R R R R R R R T B | 2.x.C.n.D.I.g.1 # l.J.n.A.c.P : R R a a a ~ ~ W R ~ ~ W R R ~ W R R R ",
"R R R R ` a a a ` R R R ~ ~ R R R R R R R R R R ) ) R B -.x.A.J.I.D.n.3.| | L 5.S.k.x.P - R ) R ) a a ` R R R ~ W R R R R R R R ",
"R R R R R ` R ~ ~ R R R R R R R R R R R R R R ~ R R E = g.D.J.U.G.b.x.3.;.:.B C 7.g.g.<.H T ` ` ` ` ~ ~ W R R R R R R R R R R R ",
"R R R R R R R / ~ W R R R R R R R R R R R R R Q R ` E 2 5.A.S.A.n.g.g.2.=.-.K * Z <.g.v.1.1 R R R W / W R R R R R R R R R R R R ",
"R R R R R R R R R R R R R R R R R R R R R R R R R E E v 2 | :.;.g.z.2.=.-.:.K m R B k.n.-.B R R R R R R R R R R R R R R R R R R ",
"R R R R R R R R R R R R R W ~ R R R R R R R R R R ] v w.F I x.g.1.3.<.<.:.L Z Y A g.D.S.2.B R R R R R R R R R R ~ ~ R R R R R R ",
"R R R R R R R R R R R R R W W R R R R R R R Q ~ [ b $.w.j A  .} G F H J H 1 R E } ).R.U.c.B R R R R R R R R R R R W R R R R R R ",
"W R R R R R R R R R R R R R R R R R R R R R W ^ b $.t.x E d O X o X . . X > i E L T.T.H.g.A R R R R R R R R R R R R R R R R R R ",
"/ W R R R R R R R R R R R R R R R R R R R Q / 4 $.t.n s % ..u.0.&.%.v v v . d _ _ H /.B.= E R R R R R R R R R R R R R R R R R R ",
"W ~ R R R R R R R R R R R R R R R R R R W ^ g w.a.w.f '   @.u.%.&.n X O O d s _ _ t >.P T R R R R R R R R R R R R R R R R R R ~ ",
"R R R R R R R R R R R R R R R R R R R R T j #.a.~.y.x _   ..%.< c 6 6 5 4 k s s s a 0 Y R R R R R R R R R R R R R R R R R R R ~ ",
"R R R R R R R R R R W W R R R R R R R E j +.L.L.^.i.f s   c v . 1 <.k.k.g.S i s s s s _ R R R R R R R R W W W R R R R R R ) R W ",
"R R R W R R R R R R ~ ~ W R R R R ) a g #.s.~.[.p.n s s 3 . < X.X.K *.c.n.N u s s s s _ R R W R R R R R W ~ ~ W R R R R ) a R R ",
"R R W / W R R R R ) ) W / W R R R R h l +.e.e.p.o.q a t - @ F } } @ C 7.g.> t s s s s _ ) W / R R R R R ) ) ~ ~ W R R R R R / ~ ",
"R R R / ~ R ) R R ` ) ) W ~ R R R R v v h f f < 9 8 8 $ 3 =.>.=.S @ H 5.>.} q 8 p s s s _ R / ~ ` ) R R ) ` ) ~ ~ R R R W W / R ",
"~ W W W ~ ` a R R R ` ) W W R R R W W W _ p 0 8 8 8 8 @ 9.N.5.;.3 + S 5.8.B.} $ 8 0 _ _ _ W ~ ~ ) a R R R R ) R W R R R W ~ W R ",
"/ / / R ~ ` a R R R R R R R R R R R R R ) 0 8 8 8 8 8 7 F D V 2 $ 7 & M 2 D 3 8 8 8 y ' ' ~ R ~ ` a R R R R R R R R R R R R R R ",
"` W ~ ~ R R R ~ ~ ~ ~ R R R R R R R R R ` 8 8 8 8 8 8 8 $ $ $ $ 8 8 8 $ % $ $ 8 8 8 9 s ` ^ ~ R R R ~ ~ ~ ~ R R R R R R R R R R ",
"~ R R / W R R ~ / W ) R R R R R R R R R R e 8 8 8 8 8 8 8 w w 8 8 8 8 8 8 8 8 8 8 w y Q W W ~ R R R / ~ R ) R R R R R R R R R ~ ",
"/ W W W R R R ~ W R ` W ` ) R R R R R R W W 0 8 8 8 8 8 8 0 w 8 8 8 8 0 8 8 8 8 8 i ' W ~ R ~ R R R W ~ R ` W ` ) R R R R R R W ",
"/ W ~ R R R R R R ~ ^ W ) ) R R R R R R R R ` u 0 8 8 8 7 8 8 w 8 8 w 9 8 8 8 0 p s ^ ~ ~ ~ R R R R R R W ~ ~ a ) R R R R R R R ",
"~ ~ ~ R R R R R ~ / W a ) R R R R R R R R R R _ _ s u 0 t 9 9 8 w 8 0 0 u i s s a s ~ ~ ~ W R R R R R ~ / W a ` R R R R R R R R ",
") R W ~ W ` ) R R W R ` R R R R R R R R R R R R R _ s s s s s s s _ k _ _ s s a ) ) ) ) R W W ~ ` ) R R R R ) R R R R R R R R R ",
"a ) W ^ ~ R ) R R R R R R R R R R R R R R R R R R R R R R R R R E R R ~ ~ R ) R R R a a ) W ~ ~ ` a R R R R R R R R R R R R R R ",
"R R R ~ R R R R R R R R R R R R R R R R R R R R R R R R R R R R R R R R R R R R R R R R R W ~ W R R R R R R R R R R R R R R R R ",
"R R R R R R R R R R R R R R R R R R R R R R R R R ` R R / ~ R R R R R R R R R R R R R R R R R R R R R R R R R R R R R R R R R R ",
"R R R R R R R R R R R R R R R R R R R R R R W ~ / ~ R R ~ / R ) ` R R R R R R R R R R R R R R R R R R R R R R R R R R R R R R R ",
"R R R R R R R R R R R R R R R R R R R R R R ` W ( / ~ W W ~ ~ a ) R R R R R R R R R R R R R R R R R R R R R R R R R R R R R R R ",
"R R R R R R R ` R R R R R R R R R R R R R R ` a ~ ! ~ ~ W W W a ` R R R R R R R R R R R R R R R R R R R W R R R R R R R R R R R ",
"R R R R R R R a W / W R R R W ~ R R R R R a a a ) W ~ ~ W R R ~ W ~ ~ R R R R R R R R R R R R R R ` a W ~ ~ R R R W ~ R R R R R ",
"R R R R R R R ` R ~ ~ W W R R W R R R R / / W W R R R / Q R W ~ ^ ~ ) a ` R R R R R R R R R R R R ` ) R ~ ~ ~ R R W W R R R R / ",
"R R R R R R R R R R ~ W R R R R R R R R / / ( ~ W R R W R W / ~ ` ) a a ` R R R R R R R R R R R R R R R R ~ W R R R R R R R R ~ ",
"R R R R R R R R R R R R R R R R R R R R R W / / / W R R R R W / ` a a ` R R R R R R R R R R R R R R R R R R R R R R R R R R R R ",
"R R R R R R R R R R R R R R R R R R R R R R R ^ / ~ R R R R ` ` W ~ W ) a a R R R R R R R R R R R R R R R R R R R R R R R R R R ",
"R R R R R R R R R R R R R W / W R R R R R R R R R R R ~ ~ W R ~ ~ W ) a a ) R R R R R R R R R R R R R R R R R R ~ ~ R R R R R R "
};
