/* XPM */
static char *xpm_[] = {
/* columns rows colors chars-per-pixel */
"32 32 182 2 ",
"   c #6AA241",
".  c #89AF32",
"X  c #AC9888",
"o  c #A8C029",
"O  c #528D52",
"+  c #A1786C",
"@  c #AC8E74",
"#  c #3F824F",
"$  c #8F8D6F",
"%  c #819D2E",
"&  c #674418",
"*  c #632A11",
"=  c #602710",
"-  c #5B220F",
";  c #5D3715",
":  c #867F64",
">  c #6E4816",
",  c #AE6E1E",
"<  c #AC651E",
"1  c #AA621E",
"2  c #9B521B",
"3  c #823716",
"4  c #563519",
"5  c #65923B",
"6  c #60411B",
"7  c #BE7D21",
"8  c #CC9023",
"9  c #BA7820",
"0  c #893A18",
"q  c #792615",
"w  c #4D3E1C",
"e  c #C58622",
"r  c #B77320",
"t  c #A7601D",
"y  c #8B3E18",
"u  c #57130E",
"i  c #574217",
"p  c #6F4E18",
"a  c #B5781F",
"s  c #8C4818",
"d  c #904419",
"f  c #8E4219",
"g  c #762514",
"h  c #9A501B",
"j  c #A2641C",
"k  c #5E5825",
"l  c #6F3413",
"z  c #9A1A11",
"x  c #8B3F18",
"c  c #7E2B16",
"v  c #6A1712",
"b  c #914519",
"n  c #6B5E1E",
"m  c #C88B22",
"M  c #A45F1C",
"N  c #A25A1C",
"B  c #762314",
"V  c #671411",
"C  c #55100E",
"Z  c #562014",
"A  c #788B29",
"S  c #495432",
"D  c #9D5E1B",
"F  c #93471A",
"G  c #BB8146",
"H  c #7B2815",
"J  c #711E13",
"K  c #621310",
"L  c #59110F",
"P  c #633B34",
"I  c #595223",
"U  c #53160E",
"Y  c #7B473A",
"T  c #8C4018",
"R  c #55150E",
"E  c #733014",
"W  c #6A3A17",
"Q  c #707925",
"!  c #915519",
"~  c #9D541B",
"^  c #833317",
"/  c #641C11",
"(  c #4C0F0C",
")  c #8D3E19",
"_  c #AE691E",
"`  c #5E2410",
"'  c #623F17",
"]  c #591E0F",
"[  c #631711",
"{  c #813216",
"}  c #883918",
"|  c #B36F1F",
" . c #8A4718",
".. c #576029",
"X. c #5E1610",
"o. c #8E4119",
"O. c #9D551B",
"+. c #783115",
"@. c #6A2A12",
"#. c #A0581C",
"$. c #638A38",
"%. c #85841F",
"&. c #5E120F",
"*. c #6F3013",
"=. c #692112",
"-. c #7E781D",
";. c #869D2E",
":. c #4D2E17",
">. c #6F1C13",
",. c #482E16",
"<. c #793715",
"1. c #58662B",
"2. c #7C2E1F",
"3. c #720C13",
"4. c #55120E",
"5. c #530F0D",
"6. c #4E0A0C",
"7. c #430B0B",
"8. c #5B3C1F",
"9. c #9B561B",
"0. c #805A4A",
"q. c #6B913C",
"w. c #8B2B2F",
"e. c #89181C",
"r. c #4C1011",
"t. c #921B1F",
"y. c #81101A",
"u. c #6C0D15",
"i. c #58080F",
"p. c #531F13",
"a. c #694117",
"s. c #774617",
"d. c #5F7E34",
"f. c #86341C",
"g. c #B01C23",
"h. c #6F2D19",
"j. c #512A15",
"k. c #6B0C14",
"l. c #4D090D",
"z. c #611811",
"x. c #6A1E12",
"c. c #58251D",
"v. c #586230",
"b. c #59692F",
"n. c #7F3120",
"m. c #C73429",
"M. c #C04427",
"N. c #7A4B1C",
"B. c #4E2E15",
"V. c #5E1510",
"C. c #6C1912",
"Z. c #6F752B",
"A. c #838025",
"S. c #75822D",
"D. c #699E40",
"F. c #6E2B1B",
"G. c #800F15",
"H. c #912019",
"J. c #744424",
"K. c #645D24",
"L. c #80511A",
"P. c #984C1A",
"I. c #430D0B",
"U. c #9F621B",
"Y. c #4E4122",
"T. c #99A627",
"R. c #4F784A",
"E. c #5B6C35",
"W. c #59461C",
"Q. c #562928",
"!. c #663E3B",
"~. c #553213",
"^. c #5D7236",
"/. c #507E4C",
"(. c #78882D",
"). c #83A230",
"_. c #607E39",
"`. c #878726",
"'. c #929A27",
"]. c #7A8C2E",
"[. c #61823A",
"{. c #658F3D",
/* pixels */
"    . . X . o o . .   . . o .       . . X . o o . .   . . o .   ",
"o .   .   . .     . o .   .     o .   .   . .     . o .   .     ",
"  . .   O   + @ .   .   .   . .   . .   O   + @ .   .   .   . . ",
".     . .   .     #     X   O   .     . .   .     #     X   O   ",
"  . . $   .   # . o o .   % & * = - ; :   .   # . o o .   . .   ",
"o .     . o .     .     . > , < 1 2 3 4 . o .     .     . o . o ",
". O .     . . o .   . 5 6 7 8 9 1 2 0 q w . . o .   .     .     ",
"X . o . . .   O   . O 6 , e r t 2 y q u i .   O   . O   .   . X ",
". o .   .   . o .   . p a s d f 0 q g h j k . o .   . . o . .   ",
"  . . o o .     O     & l z x c q v g b * n     O     .   .   . ",
".   . .   . .   . . i m M N t 0 B V V C Z A .   . . .   . o o . ",
"    O   X   . . X   S D F G 2 H J V K L P   . . X   O . O   .   ",
". . o .   .       . o I U Y T H J V R E W A       . o   . . $   ",
"o .   . . o . o .     Q ! ~ ^ / C ( ) < _ ` . o .     .       . ",
"    . o . .   .   O   5 ' ] U L [ { } t |  ....   O     .   . . ",
"@ .         .   .   . .   Q X.o.O.N +.@.#.b ; $..   . .   .   + ",
"    . . X . o o . .   . . %.E t t o.B &.*.b =.-.. .   . . o .   ",
"o .   .   . .     . o .   ;.:.>.J B V &.,.<.=.1.  . o .   .     ",
"  . .   O   $ @ .   .   . 2.3.4.5.6.6.7.8.9.E 0..   .   .   . . ",
".     . .   .     #   q.w.e.r.t.y.u.i.p.a., s.d.  #     X   O   ",
"  . . $   .   O . o o f.g.h.j.k.l.z.x.c.v.a.b.O . o o .   . .   ",
"o .     . o .     ;.n.m.M.N.B.V.C.( y - Z.A.S.D.  .     . o . o ",
". O .     . . o . F.G.H.J.K.L.P.+.I.2 U.Y.Z.Z.T..   .     .     ",
"X . o . . .   O   . R.E.Z.E.W.Q.!.Z.~.B.Z.Z.^./.  . O   .   . X ",
". o .   .   . o .   . Z.A.Z.Z.E.Z.A.Z.E.Z.E.(.o .   . . o . .   ",
"  . . o o .     O     )._.Z.E.Z.E.Z.Z.A.`.(.    O     .   .   . ",
".   . .   . .   . . .   . '.'.].].[.].].{.. .   . . .   . o o . ",
"    O   X   . . X   O . O   .       O   X   . . X   O . O   .   ",
". . o .   .       . o   . . $   . . o .   .       . o   . . $   ",
"o .   . . o . o .     .       . o .   . . o . o .     .       . ",
"    . o . .   .   O     .   . .     . o . .   .   O     .   . . ",
"$ .         .   .   . .   .   $ @ .         .   .   . .   .   $ "
};
