/* XPM */
static char *xpm_[] = {
/* columns rows colors chars-per-pixel */
"32 32 190 2 ",
"   c #6AA241",
".  c #89AF32",
"X  c #AC9888",
"o  c #A8C029",
"O  c #528D52",
"+  c #A1786C",
"@  c #AC8E74",
"#  c #3F824F",
"$  c #8F8D6F",
"%  c #819D2E",
"&  c #60411B",
"*  c #6D3812",
"=  c #632A11",
"-  c #7D7058",
";  c #674418",
":  c #AE6E1E",
">  c #CC9023",
",  c #C18221",
"<  c #744519",
"1  c #788B29",
"2  c #65923B",
"3  c #623F17",
"4  c #B77320",
"5  c #763814",
"6  c #576029",
"7  c #4F3013",
"8  c #793715",
"9  c #9D551B",
"0  c #461E0E",
"q  c #4D3E1C",
"w  c #6B5E1E",
"e  c #A2641C",
"r  c #934719",
"t  c #893D18",
"y  c #AC651E",
"u  c #BA7820",
"i  c #813116",
"p  c #B87520",
"a  c #6E4816",
"s  c #5E5825",
"d  c #7E2D16",
"f  c #A25A1C",
"g  c #A7601D",
"h  c #98501A",
"j  c #762514",
"k  c #6E2E13",
"l  c #507F4A",
"z  c #733014",
"x  c #964D1A",
"c  c #A0581C",
"v  c #A55D1D",
"b  c #914519",
"n  c #42291A",
"m  c #5E1610",
"M  c #863617",
"N  c #441C10",
"B  c #798B29",
"V  c #9CAC26",
"C  c #5B3C1A",
"Z  c #57130E",
"A  c #692112",
"S  c #641C11",
"D  c #5B1C0F",
"F  c #964B1A",
"G  c #712E13",
"H  c #6A4B1C",
"J  c #66923B",
"K  c #684B1C",
"L  c #A25F1C",
"P  c #93491A",
"I  c #59110F",
"U  c #7C2F16",
"Y  c #9B521B",
"T  c #AF6E1E",
"R  c #714E18",
"E  c #453722",
"W  c #8D3E19",
"Q  c #8E4219",
"!  c #7E2B16",
"~  c #6A2112",
"^  c #7A3715",
"/  c #483722",
"(  c #563519",
")  c #AE691E",
"_  c #6D1D12",
"`  c #792615",
"'  c #5A4217",
"]  c #843616",
"[  c #9F601B",
"{  c #71631F",
"}  c #707925",
"|  c #93481A",
" . c #6C2B12",
".. c #5F3612",
"X. c #812F16",
"o. c #919822",
"O. c #804215",
"+. c #8C5117",
"@. c #8F5518",
"#. c #713812",
"$. c #615D25",
"%. c #97561A",
"&. c #662E13",
"*. c #686720",
"=. c #5A0F0F",
"-. c #7B2815",
";. c #762314",
":. c #512E18",
">. c #618035",
",. c #5B1C15",
"<. c #580A0F",
"1. c #855C1C",
"2. c #C58622",
"3. c #774617",
"4. c #608035",
"5. c #49060C",
"6. c #51090D",
"7. c #530F0D",
"8. c #4E0A0C",
"9. c #50070D",
"0. c #4C603A",
"q. c #6E401A",
"w. c #840D17",
"e. c #A0101E",
"r. c #6C5E2B",
"t. c #7D541D",
"y. c #9F877C",
"u. c #4B381B",
"i. c #762A14",
"p. c #570B0E",
"a. c #720D16",
"s. c #58080F",
"d. c #661E11",
"f. c #561A0E",
"g. c #65903D",
"h. c #86A831",
"j. c #4A6741",
"k. c #6D3C20",
"l. c #94101A",
"z. c #860E16",
"x. c #6B8036",
"c. c #909822",
"v. c #7D952F",
"b. c #5B6C35",
"n. c #4E2E15",
"m. c #591C0F",
"M. c #4C070C",
"N. c #3F0A0A",
"B. c #5B220F",
"V. c #6F752B",
"C. c #5E7838",
"Z. c #835521",
"A. c #AD2022",
"S. c #95271E",
"D. c #838A2A",
"F. c #689C40",
"G. c #553213",
"H. c #5E2410",
"J. c #838025",
"K. c #3E0C0A",
"L. c #67963E",
"P. c #A23F22",
"I. c #CD422A",
"U. c #9B191D",
"Y. c #8D371A",
"T. c #809B30",
"R. c #55572B",
"E. c #825219",
"W. c #4B5F40",
"Q. c #B36F1F",
"!. c #A96E1D",
"~. c #59461C",
"^. c #909526",
"/. c #942A1A",
"(. c #8A1318",
"). c #800F15",
"_. c #51834E",
"`. c #5D7236",
"'. c #4E4122",
"]. c #76524F",
"[. c #866663",
"{. c #4F784A",
"}. c #78882D",
"|. c #607E39",
" X c #727B2C",
".X c #9FB128",
"XX c #99A627",
"oX c #7F972F",
"OX c #648C3C",
"+X c #65913D",
/* pixels */
"    . . X . o o . .   . . o .       . . X . o o . .   . . o .   ",
"o .   .   . .     . o .   .     o .   .   . .     . o .   .     ",
"  . .   O   + @ .   .   .   . .   . .   O   + @ .   .   .   . . ",
".     . .   .     #     X   O   .     . .   .     #     X   O   ",
"  . . $   .   # . o o .   . % & * * = -   .   # . o o .   . .   ",
"o .     . o .     .     . o ; : > > , < 1 o .     .     . o . o ",
". O .     . . o .   .   2 3 4 > > > > , 5 1 . o .   .     .     ",
"X . o . . .   O   . O 6 7 8 4 > > > > , 9 0 q O   . O   .   . X ",
". o .   .   . o .   w e r t y u > > , y 9 i p a %   . . o . .   ",
"  . . o o .     O   s = d t f y 4 4 y g h j k & l     .   .   . ",
".   . .   . .   . . .   7 z x c v v v x b 0 1   . . .   . o o . ",
"    O   X   . . X   O . n m M b x x M M j N B . X   O . O   .   ",
". . o .   .       . V C d Z m A A A A S D F G H J . o   . . $   ",
"o .   . . o . o .   K L P d S I I I I m U Y Y T R     .       . ",
"    . o . .   .   E > > y W Q ! ! ! ! M M ~ ^ 9 9 /     .   . . ",
"@ .         .   % ( ) ) S _ b b ` ` Q P d q ' ] ) [ { .   .   + ",
"    . . X . o o } z |  .} ..j X.` ` ! d Z 1 o.O.+.@.#.. . o .   ",
"o .   .   . .   $.%.&.1   *.=._ -.-.;.=.:.. . >.,.<.1..   .     ",
"  . .   O   $ @ * 2.3.4..   5.6.7.7.8.9.0.  $ @ q.w.e.r..   . . ",
".     . .   .   4.t.6   y.u.i.p.a.a.s.d.f.g.h.    j.k.l.z.x.O   ",
"  . . $   .   O . c.o v.b.n.P m.M.M.N.b B.V.C.O . o o Z.A.S.D.  ",
"o .     . o .     . F.C.V.G.g H.J.V.K.f = J.V.L.  .   x.P.I.U.Y.",
". O .     . . o .   T.b.R.E.u = V.W.K.Q.!.~.V.^..   .   x./.(.).",
"X . o . . .   O   . _.`.V.'.n.].[.V.J.n.n.V.b.{.  . O   .   . X ",
". o .   .   . o .   . }.J.V.V.b.V.J.V.b.V.b.V.o .   . . o . .   ",
"  . . o o .     O     . |. Xb.V.b.V.V.J.J.}.L.  O     .   .   . ",
".   . .   . .   . . .   . .XXXoXoXOXoXoX+X. .   . . .   . o o . ",
"    O   X   . . X   O . O   .       O   X   . . X   O . O   .   ",
". . o .   .       . o   . . $   . . o .   .       . o   . . $   ",
"o .   . . o . o .     .       . o .   . . o . o .     .       . ",
"    . o . .   .   O     .   . .     . o . .   .   O     .   . . ",
"$ .         .   .   . .   .   $ @ .         .   .   . .   .   $ "
};
