/* XPM */
static char *result[] = {
/* columns rows colors chars-per-pixel */
"64 64 194 2 ",
"   c #071908",
".  c #161F1E",
"X  c #260914",
"o  c #2E1517",
"O  c #251813",
"+  c #2A1A13",
"@  c #341E1A",
"#  c #13230F",
"$  c #172A0A",
"%  c #192C0E",
"&  c #1E320D",
"*  c #0F2111",
"=  c #1A2B15",
"-  c #182A16",
";  c #17221B",
":  c #163615",
">  c #1A3515",
",  c #1E3B17",
"<  c #1E341B",
"1  c #17391A",
"2  c #1A3C1C",
"3  c #2C2013",
"4  c #252A16",
"5  c #322318",
"6  c #3A251C",
"7  c #342C1A",
"8  c #3C2B1E",
"9  c #213316",
"0  c #233C14",
"q  c #2B3A16",
"w  c #223E1A",
"e  c #353219",
"r  c #353E19",
"t  c #142723",
"y  c #142B24",
"u  c #132628",
"i  c #162E29",
"p  c #153224",
"a  c #173E21",
"s  c #183B26",
"d  c #17322A",
"f  c #19362F",
"g  c #193B2A",
"h  c #193532",
"j  c #143E34",
"k  c #1C3C34",
"l  c #1B3639",
"z  c #1C3938",
"x  c #2D3B27",
"c  c #263E29",
"v  c #2A3C29",
"b  c #353827",
"n  c #432C1F",
"m  c #4F291E",
"M  c #422D20",
"N  c #542E21",
"B  c #463223",
"V  c #473826",
"C  c #543527",
"Z  c #5C3424",
"A  c #523D29",
"S  c #643A29",
"D  c #1D431F",
"F  c #19481F",
"G  c #274014",
"H  c #2A4215",
"J  c #2E4817",
"K  c #23431C",
"L  c #2C491D",
"P  c #334917",
"I  c #3A431B",
"U  c #344C19",
"Y  c #35511B",
"T  c #3A531B",
"R  c #3E591D",
"E  c #1B4324",
"W  c #1B4C24",
"Q  c #15472E",
"!  c #19452A",
"~  c #164B2D",
"^  c #1A4C2C",
"/  c #17522B",
"(  c #18552B",
")  c #175A2A",
"_  c #185B2A",
"`  c #154331",
"'  c #1A4232",
"]  c #164830",
"[  c #1D4931",
"{  c #224522",
"}  c #294B25",
"|  c #23412B",
" . c #314825",
".. c #42401F",
"X. c #43551E",
"o. c #435C1F",
"O. c #4A5C1E",
"+. c #464720",
"@. c #5C432D",
"#. c #465720",
"$. c #445D20",
"%. c #5D4B31",
"&. c #7A4C35",
"*. c #6B5937",
"=. c #7F5037",
"-. c #476121",
";. c #4B6522",
":. c #4E6A24",
">. c #536524",
",. c #596325",
"<. c #536B25",
"1. c #5C6C25",
"2. c #547126",
"3. c #5B7125",
"4. c #5C7A26",
"5. c #577528",
"6. c #5A7528",
"7. c #5D7A2A",
"8. c #616D25",
"9. c #62752A",
"0. c #657828",
"q. c #627E2B",
"w. c #6A7D2C",
"e. c #717B2A",
"r. c #88553C",
"t. c #8C5D3F",
"y. c #8B633E",
"u. c #8E5940",
"i. c #925B42",
"p. c #966745",
"a. c #8F7340",
"s. c #A56B4C",
"d. c #AA694E",
"f. c #A4734B",
"g. c #AC7A4F",
"h. c #AD7950",
"j. c #B47C54",
"k. c #5D8127",
"l. c #64822D",
"z. c #6B852E",
"x. c #65892B",
"c. c #6A892F",
"v. c #73832E",
"b. c #6A8730",
"n. c #6D8B31",
"m. c #788531",
"M. c #728D31",
"N. c #7B8B31",
"B. c #749233",
"V. c #7A9635",
"C. c #7D9B36",
"Z. c #7F9D38",
"A. c #848B32",
"S. c #899236",
"D. c #839C37",
"F. c #859B38",
"G. c #829E38",
"H. c #85A139",
"J. c #8BA43A",
"K. c #85A83B",
"L. c #8DAA3C",
"P. c #93A03A",
"I. c #9AA53B",
"U. c #94AA3D",
"Y. c #9AAD3E",
"T. c #95B03F",
"R. c #9BB13F",
"E. c #A0AC3E",
"W. c #B88556",
"Q. c #BD8A59",
"!. c #9DAF40",
"~. c #9BB140",
"^. c #A2B441",
"/. c #A9B742",
"(. c #A5B843",
"). c #ABBA43",
"_. c #B2BE45",
"`. c #C69A5B",
"'. c #CFA95E",
"]. c #D9AB66",
"[. c #E1B369",
"{. c #AFC045",
"}. c #B6C347",
"|. c #BAC347",
" X c #B7C748",
".X c #BEC648",
"XX c #BBC949",
"oX c #C1C748",
"OX c #C2C949",
"+X c #C5D24D",
"@X c #CBD44D",
"#X c #D1D64E",
"$X c #D2D84F",
"%X c #DAE052",
/* pixels */
"Q Q ~ ) / Q ` Q Q Q ` ` ~ / Q Q Q ~ / ( ~ ~ Q ` ` ` Q Q Q Q Q Q Q Q Q Q Q Q Q Q Q Q Q Q Q Q ) ~ ] ` Q Q ` ` ` / ~ Q Q Q ~ / / ~ ",
"~ ~ ~ ~ ( ] j Q Q Q ` ` ~ ~ Q Q Q ~ / ~ Q Q Q Q Q Q Q Q Q Q Q Q Q Q Q Q Q Q Q Q Q ~ ~ / ~ ~ / / ` j Q Q Q ` ` ~ ~ Q Q Q ~ / / Q ",
"_ ( / Q / ] j Q Q Q Q Q Q Q Q Q Q Q Q Q Q Q Q Q Q Q Q Q Q Q Q Q Q Q Q Q Q Q Q Q Q ~ _ _ ) / Q / ` ` Q Q Q Q Q Q Q Q Q Q Q Q Q Q ",
"Q / / / Q Q Q / ~ / / Q Q Q Q Q Q Q Q Q Q Q Q Q Q Q Q Q Q Q Q Q Q Q Q Q Q Q Q Q ` ` ` Q ~ / / Q ` Q / / / / Q Q Q Q Q Q Q Q Q Q ",
"~ ~ / / Q Q Q ( ( ~ ` ] Q Q Q Q Q Q Q Q ~ ~ Q Q Q Q Q Q / / ~ Q Q Q / ~ ~ Q Q Q / / / / ~ / ( ~ Q ~ / / ~ ] Q Q Q Q Q Q Q Q Q ~ ",
"( / Q / Q Q Q / / ] ` Q ` Q Q Q Q Q Q Q ~ / Q Q Q Q Q Q Q ~ ( Q Q ~ / ~ ~ Q Q Q / ) _ / ~ ~ ~ Q Q Q ~ / ] ` ~ ` ` Q Q Q Q Q Q / ",
"( / / Q Q Q Q Q Q ~ / / ` ` Q Q Q Q Q Q Q Q Q Q Q Q Q Q ` ` / / ~ ~ / ` ` Q Q Q Q ~ _ / / / Q Q Q Q Q Q ~ ( / j ` Q Q Q Q Q Q Q ",
"( / ~ Q Q Q Q Q ~ / / j ` ] Q Q Q Q Q Q Q Q Q Q Q Q Q Q Q G G G G G G ! ~ / / Q ` ` / ( ( ~ Q Q Q Q Q / / ~ ` ` Q Q Q Q Q Q Q Q ",
"` Q ~ / ~ ] ` Q ~ ~ ~ ` Q Q Q Q Q Q Q Q Q Q Q Q Q Q Q ! { 9.N.N.N.N.q.K W / ] Q ` ` ` ` Q ~ / ~ Q ` Q ~ ~ Q ` Q Q Q Q Q Q Q Q Q ",
"` ` Q / / ] ` Q Q Q Q Q Q Q Q Q Q Q Q Q Q Q Q Q Q Q ! E <.).@X#X#X@X}.4.K ! ` ` Q Q j j Q ~ / / ` ` Q Q Q Q Q Q Q Q Q Q Q Q Q Q ",
"Q Q Q / Q Q Q Q Q Q Q Q Q Q Q Q Q Q Q Q Q Q Q Q Q Q 2 ;.(.|..X.X.X.XoX).<.2 Q Q Q Q Q Q Q ~ ( Q Q Q Q Q Q Q Q Q Q Q Q Q Q Q Q Q ",
"Q Q Q ~ Q Q Q Q Q Q Q Q Q Q Q Q Q Q Q Q Q Q Q Q Q 1 $.Y.OXoXoX.X.X.XoXOXY.:.1 Q Q Q Q Q Q Q Q Q Q Q Q Q Q Q Q Q Q Q Q Q Q Q Q Q ",
"Q Q Q Q Q Q Q Q Q Q Q Q Q Q Q Q Q Q Q Q Q Q Q ( W T C.XXOXoXoX.X.X.X.XOX.XJ.R ! Q Q Q Q Q Q Q Q Q Q Q Q Q Q Q Q Q Q Q Q Q Q Q Q ",
"Q Q Q Q Q Q Q Q Q Q Q Q Q Q Q Q Q Q Q Q Q Q Q W H M.U./.oX.X.X.X.X.XoXoX).U.V.J ! ! Q Q Q Q Q Q Q Q Q Q Q Q Q Q Q Q Q Q Q Q Q Q ",
"Q Q Q Q Q Q Q ` Q Q Q Q Q Q Q Q Q Q Q Q Q D : > 0 M.U.).OX.X.XoX.X.X.XOX).U.V.J : : D Q Q Q Q Q Q Q Q Q Q Q Q Q Q Q Q Q Q Q Q Q ",
"Q Q Q Q Q Q ` ` ~ ( / Q Q Q Q / Q Q Q Q a <.N.<.T n.U.~._.oXoXoX.X.XoX}.^.U.B.T ;.m.3.2 Q Q Q Q Q ` j / ( ~ Q Q Q ~ ( ~ Q Q Q Q ",
"Q Q Q Q Q Q ] ` ~ / / ~ ~ Q Q ~ Q Q Q ! J Y.@XJ.2.B.U.U.!._.oXoX.XoX|.!.~.U.V.2.F.+XE.Y ! Q Q Q Q Q ` ~ ~ / ~ ~ Q Q ~ Q Q Q Q / ",
"Q Q Q Q Q Q Q Q ` ~ / ~ ~ Q Q Q Q Q ! H F.).R.V.l.V.L.!.U.!._.OXoX.X!.U.~.L.C.k.B.T.{.P.U E Q Q Q Q Q Q / ~ / ~ Q Q Q Q Q Q ` ) ",
"Q Q Q Q Q Q Q Q Q Q Q Q Q Q Q Q Q Q Q W <.:.q.M.4.V.G.L.!.U.^././.(.U.Y.L.G.C.4.M.l.<.<.K Q Q Q Q Q Q Q Q Q Q Q Q Q Q Q Q Q Q Q ",
"Q Q Q Q Q Q Q Q Q Q Q Q Q Q Q Q Q Q Q Q D : U :.$.B.G.G.U.Y.U.U.U.U.!.U.G.D.V.-.:.Y : 2 Q Q Q Q Q Q Q Q Q Q Q Q Q Q Q Q Q Q Q Q ",
"Q Q Q Q Q Q Q Q Q Q Q Q Q / / Q Q Q Q Q Q Q E 0 H M.K.Z.G.Y.Y.Y.Y.Y.Y.G.C.H.V.J 0 D Q Q Q Q Q Q Q Q Q Q Q Q Q Q ~ / Q Q Q Q Q Q ",
"Q Q Q Q Q Q Q Q Q / ~ ~ Q ~ ) Q Q Q Q Q Q Q Q E G k.Z.G.Z.H.H.H.G.J.J.G.H.Z.l.H E Q Q Q Q Q Q Q Q Q Q Q ~ ~ ~ Q / ) ` Q Q Q Q Q ",
"Q Q Q Q Q Q Q Q Q ~ ) / ~ ~ ~ ` ] Q Q Q Q Q ! D G :.n.V.V.C.C.Z.Z.Z.M.B.V.M.2.0 2 E ! Q Q Q Q Q Q Q Q ` / _ ( Q / ~ j ` Q Q Q Q ",
"Q Q Q Q Q Q Q Q Q ` ` / ( ~ Q Q Q Q Q Q Q ! { J H R 5.l.l.C.C.C.C.V.l.q.l.5.o.U P U J ! Q Q Q Q Q Q Q Q ` ` / / ~ Q Q Q Q Q Q Q ",
"Q Q Q Q Q Q ~ ( / / ` ~ / ~ Q Q Q Q Q Q , : $.M.$.H R q.b.n.n.n.n.n.c.b.l.R G c.B.G.z.> ! Q Q Q Q ~ / ) ~ Q ~ / ~ Q Q Q Q Q Q Q ",
"Q Q Q Q Q Q Q ) _ ) / ~ / ~ Q Q Q Q Q 2 e.w.M.Z.6.T J Y $.R R R R R R $.U Y 4.U.L.~.^.v.w ! Q Q Q ~ ) _ ) ) ~ ~ / Q Q Q Q Q Q Q ",
"~ Q Q Q Q Q Q Q ) _ ) ( ~ ~ Q Q Q ! { >.oX+X~.C.b.4.R H G G G H G G G G w -.J.Y.G.Z.).oX1.{ ! ! Q Q ~ ) ) _ / ~ ` Q Q ` Q Q Q Q ",
"~ Q Q Q ` / ) / ~ ~ ) / ~ ~ Q Q ~ D ;..XoXoX_.L.C.l.l.5.;.;.;.;.;.;.;.;.2.k.z.Z.n.n.J.!.OX<.% K ( ) ~ ~ ~ ) / / ~ Q Q / / ) Q Q ",
"Q Q Q Q ` Q ~ / / ~ ~ ( / ~ Q Q / F X. XOX}.R.U.Y.n.B.n.5.7.7.q.7.7.7.5.n.V.l.B.$.:.C.L.{.F.v.3.1 ] ( ] ~ ~ / / ~ Q ~ / / ~ ~ Q ",
"Q Q Q Q ` j ` ] / ~ ` / / ~ Q Q W K <.L._.(.N.q.D.z.V.C.n.M.b.7.7.c.B.n.C.C.l.:.K L 6.c.J.{.+X/.<.E ^ ( ~ Q / / ~ ] ] ~ ~ Q Q Q ",
"Q Q Q Q ` ` j j ` Q Q Q / / Q Q w $.B.Z.U.L.<.0 ;.7.B.G.H.C.n.2.<.b.C.Z.Z.V.7.G ! E J <.J._.|.oXoXX.s Q Q Q Q / ~ Q Q Q Q Q Q Q ",
"Q Q Q Q Q ` Q ( ( ~ Q Q ~ Q Q Q , :.H.G.V.<.K W J :.l.V.C.n.l.k.k.z.c.C.C.z.:.H E E X.Y. Xv.P w.$Xo.W / ~ Q Q ~ Q Q Q Q Q Q Q Q ",
"Q Q Q Q Q Q Q / / ~ Q Q Q Q Q ] : 1.T.B.:.K ! ~ D L ;.z.B.l.l.7.7.l.l.B.l.;.Y E Q ! L v.$X6.  r z. .W / Q Q Q Q Q Q Q Q Q Q Q Q ",
"Q Q Q Q Q Q Q Q Q Q Q Q Q Q Q ! K z.U.2.G E Q Q Q , T 5.k.l.l.2.2.l.l.l.5.R w ] Q Q ! G E.<.7 C q | ! Q Q Q Q Q Q Q Q Q Q Q Q Q ",
"Q Q Q Q Q Q Q Q Q Q Q Q Q ~ / H w.(.N.0 ! Q Q Q Q G R 2.5.l.z.k.l.l.l.5.2.$.0 Q Q Q Q ! T 4 C s.t.C c ] Q Q Q Q / / Q Q Q Q Q Q ",
"~ Q Q Q Q Q Q Q Q Q Q Q Q Q ^ H P. XJ.z.L ! Q / _ W x e r 7.c.l.k.n.l.I e H E Q ~ / / Q E 3 Z r.d.u.C b b Q Q Q ] Q Q Q Q Q Q Q ",
"/ Q Q Q Q Q Q Q Q Q Q Q Q Q Q H I.@XR.F.U ! ~ ) ( ] < X 5 X.>.#.#.>.X.7 X = ] ] Q / ( ~ ]  .B V r.i.&.S S c Q Q Q Q Q Q Q Q Q Q ",
"/ ~ Q Q Q Q Q Q Q Q Q Q Q Q Q H P.%XI.0 Q ~ / ( ` ` < 6 B + O + O + O B 8 4 ` ] Q Q ~ ( Q Q ! | N m =.d.u.N g Q Q Q Q Q Q Q Q Q ",
"~ / Q Q Q Q Q Q Q Q Q Q Q Q Q E $.8.O.E ~ ( / Q / E R +.o n n %.%.M M o ..-.D Q Q ` j / ~ Q Q Q c | V t.j.r.B 7 v Q Q Q Q Q Q ( ",
"Q ~ Q Q Q Q Q Q Q Q Q Q Q Q Q Q a 1 a Q / / Q [ ^ < k.l.e n A *.*.A M 7 4.x.9 ' ' ` ] Q Q Q Q Q Q Q v A p.s.r.&.A c Q Q Q Q Q / ",
"Q Q Q Q Q Q Q Q Q Q ~ Q Q Q Q Q Q ] ` Q Q ~ ' [ k 9 q.K.7.+ 8 B V n O <.K.x.9 k k j ! Q Q Q Q Q Q Q ] v Z g.W.Q.p.N | ! ' ` ` ~ ",
"Q Q Q ~ Q Q Q Q Q Q / ( ~ Q Q Q Q ` j Q Q ' k ' h < 4.L.n.0 3 + @ + 9 z.L.l.0 k k k ' Q Q Q Q Q Q Q Q x S Q.].`.h.p.n 8 v ` Q Q ",
"Q Q ~ _ ~ Q Q Q Q ` j / / ~ Q Q Q Q Q / / ' z z l < 1.V.2.& ; . . . % <.V.0.9 k k k j Q Q / _ Q Q Q Q ! V t.y.`.[.W.t.t.@.| ( ( ",
"Q Q Q ( ( Q ` Q Q Q ] ` / / Q Q Q Q / / ~ ' k h i # O.v.>.% y i y y % O.v.,.# y k k k ! Q Q ) ( ] j Q Q Q 8 6 a.'.f.f.g.&.M } ~ ",
"/ ~ ~ ~ / ] j Q Q Q Q ` ~ ~ Q Q Q ~ ~ Q ' k i y y * O.m.1.% ; y y y % ,.m.>.* t y i ' ' ~ ~ ~ / ` j Q Q Q ! ' b Z Z Z Z N N N ] ",
"_ ) / Q ~ Q ` Q Q ~ ~ Q Q Q Q Q Q Q Q Q k d y t = ,.A.S.0.& y y y y $ 1.S.A.8.9 t y g [ ( / Q ( ] j Q Q Q Q Q | v v v v  .v x ] ",
"` / ( / Q Q Q / / / / Q Q Q Q Q Q Q Q Q k y y y = 8.e.8.X.- y y y y ; T 1.e.0.4 ; y u k ~ / / Q Q Q / / ( ~ Q Q Q Q Q Q Q Q ] Q ",
"/ ~ ~ ( ~ Q Q / / Q ` Q Q Q Q Q Q Q Q Q ' d y y y - % $ - p y y y y y = $ $ = t p p d ] ] ~ / ~ Q Q / ( Q ` Q Q Q Q Q Q Q Q Q ~ ",
"/ / ~ ~ Q Q Q / ~ ] ` ~ ` ` Q Q Q Q Q Q ~ ] d y y y ; y y i y y y y y y t t t y i g ] / / ~ ~ Q Q ~ ~ / Q ] ~ ` ` Q Q Q Q Q Q ~ ",
"/ / / Q Q Q Q Q Q ~ / / ` ` Q Q Q Q Q Q Q k z f i y y y u y y p y y y u y y y i h ' ^ ( / ~ Q Q Q Q Q Q ~ ( / j ` Q Q Q Q Q Q Q ",
"/ / / Q Q Q Q Q / / ( ` ` Q Q Q Q Q Q Q Q ` z k z k f d i u u p p p i i d g ' k l z ] ( / / Q ~ Q Q Q / ( ~ j ] Q Q Q Q Q Q Q Q ",
"` ] Q / / Q j Q Q ~ Q ` Q Q Q Q Q Q Q Q Q Q Q Q Q Q Q Q Q Q Q Q ~ Q Q / ( ] ` ] Q Q ` ` Q ~ ~ / Q ` Q Q Q Q ` Q Q Q Q Q Q Q Q Q ",
"` ` Q ( / Q ` Q Q Q Q Q Q Q Q Q Q Q Q Q Q Q Q Q Q Q Q Q Q Q Q Q Q Q Q / ~ Q ` Q Q Q j j ` ~ ( ~ ] ` Q Q Q Q Q Q Q Q Q Q Q Q Q Q ",
"Q Q Q / Q Q Q Q Q Q Q Q Q Q Q Q Q Q Q Q Q Q Q Q Q Q Q Q Q ~ Q Q Q Q Q Q Q Q Q Q Q Q Q Q Q ~ ( Q Q Q Q Q Q Q Q Q Q Q Q Q Q Q Q Q ",
"Q Q Q Q Q Q Q Q Q Q Q Q Q Q Q Q Q Q Q Q Q Q Q Q Q Q Q Q ) / Q Q Q Q Q Q Q Q Q Q Q Q Q Q Q Q Q Q Q Q Q Q Q Q Q Q Q Q Q Q Q ~ Q Q ",
"Q Q Q Q Q Q Q Q Q Q Q Q Q Q Q Q Q Q Q Q Q Q ] ( ( / ~ Q / / ~ Q Q Q Q Q Q Q Q Q Q Q Q Q Q Q Q Q Q Q Q Q Q Q Q Q Q Q Q Q Q Q Q Q ",
"Q Q Q Q Q Q Q Q Q Q Q Q Q Q Q Q Q Q Q Q Q Q Q / _ _ / ~ ~ / / j ` Q Q Q Q Q Q Q Q Q Q Q Q Q Q Q Q Q Q Q Q Q Q Q Q Q Q Q Q Q Q Q ",
"Q Q Q Q Q Q Q ` Q ~ Q Q Q Q Q Q Q Q Q Q Q Q ` j / _ / / ~ Q ~ ` ] Q Q Q Q Q Q Q Q Q Q Q Q Q Q Q Q Q Q Q ~ Q Q Q Q Q Q Q Q Q Q Q ",
"Q Q Q Q Q Q Q j ~ ) / ` Q Q ~ / ~ Q Q Q Q Q j j Q ~ / / ~ Q Q / ~ ( / Q Q Q Q Q Q Q Q Q Q Q Q Q Q ` j ~ / ~ Q Q Q ~ ( ~ Q Q Q Q ",
"Q Q Q Q Q Q Q ` Q ~ / / Q Q Q ~ Q Q Q Q / ) ~ ~ Q Q ~ / ~ Q ~ / ( ~ ` j Q Q Q Q Q Q Q Q Q ~ Q Q Q Q ` Q / ) ~ Q Q ~ Q Q Q Q Q / ",
"Q Q Q Q Q Q Q Q Q ~ ~ ~ ~ Q Q Q Q Q Q Q / _ _ ( ~ Q Q ~ Q ~ ( ( ] ` j j Q Q Q Q Q Q Q Q Q Q Q Q Q Q Q Q Q / / Q Q Q Q Q Q Q Q / ",
"Q Q Q Q Q Q Q ~ Q Q Q Q Q Q Q Q Q Q Q Q Q ~ ) ( / / Q Q Q Q / / ] j j ] Q ] Q Q Q Q Q Q Q Q Q Q Q Q Q Q Q Q Q Q Q Q Q Q Q Q Q Q ",
"Q Q ~ Q Q Q Q Q Q Q Q Q Q Q Q Q Q Q Q Q Q Q ~ ( ( ~ Q Q ] Q Q Q Q / ~ ` j j Q Q Q Q Q Q Q ~ Q Q Q Q Q Q Q Q Q Q Q Q Q Q Q Q Q Q ",
"Q Q Q Q Q Q Q Q Q Q Q Q Q ~ ) Q Q Q Q Q Q Q Q Q ~ ~ Q / / ~ ~ ~ ( ~ ` j j ] Q Q Q Q Q Q Q Q Q Q Q Q Q Q Q Q Q Q / / ~ Q Q Q Q Q "
};
