/* XPM */
static char *xpm_[] = {
/* columns rows colors chars-per-pixel */
"32 32 174 2 ",
"   c #6AA241",
".  c #89AF32",
"X  c #AC9888",
"o  c #A8C029",
"O  c #528D52",
"+  c #A1786C",
"@  c #AC8E74",
"#  c #3F824F",
"$  c #8F8D6F",
"%  c #66581D",
"&  c #591E0F",
"*  c #5B220F",
"=  c #632A11",
"-  c #7D7058",
";  c #79701B",
":  c #752C14",
">  c #93491A",
",  c #A0581C",
"<  c #AC651E",
"1  c #BA7820",
"2  c #744519",
"3  c #788B29",
"4  c #5B702F",
"5  c #692112",
"6  c #863617",
"7  c #964D1A",
"8  c #A55D1D",
"9  c #B77320",
"0  c #CC9023",
"q  c #C18221",
"w  c #707925",
"e  c #50100D",
"r  c #792615",
"t  c #893A18",
"y  c #A7601D",
"u  c #C58622",
"i  c #BE7D21",
"p  c #7F4216",
"a  c #608035",
"s  c #765216",
"d  c #8E5118",
"f  c #742114",
"g  c #833317",
"h  c #98501A",
"j  c #9D551B",
"k  c #B06A1F",
"l  c #574217",
"z  c #874717",
"x  c #914B19",
"c  c #863817",
"v  c #6C1912",
"b  c #711E13",
"n  c #7E2B16",
"m  c #751E11",
"M  c #803314",
"N  c #6F3413",
"B  c #470E0C",
"V  c #5B1C0F",
"C  c #671411",
"Z  c #9D541B",
"A  c #A7501B",
"S  c #8A3715",
"D  c #A9691D",
"F  c #85591A",
"G  c #5F7E34",
"H  c #4B462A",
"J  c #55100E",
"K  c #812F16",
"L  c #964B1A",
"P  c #AA621E",
"I  c #9B521B",
"U  c #AC671E",
"Y  c #9D641B",
"T  c #717B25",
"R  c #695B1D",
"E  c #55150E",
"W  c #621310",
"Q  c #8E4219",
"!  c #985D3F",
"~  c #844C3C",
"^  c #576029",
"/  c #874417",
"(  c #8B4118",
")  c #4C0F0C",
"_  c #873E17",
"`  c #965A1A",
"'  c #5E2910",
"]  c #B36F1F",
"[  c #984C1A",
"{  c #792815",
"}  c #711F13",
"|  c #5F1B10",
" . c #6E2813",
".. c #793715",
"X. c #623F17",
"o. c #A25A1C",
"O. c #6C2C12",
"+. c #813216",
"@. c #631711",
"#. c #482E16",
"$. c #65923B",
"%. c #5F2B15",
"&. c #713313",
"*. c #681E12",
"=. c #7E2D16",
"-. c #59110F",
";. c #7B2815",
":. c #954A1A",
">. c #823E16",
",. c #686720",
"<. c #733014",
"1. c #6F1C13",
"2. c #762314",
"3. c #51140D",
"4. c #3F6840",
"5. c #834716",
"6. c #720C13",
"7. c #50060C",
"8. c #57090F",
"9. c #5D0C11",
"0. c #5E4E25",
"q. c #83A230",
"w. c #807B20",
"e. c #6D3812",
"r. c #5B3620",
"t. c #7D0B15",
"y. c #AD2F22",
"u. c #990F1C",
"i. c #840D17",
"p. c #821118",
"a. c #766456",
"s. c #607E39",
"d. c #5D7236",
"f. c #514C26",
"g. c #6F6928",
"h. c #5E2412",
"j. c #8E1C19",
"k. c #840C16",
"l. c #920E1A",
"z. c #95151B",
"x. c #680910",
"c. c #5B6C35",
"v. c #6F752B",
"b. c #8C8E26",
"n. c #62843A",
"m. c #4E2E15",
"M. c #914519",
"N. c #561A0E",
"B. c #5D0C0E",
"V. c #C04427",
"C. c #D0442B",
"Z. c #8D1718",
"A. c #703A23",
"S. c #4B5F40",
"D. c #645D24",
"F. c #80511A",
"G. c #8E3518",
"H. c #95291B",
"J. c #790E13",
"K. c #6F5122",
"L. c #5E7838",
"P. c #838025",
"I. c #59461C",
"U. c #55572B",
"Y. c #553213",
"T. c #7D952F",
"R. c #65903D",
"E. c #86A831",
"W. c #75822D",
"Q. c #7B8F2E",
"!. c #4E7147",
"~. c #61823A",
"^. c #7A8C2E",
"/. c #63883B",
/* pixels */
"    . . X . o o . .   . . o .       . . X . o o . .   . . o .   ",
"o .   .   . .     . o .   .     o .   .   . .     . o .   .     ",
"  . .   O   + @ .   .   .   . .   . .   O   + @ .   .   .   . . ",
".     . .   .     #     X   O   .     . .   .     #     X   O   ",
"  . . $   .   # . o o .   . % & * = = -   .   # . o o .   . .   ",
"o .     . o .     .     . ; : > , < 1 2 3 o .     .     . o . o ",
". O .     . . o .   .   4 5 6 7 8 9 0 q = w . o .   .     .     ",
"X . o . . .   O   . O   w e r t > y 1 u i p a O   . O   .   . X ",
". o .   .   . o .   . . s d f r g h j k u u l o .   . . o . .   ",
"  . . o o .     O     l z x c v b n g m M N a   O     .   .   . ",
".   . .   . .   . . .   B V v C C g Z A S D F G . . .   . o o . ",
"    O   X   . . X   O . H J C C C K L P I U Y T X   O . O   .   ",
". . o .   .       . o   R * E W C f Q ! ~ 5 ^     . o   . . $   ",
"o .   . . o . o .     l / 8 ( E ) f g _ ` ' . o .     .       . ",
"    . o . .   .   O a * ] ] [ { } ) |  ...X.  .   O     .   . . ",
"@ .         .   .   l 7 o.o.O.Z L +.@.#.4 $..   .   . .   .   + ",
"    . . X . o o . 3 %.6 h &.*.L o.Z =.l X . o o . .   . . o .   ",
"o .   .   . .     w 5 7 e -.v ;.t :.>.,.  . .     . o .   .     ",
"  . .   O   $ @ . 4 <.8 N B C v 1.2.3.  O   $ @ .   .   .   . . ",
".     . .   .     4.2 9 5.6.7.7.8.9.0.q..   .     #     X   O   ",
"  . . $   .   O . o w.e.r.t.y.u.i.p.9.a.s.q.  O . o o .   . .   ",
"o .     . o .     q.d.f.g.h.j.k.l.z.x.c.v.b..     .     . o . o ",
". O .     . . o . n.v.c.c.m.M.N.B.V.C.Z.A.g.q.o .   .     .     ",
"X . o . . .   O   v.S.c.D.F., * B G.H.Z.J.K.s.O   . O   .   . X ",
". o .   .   . o . L.v.v.P.I.m.U.v.Y.m.c.v.c.T.o .   . . o . .   ",
"  . . o o .     O R.c.v.c.v.c.v.c.v.v.P.P.v.    O     .   .   . ",
".   . .   . .   . E.W.c.v.P.P.v.v.c.v.v.c.Q..   . . .   . o o . ",
"    O   X   . . X   O E.!.~.^.~.~.~.!./.X   . . X   O . O   .   ",
". . o .   .       . o   . . $   . . o .   .       . o   . . $   ",
"o .   . . o . o .     .       . o .   . . o . o .     .       . ",
"    . o . .   .   O     .   . .     . o . .   .   O     .   . . ",
"$ .         .   .   . .   .   $ @ .         .   .   . .   .   $ "
};
