/* XPM */
static char *result[] = {
/* columns rows colors chars-per-pixel */
"64 64 200 2 ",
"   c #241F12",
".  c #2B1E14",
"X  c #2D1D18",
"o  c #361D15",
"O  c #381C16",
"+  c #0F240A",
"@  c #1F270F",
"#  c #1F2B0A",
"$  c #1A330F",
"%  c #12241A",
"&  c #1D241F",
"*  c #17281B",
"=  c #162C1C",
"-  c #1B3411",
";  c #1D3914",
":  c #163C1C",
">  c #1B3D1A",
",  c #24290D",
"<  c #2A2214",
"1  c #272819",
"2  c #39231B",
"3  c #233C13",
"4  c #393117",
"5  c #122624",
"6  c #142B24",
"7  c #132728",
"8  c #162E28",
"9  c #1C2A29",
"0  c #153224",
"q  c #163E24",
"w  c #193F21",
"e  c #163229",
"r  c #1B342F",
"t  c #193A2C",
"y  c #193530",
"u  c #143D34",
"i  c #1C3C34",
"p  c #1B3638",
"a  c #362B21",
"s  c #233528",
"d  c #24342D",
"f  c #272D31",
"g  c #293531",
"h  c #43231A",
"j  c #432E1C",
"k  c #4D281D",
"l  c #59291F",
"z  c #4B391B",
"x  c #4D3C1E",
"c  c #56361A",
"v  c #572F26",
"b  c #473527",
"n  c #4A3625",
"m  c #533824",
"M  c #523C29",
"N  c #673B2D",
"B  c #6A3A2B",
"V  c #1B421C",
"C  c #2B400F",
"Z  c #264014",
"A  c #2C4516",
"S  c #2F4917",
"D  c #24431B",
"F  c #26481E",
"G  c #2D4A19",
"H  c #334414",
"J  c #304917",
"K  c #344D19",
"L  c #35511B",
"P  c #3B551C",
"I  c #3F5A1E",
"U  c #1C4323",
"Y  c #184627",
"T  c #15472E",
"R  c #18452A",
"E  c #164B2D",
"W  c #1A4C2C",
"Q  c #1A5525",
"!  c #17522B",
"~  c #18542B",
"^  c #175A2A",
"/  c #185B2A",
"(  c #154331",
")  c #1B4232",
"_  c #164830",
"`  c #1E4932",
"'  c #214324",
"]  c #274826",
"[  c #354F27",
"{  c #235420",
"}  c #375320",
"|  c #56451B",
" . c #49551D",
".. c #425C1E",
"X. c #4C6E17",
"o. c #556D1A",
"O. c #4A402A",
"+. c #55442D",
"@. c #58462C",
"#. c #4D5020",
"$. c #445E21",
"%. c #485F22",
"&. c #575924",
"*. c #5C4931",
"=. c #6B442D",
"-. c #73442E",
";. c #784E36",
":. c #695336",
">. c #6D5C37",
",. c #735034",
"<. c #795836",
"1. c #466120",
"2. c #4B6522",
"3. c #4D6923",
"4. c #506523",
"5. c #516D25",
"6. c #5D6E27",
"7. c #497125",
"8. c #567227",
"9. c #5A7427",
"0. c #5E7A26",
"q. c #5B7529",
"w. c #5C7B2A",
"e. c #7F6628",
"r. c #627329",
"t. c #617E2B",
"y. c #766939",
"u. c #7E7042",
"i. c #A11D19",
"p. c #86533A",
"a. c #815E3B",
"s. c #8C583E",
"d. c #BE502A",
"f. c #85663C",
"g. c #94613A",
"h. c #85723B",
"j. c #955B43",
"k. c #8A6641",
"l. c #9F6349",
"z. c #997948",
"x. c #A17249",
"c. c #65832D",
"v. c #6A862F",
"b. c #6A882F",
"n. c #75852D",
"m. c #71912B",
"M. c #698730",
"N. c #6C8B30",
"B. c #728E32",
"V. c #7B8D32",
"C. c #699934",
"Z. c #749233",
"A. c #799535",
"S. c #7D9A36",
"D. c #7CA338",
"F. c #858A32",
"G. c #829535",
"H. c #839B37",
"J. c #8A9836",
"K. c #829E38",
"L. c #8A9F39",
"P. c #919E39",
"I. c #A38E37",
"U. c #82A032",
"Y. c #85A239",
"T. c #8BA53B",
"R. c #8EA93C",
"E. c #91A63C",
"W. c #94AB3E",
"Q. c #9AAD3E",
"!. c #8AB23E",
"~. c #95B03F",
"^. c #9BB03F",
"/. c #8F804C",
"(. c #AC884E",
"). c #9CAF40",
"_. c #9BB240",
"`. c #96AD57",
"'. c #AAAE42",
"]. c #A3B541",
"[. c #A8B743",
"{. c #A6B943",
"}. c #ABB943",
"|. c #B2BE45",
" X c #849861",
".X c #9BAE6B",
"XX c #C38F5C",
"oX c #C99A5F",
"OX c #B5C246",
"+X c #B9C147",
"@X c #BBC548",
"#X c #BFCB4A",
"$X c #BCD049",
"%X c #C0C748",
"&X c #C2CA49",
"*X c #CCD84F",
"=X c #D4D94F",
"-X c #DBE152",
";X c #DAE09E",
":X c #E3E3D5",
/* pixels */
"T T E ^ ! _ u T T T T ( E E E T T T ! ~ E E T T ( ( T T T T T T T T T T T T T T T T T T T E ^ ! T u T T T ( ( ! E T T T E ! ! E ",
"E E E E ! _ u T T T T u E E T T T E ! E T T T T T T T T T T T T T T T T T T T T _ E E E E E E ! _ u T T T ( u E E T T T E ! E E ",
"/ ^ ! T ! _ u E T E E T T T T T T T T T T T T T T T T T T T T T T T T T T T T T T E ^ ^ ^ ! E ! T u E T T E T T T T T T T T T E ",
"T E ~ ! E T T E ! E E E T T T T T T T T T T T T T T T T T T T T T T T T T T T T ( _ ( _ E ~ E E T E E ! ! E T T T T T T T T T T ",
"E E E ~ E T E ! ~ E ( T T T T T T T T T E E T T T T T T E ! E T T T E E E T T T E ~ ! E T ! ! T T E ~ ! E _ T T T T T T T T T E ",
"~ ! E E E T E E ! _ ( E T _ T T T T T T ! ! T T T T T T T ! ! W T E ~ W E T T T ! ^ / ^ E T ! T T T E ! _ ( E _ T T T T T T E E ",
"~ ~ ! T T T T T T E ! ! ( u T T T T T T T T T T T T T T U A G A S S J J K U T T _ E / ~ ~ ! T T T T T E E ~ ! u u E T T T T T T ",
"~ ~ ! T T T T T E ! ! u ( T T T T T T T T T T T T T T : K q.M.N.N.G.H.H.K.P : E ( _ ~ ~ ~ E T T T T T E ! E u _ T T E T T T T T ",
"_ T E ! E T ( T E E T _ _ T T T T T T T T T T T T R U L q.S.T.R.^.].].{.OXH.P w R ( ( ( T ! E ! ( ( T E E E ( T T T T T T T T T ",
"u ( E ! ! _ u T T E T T T T T T T T T T T T T T T U J 8.S.Y.A.T.^.W.Q.[.&X&XH.L U R u u ( E ~ ! ( u T T T T T T T T T T T T T T ",
"T T E E E T T T T T T T T T T T T T T T T T T T V L w.c.N.D.S.T.).W.[.&X&X&X|.L.L : ( T T E ! T E T T T T T T T T T T T T T T T ",
"T T T E T T T T T T T T T T T T T T T T T T T T > P c.c.M.B.S.T.T.Q.].|.&X&X&XOXG.} : T T T T T T T T T T T T T T T T T T T T T ",
"T T T T T T T T T T T T T T T T T T T T T T T ~ V Z ..8.c.c.Z.A.H.R.E.).OX+X+X&X&XH.K U R T T T T T T T T T T T T T T T T T T T ",
"T T T T T T T T T T T T T T T T T T T T T T T ~ D ; Z I q.c.c.N.K.S.T.).Q.W.[.@X&XOXL.P : T T T T T T T T T T T T T T T T T T T ",
"T T T T T T T T T E E T T T T T T T T T T T R : 9.P.v.0.8.5.w.b.B.S.T.T.Y.W.[.OX%X=X#X..: T T T T T T T E T T T T T T T T T T T ",
"T T T T T T _ u E ! E T T E E E T T T T T T s %.].*X^.H.t.5.q.w.c.Z.A.Z.Z.G.B.b.{.+XG.[ U T T T T ( ( E ! E T T T E ! E T T T T ",
"T T T T T T T ( T E ! E E T T E E T T T E V I E.].T.H.Y.Z.c.3.8.c.c.c.c.c.q.P Z G.V.3 R T T T T T _ ( E ! ! E T T T E T T T T ^ ",
"T T T T T T T T T E ! ! E T T T T T T T ~ Q { 1.I 8.T.A.c.3.3.3.8.t.c.c.Z.C.e.i.c 7.c.D q T T T T T T T E ! ! T T T T T T T ( ^ ",
"T T T T T T T T T T T T T T T T T T T T T ! Q - 3 P 9.0.5.2.3.2.3.w.M.Z.T.!.I.d.| c.+XV.} U T T T T T T T T T T T T T T T T T T ",
"T T T T T T T T T T T T T T T T T T T T T T E Z ..$.3 ..3.3.3.2.3.c.Z.Y.W._.R.D.S.^.&X=XG.3 T T T T T T T T T T T T T T T T T T ",
"T T T T T T T T T T T T _ E ! T T T T T T T T Y F L 1.3.4.3.3.2.5.c.M.N.Y.W.Q.Y.D.T.}.-XJ.3 T T T T T T T T T T ! ! T T T T T T ",
"T T T T T T T T E E E E T ! ^ E T T T T T T T T : 3 P K $.5.3.3.3.8.w.c.A.U.OX;X`.m.H.G.%.U T T T T T T T E T T ! ! T T T T T T ",
"T T T T T T T T T E ^ ! E E E u T T T T T T T T F K S A K 2.2.3.3.3.9.N.S.m..X:X XX.8.Z : E T T T T T T ^ ^ ! _ E E u ( T T T T ",
"T E T T T T T T T ( _ ! ! E T T T T T T T T Y ; 8.A.B.b.} 3 X.5.5.w.c.N.S.M.$.[ Z Z S Y T T T T T T T T ( ( ! ! E T ( T T T T T ",
"T T T T T T T ^ ! E _ E ! E E T T T T T T Y D 5.S._.W.E.b.I K J P 8.b.N.B.M.0.o.n.6.; R E T T T T E ! ^ E _ E ! ! ( T T T T T T ",
"T T T T T T T ^ ^ ^ ^ _ E E E T T T T T R D 2.Y.].]._.].W.b.L ; A I 3.q.c.Z.T.].*XJ.; Y T T T T T _ ^ ^ ^ ! E E E T T T T T T T ",
"T T T T T T T _ ^ / ^ ^ E T T T T T T R > 5.Y.W.OXOXQ.Q.E.A.5.1.1.A ; K c.M.Z.Y.W.c.3 Y T T T T T T E ^ ^ ^ ! T T T T T T ( T T ",
"T T T T T ! ^ E E E ^ E ! E T T E ~ ^ T $ 8._.).[.{.]._.T.S.B.c.8.P K P L P I 1.1.L U T T T T T ^ ! ! E ! ^ ! ! E T T ! ! ^ T T ",
"T T T T ( _ _ ^ E E E ! ~ E T T ! ~ W U K t.T.R.Q.E.B.t.b.K.R.K.b.w.w.3.A 3 - : : U T T T T T ( _ _ ~ E E ! ! ! E T T ! ! ! T T ",
"T T T T ( u u E ! E E E ! ! T T E E q J w.A.Y.S._.V.Z # 1.Y.Q.R.S.H.Z.w.3.L D T T T T T T T T u u u E ! E T ! ! E T T ! E T T T ",
"T T T T ( ( u u T E T T E E E T T T U 3 w.N.Z.T.t.P P P 3.N.Y.W.W.~.T.N.t.L > R T T T T T T T T ( u ( _ T T T ^ E T T T T T T T ",
"T T T T T T ( ^ ~ E T T E E T T T U F X.w.M.M.w.A 3 5.5.9.c.N.K.Q.].^.T.A...> T T T T T T T _ _ ( _ ^ E T T T T T T T T T T T T ",
"T T T T T T E ! ! E T T T T T T ( Z 1.N.c.b.5.Z 3 K 3.1.5.c.c.N.H.T.Q.E.H.$.: T T T T T T T T T T E ~ ! T T T T T T T T T T T T ",
"T T T T T T T T T T T T T T T T _ 3 $.N.A.3.> R > K 5.5.3.8.t.N.b.w.q.5.P ' T T T T T T T T T T T T T T T T T T E E T T T T T T ",
"T T T T T T T T T T T T T E ~ T T Z X.Z.W.B.P Y w D P 3.5.3.9.w.q.9.w.3.3 U T T T T T T T T T T T T T T T T T T E ! _ T T T T T ",
"E T T T T T T T T T T T T E T T T Z 8.R.W.OXL.A Q W 3 ..2.1.$...1.9.t.5.Z Y T T E ! ! T T T T T T T T T T T T T E E T T T T T T ",
"E T E E T T T T T T T T T T T T T Z t.}.W.$X'.c W E Z 1 . . < .   < < 1 R R _ R E W ! E T T T T T T T T T T T T T T T T T T T T ",
"! E T T T T T T T T T T T T T T T U L n.OX'.h.p.b a 4 2 O 2 a b +.M *.O.0 t ) _ T T ! ! E T T T T T T T T T T T T T T T T T T E ",
"E E T T T T T E T T T T T T T T T T Y ] Q.y.v s.p.=.B B N n M :.y.y./.u.X 9 ) ( T ( u E E T T T T T T T T T T T T T T T T T T E ",
"E E T T T T T T T T T T T T T T T T T R G z l l (.oXj.l.;.k k m +.b >.>.o r ) i i u _ E E T T T T T T T T T T T T T T T T E T ! ",
"T T T T T T T T T E E E T T T T T T u i t d g g :.g.B B B j.s.=.h h +.@.. 9 i i i i u T T T T T T T T T E E E E T T T T _ ( T E ",
"T T E E T T T T T E ! ! E T T T T u i i i ) ( _ f 2 n x -.j.XXx.N -.N j O d ) i i i i ( _ E E T T T T T E ! ! E E T T T u ( E T ",
"T T E ^ E T T T T ( u ! ~ ! T T T T R ) ) ) i p p y 3 9.&.k k.z.a.k.@.O h s i i i i i R _ E ^ E T T T T ( ( ! ! E T T T T E ! ! ",
"T T E ! ! E u T T ( ( ( ! E T T T ) ) ) ) i i p 6 5 + %.6.#.n <.(.z.f.,.;.n 5 8 i i i i R E ~ ! T u T T _ ( ( E E T T T E ! ! E ",
"! ! E E ! T u T T T T ( E T T T _ i g ) i i 8 6 % =  .6.t.9., n h.<.,.,.,.c X 6 6 6 ) ) R E ! ! _ u T T T T ( E E T T T E E E E ",
"/ ! ! E E T ( T T T E T T T T T _ i ) i i e 6 6 %  .F.n.r.4.3 @ O O 2 o o O 1 6 6 6 t ` ! E T ! ( u T T T E T T T T T T T T T T ",
"_ E ~ ! T T T ! ~ ! ! T T T T T E i i i i 6 6 6 6 = H C 3 4 = 5 9 @ # , , & 6 6 6 5 7 i ` ~ ! T E E ! ! ! E T T T T T T T T T T ",
"! E E ~ E T T ! ~ _ ( T T T T T T u i i i e 6 6 6 * % % = = 6 6 6 * = = = % 6 6 0 0 t ) ) E ! T T E ! ! E ( T T T T T T T T E E ",
"! ! E E T T T E ! E _ E ( ( T T T T ) i i ) e 5 6 5 6 6 5 0 0 6 6 6 0 8 6 6 6 6 0 e _ ^ E E E T T E E E _ ( E ( ( T T T T T T E ",
"! ! ! E T T T T T E ! ! ( ( T T T T ) i i i i y e 6 6 6 7 7 6 0 6 6 6 7 7 6 6 8 y i ` ! ! ! T T T T T E ! ! ! ( ( T T T T T T T ",
"! ! ! T T T T T E ! ! u ( T T T T T R u i g ) i i i t e 9 8 6 6 0 0 8 8 e t ) i p i _ ! ! ! T T T E T E ! E u T T T T T T T T T ",
"( _ E E ! _ u T E E E ( T T T T T T T T u i ) i i i i i i i i u ) u ) g ` ) i ) i u ( ( T E ! ! T u E E E T ( T T T T T T T T T ",
"( ( E ! E E ( T T T T T T T T T T T T T T T ( u i i i i i i i i i i i i ) i i ( _ ( ( u ( E ! ! T u T T T T T T T T T T T T T T ",
"T T E ! T T T T T T T T T T T T T T T T T T T T T T T T T T T T T T T T T T ( T T T T T T E ! T T T T T T T T T T T T T T T T T ",
"T T T T T T T T T T T T T T T T T T T T T T T T T T T T ~ ~ E T T T T T T T T T T T T T T T E T T T T T T T T T E T T T T T T T ",
"T T T T T T T T T T T T T T T T T T T T T T _ ^ ~ ! E T ! ~ E ( ( T T T T T T T T T T T T T T T T T T T T T T T T T T T T T T T ",
"T T T T T T T T T T T T T T T T T T T T T T _ E / / ! E E ! E u ( T T T T T T T T T T T T T T T T T T T T T T T T T T T T T T T ",
"T T T T T T T ( T T T T T T T E T T T T T T ( u ! ^ ! ! E T ! ( T T T T T T T T T T T T T T T T T T T T E T T T T T T T T T T T ",
"T T T T T T T u E ! ! T T T T ! E T T T T T u u ( E ! ! E T E ! ~ ~ ! T T T T T T T T T T T T T T ( u E ! ! T T T E ^ T T T T T ",
"T T T T T T T ( E ! ! E E T T E T T T E ! ! ! E T T E ~ E T E ! ~ E ( u ( T T T T T T T T T T T T T ( _ ! ! ! T T T T T T T T ^ ",
"T T T T T T T T T T ! E T T T T T T T T ! / / ~ E T T E T E ~ ~ _ ( u ( T T T T T T E T T T T T T T T T T ! E T T T T T T T T ! ",
"T T T T T T T T T T T T T T T T T T T T E E / ~ ~ ! T T T E ~ ! ( u u ( T ( T T T T T T T T T T T T T T T T T T T T T T T T T T ",
"T T T E T T T T T T T T T T T T T T T T T T E ~ ! ! T T T T _ E _ ~ _ ( u ( T T T T T T T T T T T T T T T T T T T T T T T T T T ",
"T T T T T T T T T T T T T ! ! E T T T T T T T T E T T ! ! E T _ ! ! ( u ( T T T T T T T T T T T T T T T T T T T ! ! T T T T T T "
};
